<?xml version="1.0" encoding="utf-8"?>
<svg xmlns="http://www.w3.org/2000/svg" xmlns:xlink="http://www.w3.org/1999/xlink" width="600" height="400" viewBox="0 0 2400 1600">
<defs>
  <clipPath id="clip510">
    <rect x="0" y="0" width="2400" height="1600"/>
  </clipPath>
</defs>
<path clip-path="url(#clip510)" d="M0 1600 L2400 1600 L2400 0 L0 0  Z" fill="#ffffff" fill-rule="evenodd" fill-opacity="1"/>
<defs>
  <clipPath id="clip511">
    <rect x="480" y="0" width="1681" height="1600"/>
  </clipPath>
</defs>
<path clip-path="url(#clip510)" d="M219.866 1423.18 L1122.84 1423.18 L1122.84 47.2441 L219.866 47.2441  Z" fill="#ffffff" fill-rule="evenodd" fill-opacity="1"/>
<defs>
  <clipPath id="clip512">
    <rect x="219" y="47" width="904" height="1377"/>
  </clipPath>
</defs>
<polyline clip-path="url(#clip512)" style="stroke:#000000; stroke-linecap:round; stroke-linejoin:round; stroke-width:2; stroke-opacity:0.1; fill:none" points="228.037,1423.18 228.037,47.2441 "/>
<polyline clip-path="url(#clip512)" style="stroke:#000000; stroke-linecap:round; stroke-linejoin:round; stroke-width:2; stroke-opacity:0.1; fill:none" points="401.886,1423.18 401.886,47.2441 "/>
<polyline clip-path="url(#clip512)" style="stroke:#000000; stroke-linecap:round; stroke-linejoin:round; stroke-width:2; stroke-opacity:0.1; fill:none" points="575.735,1423.18 575.735,47.2441 "/>
<polyline clip-path="url(#clip512)" style="stroke:#000000; stroke-linecap:round; stroke-linejoin:round; stroke-width:2; stroke-opacity:0.1; fill:none" points="749.584,1423.18 749.584,47.2441 "/>
<polyline clip-path="url(#clip512)" style="stroke:#000000; stroke-linecap:round; stroke-linejoin:round; stroke-width:2; stroke-opacity:0.1; fill:none" points="923.432,1423.18 923.432,47.2441 "/>
<polyline clip-path="url(#clip512)" style="stroke:#000000; stroke-linecap:round; stroke-linejoin:round; stroke-width:2; stroke-opacity:0.1; fill:none" points="1097.28,1423.18 1097.28,47.2441 "/>
<polyline clip-path="url(#clip510)" style="stroke:#000000; stroke-linecap:round; stroke-linejoin:round; stroke-width:4; stroke-opacity:1; fill:none" points="219.866,1423.18 1122.84,1423.18 "/>
<polyline clip-path="url(#clip510)" style="stroke:#000000; stroke-linecap:round; stroke-linejoin:round; stroke-width:4; stroke-opacity:1; fill:none" points="228.037,1423.18 228.037,1404.28 "/>
<polyline clip-path="url(#clip510)" style="stroke:#000000; stroke-linecap:round; stroke-linejoin:round; stroke-width:4; stroke-opacity:1; fill:none" points="401.886,1423.18 401.886,1404.28 "/>
<polyline clip-path="url(#clip510)" style="stroke:#000000; stroke-linecap:round; stroke-linejoin:round; stroke-width:4; stroke-opacity:1; fill:none" points="575.735,1423.18 575.735,1404.28 "/>
<polyline clip-path="url(#clip510)" style="stroke:#000000; stroke-linecap:round; stroke-linejoin:round; stroke-width:4; stroke-opacity:1; fill:none" points="749.584,1423.18 749.584,1404.28 "/>
<polyline clip-path="url(#clip510)" style="stroke:#000000; stroke-linecap:round; stroke-linejoin:round; stroke-width:4; stroke-opacity:1; fill:none" points="923.432,1423.18 923.432,1404.28 "/>
<polyline clip-path="url(#clip510)" style="stroke:#000000; stroke-linecap:round; stroke-linejoin:round; stroke-width:4; stroke-opacity:1; fill:none" points="1097.28,1423.18 1097.28,1404.28 "/>
<path clip-path="url(#clip510)" d="M228.037 1454.1 Q224.426 1454.1 222.597 1457.66 Q220.792 1461.2 220.792 1468.33 Q220.792 1475.44 222.597 1479.01 Q224.426 1482.55 228.037 1482.55 Q231.671 1482.55 233.477 1479.01 Q235.306 1475.44 235.306 1468.33 Q235.306 1461.2 233.477 1457.66 Q231.671 1454.1 228.037 1454.1 M228.037 1450.39 Q233.847 1450.39 236.903 1455 Q239.982 1459.58 239.982 1468.33 Q239.982 1477.06 236.903 1481.67 Q233.847 1486.25 228.037 1486.25 Q222.227 1486.25 219.148 1481.67 Q216.093 1477.06 216.093 1468.33 Q216.093 1459.58 219.148 1455 Q222.227 1450.39 228.037 1450.39 Z" fill="#000000" fill-rule="nonzero" fill-opacity="1" /><path clip-path="url(#clip510)" d="M346.412 1481.64 L354.051 1481.64 L354.051 1455.28 L345.74 1456.95 L345.74 1452.69 L354.004 1451.02 L358.68 1451.02 L358.68 1481.64 L366.319 1481.64 L366.319 1485.58 L346.412 1485.58 L346.412 1481.64 Z" fill="#000000" fill-rule="nonzero" fill-opacity="1" /><path clip-path="url(#clip510)" d="M385.763 1454.1 Q382.152 1454.1 380.324 1457.66 Q378.518 1461.2 378.518 1468.33 Q378.518 1475.44 380.324 1479.01 Q382.152 1482.55 385.763 1482.55 Q389.398 1482.55 391.203 1479.01 Q393.032 1475.44 393.032 1468.33 Q393.032 1461.2 391.203 1457.66 Q389.398 1454.1 385.763 1454.1 M385.763 1450.39 Q391.574 1450.39 394.629 1455 Q397.708 1459.58 397.708 1468.33 Q397.708 1477.06 394.629 1481.67 Q391.574 1486.25 385.763 1486.25 Q379.953 1486.25 376.875 1481.67 Q373.819 1477.06 373.819 1468.33 Q373.819 1459.58 376.875 1455 Q379.953 1450.39 385.763 1450.39 Z" fill="#000000" fill-rule="nonzero" fill-opacity="1" /><path clip-path="url(#clip510)" d="M415.925 1454.1 Q412.314 1454.1 410.485 1457.66 Q408.68 1461.2 408.68 1468.33 Q408.68 1475.44 410.485 1479.01 Q412.314 1482.55 415.925 1482.55 Q419.56 1482.55 421.365 1479.01 Q423.194 1475.44 423.194 1468.33 Q423.194 1461.2 421.365 1457.66 Q419.56 1454.1 415.925 1454.1 M415.925 1450.39 Q421.735 1450.39 424.791 1455 Q427.87 1459.58 427.87 1468.33 Q427.87 1477.06 424.791 1481.67 Q421.735 1486.25 415.925 1486.25 Q410.115 1486.25 407.036 1481.67 Q403.981 1477.06 403.981 1468.33 Q403.981 1459.58 407.036 1455 Q410.115 1450.39 415.925 1450.39 Z" fill="#000000" fill-rule="nonzero" fill-opacity="1" /><path clip-path="url(#clip510)" d="M446.087 1454.1 Q442.476 1454.1 440.647 1457.66 Q438.842 1461.2 438.842 1468.33 Q438.842 1475.44 440.647 1479.01 Q442.476 1482.55 446.087 1482.55 Q449.721 1482.55 451.527 1479.01 Q453.356 1475.44 453.356 1468.33 Q453.356 1461.2 451.527 1457.66 Q449.721 1454.1 446.087 1454.1 M446.087 1450.39 Q451.897 1450.39 454.953 1455 Q458.032 1459.58 458.032 1468.33 Q458.032 1477.06 454.953 1481.67 Q451.897 1486.25 446.087 1486.25 Q440.277 1486.25 437.198 1481.67 Q434.143 1477.06 434.143 1468.33 Q434.143 1459.58 437.198 1455 Q440.277 1450.39 446.087 1450.39 Z" fill="#000000" fill-rule="nonzero" fill-opacity="1" /><path clip-path="url(#clip510)" d="M524.346 1481.64 L540.666 1481.64 L540.666 1485.58 L518.721 1485.58 L518.721 1481.64 Q521.383 1478.89 525.967 1474.26 Q530.573 1469.61 531.754 1468.27 Q533.999 1465.74 534.879 1464.01 Q535.781 1462.25 535.781 1460.56 Q535.781 1457.8 533.837 1456.07 Q531.916 1454.33 528.814 1454.33 Q526.615 1454.33 524.161 1455.09 Q521.73 1455.86 518.953 1457.41 L518.953 1452.69 Q521.777 1451.55 524.23 1450.97 Q526.684 1450.39 528.721 1450.39 Q534.092 1450.39 537.286 1453.08 Q540.48 1455.77 540.48 1460.26 Q540.48 1462.39 539.67 1464.31 Q538.883 1466.2 536.777 1468.8 Q536.198 1469.47 533.096 1472.69 Q529.994 1475.88 524.346 1481.64 Z" fill="#000000" fill-rule="nonzero" fill-opacity="1" /><path clip-path="url(#clip510)" d="M560.48 1454.1 Q556.869 1454.1 555.04 1457.66 Q553.235 1461.2 553.235 1468.33 Q553.235 1475.44 555.04 1479.01 Q556.869 1482.55 560.48 1482.55 Q564.115 1482.55 565.92 1479.01 Q567.749 1475.44 567.749 1468.33 Q567.749 1461.2 565.92 1457.66 Q564.115 1454.1 560.48 1454.1 M560.48 1450.39 Q566.29 1450.39 569.346 1455 Q572.425 1459.58 572.425 1468.33 Q572.425 1477.06 569.346 1481.67 Q566.29 1486.25 560.48 1486.25 Q554.67 1486.25 551.591 1481.67 Q548.536 1477.06 548.536 1468.33 Q548.536 1459.58 551.591 1455 Q554.67 1450.39 560.48 1450.39 Z" fill="#000000" fill-rule="nonzero" fill-opacity="1" /><path clip-path="url(#clip510)" d="M590.642 1454.1 Q587.031 1454.1 585.202 1457.66 Q583.397 1461.2 583.397 1468.33 Q583.397 1475.44 585.202 1479.01 Q587.031 1482.55 590.642 1482.55 Q594.276 1482.55 596.082 1479.01 Q597.911 1475.44 597.911 1468.33 Q597.911 1461.2 596.082 1457.66 Q594.276 1454.1 590.642 1454.1 M590.642 1450.39 Q596.452 1450.39 599.508 1455 Q602.587 1459.58 602.587 1468.33 Q602.587 1477.06 599.508 1481.67 Q596.452 1486.25 590.642 1486.25 Q584.832 1486.25 581.753 1481.67 Q578.698 1477.06 578.698 1468.33 Q578.698 1459.58 581.753 1455 Q584.832 1450.39 590.642 1450.39 Z" fill="#000000" fill-rule="nonzero" fill-opacity="1" /><path clip-path="url(#clip510)" d="M620.804 1454.1 Q617.193 1454.1 615.364 1457.66 Q613.559 1461.2 613.559 1468.33 Q613.559 1475.44 615.364 1479.01 Q617.193 1482.55 620.804 1482.55 Q624.438 1482.55 626.244 1479.01 Q628.073 1475.44 628.073 1468.33 Q628.073 1461.2 626.244 1457.66 Q624.438 1454.1 620.804 1454.1 M620.804 1450.39 Q626.614 1450.39 629.67 1455 Q632.748 1459.58 632.748 1468.33 Q632.748 1477.06 629.67 1481.67 Q626.614 1486.25 620.804 1486.25 Q614.994 1486.25 611.915 1481.67 Q608.86 1477.06 608.86 1468.33 Q608.86 1459.58 611.915 1455 Q614.994 1450.39 620.804 1450.39 Z" fill="#000000" fill-rule="nonzero" fill-opacity="1" /><path clip-path="url(#clip510)" d="M708.264 1466.95 Q711.621 1467.66 713.496 1469.93 Q715.394 1472.2 715.394 1475.53 Q715.394 1480.65 711.876 1483.45 Q708.357 1486.25 701.876 1486.25 Q699.7 1486.25 697.385 1485.81 Q695.093 1485.39 692.64 1484.54 L692.64 1480.02 Q694.584 1481.16 696.899 1481.74 Q699.214 1482.32 701.737 1482.32 Q706.135 1482.32 708.426 1480.58 Q710.741 1478.84 710.741 1475.53 Q710.741 1472.48 708.588 1470.77 Q706.459 1469.03 702.639 1469.03 L698.612 1469.03 L698.612 1465.19 L702.825 1465.19 Q706.274 1465.19 708.102 1463.82 Q709.931 1462.43 709.931 1459.84 Q709.931 1457.18 708.033 1455.77 Q706.158 1454.33 702.639 1454.33 Q700.718 1454.33 698.519 1454.75 Q696.32 1455.16 693.681 1456.04 L693.681 1451.88 Q696.343 1451.14 698.658 1450.77 Q700.996 1450.39 703.056 1450.39 Q708.38 1450.39 711.482 1452.83 Q714.584 1455.23 714.584 1459.35 Q714.584 1462.22 712.94 1464.21 Q711.297 1466.18 708.264 1466.95 Z" fill="#000000" fill-rule="nonzero" fill-opacity="1" /><path clip-path="url(#clip510)" d="M734.26 1454.1 Q730.649 1454.1 728.82 1457.66 Q727.014 1461.2 727.014 1468.33 Q727.014 1475.44 728.82 1479.01 Q730.649 1482.55 734.26 1482.55 Q737.894 1482.55 739.699 1479.01 Q741.528 1475.44 741.528 1468.33 Q741.528 1461.2 739.699 1457.66 Q737.894 1454.1 734.26 1454.1 M734.26 1450.39 Q740.07 1450.39 743.125 1455 Q746.204 1459.58 746.204 1468.33 Q746.204 1477.06 743.125 1481.67 Q740.07 1486.25 734.26 1486.25 Q728.45 1486.25 725.371 1481.67 Q722.315 1477.06 722.315 1468.33 Q722.315 1459.58 725.371 1455 Q728.45 1450.39 734.26 1450.39 Z" fill="#000000" fill-rule="nonzero" fill-opacity="1" /><path clip-path="url(#clip510)" d="M764.422 1454.1 Q760.81 1454.1 758.982 1457.66 Q757.176 1461.2 757.176 1468.33 Q757.176 1475.44 758.982 1479.01 Q760.81 1482.55 764.422 1482.55 Q768.056 1482.55 769.861 1479.01 Q771.69 1475.44 771.69 1468.33 Q771.69 1461.2 769.861 1457.66 Q768.056 1454.1 764.422 1454.1 M764.422 1450.39 Q770.232 1450.39 773.287 1455 Q776.366 1459.58 776.366 1468.33 Q776.366 1477.06 773.287 1481.67 Q770.232 1486.25 764.422 1486.25 Q758.611 1486.25 755.533 1481.67 Q752.477 1477.06 752.477 1468.33 Q752.477 1459.58 755.533 1455 Q758.611 1450.39 764.422 1450.39 Z" fill="#000000" fill-rule="nonzero" fill-opacity="1" /><path clip-path="url(#clip510)" d="M794.583 1454.1 Q790.972 1454.1 789.144 1457.66 Q787.338 1461.2 787.338 1468.33 Q787.338 1475.44 789.144 1479.01 Q790.972 1482.55 794.583 1482.55 Q798.218 1482.55 800.023 1479.01 Q801.852 1475.44 801.852 1468.33 Q801.852 1461.2 800.023 1457.66 Q798.218 1454.1 794.583 1454.1 M794.583 1450.39 Q800.394 1450.39 803.449 1455 Q806.528 1459.58 806.528 1468.33 Q806.528 1477.06 803.449 1481.67 Q800.394 1486.25 794.583 1486.25 Q788.773 1486.25 785.695 1481.67 Q782.639 1477.06 782.639 1468.33 Q782.639 1459.58 785.695 1455 Q788.773 1450.39 794.583 1450.39 Z" fill="#000000" fill-rule="nonzero" fill-opacity="1" /><path clip-path="url(#clip510)" d="M881.442 1455.09 L869.636 1473.54 L881.442 1473.54 L881.442 1455.09 M880.215 1451.02 L886.095 1451.02 L886.095 1473.54 L891.025 1473.54 L891.025 1477.43 L886.095 1477.43 L886.095 1485.58 L881.442 1485.58 L881.442 1477.43 L865.84 1477.43 L865.84 1472.92 L880.215 1451.02 Z" fill="#000000" fill-rule="nonzero" fill-opacity="1" /><path clip-path="url(#clip510)" d="M908.757 1454.1 Q905.146 1454.1 903.317 1457.66 Q901.511 1461.2 901.511 1468.33 Q901.511 1475.44 903.317 1479.01 Q905.146 1482.55 908.757 1482.55 Q912.391 1482.55 914.196 1479.01 Q916.025 1475.44 916.025 1468.33 Q916.025 1461.2 914.196 1457.66 Q912.391 1454.1 908.757 1454.1 M908.757 1450.39 Q914.567 1450.39 917.622 1455 Q920.701 1459.58 920.701 1468.33 Q920.701 1477.06 917.622 1481.67 Q914.567 1486.25 908.757 1486.25 Q902.946 1486.25 899.868 1481.67 Q896.812 1477.06 896.812 1468.33 Q896.812 1459.58 899.868 1455 Q902.946 1450.39 908.757 1450.39 Z" fill="#000000" fill-rule="nonzero" fill-opacity="1" /><path clip-path="url(#clip510)" d="M938.919 1454.1 Q935.307 1454.1 933.479 1457.66 Q931.673 1461.2 931.673 1468.33 Q931.673 1475.44 933.479 1479.01 Q935.307 1482.55 938.919 1482.55 Q942.553 1482.55 944.358 1479.01 Q946.187 1475.44 946.187 1468.33 Q946.187 1461.2 944.358 1457.66 Q942.553 1454.1 938.919 1454.1 M938.919 1450.39 Q944.729 1450.39 947.784 1455 Q950.863 1459.58 950.863 1468.33 Q950.863 1477.06 947.784 1481.67 Q944.729 1486.25 938.919 1486.25 Q933.108 1486.25 930.03 1481.67 Q926.974 1477.06 926.974 1468.33 Q926.974 1459.58 930.03 1455 Q933.108 1450.39 938.919 1450.39 Z" fill="#000000" fill-rule="nonzero" fill-opacity="1" /><path clip-path="url(#clip510)" d="M969.08 1454.1 Q965.469 1454.1 963.641 1457.66 Q961.835 1461.2 961.835 1468.33 Q961.835 1475.44 963.641 1479.01 Q965.469 1482.55 969.08 1482.55 Q972.715 1482.55 974.52 1479.01 Q976.349 1475.44 976.349 1468.33 Q976.349 1461.2 974.52 1457.66 Q972.715 1454.1 969.08 1454.1 M969.08 1450.39 Q974.891 1450.39 977.946 1455 Q981.025 1459.58 981.025 1468.33 Q981.025 1477.06 977.946 1481.67 Q974.891 1486.25 969.08 1486.25 Q963.27 1486.25 960.192 1481.67 Q957.136 1477.06 957.136 1468.33 Q957.136 1459.58 960.192 1455 Q963.27 1450.39 969.08 1450.39 Z" fill="#000000" fill-rule="nonzero" fill-opacity="1" /><path clip-path="url(#clip510)" d="M1041.82 1451.02 L1060.18 1451.02 L1060.18 1454.96 L1046.1 1454.96 L1046.1 1463.43 Q1047.12 1463.08 1048.14 1462.92 Q1049.16 1462.73 1050.18 1462.73 Q1055.96 1462.73 1059.34 1465.9 Q1062.72 1469.08 1062.72 1474.49 Q1062.72 1480.07 1059.25 1483.17 Q1055.78 1486.25 1049.46 1486.25 Q1047.28 1486.25 1045.01 1485.88 Q1042.77 1485.51 1040.36 1484.77 L1040.36 1480.07 Q1042.44 1481.2 1044.67 1481.76 Q1046.89 1482.32 1049.36 1482.32 Q1053.37 1482.32 1055.71 1480.21 Q1058.05 1478.1 1058.05 1474.49 Q1058.05 1470.88 1055.71 1468.77 Q1053.37 1466.67 1049.36 1466.67 Q1047.49 1466.67 1045.61 1467.08 Q1043.76 1467.5 1041.82 1468.38 L1041.82 1451.02 Z" fill="#000000" fill-rule="nonzero" fill-opacity="1" /><path clip-path="url(#clip510)" d="M1081.93 1454.1 Q1078.32 1454.1 1076.49 1457.66 Q1074.69 1461.2 1074.69 1468.33 Q1074.69 1475.44 1076.49 1479.01 Q1078.32 1482.55 1081.93 1482.55 Q1085.57 1482.55 1087.37 1479.01 Q1089.2 1475.44 1089.2 1468.33 Q1089.2 1461.2 1087.37 1457.66 Q1085.57 1454.1 1081.93 1454.1 M1081.93 1450.39 Q1087.74 1450.39 1090.8 1455 Q1093.88 1459.58 1093.88 1468.33 Q1093.88 1477.06 1090.8 1481.67 Q1087.74 1486.25 1081.93 1486.25 Q1076.12 1486.25 1073.05 1481.67 Q1069.99 1477.06 1069.99 1468.33 Q1069.99 1459.58 1073.05 1455 Q1076.12 1450.39 1081.93 1450.39 Z" fill="#000000" fill-rule="nonzero" fill-opacity="1" /><path clip-path="url(#clip510)" d="M1112.1 1454.1 Q1108.48 1454.1 1106.66 1457.66 Q1104.85 1461.2 1104.85 1468.33 Q1104.85 1475.44 1106.66 1479.01 Q1108.48 1482.55 1112.1 1482.55 Q1115.73 1482.55 1117.54 1479.01 Q1119.36 1475.44 1119.36 1468.33 Q1119.36 1461.2 1117.54 1457.66 Q1115.73 1454.1 1112.1 1454.1 M1112.1 1450.39 Q1117.91 1450.39 1120.96 1455 Q1124.04 1459.58 1124.04 1468.33 Q1124.04 1477.06 1120.96 1481.67 Q1117.91 1486.25 1112.1 1486.25 Q1106.29 1486.25 1103.21 1481.67 Q1100.15 1477.06 1100.15 1468.33 Q1100.15 1459.58 1103.21 1455 Q1106.29 1450.39 1112.1 1450.39 Z" fill="#000000" fill-rule="nonzero" fill-opacity="1" /><path clip-path="url(#clip510)" d="M1142.26 1454.1 Q1138.65 1454.1 1136.82 1457.66 Q1135.01 1461.2 1135.01 1468.33 Q1135.01 1475.44 1136.82 1479.01 Q1138.65 1482.55 1142.26 1482.55 Q1145.89 1482.55 1147.7 1479.01 Q1149.53 1475.44 1149.53 1468.33 Q1149.53 1461.2 1147.7 1457.66 Q1145.89 1454.1 1142.26 1454.1 M1142.26 1450.39 Q1148.07 1450.39 1151.12 1455 Q1154.2 1459.58 1154.2 1468.33 Q1154.2 1477.06 1151.12 1481.67 Q1148.07 1486.25 1142.26 1486.25 Q1136.45 1486.25 1133.37 1481.67 Q1130.31 1477.06 1130.31 1468.33 Q1130.31 1459.58 1133.37 1455 Q1136.45 1450.39 1142.26 1450.39 Z" fill="#000000" fill-rule="nonzero" fill-opacity="1" /><path clip-path="url(#clip510)" d="M629.847 1545.76 Q631.916 1546.46 633.858 1548.76 Q635.831 1551.05 637.804 1555.06 L644.329 1568.04 L637.422 1568.04 L631.343 1555.85 Q628.988 1551.08 626.76 1549.52 Q624.564 1547.96 620.744 1547.96 L613.742 1547.96 L613.742 1568.04 L607.313 1568.04 L607.313 1520.52 L621.826 1520.52 Q629.975 1520.52 633.985 1523.93 Q637.995 1527.34 637.995 1534.21 Q637.995 1538.7 635.895 1541.66 Q633.826 1544.62 629.847 1545.76 M613.742 1525.81 L613.742 1542.68 L621.826 1542.68 Q626.473 1542.68 628.829 1540.54 Q631.216 1538.38 631.216 1534.21 Q631.216 1530.04 628.829 1527.94 Q626.473 1525.81 621.826 1525.81 L613.742 1525.81 Z" fill="#000000" fill-rule="nonzero" fill-opacity="1" /><path clip-path="url(#clip510)" d="M659.034 1525.81 L659.034 1543.66 L667.118 1543.66 Q671.606 1543.66 674.057 1541.34 Q676.508 1539.02 676.508 1534.72 Q676.508 1530.45 674.057 1528.13 Q671.606 1525.81 667.118 1525.81 L659.034 1525.81 M652.605 1520.52 L667.118 1520.52 Q675.107 1520.52 679.181 1524.15 Q683.287 1527.75 683.287 1534.72 Q683.287 1541.75 679.181 1545.35 Q675.107 1548.95 667.118 1548.95 L659.034 1548.95 L659.034 1568.04 L652.605 1568.04 L652.605 1520.52 Z" fill="#000000" fill-rule="nonzero" fill-opacity="1" /><path clip-path="url(#clip510)" d="M691.913 1520.52 L701.493 1520.52 L713.62 1552.86 L725.81 1520.52 L735.391 1520.52 L735.391 1568.04 L729.12 1568.04 L729.12 1526.32 L716.866 1558.91 L710.405 1558.91 L698.151 1526.32 L698.151 1568.04 L691.913 1568.04 L691.913 1520.52 Z" fill="#000000" fill-rule="nonzero" fill-opacity="1" /><polyline clip-path="url(#clip512)" style="stroke:#000000; stroke-linecap:round; stroke-linejoin:round; stroke-width:2; stroke-opacity:0.1; fill:none" points="219.866,1384.76 1122.84,1384.76 "/>
<polyline clip-path="url(#clip512)" style="stroke:#000000; stroke-linecap:round; stroke-linejoin:round; stroke-width:2; stroke-opacity:0.1; fill:none" points="219.866,1190.2 1122.84,1190.2 "/>
<polyline clip-path="url(#clip512)" style="stroke:#000000; stroke-linecap:round; stroke-linejoin:round; stroke-width:2; stroke-opacity:0.1; fill:none" points="219.866,995.64 1122.84,995.64 "/>
<polyline clip-path="url(#clip512)" style="stroke:#000000; stroke-linecap:round; stroke-linejoin:round; stroke-width:2; stroke-opacity:0.1; fill:none" points="219.866,801.082 1122.84,801.082 "/>
<polyline clip-path="url(#clip512)" style="stroke:#000000; stroke-linecap:round; stroke-linejoin:round; stroke-width:2; stroke-opacity:0.1; fill:none" points="219.866,606.523 1122.84,606.523 "/>
<polyline clip-path="url(#clip512)" style="stroke:#000000; stroke-linecap:round; stroke-linejoin:round; stroke-width:2; stroke-opacity:0.1; fill:none" points="219.866,411.964 1122.84,411.964 "/>
<polyline clip-path="url(#clip512)" style="stroke:#000000; stroke-linecap:round; stroke-linejoin:round; stroke-width:2; stroke-opacity:0.1; fill:none" points="219.866,217.406 1122.84,217.406 "/>
<polyline clip-path="url(#clip510)" style="stroke:#000000; stroke-linecap:round; stroke-linejoin:round; stroke-width:4; stroke-opacity:1; fill:none" points="219.866,1423.18 219.866,47.2441 "/>
<polyline clip-path="url(#clip510)" style="stroke:#000000; stroke-linecap:round; stroke-linejoin:round; stroke-width:4; stroke-opacity:1; fill:none" points="219.866,1384.76 238.764,1384.76 "/>
<polyline clip-path="url(#clip510)" style="stroke:#000000; stroke-linecap:round; stroke-linejoin:round; stroke-width:4; stroke-opacity:1; fill:none" points="219.866,1190.2 238.764,1190.2 "/>
<polyline clip-path="url(#clip510)" style="stroke:#000000; stroke-linecap:round; stroke-linejoin:round; stroke-width:4; stroke-opacity:1; fill:none" points="219.866,995.64 238.764,995.64 "/>
<polyline clip-path="url(#clip510)" style="stroke:#000000; stroke-linecap:round; stroke-linejoin:round; stroke-width:4; stroke-opacity:1; fill:none" points="219.866,801.082 238.764,801.082 "/>
<polyline clip-path="url(#clip510)" style="stroke:#000000; stroke-linecap:round; stroke-linejoin:round; stroke-width:4; stroke-opacity:1; fill:none" points="219.866,606.523 238.764,606.523 "/>
<polyline clip-path="url(#clip510)" style="stroke:#000000; stroke-linecap:round; stroke-linejoin:round; stroke-width:4; stroke-opacity:1; fill:none" points="219.866,411.964 238.764,411.964 "/>
<polyline clip-path="url(#clip510)" style="stroke:#000000; stroke-linecap:round; stroke-linejoin:round; stroke-width:4; stroke-opacity:1; fill:none" points="219.866,217.406 238.764,217.406 "/>
<path clip-path="url(#clip510)" d="M126.691 1370.56 Q123.08 1370.56 121.251 1374.12 Q119.445 1377.66 119.445 1384.79 Q119.445 1391.9 121.251 1395.46 Q123.08 1399.01 126.691 1399.01 Q130.325 1399.01 132.13 1395.46 Q133.959 1391.9 133.959 1384.79 Q133.959 1377.66 132.13 1374.12 Q130.325 1370.56 126.691 1370.56 M126.691 1366.85 Q132.501 1366.85 135.556 1371.46 Q138.635 1376.04 138.635 1384.79 Q138.635 1393.52 135.556 1398.13 Q132.501 1402.71 126.691 1402.71 Q120.88 1402.71 117.802 1398.13 Q114.746 1393.52 114.746 1384.79 Q114.746 1376.04 117.802 1371.46 Q120.88 1366.85 126.691 1366.85 Z" fill="#000000" fill-rule="nonzero" fill-opacity="1" /><path clip-path="url(#clip510)" d="M146.853 1396.16 L151.737 1396.16 L151.737 1402.04 L146.853 1402.04 L146.853 1396.16 Z" fill="#000000" fill-rule="nonzero" fill-opacity="1" /><path clip-path="url(#clip510)" d="M171.922 1370.56 Q168.311 1370.56 166.482 1374.12 Q164.677 1377.66 164.677 1384.79 Q164.677 1391.9 166.482 1395.46 Q168.311 1399.01 171.922 1399.01 Q175.556 1399.01 177.362 1395.46 Q179.19 1391.9 179.19 1384.79 Q179.19 1377.66 177.362 1374.12 Q175.556 1370.56 171.922 1370.56 M171.922 1366.85 Q177.732 1366.85 180.788 1371.46 Q183.866 1376.04 183.866 1384.79 Q183.866 1393.52 180.788 1398.13 Q177.732 1402.71 171.922 1402.71 Q166.112 1402.71 163.033 1398.13 Q159.978 1393.52 159.978 1384.79 Q159.978 1376.04 163.033 1371.46 Q166.112 1366.85 171.922 1366.85 Z" fill="#000000" fill-rule="nonzero" fill-opacity="1" /><path clip-path="url(#clip510)" d="M128.288 1176 Q124.677 1176 122.848 1179.56 Q121.043 1183.1 121.043 1190.23 Q121.043 1197.34 122.848 1200.9 Q124.677 1204.45 128.288 1204.45 Q131.922 1204.45 133.728 1200.9 Q135.556 1197.34 135.556 1190.23 Q135.556 1183.1 133.728 1179.56 Q131.922 1176 128.288 1176 M128.288 1172.29 Q134.098 1172.29 137.154 1176.9 Q140.232 1181.48 140.232 1190.23 Q140.232 1198.96 137.154 1203.57 Q134.098 1208.15 128.288 1208.15 Q122.478 1208.15 119.399 1203.57 Q116.343 1198.96 116.343 1190.23 Q116.343 1181.48 119.399 1176.9 Q122.478 1172.29 128.288 1172.29 Z" fill="#000000" fill-rule="nonzero" fill-opacity="1" /><path clip-path="url(#clip510)" d="M148.45 1201.6 L153.334 1201.6 L153.334 1207.48 L148.45 1207.48 L148.45 1201.6 Z" fill="#000000" fill-rule="nonzero" fill-opacity="1" /><path clip-path="url(#clip510)" d="M167.547 1203.54 L183.866 1203.54 L183.866 1207.48 L161.922 1207.48 L161.922 1203.54 Q164.584 1200.79 169.167 1196.16 Q173.774 1191.51 174.954 1190.16 Q177.2 1187.64 178.079 1185.91 Q178.982 1184.15 178.982 1182.46 Q178.982 1179.7 177.038 1177.97 Q175.116 1176.23 172.014 1176.23 Q169.815 1176.23 167.362 1176.99 Q164.931 1177.76 162.153 1179.31 L162.153 1174.59 Q164.977 1173.45 167.431 1172.87 Q169.885 1172.29 171.922 1172.29 Q177.292 1172.29 180.487 1174.98 Q183.681 1177.66 183.681 1182.16 Q183.681 1184.28 182.871 1186.21 Q182.084 1188.1 179.977 1190.7 Q179.399 1191.37 176.297 1194.59 Q173.195 1197.78 167.547 1203.54 Z" fill="#000000" fill-rule="nonzero" fill-opacity="1" /><path clip-path="url(#clip510)" d="M126.205 981.439 Q122.593 981.439 120.765 985.004 Q118.959 988.545 118.959 995.675 Q118.959 1002.78 120.765 1006.35 Q122.593 1009.89 126.205 1009.89 Q129.839 1009.89 131.644 1006.35 Q133.473 1002.78 133.473 995.675 Q133.473 988.545 131.644 985.004 Q129.839 981.439 126.205 981.439 M126.205 977.735 Q132.015 977.735 135.07 982.342 Q138.149 986.925 138.149 995.675 Q138.149 1004.4 135.07 1009.01 Q132.015 1013.59 126.205 1013.59 Q120.394 1013.59 117.316 1009.01 Q114.26 1004.4 114.26 995.675 Q114.26 986.925 117.316 982.342 Q120.394 977.735 126.205 977.735 Z" fill="#000000" fill-rule="nonzero" fill-opacity="1" /><path clip-path="url(#clip510)" d="M146.366 1007.04 L151.251 1007.04 L151.251 1012.92 L146.366 1012.92 L146.366 1007.04 Z" fill="#000000" fill-rule="nonzero" fill-opacity="1" /><path clip-path="url(#clip510)" d="M174.283 982.434 L162.477 1000.88 L174.283 1000.88 L174.283 982.434 M173.056 978.36 L178.936 978.36 L178.936 1000.88 L183.866 1000.88 L183.866 1004.77 L178.936 1004.77 L178.936 1012.92 L174.283 1012.92 L174.283 1004.77 L158.681 1004.77 L158.681 1000.26 L173.056 978.36 Z" fill="#000000" fill-rule="nonzero" fill-opacity="1" /><path clip-path="url(#clip510)" d="M126.529 786.88 Q122.918 786.88 121.089 790.445 Q119.283 793.987 119.283 801.116 Q119.283 808.223 121.089 811.788 Q122.918 815.329 126.529 815.329 Q130.163 815.329 131.968 811.788 Q133.797 808.223 133.797 801.116 Q133.797 793.987 131.968 790.445 Q130.163 786.88 126.529 786.88 M126.529 783.177 Q132.339 783.177 135.394 787.783 Q138.473 792.366 138.473 801.116 Q138.473 809.843 135.394 814.45 Q132.339 819.033 126.529 819.033 Q120.718 819.033 117.64 814.45 Q114.584 809.843 114.584 801.116 Q114.584 792.366 117.64 787.783 Q120.718 783.177 126.529 783.177 Z" fill="#000000" fill-rule="nonzero" fill-opacity="1" /><path clip-path="url(#clip510)" d="M146.691 812.482 L151.575 812.482 L151.575 818.362 L146.691 818.362 L146.691 812.482 Z" fill="#000000" fill-rule="nonzero" fill-opacity="1" /><path clip-path="url(#clip510)" d="M172.339 799.218 Q169.19 799.218 167.339 801.371 Q165.51 803.524 165.51 807.274 Q165.51 811.001 167.339 813.177 Q169.19 815.329 172.339 815.329 Q175.487 815.329 177.315 813.177 Q179.167 811.001 179.167 807.274 Q179.167 803.524 177.315 801.371 Q175.487 799.218 172.339 799.218 M181.621 784.566 L181.621 788.825 Q179.862 787.991 178.056 787.552 Q176.274 787.112 174.514 787.112 Q169.885 787.112 167.431 790.237 Q165.001 793.362 164.653 799.681 Q166.019 797.667 168.079 796.603 Q170.139 795.515 172.616 795.515 Q177.825 795.515 180.834 798.686 Q183.866 801.834 183.866 807.274 Q183.866 812.598 180.718 815.815 Q177.57 819.033 172.339 819.033 Q166.343 819.033 163.172 814.45 Q160.001 809.843 160.001 801.116 Q160.001 792.922 163.89 788.061 Q167.778 783.177 174.329 783.177 Q176.089 783.177 177.871 783.524 Q179.676 783.871 181.621 784.566 Z" fill="#000000" fill-rule="nonzero" fill-opacity="1" /><path clip-path="url(#clip510)" d="M126.783 592.322 Q123.172 592.322 121.343 595.887 Q119.538 599.428 119.538 606.558 Q119.538 613.664 121.343 617.229 Q123.172 620.771 126.783 620.771 Q130.417 620.771 132.223 617.229 Q134.052 613.664 134.052 606.558 Q134.052 599.428 132.223 595.887 Q130.417 592.322 126.783 592.322 M126.783 588.618 Q132.593 588.618 135.649 593.225 Q138.728 597.808 138.728 606.558 Q138.728 615.285 135.649 619.891 Q132.593 624.474 126.783 624.474 Q120.973 624.474 117.894 619.891 Q114.839 615.285 114.839 606.558 Q114.839 597.808 117.894 593.225 Q120.973 588.618 126.783 588.618 Z" fill="#000000" fill-rule="nonzero" fill-opacity="1" /><path clip-path="url(#clip510)" d="M146.945 617.923 L151.829 617.923 L151.829 623.803 L146.945 623.803 L146.945 617.923 Z" fill="#000000" fill-rule="nonzero" fill-opacity="1" /><path clip-path="url(#clip510)" d="M172.014 607.391 Q168.681 607.391 166.76 609.173 Q164.862 610.956 164.862 614.081 Q164.862 617.206 166.76 618.988 Q168.681 620.771 172.014 620.771 Q175.348 620.771 177.269 618.988 Q179.19 617.183 179.19 614.081 Q179.19 610.956 177.269 609.173 Q175.371 607.391 172.014 607.391 M167.339 605.4 Q164.329 604.66 162.64 602.599 Q160.973 600.539 160.973 597.576 Q160.973 593.433 163.913 591.025 Q166.876 588.618 172.014 588.618 Q177.176 588.618 180.116 591.025 Q183.056 593.433 183.056 597.576 Q183.056 600.539 181.366 602.599 Q179.7 604.66 176.714 605.4 Q180.093 606.187 181.968 608.479 Q183.866 610.771 183.866 614.081 Q183.866 619.104 180.788 621.789 Q177.732 624.474 172.014 624.474 Q166.297 624.474 163.218 621.789 Q160.163 619.104 160.163 614.081 Q160.163 610.771 162.061 608.479 Q163.959 606.187 167.339 605.4 M165.626 598.016 Q165.626 600.701 167.292 602.206 Q168.982 603.711 172.014 603.711 Q175.024 603.711 176.714 602.206 Q178.426 600.701 178.426 598.016 Q178.426 595.331 176.714 593.826 Q175.024 592.322 172.014 592.322 Q168.982 592.322 167.292 593.826 Q165.626 595.331 165.626 598.016 Z" fill="#000000" fill-rule="nonzero" fill-opacity="1" /><path clip-path="url(#clip510)" d="M117.501 425.309 L125.14 425.309 L125.14 398.944 L116.83 400.61 L116.83 396.351 L125.093 394.684 L129.769 394.684 L129.769 425.309 L137.408 425.309 L137.408 429.244 L117.501 429.244 L117.501 425.309 Z" fill="#000000" fill-rule="nonzero" fill-opacity="1" /><path clip-path="url(#clip510)" d="M146.853 423.365 L151.737 423.365 L151.737 429.244 L146.853 429.244 L146.853 423.365 Z" fill="#000000" fill-rule="nonzero" fill-opacity="1" /><path clip-path="url(#clip510)" d="M171.922 397.763 Q168.311 397.763 166.482 401.328 Q164.677 404.87 164.677 411.999 Q164.677 419.106 166.482 422.67 Q168.311 426.212 171.922 426.212 Q175.556 426.212 177.362 422.67 Q179.19 419.106 179.19 411.999 Q179.19 404.87 177.362 401.328 Q175.556 397.763 171.922 397.763 M171.922 394.059 Q177.732 394.059 180.788 398.666 Q183.866 403.249 183.866 411.999 Q183.866 420.726 180.788 425.332 Q177.732 429.916 171.922 429.916 Q166.112 429.916 163.033 425.332 Q159.978 420.726 159.978 411.999 Q159.978 403.249 163.033 398.666 Q166.112 394.059 171.922 394.059 Z" fill="#000000" fill-rule="nonzero" fill-opacity="1" /><path clip-path="url(#clip510)" d="M119.098 230.751 L126.737 230.751 L126.737 204.385 L118.427 206.052 L118.427 201.792 L126.691 200.126 L131.367 200.126 L131.367 230.751 L139.005 230.751 L139.005 234.686 L119.098 234.686 L119.098 230.751 Z" fill="#000000" fill-rule="nonzero" fill-opacity="1" /><path clip-path="url(#clip510)" d="M148.45 228.806 L153.334 228.806 L153.334 234.686 L148.45 234.686 L148.45 228.806 Z" fill="#000000" fill-rule="nonzero" fill-opacity="1" /><path clip-path="url(#clip510)" d="M167.547 230.751 L183.866 230.751 L183.866 234.686 L161.922 234.686 L161.922 230.751 Q164.584 227.996 169.167 223.366 Q173.774 218.714 174.954 217.371 Q177.2 214.848 178.079 213.112 Q178.982 211.353 178.982 209.663 Q178.982 206.908 177.038 205.172 Q175.116 203.436 172.014 203.436 Q169.815 203.436 167.362 204.2 Q164.931 204.964 162.153 206.515 L162.153 201.792 Q164.977 200.658 167.431 200.079 Q169.885 199.501 171.922 199.501 Q177.292 199.501 180.487 202.186 Q183.681 204.871 183.681 209.362 Q183.681 211.491 182.871 213.413 Q182.084 215.311 179.977 217.903 Q179.399 218.575 176.297 221.792 Q173.195 224.987 167.547 230.751 Z" fill="#000000" fill-rule="nonzero" fill-opacity="1" /><path clip-path="url(#clip510)" d="M16.4842 812.587 L16.4842 772.388 L21.895 772.388 L21.895 789.257 L64.0042 789.257 L64.0042 795.718 L21.895 795.718 L21.895 812.587 L16.4842 812.587 Z" fill="#000000" fill-rule="nonzero" fill-opacity="1" /><path clip-path="url(#clip510)" d="M14.479 746.256 L14.479 732.761 L19.0304 732.761 L19.0304 740.4 L68.0464 740.4 L68.0464 732.761 L72.5979 732.761 L72.5979 746.256 L14.479 746.256 Z" fill="#000000" fill-rule="nonzero" fill-opacity="1" /><path clip-path="url(#clip510)" d="M16.4842 720.03 L16.4842 711.372 L56.238 690.302 L16.4842 690.302 L16.4842 684.064 L64.0042 684.064 L64.0042 692.721 L24.2503 713.791 L64.0042 713.791 L64.0042 720.03 L16.4842 720.03 Z" fill="#000000" fill-rule="nonzero" fill-opacity="1" /><path clip-path="url(#clip510)" d="M14.479 657.837 L72.5979 657.837 L72.5979 671.332 L68.0464 671.332 L68.0464 663.725 L19.0304 663.725 L19.0304 671.332 L14.479 671.332 L14.479 657.837 Z" fill="#000000" fill-rule="nonzero" fill-opacity="1" /><polyline clip-path="url(#clip512)" style="stroke:#009af9; stroke-linecap:round; stroke-linejoin:round; stroke-width:4; stroke-opacity:1; fill:none" points="245.422,1384.24 262.807,1382.68 280.192,1380.08 297.577,1376.45 314.962,1371.77 332.346,1366.06 349.731,1359.31 367.116,1351.51 384.501,1342.68 401.886,1332.81 419.271,1321.91 436.656,1309.96 454.041,1296.97 471.426,1282.95 488.81,1267.89 506.195,1251.78 523.58,1234.64 540.965,1216.46 558.35,1197.24 575.735,1176.99 593.12,1155.69 610.505,1133.35 627.889,1109.98 645.274,1085.57 662.659,1060.11 680.044,1033.62 697.429,1006.09 714.814,977.526 732.199,947.918 749.584,917.272 766.969,885.587 784.353,852.863 801.738,819.1 819.123,784.298 836.508,748.457 853.893,711.578 871.278,673.66 888.663,634.702 906.048,594.706 923.432,553.672 940.817,511.598 958.202,468.485 975.587,424.334 992.972,379.144 1010.36,332.914 1027.74,285.646 1045.13,237.339 1062.51,187.994 1079.9,137.609 1097.28,86.1857 "/>
<path clip-path="url(#clip510)" d="M249.965 196.789 L491.095 196.789 L491.095 93.1086 L249.965 93.1086  Z" fill="#ffffff" fill-rule="evenodd" fill-opacity="1"/>
<polyline clip-path="url(#clip510)" style="stroke:#000000; stroke-linecap:round; stroke-linejoin:round; stroke-width:4; stroke-opacity:1; fill:none" points="249.965,196.789 491.095,196.789 491.095,93.1086 249.965,93.1086 249.965,196.789 "/>
<polyline clip-path="url(#clip510)" style="stroke:#009af9; stroke-linecap:round; stroke-linejoin:round; stroke-width:4; stroke-opacity:1; fill:none" points="259.998,144.949 320.196,144.949 "/>
<path clip-path="url(#clip510)" d="M330.229 127.669 L359.465 127.669 L359.465 131.604 L347.197 131.604 L347.197 162.229 L342.498 162.229 L342.498 131.604 L330.229 131.604 L330.229 127.669 Z" fill="#000000" fill-rule="nonzero" fill-opacity="1" /><path clip-path="url(#clip510)" d="M385.345 146.581 L385.345 162.229 L381.086 162.229 L381.086 146.719 Q381.086 143.039 379.65 141.21 Q378.215 139.382 375.345 139.382 Q371.896 139.382 369.905 141.581 Q367.914 143.78 367.914 147.576 L367.914 162.229 L363.632 162.229 L363.632 126.21 L367.914 126.21 L367.914 140.331 Q369.442 137.993 371.502 136.835 Q373.586 135.678 376.294 135.678 Q380.762 135.678 383.053 138.456 Q385.345 141.21 385.345 146.581 Z" fill="#000000" fill-rule="nonzero" fill-opacity="1" /><path clip-path="url(#clip510)" d="M408.863 140.284 Q408.146 139.868 407.289 139.682 Q406.456 139.474 405.437 139.474 Q401.826 139.474 399.882 141.835 Q397.96 144.173 397.96 148.571 L397.96 162.229 L393.678 162.229 L393.678 136.303 L397.96 136.303 L397.96 140.331 Q399.303 137.969 401.456 136.835 Q403.609 135.678 406.687 135.678 Q407.127 135.678 407.66 135.747 Q408.192 135.794 408.84 135.909 L408.863 140.284 Z" fill="#000000" fill-rule="nonzero" fill-opacity="1" /><path clip-path="url(#clip510)" d="M412.891 151.997 L412.891 136.303 L417.15 136.303 L417.15 151.835 Q417.15 155.516 418.585 157.368 Q420.021 159.196 422.891 159.196 Q426.34 159.196 428.331 156.997 Q430.345 154.798 430.345 151.002 L430.345 136.303 L434.604 136.303 L434.604 162.229 L430.345 162.229 L430.345 158.247 Q428.794 160.608 426.733 161.766 Q424.696 162.9 421.988 162.9 Q417.521 162.9 415.206 160.122 Q412.891 157.344 412.891 151.997 M423.608 135.678 L423.608 135.678 Z" fill="#000000" fill-rule="nonzero" fill-opacity="1" /><path clip-path="url(#clip510)" d="M459.905 137.067 L459.905 141.094 Q458.099 140.169 456.155 139.706 Q454.21 139.243 452.127 139.243 Q448.956 139.243 447.358 140.215 Q445.784 141.187 445.784 143.131 Q445.784 144.613 446.919 145.469 Q448.053 146.303 451.479 147.067 L452.937 147.391 Q457.474 148.363 459.372 150.145 Q461.293 151.905 461.293 155.076 Q461.293 158.687 458.423 160.793 Q455.576 162.9 450.576 162.9 Q448.493 162.9 446.224 162.483 Q443.979 162.09 441.479 161.28 L441.479 156.881 Q443.84 158.108 446.132 158.733 Q448.423 159.335 450.669 159.335 Q453.678 159.335 455.298 158.317 Q456.919 157.275 456.919 155.4 Q456.919 153.664 455.738 152.738 Q454.581 151.812 450.622 150.956 L449.141 150.608 Q445.182 149.775 443.423 148.062 Q441.664 146.326 441.664 143.317 Q441.664 139.659 444.257 137.669 Q446.849 135.678 451.618 135.678 Q453.979 135.678 456.062 136.025 Q458.145 136.372 459.905 137.067 Z" fill="#000000" fill-rule="nonzero" fill-opacity="1" /><path clip-path="url(#clip510)" d="M472.289 128.942 L472.289 136.303 L481.062 136.303 L481.062 139.613 L472.289 139.613 L472.289 153.687 Q472.289 156.858 473.145 157.761 Q474.025 158.664 476.687 158.664 L481.062 158.664 L481.062 162.229 L476.687 162.229 Q471.756 162.229 469.881 160.4 Q468.006 158.548 468.006 153.687 L468.006 139.613 L464.881 139.613 L464.881 136.303 L468.006 136.303 L468.006 128.942 L472.289 128.942 Z" fill="#000000" fill-rule="nonzero" fill-opacity="1" /><path clip-path="url(#clip510)" d="M1449.79 1423.18 L2352.76 1423.18 L2352.76 47.2441 L1449.79 47.2441  Z" fill="#ffffff" fill-rule="evenodd" fill-opacity="1"/>
<defs>
  <clipPath id="clip513">
    <rect x="1449" y="47" width="904" height="1377"/>
  </clipPath>
</defs>
<polyline clip-path="url(#clip513)" style="stroke:#000000; stroke-linecap:round; stroke-linejoin:round; stroke-width:2; stroke-opacity:0.1; fill:none" points="1457.96,1423.18 1457.96,47.2441 "/>
<polyline clip-path="url(#clip513)" style="stroke:#000000; stroke-linecap:round; stroke-linejoin:round; stroke-width:2; stroke-opacity:0.1; fill:none" points="1631.8,1423.18 1631.8,47.2441 "/>
<polyline clip-path="url(#clip513)" style="stroke:#000000; stroke-linecap:round; stroke-linejoin:round; stroke-width:2; stroke-opacity:0.1; fill:none" points="1805.65,1423.18 1805.65,47.2441 "/>
<polyline clip-path="url(#clip513)" style="stroke:#000000; stroke-linecap:round; stroke-linejoin:round; stroke-width:2; stroke-opacity:0.1; fill:none" points="1979.5,1423.18 1979.5,47.2441 "/>
<polyline clip-path="url(#clip513)" style="stroke:#000000; stroke-linecap:round; stroke-linejoin:round; stroke-width:2; stroke-opacity:0.1; fill:none" points="2153.35,1423.18 2153.35,47.2441 "/>
<polyline clip-path="url(#clip513)" style="stroke:#000000; stroke-linecap:round; stroke-linejoin:round; stroke-width:2; stroke-opacity:0.1; fill:none" points="2327.2,1423.18 2327.2,47.2441 "/>
<polyline clip-path="url(#clip510)" style="stroke:#000000; stroke-linecap:round; stroke-linejoin:round; stroke-width:4; stroke-opacity:1; fill:none" points="1449.79,1423.18 2352.76,1423.18 "/>
<polyline clip-path="url(#clip510)" style="stroke:#000000; stroke-linecap:round; stroke-linejoin:round; stroke-width:4; stroke-opacity:1; fill:none" points="1457.96,1423.18 1457.96,1404.28 "/>
<polyline clip-path="url(#clip510)" style="stroke:#000000; stroke-linecap:round; stroke-linejoin:round; stroke-width:4; stroke-opacity:1; fill:none" points="1631.8,1423.18 1631.8,1404.28 "/>
<polyline clip-path="url(#clip510)" style="stroke:#000000; stroke-linecap:round; stroke-linejoin:round; stroke-width:4; stroke-opacity:1; fill:none" points="1805.65,1423.18 1805.65,1404.28 "/>
<polyline clip-path="url(#clip510)" style="stroke:#000000; stroke-linecap:round; stroke-linejoin:round; stroke-width:4; stroke-opacity:1; fill:none" points="1979.5,1423.18 1979.5,1404.28 "/>
<polyline clip-path="url(#clip510)" style="stroke:#000000; stroke-linecap:round; stroke-linejoin:round; stroke-width:4; stroke-opacity:1; fill:none" points="2153.35,1423.18 2153.35,1404.28 "/>
<polyline clip-path="url(#clip510)" style="stroke:#000000; stroke-linecap:round; stroke-linejoin:round; stroke-width:4; stroke-opacity:1; fill:none" points="2327.2,1423.18 2327.2,1404.28 "/>
<path clip-path="url(#clip510)" d="M1457.96 1454.1 Q1454.34 1454.1 1452.52 1457.66 Q1450.71 1461.2 1450.71 1468.33 Q1450.71 1475.44 1452.52 1479.01 Q1454.34 1482.55 1457.96 1482.55 Q1461.59 1482.55 1463.4 1479.01 Q1465.22 1475.44 1465.22 1468.33 Q1465.22 1461.2 1463.4 1457.66 Q1461.59 1454.1 1457.96 1454.1 M1457.96 1450.39 Q1463.77 1450.39 1466.82 1455 Q1469.9 1459.58 1469.9 1468.33 Q1469.9 1477.06 1466.82 1481.67 Q1463.77 1486.25 1457.96 1486.25 Q1452.15 1486.25 1449.07 1481.67 Q1446.01 1477.06 1446.01 1468.33 Q1446.01 1459.58 1449.07 1455 Q1452.15 1450.39 1457.96 1450.39 Z" fill="#000000" fill-rule="nonzero" fill-opacity="1" /><path clip-path="url(#clip510)" d="M1576.33 1481.64 L1583.97 1481.64 L1583.97 1455.28 L1575.66 1456.95 L1575.66 1452.69 L1583.92 1451.02 L1588.6 1451.02 L1588.6 1481.64 L1596.24 1481.64 L1596.24 1485.58 L1576.33 1485.58 L1576.33 1481.64 Z" fill="#000000" fill-rule="nonzero" fill-opacity="1" /><path clip-path="url(#clip510)" d="M1615.68 1454.1 Q1612.07 1454.1 1610.24 1457.66 Q1608.44 1461.2 1608.44 1468.33 Q1608.44 1475.44 1610.24 1479.01 Q1612.07 1482.55 1615.68 1482.55 Q1619.32 1482.55 1621.12 1479.01 Q1622.95 1475.44 1622.95 1468.33 Q1622.95 1461.2 1621.12 1457.66 Q1619.32 1454.1 1615.68 1454.1 M1615.68 1450.39 Q1621.49 1450.39 1624.55 1455 Q1627.63 1459.58 1627.63 1468.33 Q1627.63 1477.06 1624.55 1481.67 Q1621.49 1486.25 1615.68 1486.25 Q1609.87 1486.25 1606.79 1481.67 Q1603.74 1477.06 1603.74 1468.33 Q1603.74 1459.58 1606.79 1455 Q1609.87 1450.39 1615.68 1450.39 Z" fill="#000000" fill-rule="nonzero" fill-opacity="1" /><path clip-path="url(#clip510)" d="M1645.84 1454.1 Q1642.23 1454.1 1640.4 1457.66 Q1638.6 1461.2 1638.6 1468.33 Q1638.6 1475.44 1640.4 1479.01 Q1642.23 1482.55 1645.84 1482.55 Q1649.48 1482.55 1651.28 1479.01 Q1653.11 1475.44 1653.11 1468.33 Q1653.11 1461.2 1651.28 1457.66 Q1649.48 1454.1 1645.84 1454.1 M1645.84 1450.39 Q1651.65 1450.39 1654.71 1455 Q1657.79 1459.58 1657.79 1468.33 Q1657.79 1477.06 1654.71 1481.67 Q1651.65 1486.25 1645.84 1486.25 Q1640.03 1486.25 1636.96 1481.67 Q1633.9 1477.06 1633.9 1468.33 Q1633.9 1459.58 1636.96 1455 Q1640.03 1450.39 1645.84 1450.39 Z" fill="#000000" fill-rule="nonzero" fill-opacity="1" /><path clip-path="url(#clip510)" d="M1676.01 1454.1 Q1672.39 1454.1 1670.57 1457.66 Q1668.76 1461.2 1668.76 1468.33 Q1668.76 1475.44 1670.57 1479.01 Q1672.39 1482.55 1676.01 1482.55 Q1679.64 1482.55 1681.45 1479.01 Q1683.27 1475.44 1683.27 1468.33 Q1683.27 1461.2 1681.45 1457.66 Q1679.64 1454.1 1676.01 1454.1 M1676.01 1450.39 Q1681.82 1450.39 1684.87 1455 Q1687.95 1459.58 1687.95 1468.33 Q1687.95 1477.06 1684.87 1481.67 Q1681.82 1486.25 1676.01 1486.25 Q1670.2 1486.25 1667.12 1481.67 Q1664.06 1477.06 1664.06 1468.33 Q1664.06 1459.58 1667.12 1455 Q1670.2 1450.39 1676.01 1450.39 Z" fill="#000000" fill-rule="nonzero" fill-opacity="1" /><path clip-path="url(#clip510)" d="M1754.27 1481.64 L1770.58 1481.64 L1770.58 1485.58 L1748.64 1485.58 L1748.64 1481.64 Q1751.3 1478.89 1755.89 1474.26 Q1760.49 1469.61 1761.67 1468.27 Q1763.92 1465.74 1764.8 1464.01 Q1765.7 1462.25 1765.7 1460.56 Q1765.7 1457.8 1763.76 1456.07 Q1761.83 1454.33 1758.73 1454.33 Q1756.53 1454.33 1754.08 1455.09 Q1751.65 1455.86 1748.87 1457.41 L1748.87 1452.69 Q1751.7 1451.55 1754.15 1450.97 Q1756.6 1450.39 1758.64 1450.39 Q1764.01 1450.39 1767.2 1453.08 Q1770.4 1455.77 1770.4 1460.26 Q1770.4 1462.39 1769.59 1464.31 Q1768.8 1466.2 1766.7 1468.8 Q1766.12 1469.47 1763.01 1472.69 Q1759.91 1475.88 1754.27 1481.64 Z" fill="#000000" fill-rule="nonzero" fill-opacity="1" /><path clip-path="url(#clip510)" d="M1790.4 1454.1 Q1786.79 1454.1 1784.96 1457.66 Q1783.15 1461.2 1783.15 1468.33 Q1783.15 1475.44 1784.96 1479.01 Q1786.79 1482.55 1790.4 1482.55 Q1794.03 1482.55 1795.84 1479.01 Q1797.67 1475.44 1797.67 1468.33 Q1797.67 1461.2 1795.84 1457.66 Q1794.03 1454.1 1790.4 1454.1 M1790.4 1450.39 Q1796.21 1450.39 1799.26 1455 Q1802.34 1459.58 1802.34 1468.33 Q1802.34 1477.06 1799.26 1481.67 Q1796.21 1486.25 1790.4 1486.25 Q1784.59 1486.25 1781.51 1481.67 Q1778.45 1477.06 1778.45 1468.33 Q1778.45 1459.58 1781.51 1455 Q1784.59 1450.39 1790.4 1450.39 Z" fill="#000000" fill-rule="nonzero" fill-opacity="1" /><path clip-path="url(#clip510)" d="M1820.56 1454.1 Q1816.95 1454.1 1815.12 1457.66 Q1813.32 1461.2 1813.32 1468.33 Q1813.32 1475.44 1815.12 1479.01 Q1816.95 1482.55 1820.56 1482.55 Q1824.2 1482.55 1826 1479.01 Q1827.83 1475.44 1827.83 1468.33 Q1827.83 1461.2 1826 1457.66 Q1824.2 1454.1 1820.56 1454.1 M1820.56 1450.39 Q1826.37 1450.39 1829.43 1455 Q1832.51 1459.58 1832.51 1468.33 Q1832.51 1477.06 1829.43 1481.67 Q1826.37 1486.25 1820.56 1486.25 Q1814.75 1486.25 1811.67 1481.67 Q1808.62 1477.06 1808.62 1468.33 Q1808.62 1459.58 1811.67 1455 Q1814.75 1450.39 1820.56 1450.39 Z" fill="#000000" fill-rule="nonzero" fill-opacity="1" /><path clip-path="url(#clip510)" d="M1850.72 1454.1 Q1847.11 1454.1 1845.28 1457.66 Q1843.48 1461.2 1843.48 1468.33 Q1843.48 1475.44 1845.28 1479.01 Q1847.11 1482.55 1850.72 1482.55 Q1854.36 1482.55 1856.16 1479.01 Q1857.99 1475.44 1857.99 1468.33 Q1857.99 1461.2 1856.16 1457.66 Q1854.36 1454.1 1850.72 1454.1 M1850.72 1450.39 Q1856.53 1450.39 1859.59 1455 Q1862.67 1459.58 1862.67 1468.33 Q1862.67 1477.06 1859.59 1481.67 Q1856.53 1486.25 1850.72 1486.25 Q1844.91 1486.25 1841.83 1481.67 Q1838.78 1477.06 1838.78 1468.33 Q1838.78 1459.58 1841.83 1455 Q1844.91 1450.39 1850.72 1450.39 Z" fill="#000000" fill-rule="nonzero" fill-opacity="1" /><path clip-path="url(#clip510)" d="M1938.18 1466.95 Q1941.54 1467.66 1943.41 1469.93 Q1945.31 1472.2 1945.31 1475.53 Q1945.31 1480.65 1941.79 1483.45 Q1938.28 1486.25 1931.79 1486.25 Q1929.62 1486.25 1927.3 1485.81 Q1925.01 1485.39 1922.56 1484.54 L1922.56 1480.02 Q1924.5 1481.16 1926.82 1481.74 Q1929.13 1482.32 1931.66 1482.32 Q1936.05 1482.32 1938.35 1480.58 Q1940.66 1478.84 1940.66 1475.53 Q1940.66 1472.48 1938.51 1470.77 Q1936.38 1469.03 1932.56 1469.03 L1928.53 1469.03 L1928.53 1465.19 L1932.74 1465.19 Q1936.19 1465.19 1938.02 1463.82 Q1939.85 1462.43 1939.85 1459.84 Q1939.85 1457.18 1937.95 1455.77 Q1936.08 1454.33 1932.56 1454.33 Q1930.64 1454.33 1928.44 1454.75 Q1926.24 1455.16 1923.6 1456.04 L1923.6 1451.88 Q1926.26 1451.14 1928.58 1450.77 Q1930.91 1450.39 1932.97 1450.39 Q1938.3 1450.39 1941.4 1452.83 Q1944.5 1455.23 1944.5 1459.35 Q1944.5 1462.22 1942.86 1464.21 Q1941.22 1466.18 1938.18 1466.95 Z" fill="#000000" fill-rule="nonzero" fill-opacity="1" /><path clip-path="url(#clip510)" d="M1964.18 1454.1 Q1960.57 1454.1 1958.74 1457.66 Q1956.93 1461.2 1956.93 1468.33 Q1956.93 1475.44 1958.74 1479.01 Q1960.57 1482.55 1964.18 1482.55 Q1967.81 1482.55 1969.62 1479.01 Q1971.45 1475.44 1971.45 1468.33 Q1971.45 1461.2 1969.62 1457.66 Q1967.81 1454.1 1964.18 1454.1 M1964.18 1450.39 Q1969.99 1450.39 1973.04 1455 Q1976.12 1459.58 1976.12 1468.33 Q1976.12 1477.06 1973.04 1481.67 Q1969.99 1486.25 1964.18 1486.25 Q1958.37 1486.25 1955.29 1481.67 Q1952.23 1477.06 1952.23 1468.33 Q1952.23 1459.58 1955.29 1455 Q1958.37 1450.39 1964.18 1450.39 Z" fill="#000000" fill-rule="nonzero" fill-opacity="1" /><path clip-path="url(#clip510)" d="M1994.34 1454.1 Q1990.73 1454.1 1988.9 1457.66 Q1987.1 1461.2 1987.1 1468.33 Q1987.1 1475.44 1988.9 1479.01 Q1990.73 1482.55 1994.34 1482.55 Q1997.97 1482.55 1999.78 1479.01 Q2001.61 1475.44 2001.61 1468.33 Q2001.61 1461.2 1999.78 1457.66 Q1997.97 1454.1 1994.34 1454.1 M1994.34 1450.39 Q2000.15 1450.39 2003.21 1455 Q2006.28 1459.58 2006.28 1468.33 Q2006.28 1477.06 2003.21 1481.67 Q2000.15 1486.25 1994.34 1486.25 Q1988.53 1486.25 1985.45 1481.67 Q1982.4 1477.06 1982.4 1468.33 Q1982.4 1459.58 1985.45 1455 Q1988.53 1450.39 1994.34 1450.39 Z" fill="#000000" fill-rule="nonzero" fill-opacity="1" /><path clip-path="url(#clip510)" d="M2024.5 1454.1 Q2020.89 1454.1 2019.06 1457.66 Q2017.26 1461.2 2017.26 1468.33 Q2017.26 1475.44 2019.06 1479.01 Q2020.89 1482.55 2024.5 1482.55 Q2028.14 1482.55 2029.94 1479.01 Q2031.77 1475.44 2031.77 1468.33 Q2031.77 1461.2 2029.94 1457.66 Q2028.14 1454.1 2024.5 1454.1 M2024.5 1450.39 Q2030.31 1450.39 2033.37 1455 Q2036.45 1459.58 2036.45 1468.33 Q2036.45 1477.06 2033.37 1481.67 Q2030.31 1486.25 2024.5 1486.25 Q2018.69 1486.25 2015.61 1481.67 Q2012.56 1477.06 2012.56 1468.33 Q2012.56 1459.58 2015.61 1455 Q2018.69 1450.39 2024.5 1450.39 Z" fill="#000000" fill-rule="nonzero" fill-opacity="1" /><path clip-path="url(#clip510)" d="M2111.36 1455.09 L2099.56 1473.54 L2111.36 1473.54 L2111.36 1455.09 M2110.13 1451.02 L2116.01 1451.02 L2116.01 1473.54 L2120.94 1473.54 L2120.94 1477.43 L2116.01 1477.43 L2116.01 1485.58 L2111.36 1485.58 L2111.36 1477.43 L2095.76 1477.43 L2095.76 1472.92 L2110.13 1451.02 Z" fill="#000000" fill-rule="nonzero" fill-opacity="1" /><path clip-path="url(#clip510)" d="M2138.68 1454.1 Q2135.06 1454.1 2133.24 1457.66 Q2131.43 1461.2 2131.43 1468.33 Q2131.43 1475.44 2133.24 1479.01 Q2135.06 1482.55 2138.68 1482.55 Q2142.31 1482.55 2144.12 1479.01 Q2145.94 1475.44 2145.94 1468.33 Q2145.94 1461.2 2144.12 1457.66 Q2142.31 1454.1 2138.68 1454.1 M2138.68 1450.39 Q2144.49 1450.39 2147.54 1455 Q2150.62 1459.58 2150.62 1468.33 Q2150.62 1477.06 2147.54 1481.67 Q2144.49 1486.25 2138.68 1486.25 Q2132.87 1486.25 2129.79 1481.67 Q2126.73 1477.06 2126.73 1468.33 Q2126.73 1459.58 2129.79 1455 Q2132.87 1450.39 2138.68 1450.39 Z" fill="#000000" fill-rule="nonzero" fill-opacity="1" /><path clip-path="url(#clip510)" d="M2168.84 1454.1 Q2165.23 1454.1 2163.4 1457.66 Q2161.59 1461.2 2161.59 1468.33 Q2161.59 1475.44 2163.4 1479.01 Q2165.23 1482.55 2168.84 1482.55 Q2172.47 1482.55 2174.28 1479.01 Q2176.11 1475.44 2176.11 1468.33 Q2176.11 1461.2 2174.28 1457.66 Q2172.47 1454.1 2168.84 1454.1 M2168.84 1450.39 Q2174.65 1450.39 2177.7 1455 Q2180.78 1459.58 2180.78 1468.33 Q2180.78 1477.06 2177.7 1481.67 Q2174.65 1486.25 2168.84 1486.25 Q2163.03 1486.25 2159.95 1481.67 Q2156.89 1477.06 2156.89 1468.33 Q2156.89 1459.58 2159.95 1455 Q2163.03 1450.39 2168.84 1450.39 Z" fill="#000000" fill-rule="nonzero" fill-opacity="1" /><path clip-path="url(#clip510)" d="M2199 1454.1 Q2195.39 1454.1 2193.56 1457.66 Q2191.75 1461.2 2191.75 1468.33 Q2191.75 1475.44 2193.56 1479.01 Q2195.39 1482.55 2199 1482.55 Q2202.63 1482.55 2204.44 1479.01 Q2206.27 1475.44 2206.27 1468.33 Q2206.27 1461.2 2204.44 1457.66 Q2202.63 1454.1 2199 1454.1 M2199 1450.39 Q2204.81 1450.39 2207.86 1455 Q2210.94 1459.58 2210.94 1468.33 Q2210.94 1477.06 2207.86 1481.67 Q2204.81 1486.25 2199 1486.25 Q2193.19 1486.25 2190.11 1481.67 Q2187.05 1477.06 2187.05 1468.33 Q2187.05 1459.58 2190.11 1455 Q2193.19 1450.39 2199 1450.39 Z" fill="#000000" fill-rule="nonzero" fill-opacity="1" /><path clip-path="url(#clip510)" d="M2271.74 1451.02 L2290.09 1451.02 L2290.09 1454.96 L2276.02 1454.96 L2276.02 1463.43 Q2277.04 1463.08 2278.06 1462.92 Q2279.08 1462.73 2280.09 1462.73 Q2285.88 1462.73 2289.26 1465.9 Q2292.64 1469.08 2292.64 1474.49 Q2292.64 1480.07 2289.17 1483.17 Q2285.7 1486.25 2279.38 1486.25 Q2277.2 1486.25 2274.93 1485.88 Q2272.69 1485.51 2270.28 1484.77 L2270.28 1480.07 Q2272.36 1481.2 2274.58 1481.76 Q2276.81 1482.32 2279.28 1482.32 Q2283.29 1482.32 2285.63 1480.21 Q2287.96 1478.1 2287.96 1474.49 Q2287.96 1470.88 2285.63 1468.77 Q2283.29 1466.67 2279.28 1466.67 Q2277.41 1466.67 2275.53 1467.08 Q2273.68 1467.5 2271.74 1468.38 L2271.74 1451.02 Z" fill="#000000" fill-rule="nonzero" fill-opacity="1" /><path clip-path="url(#clip510)" d="M2311.85 1454.1 Q2308.24 1454.1 2306.41 1457.66 Q2304.61 1461.2 2304.61 1468.33 Q2304.61 1475.44 2306.41 1479.01 Q2308.24 1482.55 2311.85 1482.55 Q2315.49 1482.55 2317.29 1479.01 Q2319.12 1475.44 2319.12 1468.33 Q2319.12 1461.2 2317.29 1457.66 Q2315.49 1454.1 2311.85 1454.1 M2311.85 1450.39 Q2317.66 1450.39 2320.72 1455 Q2323.8 1459.58 2323.8 1468.33 Q2323.8 1477.06 2320.72 1481.67 Q2317.66 1486.25 2311.85 1486.25 Q2306.04 1486.25 2302.96 1481.67 Q2299.91 1477.06 2299.91 1468.33 Q2299.91 1459.58 2302.96 1455 Q2306.04 1450.39 2311.85 1450.39 Z" fill="#000000" fill-rule="nonzero" fill-opacity="1" /><path clip-path="url(#clip510)" d="M2342.01 1454.1 Q2338.4 1454.1 2336.58 1457.66 Q2334.77 1461.2 2334.77 1468.33 Q2334.77 1475.44 2336.58 1479.01 Q2338.4 1482.55 2342.01 1482.55 Q2345.65 1482.55 2347.45 1479.01 Q2349.28 1475.44 2349.28 1468.33 Q2349.28 1461.2 2347.45 1457.66 Q2345.65 1454.1 2342.01 1454.1 M2342.01 1450.39 Q2347.83 1450.39 2350.88 1455 Q2353.96 1459.58 2353.96 1468.33 Q2353.96 1477.06 2350.88 1481.67 Q2347.83 1486.25 2342.01 1486.25 Q2336.2 1486.25 2333.13 1481.67 Q2330.07 1477.06 2330.07 1468.33 Q2330.07 1459.58 2333.13 1455 Q2336.2 1450.39 2342.01 1450.39 Z" fill="#000000" fill-rule="nonzero" fill-opacity="1" /><path clip-path="url(#clip510)" d="M2372.18 1454.1 Q2368.57 1454.1 2366.74 1457.66 Q2364.93 1461.2 2364.93 1468.33 Q2364.93 1475.44 2366.74 1479.01 Q2368.57 1482.55 2372.18 1482.55 Q2375.81 1482.55 2377.62 1479.01 Q2379.45 1475.44 2379.45 1468.33 Q2379.45 1461.2 2377.62 1457.66 Q2375.81 1454.1 2372.18 1454.1 M2372.18 1450.39 Q2377.99 1450.39 2381.04 1455 Q2384.12 1459.58 2384.12 1468.33 Q2384.12 1477.06 2381.04 1481.67 Q2377.99 1486.25 2372.18 1486.25 Q2366.37 1486.25 2363.29 1481.67 Q2360.23 1477.06 2360.23 1468.33 Q2360.23 1459.58 2363.29 1455 Q2366.37 1450.39 2372.18 1450.39 Z" fill="#000000" fill-rule="nonzero" fill-opacity="1" /><path clip-path="url(#clip510)" d="M1859.77 1545.76 Q1861.83 1546.46 1863.78 1548.76 Q1865.75 1551.05 1867.72 1555.06 L1874.25 1568.04 L1867.34 1568.04 L1861.26 1555.85 Q1858.91 1551.08 1856.68 1549.52 Q1854.48 1547.96 1850.66 1547.96 L1843.66 1547.96 L1843.66 1568.04 L1837.23 1568.04 L1837.23 1520.52 L1851.75 1520.52 Q1859.89 1520.52 1863.9 1523.93 Q1867.91 1527.34 1867.91 1534.21 Q1867.91 1538.7 1865.81 1541.66 Q1863.74 1544.62 1859.77 1545.76 M1843.66 1525.81 L1843.66 1542.68 L1851.75 1542.68 Q1856.39 1542.68 1858.75 1540.54 Q1861.13 1538.38 1861.13 1534.21 Q1861.13 1530.04 1858.75 1527.94 Q1856.39 1525.81 1851.75 1525.81 L1843.66 1525.81 Z" fill="#000000" fill-rule="nonzero" fill-opacity="1" /><path clip-path="url(#clip510)" d="M1888.95 1525.81 L1888.95 1543.66 L1897.04 1543.66 Q1901.53 1543.66 1903.98 1541.34 Q1906.43 1539.02 1906.43 1534.72 Q1906.43 1530.45 1903.98 1528.13 Q1901.53 1525.81 1897.04 1525.81 L1888.95 1525.81 M1882.52 1520.52 L1897.04 1520.52 Q1905.03 1520.52 1909.1 1524.15 Q1913.21 1527.75 1913.21 1534.72 Q1913.21 1541.75 1909.1 1545.35 Q1905.03 1548.95 1897.04 1548.95 L1888.95 1548.95 L1888.95 1568.04 L1882.52 1568.04 L1882.52 1520.52 Z" fill="#000000" fill-rule="nonzero" fill-opacity="1" /><path clip-path="url(#clip510)" d="M1921.83 1520.52 L1931.41 1520.52 L1943.54 1552.86 L1955.73 1520.52 L1965.31 1520.52 L1965.31 1568.04 L1959.04 1568.04 L1959.04 1526.32 L1946.79 1558.91 L1940.32 1558.91 L1928.07 1526.32 L1928.07 1568.04 L1921.83 1568.04 L1921.83 1520.52 Z" fill="#000000" fill-rule="nonzero" fill-opacity="1" /><polyline clip-path="url(#clip513)" style="stroke:#000000; stroke-linecap:round; stroke-linejoin:round; stroke-width:2; stroke-opacity:0.1; fill:none" points="1449.79,1384.76 2352.76,1384.76 "/>
<polyline clip-path="url(#clip513)" style="stroke:#000000; stroke-linecap:round; stroke-linejoin:round; stroke-width:2; stroke-opacity:0.1; fill:none" points="1449.79,1044.94 2352.76,1044.94 "/>
<polyline clip-path="url(#clip513)" style="stroke:#000000; stroke-linecap:round; stroke-linejoin:round; stroke-width:2; stroke-opacity:0.1; fill:none" points="1449.79,705.124 2352.76,705.124 "/>
<polyline clip-path="url(#clip513)" style="stroke:#000000; stroke-linecap:round; stroke-linejoin:round; stroke-width:2; stroke-opacity:0.1; fill:none" points="1449.79,365.308 2352.76,365.308 "/>
<polyline clip-path="url(#clip510)" style="stroke:#000000; stroke-linecap:round; stroke-linejoin:round; stroke-width:4; stroke-opacity:1; fill:none" points="1449.79,1423.18 1449.79,47.2441 "/>
<polyline clip-path="url(#clip510)" style="stroke:#000000; stroke-linecap:round; stroke-linejoin:round; stroke-width:4; stroke-opacity:1; fill:none" points="1449.79,1384.76 1468.68,1384.76 "/>
<polyline clip-path="url(#clip510)" style="stroke:#000000; stroke-linecap:round; stroke-linejoin:round; stroke-width:4; stroke-opacity:1; fill:none" points="1449.79,1044.94 1468.68,1044.94 "/>
<polyline clip-path="url(#clip510)" style="stroke:#000000; stroke-linecap:round; stroke-linejoin:round; stroke-width:4; stroke-opacity:1; fill:none" points="1449.79,705.124 1468.68,705.124 "/>
<polyline clip-path="url(#clip510)" style="stroke:#000000; stroke-linecap:round; stroke-linejoin:round; stroke-width:4; stroke-opacity:1; fill:none" points="1449.79,365.308 1468.68,365.308 "/>
<path clip-path="url(#clip510)" d="M1296.29 1370.56 Q1292.67 1370.56 1290.85 1374.12 Q1289.04 1377.66 1289.04 1384.79 Q1289.04 1391.9 1290.85 1395.46 Q1292.67 1399.01 1296.29 1399.01 Q1299.92 1399.01 1301.73 1395.46 Q1303.55 1391.9 1303.55 1384.79 Q1303.55 1377.66 1301.73 1374.12 Q1299.92 1370.56 1296.29 1370.56 M1296.29 1366.85 Q1302.1 1366.85 1305.15 1371.46 Q1308.23 1376.04 1308.23 1384.79 Q1308.23 1393.52 1305.15 1398.13 Q1302.1 1402.71 1296.29 1402.71 Q1290.48 1402.71 1287.4 1398.13 Q1284.34 1393.52 1284.34 1384.79 Q1284.34 1376.04 1287.4 1371.46 Q1290.48 1366.85 1296.29 1366.85 Z" fill="#000000" fill-rule="nonzero" fill-opacity="1" /><path clip-path="url(#clip510)" d="M1316.45 1396.16 L1321.33 1396.16 L1321.33 1402.04 L1316.45 1402.04 L1316.45 1396.16 Z" fill="#000000" fill-rule="nonzero" fill-opacity="1" /><path clip-path="url(#clip510)" d="M1341.52 1370.56 Q1337.91 1370.56 1336.08 1374.12 Q1334.27 1377.66 1334.27 1384.79 Q1334.27 1391.9 1336.08 1395.46 Q1337.91 1399.01 1341.52 1399.01 Q1345.15 1399.01 1346.96 1395.46 Q1348.79 1391.9 1348.79 1384.79 Q1348.79 1377.66 1346.96 1374.12 Q1345.15 1370.56 1341.52 1370.56 M1341.52 1366.85 Q1347.33 1366.85 1350.38 1371.46 Q1353.46 1376.04 1353.46 1384.79 Q1353.46 1393.52 1350.38 1398.13 Q1347.33 1402.71 1341.52 1402.71 Q1335.71 1402.71 1332.63 1398.13 Q1329.57 1393.52 1329.57 1384.79 Q1329.57 1376.04 1332.63 1371.46 Q1335.71 1366.85 1341.52 1366.85 Z" fill="#000000" fill-rule="nonzero" fill-opacity="1" /><path clip-path="url(#clip510)" d="M1371.68 1370.56 Q1368.07 1370.56 1366.24 1374.12 Q1364.43 1377.66 1364.43 1384.79 Q1364.43 1391.9 1366.24 1395.46 Q1368.07 1399.01 1371.68 1399.01 Q1375.31 1399.01 1377.12 1395.46 Q1378.95 1391.9 1378.95 1384.79 Q1378.95 1377.66 1377.12 1374.12 Q1375.31 1370.56 1371.68 1370.56 M1371.68 1366.85 Q1377.49 1366.85 1380.54 1371.46 Q1383.62 1376.04 1383.62 1384.79 Q1383.62 1393.52 1380.54 1398.13 Q1377.49 1402.71 1371.68 1402.71 Q1365.87 1402.71 1362.79 1398.13 Q1359.73 1393.52 1359.73 1384.79 Q1359.73 1376.04 1362.79 1371.46 Q1365.87 1366.85 1371.68 1366.85 Z" fill="#000000" fill-rule="nonzero" fill-opacity="1" /><path clip-path="url(#clip510)" d="M1401.84 1370.56 Q1398.23 1370.56 1396.4 1374.12 Q1394.6 1377.66 1394.6 1384.79 Q1394.6 1391.9 1396.4 1395.46 Q1398.23 1399.01 1401.84 1399.01 Q1405.47 1399.01 1407.28 1395.46 Q1409.11 1391.9 1409.11 1384.79 Q1409.11 1377.66 1407.28 1374.12 Q1405.47 1370.56 1401.84 1370.56 M1401.84 1366.85 Q1407.65 1366.85 1410.71 1371.46 Q1413.79 1376.04 1413.79 1384.79 Q1413.79 1393.52 1410.71 1398.13 Q1407.65 1402.71 1401.84 1402.71 Q1396.03 1402.71 1392.95 1398.13 Q1389.9 1393.52 1389.9 1384.79 Q1389.9 1376.04 1392.95 1371.46 Q1396.03 1366.85 1401.84 1366.85 Z" fill="#000000" fill-rule="nonzero" fill-opacity="1" /><path clip-path="url(#clip510)" d="M1297.28 1030.74 Q1293.67 1030.74 1291.84 1034.3 Q1290.04 1037.85 1290.04 1044.98 Q1290.04 1052.08 1291.84 1055.65 Q1293.67 1059.19 1297.28 1059.19 Q1300.92 1059.19 1302.72 1055.65 Q1304.55 1052.08 1304.55 1044.98 Q1304.55 1037.85 1302.72 1034.3 Q1300.92 1030.74 1297.28 1030.74 M1297.28 1027.04 Q1303.09 1027.04 1306.15 1031.64 Q1309.23 1036.23 1309.23 1044.98 Q1309.23 1053.7 1306.15 1058.31 Q1303.09 1062.89 1297.28 1062.89 Q1291.47 1062.89 1288.39 1058.31 Q1285.34 1053.7 1285.34 1044.98 Q1285.34 1036.23 1288.39 1031.64 Q1291.47 1027.04 1297.28 1027.04 Z" fill="#000000" fill-rule="nonzero" fill-opacity="1" /><path clip-path="url(#clip510)" d="M1317.44 1056.34 L1322.33 1056.34 L1322.33 1062.22 L1317.44 1062.22 L1317.44 1056.34 Z" fill="#000000" fill-rule="nonzero" fill-opacity="1" /><path clip-path="url(#clip510)" d="M1342.51 1030.74 Q1338.9 1030.74 1337.07 1034.3 Q1335.27 1037.85 1335.27 1044.98 Q1335.27 1052.08 1337.07 1055.65 Q1338.9 1059.19 1342.51 1059.19 Q1346.15 1059.19 1347.95 1055.65 Q1349.78 1052.08 1349.78 1044.98 Q1349.78 1037.85 1347.95 1034.3 Q1346.15 1030.74 1342.51 1030.74 M1342.51 1027.04 Q1348.32 1027.04 1351.38 1031.64 Q1354.46 1036.23 1354.46 1044.98 Q1354.46 1053.7 1351.38 1058.31 Q1348.32 1062.89 1342.51 1062.89 Q1336.7 1062.89 1333.62 1058.31 Q1330.57 1053.7 1330.57 1044.98 Q1330.57 1036.23 1333.62 1031.64 Q1336.7 1027.04 1342.51 1027.04 Z" fill="#000000" fill-rule="nonzero" fill-opacity="1" /><path clip-path="url(#clip510)" d="M1372.67 1030.74 Q1369.06 1030.74 1367.23 1034.3 Q1365.43 1037.85 1365.43 1044.98 Q1365.43 1052.08 1367.23 1055.65 Q1369.06 1059.19 1372.67 1059.19 Q1376.31 1059.19 1378.11 1055.65 Q1379.94 1052.08 1379.94 1044.98 Q1379.94 1037.85 1378.11 1034.3 Q1376.31 1030.74 1372.67 1030.74 M1372.67 1027.04 Q1378.48 1027.04 1381.54 1031.64 Q1384.62 1036.23 1384.62 1044.98 Q1384.62 1053.7 1381.54 1058.31 Q1378.48 1062.89 1372.67 1062.89 Q1366.86 1062.89 1363.79 1058.31 Q1360.73 1053.7 1360.73 1044.98 Q1360.73 1036.23 1363.79 1031.64 Q1366.86 1027.04 1372.67 1027.04 Z" fill="#000000" fill-rule="nonzero" fill-opacity="1" /><path clip-path="url(#clip510)" d="M1392.88 1027.66 L1411.24 1027.66 L1411.24 1031.6 L1397.16 1031.6 L1397.16 1040.07 Q1398.18 1039.72 1399.2 1039.56 Q1400.22 1039.37 1401.24 1039.37 Q1407.03 1039.37 1410.41 1042.55 Q1413.79 1045.72 1413.79 1051.13 Q1413.79 1056.71 1410.31 1059.81 Q1406.84 1062.89 1400.52 1062.89 Q1398.35 1062.89 1396.08 1062.52 Q1393.83 1062.15 1391.42 1061.41 L1391.42 1056.71 Q1393.51 1057.85 1395.73 1058.4 Q1397.95 1058.96 1400.43 1058.96 Q1404.43 1058.96 1406.77 1056.85 Q1409.11 1054.74 1409.11 1051.13 Q1409.11 1047.52 1406.77 1045.42 Q1404.43 1043.31 1400.43 1043.31 Q1398.55 1043.31 1396.68 1043.73 Q1394.83 1044.14 1392.88 1045.02 L1392.88 1027.66 Z" fill="#000000" fill-rule="nonzero" fill-opacity="1" /><path clip-path="url(#clip510)" d="M1296.29 690.923 Q1292.67 690.923 1290.85 694.488 Q1289.04 698.029 1289.04 705.159 Q1289.04 712.266 1290.85 715.83 Q1292.67 719.372 1296.29 719.372 Q1299.92 719.372 1301.73 715.83 Q1303.55 712.266 1303.55 705.159 Q1303.55 698.029 1301.73 694.488 Q1299.92 690.923 1296.29 690.923 M1296.29 687.219 Q1302.1 687.219 1305.15 691.826 Q1308.23 696.409 1308.23 705.159 Q1308.23 713.886 1305.15 718.492 Q1302.1 723.076 1296.29 723.076 Q1290.48 723.076 1287.4 718.492 Q1284.34 713.886 1284.34 705.159 Q1284.34 696.409 1287.4 691.826 Q1290.48 687.219 1296.29 687.219 Z" fill="#000000" fill-rule="nonzero" fill-opacity="1" /><path clip-path="url(#clip510)" d="M1316.45 716.525 L1321.33 716.525 L1321.33 722.404 L1316.45 722.404 L1316.45 716.525 Z" fill="#000000" fill-rule="nonzero" fill-opacity="1" /><path clip-path="url(#clip510)" d="M1341.52 690.923 Q1337.91 690.923 1336.08 694.488 Q1334.27 698.029 1334.27 705.159 Q1334.27 712.266 1336.08 715.83 Q1337.91 719.372 1341.52 719.372 Q1345.15 719.372 1346.96 715.83 Q1348.79 712.266 1348.79 705.159 Q1348.79 698.029 1346.96 694.488 Q1345.15 690.923 1341.52 690.923 M1341.52 687.219 Q1347.33 687.219 1350.38 691.826 Q1353.46 696.409 1353.46 705.159 Q1353.46 713.886 1350.38 718.492 Q1347.33 723.076 1341.52 723.076 Q1335.71 723.076 1332.63 718.492 Q1329.57 713.886 1329.57 705.159 Q1329.57 696.409 1332.63 691.826 Q1335.71 687.219 1341.52 687.219 Z" fill="#000000" fill-rule="nonzero" fill-opacity="1" /><path clip-path="url(#clip510)" d="M1362.49 718.469 L1370.13 718.469 L1370.13 692.104 L1361.82 693.77 L1361.82 689.511 L1370.08 687.844 L1374.76 687.844 L1374.76 718.469 L1382.4 718.469 L1382.4 722.404 L1362.49 722.404 L1362.49 718.469 Z" fill="#000000" fill-rule="nonzero" fill-opacity="1" /><path clip-path="url(#clip510)" d="M1401.84 690.923 Q1398.23 690.923 1396.4 694.488 Q1394.6 698.029 1394.6 705.159 Q1394.6 712.266 1396.4 715.83 Q1398.23 719.372 1401.84 719.372 Q1405.47 719.372 1407.28 715.83 Q1409.11 712.266 1409.11 705.159 Q1409.11 698.029 1407.28 694.488 Q1405.47 690.923 1401.84 690.923 M1401.84 687.219 Q1407.65 687.219 1410.71 691.826 Q1413.79 696.409 1413.79 705.159 Q1413.79 713.886 1410.71 718.492 Q1407.65 723.076 1401.84 723.076 Q1396.03 723.076 1392.95 718.492 Q1389.9 713.886 1389.9 705.159 Q1389.9 696.409 1392.95 691.826 Q1396.03 687.219 1401.84 687.219 Z" fill="#000000" fill-rule="nonzero" fill-opacity="1" /><path clip-path="url(#clip510)" d="M1297.28 351.106 Q1293.67 351.106 1291.84 354.671 Q1290.04 358.213 1290.04 365.342 Q1290.04 372.449 1291.84 376.014 Q1293.67 379.555 1297.28 379.555 Q1300.92 379.555 1302.72 376.014 Q1304.55 372.449 1304.55 365.342 Q1304.55 358.213 1302.72 354.671 Q1300.92 351.106 1297.28 351.106 M1297.28 347.403 Q1303.09 347.403 1306.15 352.009 Q1309.23 356.592 1309.23 365.342 Q1309.23 374.069 1306.15 378.676 Q1303.09 383.259 1297.28 383.259 Q1291.47 383.259 1288.39 378.676 Q1285.34 374.069 1285.34 365.342 Q1285.34 356.592 1288.39 352.009 Q1291.47 347.403 1297.28 347.403 Z" fill="#000000" fill-rule="nonzero" fill-opacity="1" /><path clip-path="url(#clip510)" d="M1317.44 376.708 L1322.33 376.708 L1322.33 382.588 L1317.44 382.588 L1317.44 376.708 Z" fill="#000000" fill-rule="nonzero" fill-opacity="1" /><path clip-path="url(#clip510)" d="M1342.51 351.106 Q1338.9 351.106 1337.07 354.671 Q1335.27 358.213 1335.27 365.342 Q1335.27 372.449 1337.07 376.014 Q1338.9 379.555 1342.51 379.555 Q1346.15 379.555 1347.95 376.014 Q1349.78 372.449 1349.78 365.342 Q1349.78 358.213 1347.95 354.671 Q1346.15 351.106 1342.51 351.106 M1342.51 347.403 Q1348.32 347.403 1351.38 352.009 Q1354.46 356.592 1354.46 365.342 Q1354.46 374.069 1351.38 378.676 Q1348.32 383.259 1342.51 383.259 Q1336.7 383.259 1333.62 378.676 Q1330.57 374.069 1330.57 365.342 Q1330.57 356.592 1333.62 352.009 Q1336.7 347.403 1342.51 347.403 Z" fill="#000000" fill-rule="nonzero" fill-opacity="1" /><path clip-path="url(#clip510)" d="M1363.48 378.653 L1371.12 378.653 L1371.12 352.287 L1362.81 353.954 L1362.81 349.694 L1371.08 348.028 L1375.75 348.028 L1375.75 378.653 L1383.39 378.653 L1383.39 382.588 L1363.48 382.588 L1363.48 378.653 Z" fill="#000000" fill-rule="nonzero" fill-opacity="1" /><path clip-path="url(#clip510)" d="M1392.88 348.028 L1411.24 348.028 L1411.24 351.963 L1397.16 351.963 L1397.16 360.435 Q1398.18 360.088 1399.2 359.926 Q1400.22 359.741 1401.24 359.741 Q1407.03 359.741 1410.41 362.912 Q1413.79 366.083 1413.79 371.5 Q1413.79 377.078 1410.31 380.18 Q1406.84 383.259 1400.52 383.259 Q1398.35 383.259 1396.08 382.889 Q1393.83 382.518 1391.42 381.777 L1391.42 377.078 Q1393.51 378.213 1395.73 378.768 Q1397.95 379.324 1400.43 379.324 Q1404.43 379.324 1406.77 377.217 Q1409.11 375.111 1409.11 371.5 Q1409.11 367.889 1406.77 365.782 Q1404.43 363.676 1400.43 363.676 Q1398.55 363.676 1396.68 364.092 Q1394.83 364.509 1392.88 365.389 L1392.88 348.028 Z" fill="#000000" fill-rule="nonzero" fill-opacity="1" /><path clip-path="url(#clip510)" d="M1190.93 826.13 Q1190.93 833.132 1196.15 837.27 Q1201.37 841.376 1210.37 841.376 Q1219.35 841.376 1224.57 837.27 Q1229.79 833.132 1229.79 826.13 Q1229.79 819.128 1224.57 815.054 Q1219.35 810.948 1210.37 810.948 Q1201.37 810.948 1196.15 815.054 Q1190.93 819.128 1190.93 826.13 M1233.23 817.123 L1242.49 808.656 L1242.49 816.422 L1234.88 823.457 Q1234.94 824.507 1234.98 825.08 Q1235.01 825.621 1235.01 826.13 Q1235.01 836.156 1228.32 842.172 Q1221.61 848.156 1210.37 848.156 Q1199.11 848.156 1192.42 842.172 Q1185.71 836.156 1185.71 826.13 Q1185.71 816.136 1192.42 810.152 Q1199.11 804.168 1210.37 804.168 Q1218.65 804.168 1224.54 807.51 Q1230.43 810.821 1233.23 817.123 Z" fill="#000000" fill-rule="nonzero" fill-opacity="1" /><path clip-path="url(#clip510)" d="M1184.56 774.186 L1184.56 760.691 L1189.11 760.691 L1189.11 768.33 L1238.13 768.33 L1238.13 760.691 L1242.68 760.691 L1242.68 774.186 L1184.56 774.186 Z" fill="#000000" fill-rule="nonzero" fill-opacity="1" /><path clip-path="url(#clip510)" d="M1186.57 747.959 L1186.57 739.302 L1226.32 718.231 L1186.57 718.231 L1186.57 711.993 L1234.09 711.993 L1234.09 720.65 L1194.33 741.721 L1234.09 741.721 L1234.09 747.959 L1186.57 747.959 Z" fill="#000000" fill-rule="nonzero" fill-opacity="1" /><path clip-path="url(#clip510)" d="M1205.28 671.698 Q1201.33 669.502 1199.46 666.446 Q1197.58 663.391 1197.58 659.253 Q1197.58 653.683 1201.49 650.659 Q1205.38 647.636 1212.57 647.636 L1234.09 647.636 L1234.09 653.524 L1212.76 653.524 Q1207.64 653.524 1205.15 655.338 Q1202.67 657.152 1202.67 660.876 Q1202.67 665.428 1205.69 668.07 Q1208.72 670.711 1213.94 670.711 L1234.09 670.711 L1234.09 676.6 L1212.76 676.6 Q1207.6 676.6 1205.15 678.414 Q1202.67 680.228 1202.67 684.016 Q1202.67 688.504 1205.73 691.145 Q1208.75 693.787 1213.94 693.787 L1234.09 693.787 L1234.09 699.675 L1198.44 699.675 L1198.44 693.787 L1203.98 693.787 Q1200.7 691.782 1199.14 688.981 Q1197.58 686.18 1197.58 682.329 Q1197.58 678.446 1199.55 675.74 Q1201.52 673.003 1205.28 671.698 Z" fill="#000000" fill-rule="nonzero" fill-opacity="1" /><path clip-path="url(#clip510)" d="M1184.56 622.268 L1242.68 622.268 L1242.68 635.764 L1238.13 635.764 L1238.13 628.157 L1189.11 628.157 L1189.11 635.764 L1184.56 635.764 L1184.56 622.268 Z" fill="#000000" fill-rule="nonzero" fill-opacity="1" /><polyline clip-path="url(#clip513)" style="stroke:#009af9; stroke-linecap:round; stroke-linejoin:round; stroke-width:4; stroke-opacity:1; fill:none" points="1475.34,1384.24 1492.73,1382.68 1510.11,1380.08 1527.5,1376.45 1544.88,1371.77 1562.27,1366.06 1579.65,1359.31 1597.04,1351.51 1614.42,1342.68 1631.8,1332.81 1649.19,1321.91 1666.57,1309.96 1683.96,1296.97 1701.34,1282.95 1718.73,1267.89 1736.11,1251.78 1753.5,1234.64 1770.88,1216.46 1788.27,1197.24 1805.65,1176.99 1823.04,1155.69 1840.42,1133.35 1857.81,1109.98 1875.19,1085.57 1892.58,1060.11 1909.96,1033.62 1927.35,1006.09 1944.73,977.526 1962.12,947.918 1979.5,917.272 1996.89,885.587 2014.27,852.863 2031.66,819.1 2049.04,784.298 2066.43,748.457 2083.81,711.578 2101.2,673.66 2118.58,634.702 2135.97,594.706 2153.35,553.672 2170.74,511.598 2188.12,468.485 2205.51,424.334 2222.89,379.144 2240.28,332.914 2257.66,285.646 2275.05,237.339 2292.43,187.994 2309.82,137.609 2327.2,86.1857 "/>
<path clip-path="url(#clip510)" d="M1479.88 196.789 L1725.67 196.789 L1725.67 93.1086 L1479.88 93.1086  Z" fill="#ffffff" fill-rule="evenodd" fill-opacity="1"/>
<polyline clip-path="url(#clip510)" style="stroke:#000000; stroke-linecap:round; stroke-linejoin:round; stroke-width:4; stroke-opacity:1; fill:none" points="1479.88,196.789 1725.67,196.789 1725.67,93.1086 1479.88,93.1086 1479.88,196.789 "/>
<polyline clip-path="url(#clip510)" style="stroke:#009af9; stroke-linecap:round; stroke-linejoin:round; stroke-width:4; stroke-opacity:1; fill:none" points="1489.92,144.949 1550.12,144.949 "/>
<path clip-path="url(#clip510)" d="M1560.15 127.669 L1589.38 127.669 L1589.38 131.604 L1577.12 131.604 L1577.12 162.229 L1572.42 162.229 L1572.42 131.604 L1560.15 131.604 L1560.15 127.669 Z" fill="#000000" fill-rule="nonzero" fill-opacity="1" /><path clip-path="url(#clip510)" d="M1595.7 139.289 Q1592.28 139.289 1590.29 141.974 Q1588.3 144.636 1588.3 149.289 Q1588.3 153.942 1590.26 156.627 Q1592.25 159.289 1595.7 159.289 Q1599.11 159.289 1601.1 156.604 Q1603.09 153.918 1603.09 149.289 Q1603.09 144.682 1601.1 141.997 Q1599.11 139.289 1595.7 139.289 M1595.7 135.678 Q1601.26 135.678 1604.43 139.289 Q1607.6 142.9 1607.6 149.289 Q1607.6 155.655 1604.43 159.289 Q1601.26 162.9 1595.7 162.9 Q1590.12 162.9 1586.95 159.289 Q1583.81 155.655 1583.81 149.289 Q1583.81 142.9 1586.95 139.289 Q1590.12 135.678 1595.7 135.678 Z" fill="#000000" fill-rule="nonzero" fill-opacity="1" /><path clip-path="url(#clip510)" d="M1629.68 140.284 Q1628.97 139.868 1628.11 139.682 Q1627.28 139.474 1626.26 139.474 Q1622.65 139.474 1620.7 141.835 Q1618.78 144.173 1618.78 148.571 L1618.78 162.229 L1614.5 162.229 L1614.5 136.303 L1618.78 136.303 L1618.78 140.331 Q1620.12 137.969 1622.28 136.835 Q1624.43 135.678 1627.51 135.678 Q1627.95 135.678 1628.48 135.747 Q1629.01 135.794 1629.66 135.909 L1629.68 140.284 Z" fill="#000000" fill-rule="nonzero" fill-opacity="1" /><path clip-path="url(#clip510)" d="M1635.87 149.289 Q1635.87 153.988 1637.79 156.673 Q1639.73 159.335 1643.11 159.335 Q1646.49 159.335 1648.43 156.673 Q1650.38 153.988 1650.38 149.289 Q1650.38 144.59 1648.43 141.928 Q1646.49 139.243 1643.11 139.243 Q1639.73 139.243 1637.79 141.928 Q1635.87 144.59 1635.87 149.289 M1650.38 158.34 Q1649.04 160.655 1646.98 161.789 Q1644.94 162.9 1642.07 162.9 Q1637.37 162.9 1634.41 159.15 Q1631.47 155.4 1631.47 149.289 Q1631.47 143.178 1634.41 139.428 Q1637.37 135.678 1642.07 135.678 Q1644.94 135.678 1646.98 136.812 Q1649.04 137.923 1650.38 140.238 L1650.38 136.303 L1654.64 136.303 L1654.64 172.09 L1650.38 172.09 L1650.38 158.34 Z" fill="#000000" fill-rule="nonzero" fill-opacity="1" /><path clip-path="url(#clip510)" d="M1662.97 151.997 L1662.97 136.303 L1667.23 136.303 L1667.23 151.835 Q1667.23 155.516 1668.67 157.368 Q1670.1 159.196 1672.97 159.196 Q1676.42 159.196 1678.41 156.997 Q1680.43 154.798 1680.43 151.002 L1680.43 136.303 L1684.68 136.303 L1684.68 162.229 L1680.43 162.229 L1680.43 158.247 Q1678.87 160.608 1676.81 161.766 Q1674.78 162.9 1672.07 162.9 Q1667.6 162.9 1665.29 160.122 Q1662.97 157.344 1662.97 151.997 M1673.69 135.678 L1673.69 135.678 Z" fill="#000000" fill-rule="nonzero" fill-opacity="1" /><path clip-path="url(#clip510)" d="M1715.63 148.201 L1715.63 150.284 L1696.05 150.284 Q1696.33 154.682 1698.69 156.997 Q1701.07 159.289 1705.31 159.289 Q1707.76 159.289 1710.05 158.687 Q1712.37 158.085 1714.64 156.881 L1714.64 160.909 Q1712.35 161.881 1709.94 162.391 Q1707.53 162.9 1705.05 162.9 Q1698.85 162.9 1695.22 159.289 Q1691.61 155.678 1691.61 149.52 Q1691.61 143.155 1695.03 139.428 Q1698.48 135.678 1704.31 135.678 Q1709.55 135.678 1712.58 139.057 Q1715.63 142.414 1715.63 148.201 M1711.37 146.951 Q1711.33 143.456 1709.41 141.372 Q1707.51 139.289 1704.36 139.289 Q1700.8 139.289 1698.64 141.303 Q1696.51 143.317 1696.19 146.974 L1711.37 146.951 Z" fill="#000000" fill-rule="nonzero" fill-opacity="1" /></svg>
