<?xml version="1.0" encoding="utf-8"?>
<svg xmlns="http://www.w3.org/2000/svg" xmlns:xlink="http://www.w3.org/1999/xlink" width="600" height="400" viewBox="0 0 2400 1600">
<defs>
  <clipPath id="clip910">
    <rect x="0" y="0" width="2400" height="1600"/>
  </clipPath>
</defs>
<path clip-path="url(#clip910)" d="M0 1600 L2400 1600 L2400 0 L0 0  Z" fill="#ffffff" fill-rule="evenodd" fill-opacity="1"/>
<defs>
  <clipPath id="clip911">
    <rect x="480" y="0" width="1681" height="1600"/>
  </clipPath>
</defs>
<path clip-path="url(#clip910)" d="M249.542 1423.18 L1137.43 1423.18 L1137.43 47.2441 L249.542 47.2441  Z" fill="#ffffff" fill-rule="evenodd" fill-opacity="1"/>
<defs>
  <clipPath id="clip912">
    <rect x="249" y="47" width="889" height="1377"/>
  </clipPath>
</defs>
<polyline clip-path="url(#clip912)" style="stroke:#000000; stroke-linecap:round; stroke-linejoin:round; stroke-width:2; stroke-opacity:0.1; fill:none" points="257.576,1423.18 257.576,47.2441 "/>
<polyline clip-path="url(#clip912)" style="stroke:#000000; stroke-linecap:round; stroke-linejoin:round; stroke-width:2; stroke-opacity:0.1; fill:none" points="428.522,1423.18 428.522,47.2441 "/>
<polyline clip-path="url(#clip912)" style="stroke:#000000; stroke-linecap:round; stroke-linejoin:round; stroke-width:2; stroke-opacity:0.1; fill:none" points="599.467,1423.18 599.467,47.2441 "/>
<polyline clip-path="url(#clip912)" style="stroke:#000000; stroke-linecap:round; stroke-linejoin:round; stroke-width:2; stroke-opacity:0.1; fill:none" points="770.412,1423.18 770.412,47.2441 "/>
<polyline clip-path="url(#clip912)" style="stroke:#000000; stroke-linecap:round; stroke-linejoin:round; stroke-width:2; stroke-opacity:0.1; fill:none" points="941.358,1423.18 941.358,47.2441 "/>
<polyline clip-path="url(#clip912)" style="stroke:#000000; stroke-linecap:round; stroke-linejoin:round; stroke-width:2; stroke-opacity:0.1; fill:none" points="1112.3,1423.18 1112.3,47.2441 "/>
<polyline clip-path="url(#clip910)" style="stroke:#000000; stroke-linecap:round; stroke-linejoin:round; stroke-width:4; stroke-opacity:1; fill:none" points="249.542,1423.18 1137.43,1423.18 "/>
<polyline clip-path="url(#clip910)" style="stroke:#000000; stroke-linecap:round; stroke-linejoin:round; stroke-width:4; stroke-opacity:1; fill:none" points="257.576,1423.18 257.576,1404.28 "/>
<polyline clip-path="url(#clip910)" style="stroke:#000000; stroke-linecap:round; stroke-linejoin:round; stroke-width:4; stroke-opacity:1; fill:none" points="428.522,1423.18 428.522,1404.28 "/>
<polyline clip-path="url(#clip910)" style="stroke:#000000; stroke-linecap:round; stroke-linejoin:round; stroke-width:4; stroke-opacity:1; fill:none" points="599.467,1423.18 599.467,1404.28 "/>
<polyline clip-path="url(#clip910)" style="stroke:#000000; stroke-linecap:round; stroke-linejoin:round; stroke-width:4; stroke-opacity:1; fill:none" points="770.412,1423.18 770.412,1404.28 "/>
<polyline clip-path="url(#clip910)" style="stroke:#000000; stroke-linecap:round; stroke-linejoin:round; stroke-width:4; stroke-opacity:1; fill:none" points="941.358,1423.18 941.358,1404.28 "/>
<polyline clip-path="url(#clip910)" style="stroke:#000000; stroke-linecap:round; stroke-linejoin:round; stroke-width:4; stroke-opacity:1; fill:none" points="1112.3,1423.18 1112.3,1404.28 "/>
<path clip-path="url(#clip910)" d="M257.576 1454.1 Q253.965 1454.1 252.137 1457.66 Q250.331 1461.2 250.331 1468.33 Q250.331 1475.44 252.137 1479.01 Q253.965 1482.55 257.576 1482.55 Q261.211 1482.55 263.016 1479.01 Q264.845 1475.44 264.845 1468.33 Q264.845 1461.2 263.016 1457.66 Q261.211 1454.1 257.576 1454.1 M257.576 1450.39 Q263.387 1450.39 266.442 1455 Q269.521 1459.58 269.521 1468.33 Q269.521 1477.06 266.442 1481.67 Q263.387 1486.25 257.576 1486.25 Q251.766 1486.25 248.688 1481.67 Q245.632 1477.06 245.632 1468.33 Q245.632 1459.58 248.688 1455 Q251.766 1450.39 257.576 1450.39 Z" fill="#000000" fill-rule="nonzero" fill-opacity="1" /><path clip-path="url(#clip910)" d="M373.048 1481.64 L380.686 1481.64 L380.686 1455.28 L372.376 1456.95 L372.376 1452.69 L380.64 1451.02 L385.316 1451.02 L385.316 1481.64 L392.955 1481.64 L392.955 1485.58 L373.048 1485.58 L373.048 1481.64 Z" fill="#000000" fill-rule="nonzero" fill-opacity="1" /><path clip-path="url(#clip910)" d="M412.399 1454.1 Q408.788 1454.1 406.959 1457.66 Q405.154 1461.2 405.154 1468.33 Q405.154 1475.44 406.959 1479.01 Q408.788 1482.55 412.399 1482.55 Q416.033 1482.55 417.839 1479.01 Q419.668 1475.44 419.668 1468.33 Q419.668 1461.2 417.839 1457.66 Q416.033 1454.1 412.399 1454.1 M412.399 1450.39 Q418.209 1450.39 421.265 1455 Q424.344 1459.58 424.344 1468.33 Q424.344 1477.06 421.265 1481.67 Q418.209 1486.25 412.399 1486.25 Q406.589 1486.25 403.51 1481.67 Q400.455 1477.06 400.455 1468.33 Q400.455 1459.58 403.51 1455 Q406.589 1450.39 412.399 1450.39 Z" fill="#000000" fill-rule="nonzero" fill-opacity="1" /><path clip-path="url(#clip910)" d="M442.561 1454.1 Q438.95 1454.1 437.121 1457.66 Q435.316 1461.2 435.316 1468.33 Q435.316 1475.44 437.121 1479.01 Q438.95 1482.55 442.561 1482.55 Q446.195 1482.55 448.001 1479.01 Q449.83 1475.44 449.83 1468.33 Q449.83 1461.2 448.001 1457.66 Q446.195 1454.1 442.561 1454.1 M442.561 1450.39 Q448.371 1450.39 451.427 1455 Q454.505 1459.58 454.505 1468.33 Q454.505 1477.06 451.427 1481.67 Q448.371 1486.25 442.561 1486.25 Q436.751 1486.25 433.672 1481.67 Q430.617 1477.06 430.617 1468.33 Q430.617 1459.58 433.672 1455 Q436.751 1450.39 442.561 1450.39 Z" fill="#000000" fill-rule="nonzero" fill-opacity="1" /><path clip-path="url(#clip910)" d="M472.723 1454.1 Q469.112 1454.1 467.283 1457.66 Q465.478 1461.2 465.478 1468.33 Q465.478 1475.44 467.283 1479.01 Q469.112 1482.55 472.723 1482.55 Q476.357 1482.55 478.163 1479.01 Q479.991 1475.44 479.991 1468.33 Q479.991 1461.2 478.163 1457.66 Q476.357 1454.1 472.723 1454.1 M472.723 1450.39 Q478.533 1450.39 481.589 1455 Q484.667 1459.58 484.667 1468.33 Q484.667 1477.06 481.589 1481.67 Q478.533 1486.25 472.723 1486.25 Q466.913 1486.25 463.834 1481.67 Q460.779 1477.06 460.779 1468.33 Q460.779 1459.58 463.834 1455 Q466.913 1450.39 472.723 1450.39 Z" fill="#000000" fill-rule="nonzero" fill-opacity="1" /><path clip-path="url(#clip910)" d="M548.078 1481.64 L564.398 1481.64 L564.398 1485.58 L542.453 1485.58 L542.453 1481.64 Q545.115 1478.89 549.699 1474.26 Q554.305 1469.61 555.486 1468.27 Q557.731 1465.74 558.611 1464.01 Q559.514 1462.25 559.514 1460.56 Q559.514 1457.8 557.569 1456.07 Q555.648 1454.33 552.546 1454.33 Q550.347 1454.33 547.893 1455.09 Q545.463 1455.86 542.685 1457.41 L542.685 1452.69 Q545.509 1451.55 547.963 1450.97 Q550.416 1450.39 552.453 1450.39 Q557.824 1450.39 561.018 1453.08 Q564.213 1455.77 564.213 1460.26 Q564.213 1462.39 563.402 1464.31 Q562.615 1466.2 560.509 1468.8 Q559.93 1469.47 556.828 1472.69 Q553.727 1475.88 548.078 1481.64 Z" fill="#000000" fill-rule="nonzero" fill-opacity="1" /><path clip-path="url(#clip910)" d="M584.213 1454.1 Q580.601 1454.1 578.773 1457.66 Q576.967 1461.2 576.967 1468.33 Q576.967 1475.44 578.773 1479.01 Q580.601 1482.55 584.213 1482.55 Q587.847 1482.55 589.652 1479.01 Q591.481 1475.44 591.481 1468.33 Q591.481 1461.2 589.652 1457.66 Q587.847 1454.1 584.213 1454.1 M584.213 1450.39 Q590.023 1450.39 593.078 1455 Q596.157 1459.58 596.157 1468.33 Q596.157 1477.06 593.078 1481.67 Q590.023 1486.25 584.213 1486.25 Q578.402 1486.25 575.324 1481.67 Q572.268 1477.06 572.268 1468.33 Q572.268 1459.58 575.324 1455 Q578.402 1450.39 584.213 1450.39 Z" fill="#000000" fill-rule="nonzero" fill-opacity="1" /><path clip-path="url(#clip910)" d="M614.374 1454.1 Q610.763 1454.1 608.935 1457.66 Q607.129 1461.2 607.129 1468.33 Q607.129 1475.44 608.935 1479.01 Q610.763 1482.55 614.374 1482.55 Q618.009 1482.55 619.814 1479.01 Q621.643 1475.44 621.643 1468.33 Q621.643 1461.2 619.814 1457.66 Q618.009 1454.1 614.374 1454.1 M614.374 1450.39 Q620.185 1450.39 623.24 1455 Q626.319 1459.58 626.319 1468.33 Q626.319 1477.06 623.24 1481.67 Q620.185 1486.25 614.374 1486.25 Q608.564 1486.25 605.486 1481.67 Q602.43 1477.06 602.43 1468.33 Q602.43 1459.58 605.486 1455 Q608.564 1450.39 614.374 1450.39 Z" fill="#000000" fill-rule="nonzero" fill-opacity="1" /><path clip-path="url(#clip910)" d="M644.536 1454.1 Q640.925 1454.1 639.096 1457.66 Q637.291 1461.2 637.291 1468.33 Q637.291 1475.44 639.096 1479.01 Q640.925 1482.55 644.536 1482.55 Q648.171 1482.55 649.976 1479.01 Q651.805 1475.44 651.805 1468.33 Q651.805 1461.2 649.976 1457.66 Q648.171 1454.1 644.536 1454.1 M644.536 1450.39 Q650.346 1450.39 653.402 1455 Q656.481 1459.58 656.481 1468.33 Q656.481 1477.06 653.402 1481.67 Q650.346 1486.25 644.536 1486.25 Q638.726 1486.25 635.647 1481.67 Q632.592 1477.06 632.592 1468.33 Q632.592 1459.58 635.647 1455 Q638.726 1450.39 644.536 1450.39 Z" fill="#000000" fill-rule="nonzero" fill-opacity="1" /><path clip-path="url(#clip910)" d="M729.093 1466.95 Q732.45 1467.66 734.325 1469.93 Q736.223 1472.2 736.223 1475.53 Q736.223 1480.65 732.704 1483.45 Q729.186 1486.25 722.704 1486.25 Q720.528 1486.25 718.214 1485.81 Q715.922 1485.39 713.468 1484.54 L713.468 1480.02 Q715.413 1481.16 717.727 1481.74 Q720.042 1482.32 722.565 1482.32 Q726.964 1482.32 729.255 1480.58 Q731.57 1478.84 731.57 1475.53 Q731.57 1472.48 729.417 1470.77 Q727.288 1469.03 723.468 1469.03 L719.44 1469.03 L719.44 1465.19 L723.653 1465.19 Q727.102 1465.19 728.931 1463.82 Q730.76 1462.43 730.76 1459.84 Q730.76 1457.18 728.862 1455.77 Q726.987 1454.33 723.468 1454.33 Q721.547 1454.33 719.348 1454.75 Q717.149 1455.16 714.51 1456.04 L714.51 1451.88 Q717.172 1451.14 719.487 1450.77 Q721.825 1450.39 723.885 1450.39 Q729.209 1450.39 732.311 1452.83 Q735.413 1455.23 735.413 1459.35 Q735.413 1462.22 733.769 1464.21 Q732.126 1466.18 729.093 1466.95 Z" fill="#000000" fill-rule="nonzero" fill-opacity="1" /><path clip-path="url(#clip910)" d="M755.088 1454.1 Q751.477 1454.1 749.649 1457.66 Q747.843 1461.2 747.843 1468.33 Q747.843 1475.44 749.649 1479.01 Q751.477 1482.55 755.088 1482.55 Q758.723 1482.55 760.528 1479.01 Q762.357 1475.44 762.357 1468.33 Q762.357 1461.2 760.528 1457.66 Q758.723 1454.1 755.088 1454.1 M755.088 1450.39 Q760.899 1450.39 763.954 1455 Q767.033 1459.58 767.033 1468.33 Q767.033 1477.06 763.954 1481.67 Q760.899 1486.25 755.088 1486.25 Q749.278 1486.25 746.2 1481.67 Q743.144 1477.06 743.144 1468.33 Q743.144 1459.58 746.2 1455 Q749.278 1450.39 755.088 1450.39 Z" fill="#000000" fill-rule="nonzero" fill-opacity="1" /><path clip-path="url(#clip910)" d="M785.25 1454.1 Q781.639 1454.1 779.81 1457.66 Q778.005 1461.2 778.005 1468.33 Q778.005 1475.44 779.81 1479.01 Q781.639 1482.55 785.25 1482.55 Q788.884 1482.55 790.69 1479.01 Q792.519 1475.44 792.519 1468.33 Q792.519 1461.2 790.69 1457.66 Q788.884 1454.1 785.25 1454.1 M785.25 1450.39 Q791.06 1450.39 794.116 1455 Q797.195 1459.58 797.195 1468.33 Q797.195 1477.06 794.116 1481.67 Q791.06 1486.25 785.25 1486.25 Q779.44 1486.25 776.361 1481.67 Q773.306 1477.06 773.306 1468.33 Q773.306 1459.58 776.361 1455 Q779.44 1450.39 785.25 1450.39 Z" fill="#000000" fill-rule="nonzero" fill-opacity="1" /><path clip-path="url(#clip910)" d="M815.412 1454.1 Q811.801 1454.1 809.972 1457.66 Q808.167 1461.2 808.167 1468.33 Q808.167 1475.44 809.972 1479.01 Q811.801 1482.55 815.412 1482.55 Q819.046 1482.55 820.852 1479.01 Q822.681 1475.44 822.681 1468.33 Q822.681 1461.2 820.852 1457.66 Q819.046 1454.1 815.412 1454.1 M815.412 1450.39 Q821.222 1450.39 824.278 1455 Q827.356 1459.58 827.356 1468.33 Q827.356 1477.06 824.278 1481.67 Q821.222 1486.25 815.412 1486.25 Q809.602 1486.25 806.523 1481.67 Q803.468 1477.06 803.468 1468.33 Q803.468 1459.58 806.523 1455 Q809.602 1450.39 815.412 1450.39 Z" fill="#000000" fill-rule="nonzero" fill-opacity="1" /><path clip-path="url(#clip910)" d="M899.367 1455.09 L887.562 1473.54 L899.367 1473.54 L899.367 1455.09 M898.14 1451.02 L904.02 1451.02 L904.02 1473.54 L908.95 1473.54 L908.95 1477.43 L904.02 1477.43 L904.02 1485.58 L899.367 1485.58 L899.367 1477.43 L883.765 1477.43 L883.765 1472.92 L898.14 1451.02 Z" fill="#000000" fill-rule="nonzero" fill-opacity="1" /><path clip-path="url(#clip910)" d="M926.682 1454.1 Q923.071 1454.1 921.242 1457.66 Q919.436 1461.2 919.436 1468.33 Q919.436 1475.44 921.242 1479.01 Q923.071 1482.55 926.682 1482.55 Q930.316 1482.55 932.122 1479.01 Q933.95 1475.44 933.95 1468.33 Q933.95 1461.2 932.122 1457.66 Q930.316 1454.1 926.682 1454.1 M926.682 1450.39 Q932.492 1450.39 935.548 1455 Q938.626 1459.58 938.626 1468.33 Q938.626 1477.06 935.548 1481.67 Q932.492 1486.25 926.682 1486.25 Q920.872 1486.25 917.793 1481.67 Q914.737 1477.06 914.737 1468.33 Q914.737 1459.58 917.793 1455 Q920.872 1450.39 926.682 1450.39 Z" fill="#000000" fill-rule="nonzero" fill-opacity="1" /><path clip-path="url(#clip910)" d="M956.844 1454.1 Q953.233 1454.1 951.404 1457.66 Q949.598 1461.2 949.598 1468.33 Q949.598 1475.44 951.404 1479.01 Q953.233 1482.55 956.844 1482.55 Q960.478 1482.55 962.283 1479.01 Q964.112 1475.44 964.112 1468.33 Q964.112 1461.2 962.283 1457.66 Q960.478 1454.1 956.844 1454.1 M956.844 1450.39 Q962.654 1450.39 965.709 1455 Q968.788 1459.58 968.788 1468.33 Q968.788 1477.06 965.709 1481.67 Q962.654 1486.25 956.844 1486.25 Q951.034 1486.25 947.955 1481.67 Q944.899 1477.06 944.899 1468.33 Q944.899 1459.58 947.955 1455 Q951.034 1450.39 956.844 1450.39 Z" fill="#000000" fill-rule="nonzero" fill-opacity="1" /><path clip-path="url(#clip910)" d="M987.006 1454.1 Q983.394 1454.1 981.566 1457.66 Q979.76 1461.2 979.76 1468.33 Q979.76 1475.44 981.566 1479.01 Q983.394 1482.55 987.006 1482.55 Q990.64 1482.55 992.445 1479.01 Q994.274 1475.44 994.274 1468.33 Q994.274 1461.2 992.445 1457.66 Q990.64 1454.1 987.006 1454.1 M987.006 1450.39 Q992.816 1450.39 995.871 1455 Q998.95 1459.58 998.95 1468.33 Q998.95 1477.06 995.871 1481.67 Q992.816 1486.25 987.006 1486.25 Q981.195 1486.25 978.117 1481.67 Q975.061 1477.06 975.061 1468.33 Q975.061 1459.58 978.117 1455 Q981.195 1450.39 987.006 1450.39 Z" fill="#000000" fill-rule="nonzero" fill-opacity="1" /><path clip-path="url(#clip910)" d="M1056.84 1451.02 L1075.2 1451.02 L1075.2 1454.96 L1061.12 1454.96 L1061.12 1463.43 Q1062.14 1463.08 1063.16 1462.92 Q1064.18 1462.73 1065.2 1462.73 Q1070.98 1462.73 1074.36 1465.9 Q1077.74 1469.08 1077.74 1474.49 Q1077.74 1480.07 1074.27 1483.17 Q1070.8 1486.25 1064.48 1486.25 Q1062.3 1486.25 1060.03 1485.88 Q1057.79 1485.51 1055.38 1484.77 L1055.38 1480.07 Q1057.47 1481.2 1059.69 1481.76 Q1061.91 1482.32 1064.39 1482.32 Q1068.39 1482.32 1070.73 1480.21 Q1073.07 1478.1 1073.07 1474.49 Q1073.07 1470.88 1070.73 1468.77 Q1068.39 1466.67 1064.39 1466.67 Q1062.51 1466.67 1060.64 1467.08 Q1058.78 1467.5 1056.84 1468.38 L1056.84 1451.02 Z" fill="#000000" fill-rule="nonzero" fill-opacity="1" /><path clip-path="url(#clip910)" d="M1096.96 1454.1 Q1093.34 1454.1 1091.52 1457.66 Q1089.71 1461.2 1089.71 1468.33 Q1089.71 1475.44 1091.52 1479.01 Q1093.34 1482.55 1096.96 1482.55 Q1100.59 1482.55 1102.4 1479.01 Q1104.22 1475.44 1104.22 1468.33 Q1104.22 1461.2 1102.4 1457.66 Q1100.59 1454.1 1096.96 1454.1 M1096.96 1450.39 Q1102.77 1450.39 1105.82 1455 Q1108.9 1459.58 1108.9 1468.33 Q1108.9 1477.06 1105.82 1481.67 Q1102.77 1486.25 1096.96 1486.25 Q1091.15 1486.25 1088.07 1481.67 Q1085.01 1477.06 1085.01 1468.33 Q1085.01 1459.58 1088.07 1455 Q1091.15 1450.39 1096.96 1450.39 Z" fill="#000000" fill-rule="nonzero" fill-opacity="1" /><path clip-path="url(#clip910)" d="M1127.12 1454.1 Q1123.51 1454.1 1121.68 1457.66 Q1119.87 1461.2 1119.87 1468.33 Q1119.87 1475.44 1121.68 1479.01 Q1123.51 1482.55 1127.12 1482.55 Q1130.75 1482.55 1132.56 1479.01 Q1134.39 1475.44 1134.39 1468.33 Q1134.39 1461.2 1132.56 1457.66 Q1130.75 1454.1 1127.12 1454.1 M1127.12 1450.39 Q1132.93 1450.39 1135.98 1455 Q1139.06 1459.58 1139.06 1468.33 Q1139.06 1477.06 1135.98 1481.67 Q1132.93 1486.25 1127.12 1486.25 Q1121.31 1486.25 1118.23 1481.67 Q1115.17 1477.06 1115.17 1468.33 Q1115.17 1459.58 1118.23 1455 Q1121.31 1450.39 1127.12 1450.39 Z" fill="#000000" fill-rule="nonzero" fill-opacity="1" /><path clip-path="url(#clip910)" d="M1157.28 1454.1 Q1153.67 1454.1 1151.84 1457.66 Q1150.03 1461.2 1150.03 1468.33 Q1150.03 1475.44 1151.84 1479.01 Q1153.67 1482.55 1157.28 1482.55 Q1160.91 1482.55 1162.72 1479.01 Q1164.55 1475.44 1164.55 1468.33 Q1164.55 1461.2 1162.72 1457.66 Q1160.91 1454.1 1157.28 1454.1 M1157.28 1450.39 Q1163.09 1450.39 1166.15 1455 Q1169.22 1459.58 1169.22 1468.33 Q1169.22 1477.06 1166.15 1481.67 Q1163.09 1486.25 1157.28 1486.25 Q1151.47 1486.25 1148.39 1481.67 Q1145.34 1477.06 1145.34 1468.33 Q1145.34 1459.58 1148.39 1455 Q1151.47 1450.39 1157.28 1450.39 Z" fill="#000000" fill-rule="nonzero" fill-opacity="1" /><path clip-path="url(#clip910)" d="M651.983 1545.76 Q654.051 1546.46 655.993 1548.76 Q657.966 1551.05 659.94 1555.06 L666.465 1568.04 L659.558 1568.04 L653.479 1555.85 Q651.123 1551.08 648.895 1549.52 Q646.699 1547.96 642.88 1547.96 L635.877 1547.96 L635.877 1568.04 L629.448 1568.04 L629.448 1520.52 L643.962 1520.52 Q652.11 1520.52 656.12 1523.93 Q660.131 1527.34 660.131 1534.21 Q660.131 1538.7 658.03 1541.66 Q655.961 1544.62 651.983 1545.76 M635.877 1525.81 L635.877 1542.68 L643.962 1542.68 Q648.609 1542.68 650.964 1540.54 Q653.351 1538.38 653.351 1534.21 Q653.351 1530.04 650.964 1527.94 Q648.609 1525.81 643.962 1525.81 L635.877 1525.81 Z" fill="#000000" fill-rule="nonzero" fill-opacity="1" /><path clip-path="url(#clip910)" d="M681.169 1525.81 L681.169 1543.66 L689.254 1543.66 Q693.742 1543.66 696.192 1541.34 Q698.643 1539.02 698.643 1534.72 Q698.643 1530.45 696.192 1528.13 Q693.742 1525.81 689.254 1525.81 L681.169 1525.81 M674.74 1520.52 L689.254 1520.52 Q697.243 1520.52 701.317 1524.15 Q705.423 1527.75 705.423 1534.72 Q705.423 1541.75 701.317 1545.35 Q697.243 1548.95 689.254 1548.95 L681.169 1548.95 L681.169 1568.04 L674.74 1568.04 L674.74 1520.52 Z" fill="#000000" fill-rule="nonzero" fill-opacity="1" /><path clip-path="url(#clip910)" d="M714.048 1520.52 L723.629 1520.52 L735.755 1552.86 L747.946 1520.52 L757.526 1520.52 L757.526 1568.04 L751.256 1568.04 L751.256 1526.32 L739.002 1558.91 L732.541 1558.91 L720.287 1526.32 L720.287 1568.04 L714.048 1568.04 L714.048 1520.52 Z" fill="#000000" fill-rule="nonzero" fill-opacity="1" /><polyline clip-path="url(#clip912)" style="stroke:#000000; stroke-linecap:round; stroke-linejoin:round; stroke-width:2; stroke-opacity:0.1; fill:none" points="249.542,1384.76 1137.43,1384.76 "/>
<polyline clip-path="url(#clip912)" style="stroke:#000000; stroke-linecap:round; stroke-linejoin:round; stroke-width:2; stroke-opacity:0.1; fill:none" points="249.542,1073.18 1137.43,1073.18 "/>
<polyline clip-path="url(#clip912)" style="stroke:#000000; stroke-linecap:round; stroke-linejoin:round; stroke-width:2; stroke-opacity:0.1; fill:none" points="249.542,761.599 1137.43,761.599 "/>
<polyline clip-path="url(#clip912)" style="stroke:#000000; stroke-linecap:round; stroke-linejoin:round; stroke-width:2; stroke-opacity:0.1; fill:none" points="249.542,450.02 1137.43,450.02 "/>
<polyline clip-path="url(#clip912)" style="stroke:#000000; stroke-linecap:round; stroke-linejoin:round; stroke-width:2; stroke-opacity:0.1; fill:none" points="249.542,138.441 1137.43,138.441 "/>
<polyline clip-path="url(#clip910)" style="stroke:#000000; stroke-linecap:round; stroke-linejoin:round; stroke-width:4; stroke-opacity:1; fill:none" points="249.542,1423.18 249.542,47.2441 "/>
<polyline clip-path="url(#clip910)" style="stroke:#000000; stroke-linecap:round; stroke-linejoin:round; stroke-width:4; stroke-opacity:1; fill:none" points="249.542,1384.76 268.44,1384.76 "/>
<polyline clip-path="url(#clip910)" style="stroke:#000000; stroke-linecap:round; stroke-linejoin:round; stroke-width:4; stroke-opacity:1; fill:none" points="249.542,1073.18 268.44,1073.18 "/>
<polyline clip-path="url(#clip910)" style="stroke:#000000; stroke-linecap:round; stroke-linejoin:round; stroke-width:4; stroke-opacity:1; fill:none" points="249.542,761.599 268.44,761.599 "/>
<polyline clip-path="url(#clip910)" style="stroke:#000000; stroke-linecap:round; stroke-linejoin:round; stroke-width:4; stroke-opacity:1; fill:none" points="249.542,450.02 268.44,450.02 "/>
<polyline clip-path="url(#clip910)" style="stroke:#000000; stroke-linecap:round; stroke-linejoin:round; stroke-width:4; stroke-opacity:1; fill:none" points="249.542,138.441 268.44,138.441 "/>
<path clip-path="url(#clip910)" d="M126.205 1370.56 Q122.593 1370.56 120.765 1374.12 Q118.959 1377.66 118.959 1384.79 Q118.959 1391.9 120.765 1395.46 Q122.593 1399.01 126.205 1399.01 Q129.839 1399.01 131.644 1395.46 Q133.473 1391.9 133.473 1384.79 Q133.473 1377.66 131.644 1374.12 Q129.839 1370.56 126.205 1370.56 M126.205 1366.85 Q132.015 1366.85 135.07 1371.46 Q138.149 1376.04 138.149 1384.79 Q138.149 1393.52 135.07 1398.13 Q132.015 1402.71 126.205 1402.71 Q120.394 1402.71 117.316 1398.13 Q114.26 1393.52 114.26 1384.79 Q114.26 1376.04 117.316 1371.46 Q120.394 1366.85 126.205 1366.85 Z" fill="#000000" fill-rule="nonzero" fill-opacity="1" /><path clip-path="url(#clip910)" d="M146.366 1396.16 L151.251 1396.16 L151.251 1402.04 L146.366 1402.04 L146.366 1396.16 Z" fill="#000000" fill-rule="nonzero" fill-opacity="1" /><path clip-path="url(#clip910)" d="M171.436 1370.56 Q167.825 1370.56 165.996 1374.12 Q164.19 1377.66 164.19 1384.79 Q164.19 1391.9 165.996 1395.46 Q167.825 1399.01 171.436 1399.01 Q175.07 1399.01 176.876 1395.46 Q178.704 1391.9 178.704 1384.79 Q178.704 1377.66 176.876 1374.12 Q175.07 1370.56 171.436 1370.56 M171.436 1366.85 Q177.246 1366.85 180.301 1371.46 Q183.38 1376.04 183.38 1384.79 Q183.38 1393.52 180.301 1398.13 Q177.246 1402.71 171.436 1402.71 Q165.626 1402.71 162.547 1398.13 Q159.491 1393.52 159.491 1384.79 Q159.491 1376.04 162.547 1371.46 Q165.626 1366.85 171.436 1366.85 Z" fill="#000000" fill-rule="nonzero" fill-opacity="1" /><path clip-path="url(#clip910)" d="M201.598 1370.56 Q197.987 1370.56 196.158 1374.12 Q194.352 1377.66 194.352 1384.79 Q194.352 1391.9 196.158 1395.46 Q197.987 1399.01 201.598 1399.01 Q205.232 1399.01 207.037 1395.46 Q208.866 1391.9 208.866 1384.79 Q208.866 1377.66 207.037 1374.12 Q205.232 1370.56 201.598 1370.56 M201.598 1366.85 Q207.408 1366.85 210.463 1371.46 Q213.542 1376.04 213.542 1384.79 Q213.542 1393.52 210.463 1398.13 Q207.408 1402.71 201.598 1402.71 Q195.787 1402.71 192.709 1398.13 Q189.653 1393.52 189.653 1384.79 Q189.653 1376.04 192.709 1371.46 Q195.787 1366.85 201.598 1366.85 Z" fill="#000000" fill-rule="nonzero" fill-opacity="1" /><path clip-path="url(#clip910)" d="M127.2 1058.98 Q123.589 1058.98 121.76 1062.54 Q119.955 1066.08 119.955 1073.21 Q119.955 1080.32 121.76 1083.88 Q123.589 1087.43 127.2 1087.43 Q130.834 1087.43 132.64 1083.88 Q134.468 1080.32 134.468 1073.21 Q134.468 1066.08 132.64 1062.54 Q130.834 1058.98 127.2 1058.98 M127.2 1055.27 Q133.01 1055.27 136.066 1059.88 Q139.144 1064.46 139.144 1073.21 Q139.144 1081.94 136.066 1086.55 Q133.01 1091.13 127.2 1091.13 Q121.39 1091.13 118.311 1086.55 Q115.256 1081.94 115.256 1073.21 Q115.256 1064.46 118.311 1059.88 Q121.39 1055.27 127.2 1055.27 Z" fill="#000000" fill-rule="nonzero" fill-opacity="1" /><path clip-path="url(#clip910)" d="M147.362 1084.58 L152.246 1084.58 L152.246 1090.46 L147.362 1090.46 L147.362 1084.58 Z" fill="#000000" fill-rule="nonzero" fill-opacity="1" /><path clip-path="url(#clip910)" d="M166.459 1086.52 L182.778 1086.52 L182.778 1090.46 L160.834 1090.46 L160.834 1086.52 Q163.496 1083.77 168.079 1079.14 Q172.686 1074.49 173.866 1073.14 Q176.112 1070.62 176.991 1068.88 Q177.894 1067.13 177.894 1065.44 Q177.894 1062.68 175.95 1060.94 Q174.028 1059.21 170.927 1059.21 Q168.727 1059.21 166.274 1059.97 Q163.843 1060.74 161.065 1062.29 L161.065 1057.57 Q163.89 1056.43 166.343 1055.85 Q168.797 1055.27 170.834 1055.27 Q176.204 1055.27 179.399 1057.96 Q182.593 1060.64 182.593 1065.13 Q182.593 1067.26 181.783 1069.19 Q180.996 1071.08 178.889 1073.68 Q178.311 1074.35 175.209 1077.57 Q172.107 1080.76 166.459 1086.52 Z" fill="#000000" fill-rule="nonzero" fill-opacity="1" /><path clip-path="url(#clip910)" d="M192.639 1055.9 L210.996 1055.9 L210.996 1059.83 L196.922 1059.83 L196.922 1068.31 Q197.94 1067.96 198.959 1067.8 Q199.977 1067.61 200.996 1067.61 Q206.783 1067.61 210.162 1070.78 Q213.542 1073.95 213.542 1079.37 Q213.542 1084.95 210.07 1088.05 Q206.598 1091.13 200.278 1091.13 Q198.102 1091.13 195.834 1090.76 Q193.588 1090.39 191.181 1089.65 L191.181 1084.95 Q193.264 1086.08 195.487 1086.64 Q197.709 1087.19 200.186 1087.19 Q204.19 1087.19 206.528 1085.09 Q208.866 1082.98 208.866 1079.37 Q208.866 1075.76 206.528 1073.65 Q204.19 1071.55 200.186 1071.55 Q198.311 1071.55 196.436 1071.96 Q194.584 1072.38 192.639 1073.26 L192.639 1055.9 Z" fill="#000000" fill-rule="nonzero" fill-opacity="1" /><path clip-path="url(#clip910)" d="M126.205 747.398 Q122.593 747.398 120.765 750.963 Q118.959 754.504 118.959 761.634 Q118.959 768.74 120.765 772.305 Q122.593 775.847 126.205 775.847 Q129.839 775.847 131.644 772.305 Q133.473 768.74 133.473 761.634 Q133.473 754.504 131.644 750.963 Q129.839 747.398 126.205 747.398 M126.205 743.694 Q132.015 743.694 135.07 748.301 Q138.149 752.884 138.149 761.634 Q138.149 770.361 135.07 774.967 Q132.015 779.551 126.205 779.551 Q120.394 779.551 117.316 774.967 Q114.26 770.361 114.26 761.634 Q114.26 752.884 117.316 748.301 Q120.394 743.694 126.205 743.694 Z" fill="#000000" fill-rule="nonzero" fill-opacity="1" /><path clip-path="url(#clip910)" d="M146.366 773 L151.251 773 L151.251 778.879 L146.366 778.879 L146.366 773 Z" fill="#000000" fill-rule="nonzero" fill-opacity="1" /><path clip-path="url(#clip910)" d="M161.482 744.319 L179.839 744.319 L179.839 748.254 L165.765 748.254 L165.765 756.727 Q166.783 756.379 167.802 756.217 Q168.82 756.032 169.839 756.032 Q175.626 756.032 179.005 759.204 Q182.385 762.375 182.385 767.791 Q182.385 773.37 178.913 776.472 Q175.44 779.551 169.121 779.551 Q166.945 779.551 164.677 779.18 Q162.431 778.81 160.024 778.069 L160.024 773.37 Q162.107 774.504 164.329 775.06 Q166.552 775.615 169.028 775.615 Q173.033 775.615 175.371 773.509 Q177.709 771.403 177.709 767.791 Q177.709 764.18 175.371 762.074 Q173.033 759.967 169.028 759.967 Q167.153 759.967 165.278 760.384 Q163.427 760.801 161.482 761.68 L161.482 744.319 Z" fill="#000000" fill-rule="nonzero" fill-opacity="1" /><path clip-path="url(#clip910)" d="M201.598 747.398 Q197.987 747.398 196.158 750.963 Q194.352 754.504 194.352 761.634 Q194.352 768.74 196.158 772.305 Q197.987 775.847 201.598 775.847 Q205.232 775.847 207.037 772.305 Q208.866 768.74 208.866 761.634 Q208.866 754.504 207.037 750.963 Q205.232 747.398 201.598 747.398 M201.598 743.694 Q207.408 743.694 210.463 748.301 Q213.542 752.884 213.542 761.634 Q213.542 770.361 210.463 774.967 Q207.408 779.551 201.598 779.551 Q195.787 779.551 192.709 774.967 Q189.653 770.361 189.653 761.634 Q189.653 752.884 192.709 748.301 Q195.787 743.694 201.598 743.694 Z" fill="#000000" fill-rule="nonzero" fill-opacity="1" /><path clip-path="url(#clip910)" d="M127.2 435.819 Q123.589 435.819 121.76 439.384 Q119.955 442.925 119.955 450.055 Q119.955 457.161 121.76 460.726 Q123.589 464.268 127.2 464.268 Q130.834 464.268 132.64 460.726 Q134.468 457.161 134.468 450.055 Q134.468 442.925 132.64 439.384 Q130.834 435.819 127.2 435.819 M127.2 432.115 Q133.01 432.115 136.066 436.722 Q139.144 441.305 139.144 450.055 Q139.144 458.782 136.066 463.388 Q133.01 467.971 127.2 467.971 Q121.39 467.971 118.311 463.388 Q115.256 458.782 115.256 450.055 Q115.256 441.305 118.311 436.722 Q121.39 432.115 127.2 432.115 Z" fill="#000000" fill-rule="nonzero" fill-opacity="1" /><path clip-path="url(#clip910)" d="M147.362 461.421 L152.246 461.421 L152.246 467.3 L147.362 467.3 L147.362 461.421 Z" fill="#000000" fill-rule="nonzero" fill-opacity="1" /><path clip-path="url(#clip910)" d="M161.251 432.74 L183.473 432.74 L183.473 434.731 L170.927 467.3 L166.042 467.3 L177.848 436.675 L161.251 436.675 L161.251 432.74 Z" fill="#000000" fill-rule="nonzero" fill-opacity="1" /><path clip-path="url(#clip910)" d="M192.639 432.74 L210.996 432.74 L210.996 436.675 L196.922 436.675 L196.922 445.147 Q197.94 444.8 198.959 444.638 Q199.977 444.453 200.996 444.453 Q206.783 444.453 210.162 447.624 Q213.542 450.796 213.542 456.212 Q213.542 461.791 210.07 464.893 Q206.598 467.971 200.278 467.971 Q198.102 467.971 195.834 467.601 Q193.588 467.231 191.181 466.49 L191.181 461.791 Q193.264 462.925 195.487 463.481 Q197.709 464.036 200.186 464.036 Q204.19 464.036 206.528 461.93 Q208.866 459.823 208.866 456.212 Q208.866 452.601 206.528 450.495 Q204.19 448.388 200.186 448.388 Q198.311 448.388 196.436 448.805 Q194.584 449.222 192.639 450.101 L192.639 432.74 Z" fill="#000000" fill-rule="nonzero" fill-opacity="1" /><path clip-path="url(#clip910)" d="M117.015 151.786 L124.654 151.786 L124.654 125.42 L116.343 127.087 L116.343 122.828 L124.607 121.161 L129.283 121.161 L129.283 151.786 L136.922 151.786 L136.922 155.721 L117.015 155.721 L117.015 151.786 Z" fill="#000000" fill-rule="nonzero" fill-opacity="1" /><path clip-path="url(#clip910)" d="M146.366 149.841 L151.251 149.841 L151.251 155.721 L146.366 155.721 L146.366 149.841 Z" fill="#000000" fill-rule="nonzero" fill-opacity="1" /><path clip-path="url(#clip910)" d="M171.436 124.24 Q167.825 124.24 165.996 127.804 Q164.19 131.346 164.19 138.476 Q164.19 145.582 165.996 149.147 Q167.825 152.689 171.436 152.689 Q175.07 152.689 176.876 149.147 Q178.704 145.582 178.704 138.476 Q178.704 131.346 176.876 127.804 Q175.07 124.24 171.436 124.24 M171.436 120.536 Q177.246 120.536 180.301 125.142 Q183.38 129.726 183.38 138.476 Q183.38 147.202 180.301 151.809 Q177.246 156.392 171.436 156.392 Q165.626 156.392 162.547 151.809 Q159.491 147.202 159.491 138.476 Q159.491 129.726 162.547 125.142 Q165.626 120.536 171.436 120.536 Z" fill="#000000" fill-rule="nonzero" fill-opacity="1" /><path clip-path="url(#clip910)" d="M201.598 124.24 Q197.987 124.24 196.158 127.804 Q194.352 131.346 194.352 138.476 Q194.352 145.582 196.158 149.147 Q197.987 152.689 201.598 152.689 Q205.232 152.689 207.037 149.147 Q208.866 145.582 208.866 138.476 Q208.866 131.346 207.037 127.804 Q205.232 124.24 201.598 124.24 M201.598 120.536 Q207.408 120.536 210.463 125.142 Q213.542 129.726 213.542 138.476 Q213.542 147.202 210.463 151.809 Q207.408 156.392 201.598 156.392 Q195.787 156.392 192.709 151.809 Q189.653 147.202 189.653 138.476 Q189.653 129.726 192.709 125.142 Q195.787 120.536 201.598 120.536 Z" fill="#000000" fill-rule="nonzero" fill-opacity="1" /><path clip-path="url(#clip910)" d="M16.4842 812.587 L16.4842 772.388 L21.895 772.388 L21.895 789.257 L64.0042 789.257 L64.0042 795.718 L21.895 795.718 L21.895 812.587 L16.4842 812.587 Z" fill="#000000" fill-rule="nonzero" fill-opacity="1" /><path clip-path="url(#clip910)" d="M14.479 746.256 L14.479 732.761 L19.0304 732.761 L19.0304 740.4 L68.0464 740.4 L68.0464 732.761 L72.5979 732.761 L72.5979 746.256 L14.479 746.256 Z" fill="#000000" fill-rule="nonzero" fill-opacity="1" /><path clip-path="url(#clip910)" d="M16.4842 720.03 L16.4842 711.372 L56.238 690.302 L16.4842 690.302 L16.4842 684.064 L64.0042 684.064 L64.0042 692.721 L24.2503 713.791 L64.0042 713.791 L64.0042 720.03 L16.4842 720.03 Z" fill="#000000" fill-rule="nonzero" fill-opacity="1" /><path clip-path="url(#clip910)" d="M14.479 657.837 L72.5979 657.837 L72.5979 671.332 L68.0464 671.332 L68.0464 663.725 L19.0304 663.725 L19.0304 671.332 L14.479 671.332 L14.479 657.837 Z" fill="#000000" fill-rule="nonzero" fill-opacity="1" /><polyline clip-path="url(#clip912)" style="stroke:#009af9; stroke-linecap:round; stroke-linejoin:round; stroke-width:4; stroke-opacity:1; fill:none" points="274.671,1384.24 291.766,1382.68 308.86,1380.08 325.955,1376.45 343.049,1371.77 360.144,1366.06 377.238,1359.31 394.333,1351.51 411.427,1342.68 428.522,1332.81 445.616,1321.91 462.711,1309.96 479.805,1296.97 496.9,1282.95 513.994,1267.89 531.089,1251.78 548.183,1234.64 565.278,1216.46 582.373,1197.24 599.467,1176.99 616.562,1155.69 633.656,1133.35 650.751,1109.98 667.845,1085.57 684.94,1060.11 702.034,1033.62 719.129,1006.09 736.223,977.526 753.318,947.918 770.412,917.272 787.507,885.587 804.601,852.863 821.696,819.1 838.79,784.298 855.885,748.457 872.98,711.578 890.074,673.66 907.169,634.702 924.263,594.706 941.358,553.672 958.452,511.598 975.547,468.485 992.641,424.334 1009.74,379.144 1026.83,332.914 1043.92,285.646 1061.02,237.339 1078.11,187.994 1095.21,137.609 1112.3,86.1857 "/>
<path clip-path="url(#clip910)" d="M279.138 196.789 L518.76 196.789 L518.76 93.1086 L279.138 93.1086  Z" fill="#ffffff" fill-rule="evenodd" fill-opacity="1"/>
<polyline clip-path="url(#clip910)" style="stroke:#000000; stroke-linecap:round; stroke-linejoin:round; stroke-width:4; stroke-opacity:1; fill:none" points="279.138,196.789 518.76,196.789 518.76,93.1086 279.138,93.1086 279.138,196.789 "/>
<polyline clip-path="url(#clip910)" style="stroke:#009af9; stroke-linecap:round; stroke-linejoin:round; stroke-width:4; stroke-opacity:1; fill:none" points="289.004,144.949 348.196,144.949 "/>
<path clip-path="url(#clip910)" d="M358.062 127.669 L387.298 127.669 L387.298 131.604 L375.029 131.604 L375.029 162.229 L370.33 162.229 L370.33 131.604 L358.062 131.604 L358.062 127.669 Z" fill="#000000" fill-rule="nonzero" fill-opacity="1" /><path clip-path="url(#clip910)" d="M413.177 146.581 L413.177 162.229 L408.918 162.229 L408.918 146.719 Q408.918 143.039 407.483 141.21 Q406.048 139.382 403.177 139.382 Q399.728 139.382 397.738 141.581 Q395.747 143.78 395.747 147.576 L395.747 162.229 L391.465 162.229 L391.465 126.21 L395.747 126.21 L395.747 140.331 Q397.275 137.993 399.335 136.835 Q401.418 135.678 404.126 135.678 Q408.594 135.678 410.886 138.456 Q413.177 141.21 413.177 146.581 Z" fill="#000000" fill-rule="nonzero" fill-opacity="1" /><path clip-path="url(#clip910)" d="M436.696 140.284 Q435.978 139.868 435.122 139.682 Q434.288 139.474 433.27 139.474 Q429.659 139.474 427.714 141.835 Q425.793 144.173 425.793 148.571 L425.793 162.229 L421.511 162.229 L421.511 136.303 L425.793 136.303 L425.793 140.331 Q427.136 137.969 429.288 136.835 Q431.441 135.678 434.52 135.678 Q434.96 135.678 435.492 135.747 Q436.024 135.794 436.673 135.909 L436.696 140.284 Z" fill="#000000" fill-rule="nonzero" fill-opacity="1" /><path clip-path="url(#clip910)" d="M440.724 151.997 L440.724 136.303 L444.983 136.303 L444.983 151.835 Q444.983 155.516 446.418 157.368 Q447.853 159.196 450.723 159.196 Q454.173 159.196 456.163 156.997 Q458.177 154.798 458.177 151.002 L458.177 136.303 L462.436 136.303 L462.436 162.229 L458.177 162.229 L458.177 158.247 Q456.626 160.608 454.566 161.766 Q452.529 162.9 449.821 162.9 Q445.353 162.9 443.038 160.122 Q440.724 157.344 440.724 151.997 M451.441 135.678 L451.441 135.678 Z" fill="#000000" fill-rule="nonzero" fill-opacity="1" /><path clip-path="url(#clip910)" d="M487.737 137.067 L487.737 141.094 Q485.932 140.169 483.987 139.706 Q482.043 139.243 479.959 139.243 Q476.788 139.243 475.191 140.215 Q473.617 141.187 473.617 143.131 Q473.617 144.613 474.751 145.469 Q475.885 146.303 479.311 147.067 L480.77 147.391 Q485.307 148.363 487.205 150.145 Q489.126 151.905 489.126 155.076 Q489.126 158.687 486.256 160.793 Q483.408 162.9 478.408 162.9 Q476.325 162.9 474.057 162.483 Q471.811 162.09 469.311 161.28 L469.311 156.881 Q471.672 158.108 473.964 158.733 Q476.256 159.335 478.501 159.335 Q481.51 159.335 483.131 158.317 Q484.751 157.275 484.751 155.4 Q484.751 153.664 483.57 152.738 Q482.413 151.812 478.455 150.956 L476.973 150.608 Q473.015 149.775 471.256 148.062 Q469.496 146.326 469.496 143.317 Q469.496 139.659 472.089 137.669 Q474.682 135.678 479.45 135.678 Q481.811 135.678 483.895 136.025 Q485.978 136.372 487.737 137.067 Z" fill="#000000" fill-rule="nonzero" fill-opacity="1" /><path clip-path="url(#clip910)" d="M500.121 128.942 L500.121 136.303 L508.894 136.303 L508.894 139.613 L500.121 139.613 L500.121 153.687 Q500.121 156.858 500.978 157.761 Q501.857 158.664 504.519 158.664 L508.894 158.664 L508.894 162.229 L504.519 162.229 Q499.589 162.229 497.714 160.4 Q495.839 158.548 495.839 153.687 L495.839 139.613 L492.714 139.613 L492.714 136.303 L495.839 136.303 L495.839 128.942 L500.121 128.942 Z" fill="#000000" fill-rule="nonzero" fill-opacity="1" /><path clip-path="url(#clip910)" d="M1464.87 1423.18 L2352.76 1423.18 L2352.76 47.2441 L1464.87 47.2441  Z" fill="#ffffff" fill-rule="evenodd" fill-opacity="1"/>
<defs>
  <clipPath id="clip913">
    <rect x="1464" y="47" width="889" height="1377"/>
  </clipPath>
</defs>
<polyline clip-path="url(#clip913)" style="stroke:#000000; stroke-linecap:round; stroke-linejoin:round; stroke-width:2; stroke-opacity:0.1; fill:none" points="1472.9,1423.18 1472.9,47.2441 "/>
<polyline clip-path="url(#clip913)" style="stroke:#000000; stroke-linecap:round; stroke-linejoin:round; stroke-width:2; stroke-opacity:0.1; fill:none" points="1643.85,1423.18 1643.85,47.2441 "/>
<polyline clip-path="url(#clip913)" style="stroke:#000000; stroke-linecap:round; stroke-linejoin:round; stroke-width:2; stroke-opacity:0.1; fill:none" points="1814.79,1423.18 1814.79,47.2441 "/>
<polyline clip-path="url(#clip913)" style="stroke:#000000; stroke-linecap:round; stroke-linejoin:round; stroke-width:2; stroke-opacity:0.1; fill:none" points="1985.74,1423.18 1985.74,47.2441 "/>
<polyline clip-path="url(#clip913)" style="stroke:#000000; stroke-linecap:round; stroke-linejoin:round; stroke-width:2; stroke-opacity:0.1; fill:none" points="2156.68,1423.18 2156.68,47.2441 "/>
<polyline clip-path="url(#clip913)" style="stroke:#000000; stroke-linecap:round; stroke-linejoin:round; stroke-width:2; stroke-opacity:0.1; fill:none" points="2327.63,1423.18 2327.63,47.2441 "/>
<polyline clip-path="url(#clip910)" style="stroke:#000000; stroke-linecap:round; stroke-linejoin:round; stroke-width:4; stroke-opacity:1; fill:none" points="1464.87,1423.18 2352.76,1423.18 "/>
<polyline clip-path="url(#clip910)" style="stroke:#000000; stroke-linecap:round; stroke-linejoin:round; stroke-width:4; stroke-opacity:1; fill:none" points="1472.9,1423.18 1472.9,1404.28 "/>
<polyline clip-path="url(#clip910)" style="stroke:#000000; stroke-linecap:round; stroke-linejoin:round; stroke-width:4; stroke-opacity:1; fill:none" points="1643.85,1423.18 1643.85,1404.28 "/>
<polyline clip-path="url(#clip910)" style="stroke:#000000; stroke-linecap:round; stroke-linejoin:round; stroke-width:4; stroke-opacity:1; fill:none" points="1814.79,1423.18 1814.79,1404.28 "/>
<polyline clip-path="url(#clip910)" style="stroke:#000000; stroke-linecap:round; stroke-linejoin:round; stroke-width:4; stroke-opacity:1; fill:none" points="1985.74,1423.18 1985.74,1404.28 "/>
<polyline clip-path="url(#clip910)" style="stroke:#000000; stroke-linecap:round; stroke-linejoin:round; stroke-width:4; stroke-opacity:1; fill:none" points="2156.68,1423.18 2156.68,1404.28 "/>
<polyline clip-path="url(#clip910)" style="stroke:#000000; stroke-linecap:round; stroke-linejoin:round; stroke-width:4; stroke-opacity:1; fill:none" points="2327.63,1423.18 2327.63,1404.28 "/>
<path clip-path="url(#clip910)" d="M1472.9 1454.1 Q1469.29 1454.1 1467.46 1457.66 Q1465.66 1461.2 1465.66 1468.33 Q1465.66 1475.44 1467.46 1479.01 Q1469.29 1482.55 1472.9 1482.55 Q1476.53 1482.55 1478.34 1479.01 Q1480.17 1475.44 1480.17 1468.33 Q1480.17 1461.2 1478.34 1457.66 Q1476.53 1454.1 1472.9 1454.1 M1472.9 1450.39 Q1478.71 1450.39 1481.77 1455 Q1484.84 1459.58 1484.84 1468.33 Q1484.84 1477.06 1481.77 1481.67 Q1478.71 1486.25 1472.9 1486.25 Q1467.09 1486.25 1464.01 1481.67 Q1460.96 1477.06 1460.96 1468.33 Q1460.96 1459.58 1464.01 1455 Q1467.09 1450.39 1472.9 1450.39 Z" fill="#000000" fill-rule="nonzero" fill-opacity="1" /><path clip-path="url(#clip910)" d="M1588.37 1481.64 L1596.01 1481.64 L1596.01 1455.28 L1587.7 1456.95 L1587.7 1452.69 L1595.96 1451.02 L1600.64 1451.02 L1600.64 1481.64 L1608.28 1481.64 L1608.28 1485.58 L1588.37 1485.58 L1588.37 1481.64 Z" fill="#000000" fill-rule="nonzero" fill-opacity="1" /><path clip-path="url(#clip910)" d="M1627.72 1454.1 Q1624.11 1454.1 1622.28 1457.66 Q1620.48 1461.2 1620.48 1468.33 Q1620.48 1475.44 1622.28 1479.01 Q1624.11 1482.55 1627.72 1482.55 Q1631.36 1482.55 1633.16 1479.01 Q1634.99 1475.44 1634.99 1468.33 Q1634.99 1461.2 1633.16 1457.66 Q1631.36 1454.1 1627.72 1454.1 M1627.72 1450.39 Q1633.53 1450.39 1636.59 1455 Q1639.67 1459.58 1639.67 1468.33 Q1639.67 1477.06 1636.59 1481.67 Q1633.53 1486.25 1627.72 1486.25 Q1621.91 1486.25 1618.83 1481.67 Q1615.78 1477.06 1615.78 1468.33 Q1615.78 1459.58 1618.83 1455 Q1621.91 1450.39 1627.72 1450.39 Z" fill="#000000" fill-rule="nonzero" fill-opacity="1" /><path clip-path="url(#clip910)" d="M1657.89 1454.1 Q1654.27 1454.1 1652.45 1457.66 Q1650.64 1461.2 1650.64 1468.33 Q1650.64 1475.44 1652.45 1479.01 Q1654.27 1482.55 1657.89 1482.55 Q1661.52 1482.55 1663.32 1479.01 Q1665.15 1475.44 1665.15 1468.33 Q1665.15 1461.2 1663.32 1457.66 Q1661.52 1454.1 1657.89 1454.1 M1657.89 1450.39 Q1663.7 1450.39 1666.75 1455 Q1669.83 1459.58 1669.83 1468.33 Q1669.83 1477.06 1666.75 1481.67 Q1663.7 1486.25 1657.89 1486.25 Q1652.07 1486.25 1649 1481.67 Q1645.94 1477.06 1645.94 1468.33 Q1645.94 1459.58 1649 1455 Q1652.07 1450.39 1657.89 1450.39 Z" fill="#000000" fill-rule="nonzero" fill-opacity="1" /><path clip-path="url(#clip910)" d="M1688.05 1454.1 Q1684.44 1454.1 1682.61 1457.66 Q1680.8 1461.2 1680.8 1468.33 Q1680.8 1475.44 1682.61 1479.01 Q1684.44 1482.55 1688.05 1482.55 Q1691.68 1482.55 1693.49 1479.01 Q1695.32 1475.44 1695.32 1468.33 Q1695.32 1461.2 1693.49 1457.66 Q1691.68 1454.1 1688.05 1454.1 M1688.05 1450.39 Q1693.86 1450.39 1696.91 1455 Q1699.99 1459.58 1699.99 1468.33 Q1699.99 1477.06 1696.91 1481.67 Q1693.86 1486.25 1688.05 1486.25 Q1682.24 1486.25 1679.16 1481.67 Q1676.1 1477.06 1676.1 1468.33 Q1676.1 1459.58 1679.16 1455 Q1682.24 1450.39 1688.05 1450.39 Z" fill="#000000" fill-rule="nonzero" fill-opacity="1" /><path clip-path="url(#clip910)" d="M1763.4 1481.64 L1779.72 1481.64 L1779.72 1485.58 L1757.78 1485.58 L1757.78 1481.64 Q1760.44 1478.89 1765.02 1474.26 Q1769.63 1469.61 1770.81 1468.27 Q1773.06 1465.74 1773.93 1464.01 Q1774.84 1462.25 1774.84 1460.56 Q1774.84 1457.8 1772.89 1456.07 Q1770.97 1454.33 1767.87 1454.33 Q1765.67 1454.33 1763.22 1455.09 Q1760.79 1455.86 1758.01 1457.41 L1758.01 1452.69 Q1760.83 1451.55 1763.29 1450.97 Q1765.74 1450.39 1767.78 1450.39 Q1773.15 1450.39 1776.34 1453.08 Q1779.54 1455.77 1779.54 1460.26 Q1779.54 1462.39 1778.73 1464.31 Q1777.94 1466.2 1775.83 1468.8 Q1775.25 1469.47 1772.15 1472.69 Q1769.05 1475.88 1763.4 1481.64 Z" fill="#000000" fill-rule="nonzero" fill-opacity="1" /><path clip-path="url(#clip910)" d="M1799.54 1454.1 Q1795.93 1454.1 1794.1 1457.66 Q1792.29 1461.2 1792.29 1468.33 Q1792.29 1475.44 1794.1 1479.01 Q1795.93 1482.55 1799.54 1482.55 Q1803.17 1482.55 1804.98 1479.01 Q1806.8 1475.44 1806.8 1468.33 Q1806.8 1461.2 1804.98 1457.66 Q1803.17 1454.1 1799.54 1454.1 M1799.54 1450.39 Q1805.35 1450.39 1808.4 1455 Q1811.48 1459.58 1811.48 1468.33 Q1811.48 1477.06 1808.4 1481.67 Q1805.35 1486.25 1799.54 1486.25 Q1793.73 1486.25 1790.65 1481.67 Q1787.59 1477.06 1787.59 1468.33 Q1787.59 1459.58 1790.65 1455 Q1793.73 1450.39 1799.54 1450.39 Z" fill="#000000" fill-rule="nonzero" fill-opacity="1" /><path clip-path="url(#clip910)" d="M1829.7 1454.1 Q1826.09 1454.1 1824.26 1457.66 Q1822.45 1461.2 1822.45 1468.33 Q1822.45 1475.44 1824.26 1479.01 Q1826.09 1482.55 1829.7 1482.55 Q1833.33 1482.55 1835.14 1479.01 Q1836.97 1475.44 1836.97 1468.33 Q1836.97 1461.2 1835.14 1457.66 Q1833.33 1454.1 1829.7 1454.1 M1829.7 1450.39 Q1835.51 1450.39 1838.56 1455 Q1841.64 1459.58 1841.64 1468.33 Q1841.64 1477.06 1838.56 1481.67 Q1835.51 1486.25 1829.7 1486.25 Q1823.89 1486.25 1820.81 1481.67 Q1817.75 1477.06 1817.75 1468.33 Q1817.75 1459.58 1820.81 1455 Q1823.89 1450.39 1829.7 1450.39 Z" fill="#000000" fill-rule="nonzero" fill-opacity="1" /><path clip-path="url(#clip910)" d="M1859.86 1454.1 Q1856.25 1454.1 1854.42 1457.66 Q1852.61 1461.2 1852.61 1468.33 Q1852.61 1475.44 1854.42 1479.01 Q1856.25 1482.55 1859.86 1482.55 Q1863.49 1482.55 1865.3 1479.01 Q1867.13 1475.44 1867.13 1468.33 Q1867.13 1461.2 1865.3 1457.66 Q1863.49 1454.1 1859.86 1454.1 M1859.86 1450.39 Q1865.67 1450.39 1868.73 1455 Q1871.8 1459.58 1871.8 1468.33 Q1871.8 1477.06 1868.73 1481.67 Q1865.67 1486.25 1859.86 1486.25 Q1854.05 1486.25 1850.97 1481.67 Q1847.92 1477.06 1847.92 1468.33 Q1847.92 1459.58 1850.97 1455 Q1854.05 1450.39 1859.86 1450.39 Z" fill="#000000" fill-rule="nonzero" fill-opacity="1" /><path clip-path="url(#clip910)" d="M1944.42 1466.95 Q1947.77 1467.66 1949.65 1469.93 Q1951.55 1472.2 1951.55 1475.53 Q1951.55 1480.65 1948.03 1483.45 Q1944.51 1486.25 1938.03 1486.25 Q1935.85 1486.25 1933.54 1485.81 Q1931.25 1485.39 1928.79 1484.54 L1928.79 1480.02 Q1930.74 1481.16 1933.05 1481.74 Q1935.37 1482.32 1937.89 1482.32 Q1942.29 1482.32 1944.58 1480.58 Q1946.89 1478.84 1946.89 1475.53 Q1946.89 1472.48 1944.74 1470.77 Q1942.61 1469.03 1938.79 1469.03 L1934.76 1469.03 L1934.76 1465.19 L1938.98 1465.19 Q1942.43 1465.19 1944.26 1463.82 Q1946.08 1462.43 1946.08 1459.84 Q1946.08 1457.18 1944.19 1455.77 Q1942.31 1454.33 1938.79 1454.33 Q1936.87 1454.33 1934.67 1454.75 Q1932.47 1455.16 1929.83 1456.04 L1929.83 1451.88 Q1932.5 1451.14 1934.81 1450.77 Q1937.15 1450.39 1939.21 1450.39 Q1944.53 1450.39 1947.63 1452.83 Q1950.74 1455.23 1950.74 1459.35 Q1950.74 1462.22 1949.09 1464.21 Q1947.45 1466.18 1944.42 1466.95 Z" fill="#000000" fill-rule="nonzero" fill-opacity="1" /><path clip-path="url(#clip910)" d="M1970.41 1454.1 Q1966.8 1454.1 1964.97 1457.66 Q1963.17 1461.2 1963.17 1468.33 Q1963.17 1475.44 1964.97 1479.01 Q1966.8 1482.55 1970.41 1482.55 Q1974.05 1482.55 1975.85 1479.01 Q1977.68 1475.44 1977.68 1468.33 Q1977.68 1461.2 1975.85 1457.66 Q1974.05 1454.1 1970.41 1454.1 M1970.41 1450.39 Q1976.22 1450.39 1979.28 1455 Q1982.36 1459.58 1982.36 1468.33 Q1982.36 1477.06 1979.28 1481.67 Q1976.22 1486.25 1970.41 1486.25 Q1964.6 1486.25 1961.52 1481.67 Q1958.47 1477.06 1958.47 1468.33 Q1958.47 1459.58 1961.52 1455 Q1964.6 1450.39 1970.41 1450.39 Z" fill="#000000" fill-rule="nonzero" fill-opacity="1" /><path clip-path="url(#clip910)" d="M2000.57 1454.1 Q1996.96 1454.1 1995.13 1457.66 Q1993.33 1461.2 1993.33 1468.33 Q1993.33 1475.44 1995.13 1479.01 Q1996.96 1482.55 2000.57 1482.55 Q2004.21 1482.55 2006.01 1479.01 Q2007.84 1475.44 2007.84 1468.33 Q2007.84 1461.2 2006.01 1457.66 Q2004.21 1454.1 2000.57 1454.1 M2000.57 1450.39 Q2006.38 1450.39 2009.44 1455 Q2012.52 1459.58 2012.52 1468.33 Q2012.52 1477.06 2009.44 1481.67 Q2006.38 1486.25 2000.57 1486.25 Q1994.76 1486.25 1991.69 1481.67 Q1988.63 1477.06 1988.63 1468.33 Q1988.63 1459.58 1991.69 1455 Q1994.76 1450.39 2000.57 1450.39 Z" fill="#000000" fill-rule="nonzero" fill-opacity="1" /><path clip-path="url(#clip910)" d="M2030.74 1454.1 Q2027.13 1454.1 2025.3 1457.66 Q2023.49 1461.2 2023.49 1468.33 Q2023.49 1475.44 2025.3 1479.01 Q2027.13 1482.55 2030.74 1482.55 Q2034.37 1482.55 2036.18 1479.01 Q2038 1475.44 2038 1468.33 Q2038 1461.2 2036.18 1457.66 Q2034.37 1454.1 2030.74 1454.1 M2030.74 1450.39 Q2036.55 1450.39 2039.6 1455 Q2042.68 1459.58 2042.68 1468.33 Q2042.68 1477.06 2039.6 1481.67 Q2036.55 1486.25 2030.74 1486.25 Q2024.93 1486.25 2021.85 1481.67 Q2018.79 1477.06 2018.79 1468.33 Q2018.79 1459.58 2021.85 1455 Q2024.93 1450.39 2030.74 1450.39 Z" fill="#000000" fill-rule="nonzero" fill-opacity="1" /><path clip-path="url(#clip910)" d="M2114.69 1455.09 L2102.89 1473.54 L2114.69 1473.54 L2114.69 1455.09 M2113.46 1451.02 L2119.34 1451.02 L2119.34 1473.54 L2124.27 1473.54 L2124.27 1477.43 L2119.34 1477.43 L2119.34 1485.58 L2114.69 1485.58 L2114.69 1477.43 L2099.09 1477.43 L2099.09 1472.92 L2113.46 1451.02 Z" fill="#000000" fill-rule="nonzero" fill-opacity="1" /><path clip-path="url(#clip910)" d="M2142.01 1454.1 Q2138.39 1454.1 2136.57 1457.66 Q2134.76 1461.2 2134.76 1468.33 Q2134.76 1475.44 2136.57 1479.01 Q2138.39 1482.55 2142.01 1482.55 Q2145.64 1482.55 2147.45 1479.01 Q2149.27 1475.44 2149.27 1468.33 Q2149.27 1461.2 2147.45 1457.66 Q2145.64 1454.1 2142.01 1454.1 M2142.01 1450.39 Q2147.82 1450.39 2150.87 1455 Q2153.95 1459.58 2153.95 1468.33 Q2153.95 1477.06 2150.87 1481.67 Q2147.82 1486.25 2142.01 1486.25 Q2136.2 1486.25 2133.12 1481.67 Q2130.06 1477.06 2130.06 1468.33 Q2130.06 1459.58 2133.12 1455 Q2136.2 1450.39 2142.01 1450.39 Z" fill="#000000" fill-rule="nonzero" fill-opacity="1" /><path clip-path="url(#clip910)" d="M2172.17 1454.1 Q2168.56 1454.1 2166.73 1457.66 Q2164.92 1461.2 2164.92 1468.33 Q2164.92 1475.44 2166.73 1479.01 Q2168.56 1482.55 2172.17 1482.55 Q2175.8 1482.55 2177.61 1479.01 Q2179.44 1475.44 2179.44 1468.33 Q2179.44 1461.2 2177.61 1457.66 Q2175.8 1454.1 2172.17 1454.1 M2172.17 1450.39 Q2177.98 1450.39 2181.03 1455 Q2184.11 1459.58 2184.11 1468.33 Q2184.11 1477.06 2181.03 1481.67 Q2177.98 1486.25 2172.17 1486.25 Q2166.36 1486.25 2163.28 1481.67 Q2160.22 1477.06 2160.22 1468.33 Q2160.22 1459.58 2163.28 1455 Q2166.36 1450.39 2172.17 1450.39 Z" fill="#000000" fill-rule="nonzero" fill-opacity="1" /><path clip-path="url(#clip910)" d="M2202.33 1454.1 Q2198.72 1454.1 2196.89 1457.66 Q2195.08 1461.2 2195.08 1468.33 Q2195.08 1475.44 2196.89 1479.01 Q2198.72 1482.55 2202.33 1482.55 Q2205.96 1482.55 2207.77 1479.01 Q2209.6 1475.44 2209.6 1468.33 Q2209.6 1461.2 2207.77 1457.66 Q2205.96 1454.1 2202.33 1454.1 M2202.33 1450.39 Q2208.14 1450.39 2211.2 1455 Q2214.27 1459.58 2214.27 1468.33 Q2214.27 1477.06 2211.2 1481.67 Q2208.14 1486.25 2202.33 1486.25 Q2196.52 1486.25 2193.44 1481.67 Q2190.39 1477.06 2190.39 1468.33 Q2190.39 1459.58 2193.44 1455 Q2196.52 1450.39 2202.33 1450.39 Z" fill="#000000" fill-rule="nonzero" fill-opacity="1" /><path clip-path="url(#clip910)" d="M2272.16 1451.02 L2290.52 1451.02 L2290.52 1454.96 L2276.45 1454.96 L2276.45 1463.43 Q2277.47 1463.08 2278.48 1462.92 Q2279.5 1462.73 2280.52 1462.73 Q2286.31 1462.73 2289.69 1465.9 Q2293.07 1469.08 2293.07 1474.49 Q2293.07 1480.07 2289.59 1483.17 Q2286.12 1486.25 2279.8 1486.25 Q2277.63 1486.25 2275.36 1485.88 Q2273.11 1485.51 2270.71 1484.77 L2270.71 1480.07 Q2272.79 1481.2 2275.01 1481.76 Q2277.23 1482.32 2279.71 1482.32 Q2283.72 1482.32 2286.05 1480.21 Q2288.39 1478.1 2288.39 1474.49 Q2288.39 1470.88 2286.05 1468.77 Q2283.72 1466.67 2279.71 1466.67 Q2277.84 1466.67 2275.96 1467.08 Q2274.11 1467.5 2272.16 1468.38 L2272.16 1451.02 Z" fill="#000000" fill-rule="nonzero" fill-opacity="1" /><path clip-path="url(#clip910)" d="M2312.28 1454.1 Q2308.67 1454.1 2306.84 1457.66 Q2305.03 1461.2 2305.03 1468.33 Q2305.03 1475.44 2306.84 1479.01 Q2308.67 1482.55 2312.28 1482.55 Q2315.91 1482.55 2317.72 1479.01 Q2319.55 1475.44 2319.55 1468.33 Q2319.55 1461.2 2317.72 1457.66 Q2315.91 1454.1 2312.28 1454.1 M2312.28 1450.39 Q2318.09 1450.39 2321.15 1455 Q2324.22 1459.58 2324.22 1468.33 Q2324.22 1477.06 2321.15 1481.67 Q2318.09 1486.25 2312.28 1486.25 Q2306.47 1486.25 2303.39 1481.67 Q2300.34 1477.06 2300.34 1468.33 Q2300.34 1459.58 2303.39 1455 Q2306.47 1450.39 2312.28 1450.39 Z" fill="#000000" fill-rule="nonzero" fill-opacity="1" /><path clip-path="url(#clip910)" d="M2342.44 1454.1 Q2338.83 1454.1 2337 1457.66 Q2335.2 1461.2 2335.2 1468.33 Q2335.2 1475.44 2337 1479.01 Q2338.83 1482.55 2342.44 1482.55 Q2346.08 1482.55 2347.88 1479.01 Q2349.71 1475.44 2349.71 1468.33 Q2349.71 1461.2 2347.88 1457.66 Q2346.08 1454.1 2342.44 1454.1 M2342.44 1450.39 Q2348.25 1450.39 2351.31 1455 Q2354.39 1459.58 2354.39 1468.33 Q2354.39 1477.06 2351.31 1481.67 Q2348.25 1486.25 2342.44 1486.25 Q2336.63 1486.25 2333.55 1481.67 Q2330.5 1477.06 2330.5 1468.33 Q2330.5 1459.58 2333.55 1455 Q2336.63 1450.39 2342.44 1450.39 Z" fill="#000000" fill-rule="nonzero" fill-opacity="1" /><path clip-path="url(#clip910)" d="M2372.6 1454.1 Q2368.99 1454.1 2367.16 1457.66 Q2365.36 1461.2 2365.36 1468.33 Q2365.36 1475.44 2367.16 1479.01 Q2368.99 1482.55 2372.6 1482.55 Q2376.24 1482.55 2378.04 1479.01 Q2379.87 1475.44 2379.87 1468.33 Q2379.87 1461.2 2378.04 1457.66 Q2376.24 1454.1 2372.6 1454.1 M2372.6 1450.39 Q2378.41 1450.39 2381.47 1455 Q2384.55 1459.58 2384.55 1468.33 Q2384.55 1477.06 2381.47 1481.67 Q2378.41 1486.25 2372.6 1486.25 Q2366.79 1486.25 2363.71 1481.67 Q2360.66 1477.06 2360.66 1468.33 Q2360.66 1459.58 2363.71 1455 Q2366.79 1450.39 2372.6 1450.39 Z" fill="#000000" fill-rule="nonzero" fill-opacity="1" /><path clip-path="url(#clip910)" d="M1867.31 1545.76 Q1869.38 1546.46 1871.32 1548.76 Q1873.29 1551.05 1875.26 1555.06 L1881.79 1568.04 L1874.88 1568.04 L1868.8 1555.85 Q1866.45 1551.08 1864.22 1549.52 Q1862.02 1547.96 1858.2 1547.96 L1851.2 1547.96 L1851.2 1568.04 L1844.77 1568.04 L1844.77 1520.52 L1859.29 1520.52 Q1867.43 1520.52 1871.44 1523.93 Q1875.45 1527.34 1875.45 1534.21 Q1875.45 1538.7 1873.35 1541.66 Q1871.29 1544.62 1867.31 1545.76 M1851.2 1525.81 L1851.2 1542.68 L1859.29 1542.68 Q1863.93 1542.68 1866.29 1540.54 Q1868.68 1538.38 1868.68 1534.21 Q1868.68 1530.04 1866.29 1527.94 Q1863.93 1525.81 1859.29 1525.81 L1851.2 1525.81 Z" fill="#000000" fill-rule="nonzero" fill-opacity="1" /><path clip-path="url(#clip910)" d="M1896.49 1525.81 L1896.49 1543.66 L1904.58 1543.66 Q1909.07 1543.66 1911.52 1541.34 Q1913.97 1539.02 1913.97 1534.72 Q1913.97 1530.45 1911.52 1528.13 Q1909.07 1525.81 1904.58 1525.81 L1896.49 1525.81 M1890.06 1520.52 L1904.58 1520.52 Q1912.57 1520.52 1916.64 1524.15 Q1920.75 1527.75 1920.75 1534.72 Q1920.75 1541.75 1916.64 1545.35 Q1912.57 1548.95 1904.58 1548.95 L1896.49 1548.95 L1896.49 1568.04 L1890.06 1568.04 L1890.06 1520.52 Z" fill="#000000" fill-rule="nonzero" fill-opacity="1" /><path clip-path="url(#clip910)" d="M1929.37 1520.52 L1938.95 1520.52 L1951.08 1552.86 L1963.27 1520.52 L1972.85 1520.52 L1972.85 1568.04 L1966.58 1568.04 L1966.58 1526.32 L1954.33 1558.91 L1947.86 1558.91 L1935.61 1526.32 L1935.61 1568.04 L1929.37 1568.04 L1929.37 1520.52 Z" fill="#000000" fill-rule="nonzero" fill-opacity="1" /><polyline clip-path="url(#clip913)" style="stroke:#000000; stroke-linecap:round; stroke-linejoin:round; stroke-width:2; stroke-opacity:0.1; fill:none" points="1464.87,1384.76 2352.76,1384.76 "/>
<polyline clip-path="url(#clip913)" style="stroke:#000000; stroke-linecap:round; stroke-linejoin:round; stroke-width:2; stroke-opacity:0.1; fill:none" points="1464.87,1189.13 2352.76,1189.13 "/>
<polyline clip-path="url(#clip913)" style="stroke:#000000; stroke-linecap:round; stroke-linejoin:round; stroke-width:2; stroke-opacity:0.1; fill:none" points="1464.87,993.505 2352.76,993.505 "/>
<polyline clip-path="url(#clip913)" style="stroke:#000000; stroke-linecap:round; stroke-linejoin:round; stroke-width:2; stroke-opacity:0.1; fill:none" points="1464.87,797.879 2352.76,797.879 "/>
<polyline clip-path="url(#clip913)" style="stroke:#000000; stroke-linecap:round; stroke-linejoin:round; stroke-width:2; stroke-opacity:0.1; fill:none" points="1464.87,602.253 2352.76,602.253 "/>
<polyline clip-path="url(#clip913)" style="stroke:#000000; stroke-linecap:round; stroke-linejoin:round; stroke-width:2; stroke-opacity:0.1; fill:none" points="1464.87,406.626 2352.76,406.626 "/>
<polyline clip-path="url(#clip913)" style="stroke:#000000; stroke-linecap:round; stroke-linejoin:round; stroke-width:2; stroke-opacity:0.1; fill:none" points="1464.87,211 2352.76,211 "/>
<polyline clip-path="url(#clip910)" style="stroke:#000000; stroke-linecap:round; stroke-linejoin:round; stroke-width:4; stroke-opacity:1; fill:none" points="1464.87,1423.18 1464.87,47.2441 "/>
<polyline clip-path="url(#clip910)" style="stroke:#000000; stroke-linecap:round; stroke-linejoin:round; stroke-width:4; stroke-opacity:1; fill:none" points="1464.87,1384.76 1483.76,1384.76 "/>
<polyline clip-path="url(#clip910)" style="stroke:#000000; stroke-linecap:round; stroke-linejoin:round; stroke-width:4; stroke-opacity:1; fill:none" points="1464.87,1189.13 1483.76,1189.13 "/>
<polyline clip-path="url(#clip910)" style="stroke:#000000; stroke-linecap:round; stroke-linejoin:round; stroke-width:4; stroke-opacity:1; fill:none" points="1464.87,993.505 1483.76,993.505 "/>
<polyline clip-path="url(#clip910)" style="stroke:#000000; stroke-linecap:round; stroke-linejoin:round; stroke-width:4; stroke-opacity:1; fill:none" points="1464.87,797.879 1483.76,797.879 "/>
<polyline clip-path="url(#clip910)" style="stroke:#000000; stroke-linecap:round; stroke-linejoin:round; stroke-width:4; stroke-opacity:1; fill:none" points="1464.87,602.253 1483.76,602.253 "/>
<polyline clip-path="url(#clip910)" style="stroke:#000000; stroke-linecap:round; stroke-linejoin:round; stroke-width:4; stroke-opacity:1; fill:none" points="1464.87,406.626 1483.76,406.626 "/>
<polyline clip-path="url(#clip910)" style="stroke:#000000; stroke-linecap:round; stroke-linejoin:round; stroke-width:4; stroke-opacity:1; fill:none" points="1464.87,211 1483.76,211 "/>
<path clip-path="url(#clip910)" d="M1311.37 1370.56 Q1307.76 1370.56 1305.93 1374.12 Q1304.12 1377.66 1304.12 1384.79 Q1304.12 1391.9 1305.93 1395.46 Q1307.76 1399.01 1311.37 1399.01 Q1315 1399.01 1316.81 1395.46 Q1318.64 1391.9 1318.64 1384.79 Q1318.64 1377.66 1316.81 1374.12 Q1315 1370.56 1311.37 1370.56 M1311.37 1366.85 Q1317.18 1366.85 1320.23 1371.46 Q1323.31 1376.04 1323.31 1384.79 Q1323.31 1393.52 1320.23 1398.13 Q1317.18 1402.71 1311.37 1402.71 Q1305.56 1402.71 1302.48 1398.13 Q1299.42 1393.52 1299.42 1384.79 Q1299.42 1376.04 1302.48 1371.46 Q1305.56 1366.85 1311.37 1366.85 Z" fill="#000000" fill-rule="nonzero" fill-opacity="1" /><path clip-path="url(#clip910)" d="M1331.53 1396.16 L1336.41 1396.16 L1336.41 1402.04 L1331.53 1402.04 L1331.53 1396.16 Z" fill="#000000" fill-rule="nonzero" fill-opacity="1" /><path clip-path="url(#clip910)" d="M1356.6 1370.56 Q1352.99 1370.56 1351.16 1374.12 Q1349.35 1377.66 1349.35 1384.79 Q1349.35 1391.9 1351.16 1395.46 Q1352.99 1399.01 1356.6 1399.01 Q1360.23 1399.01 1362.04 1395.46 Q1363.87 1391.9 1363.87 1384.79 Q1363.87 1377.66 1362.04 1374.12 Q1360.23 1370.56 1356.6 1370.56 M1356.6 1366.85 Q1362.41 1366.85 1365.46 1371.46 Q1368.54 1376.04 1368.54 1384.79 Q1368.54 1393.52 1365.46 1398.13 Q1362.41 1402.71 1356.6 1402.71 Q1350.79 1402.71 1347.71 1398.13 Q1344.65 1393.52 1344.65 1384.79 Q1344.65 1376.04 1347.71 1371.46 Q1350.79 1366.85 1356.6 1366.85 Z" fill="#000000" fill-rule="nonzero" fill-opacity="1" /><path clip-path="url(#clip910)" d="M1386.76 1370.56 Q1383.15 1370.56 1381.32 1374.12 Q1379.51 1377.66 1379.51 1384.79 Q1379.51 1391.9 1381.32 1395.46 Q1383.15 1399.01 1386.76 1399.01 Q1390.39 1399.01 1392.2 1395.46 Q1394.03 1391.9 1394.03 1384.79 Q1394.03 1377.66 1392.2 1374.12 Q1390.39 1370.56 1386.76 1370.56 M1386.76 1366.85 Q1392.57 1366.85 1395.63 1371.46 Q1398.7 1376.04 1398.7 1384.79 Q1398.7 1393.52 1395.63 1398.13 Q1392.57 1402.71 1386.76 1402.71 Q1380.95 1402.71 1377.87 1398.13 Q1374.82 1393.52 1374.82 1384.79 Q1374.82 1376.04 1377.87 1371.46 Q1380.95 1366.85 1386.76 1366.85 Z" fill="#000000" fill-rule="nonzero" fill-opacity="1" /><path clip-path="url(#clip910)" d="M1416.92 1370.56 Q1413.31 1370.56 1411.48 1374.12 Q1409.68 1377.66 1409.68 1384.79 Q1409.68 1391.9 1411.48 1395.46 Q1413.31 1399.01 1416.92 1399.01 Q1420.56 1399.01 1422.36 1395.46 Q1424.19 1391.9 1424.19 1384.79 Q1424.19 1377.66 1422.36 1374.12 Q1420.56 1370.56 1416.92 1370.56 M1416.92 1366.85 Q1422.73 1366.85 1425.79 1371.46 Q1428.87 1376.04 1428.87 1384.79 Q1428.87 1393.52 1425.79 1398.13 Q1422.73 1402.71 1416.92 1402.71 Q1411.11 1402.71 1408.03 1398.13 Q1404.98 1393.52 1404.98 1384.79 Q1404.98 1376.04 1408.03 1371.46 Q1411.11 1366.85 1416.92 1366.85 Z" fill="#000000" fill-rule="nonzero" fill-opacity="1" /><path clip-path="url(#clip910)" d="M1312.96 1174.93 Q1309.35 1174.93 1307.52 1178.49 Q1305.72 1182.04 1305.72 1189.17 Q1305.72 1196.27 1307.52 1199.84 Q1309.35 1203.38 1312.96 1203.38 Q1316.6 1203.38 1318.4 1199.84 Q1320.23 1196.27 1320.23 1189.17 Q1320.23 1182.04 1318.4 1178.49 Q1316.6 1174.93 1312.96 1174.93 M1312.96 1171.23 Q1318.77 1171.23 1321.83 1175.83 Q1324.91 1180.42 1324.91 1189.17 Q1324.91 1197.89 1321.83 1202.5 Q1318.77 1207.08 1312.96 1207.08 Q1307.15 1207.08 1304.08 1202.5 Q1301.02 1197.89 1301.02 1189.17 Q1301.02 1180.42 1304.08 1175.83 Q1307.15 1171.23 1312.96 1171.23 Z" fill="#000000" fill-rule="nonzero" fill-opacity="1" /><path clip-path="url(#clip910)" d="M1333.13 1200.53 L1338.01 1200.53 L1338.01 1206.41 L1333.13 1206.41 L1333.13 1200.53 Z" fill="#000000" fill-rule="nonzero" fill-opacity="1" /><path clip-path="url(#clip910)" d="M1358.2 1174.93 Q1354.58 1174.93 1352.76 1178.49 Q1350.95 1182.04 1350.95 1189.17 Q1350.95 1196.27 1352.76 1199.84 Q1354.58 1203.38 1358.2 1203.38 Q1361.83 1203.38 1363.63 1199.84 Q1365.46 1196.27 1365.46 1189.17 Q1365.46 1182.04 1363.63 1178.49 Q1361.83 1174.93 1358.2 1174.93 M1358.2 1171.23 Q1364.01 1171.23 1367.06 1175.83 Q1370.14 1180.42 1370.14 1189.17 Q1370.14 1197.89 1367.06 1202.5 Q1364.01 1207.08 1358.2 1207.08 Q1352.38 1207.08 1349.31 1202.5 Q1346.25 1197.89 1346.25 1189.17 Q1346.25 1180.42 1349.31 1175.83 Q1352.38 1171.23 1358.2 1171.23 Z" fill="#000000" fill-rule="nonzero" fill-opacity="1" /><path clip-path="url(#clip910)" d="M1388.36 1174.93 Q1384.75 1174.93 1382.92 1178.49 Q1381.11 1182.04 1381.11 1189.17 Q1381.11 1196.27 1382.92 1199.84 Q1384.75 1203.38 1388.36 1203.38 Q1391.99 1203.38 1393.8 1199.84 Q1395.63 1196.27 1395.63 1189.17 Q1395.63 1182.04 1393.8 1178.49 Q1391.99 1174.93 1388.36 1174.93 M1388.36 1171.23 Q1394.17 1171.23 1397.22 1175.83 Q1400.3 1180.42 1400.3 1189.17 Q1400.3 1197.89 1397.22 1202.5 Q1394.17 1207.08 1388.36 1207.08 Q1382.55 1207.08 1379.47 1202.5 Q1376.41 1197.89 1376.41 1189.17 Q1376.41 1180.42 1379.47 1175.83 Q1382.55 1171.23 1388.36 1171.23 Z" fill="#000000" fill-rule="nonzero" fill-opacity="1" /><path clip-path="url(#clip910)" d="M1412.55 1202.48 L1428.87 1202.48 L1428.87 1206.41 L1406.92 1206.41 L1406.92 1202.48 Q1409.58 1199.72 1414.17 1195.09 Q1418.77 1190.44 1419.95 1189.1 Q1422.2 1186.57 1423.08 1184.84 Q1423.98 1183.08 1423.98 1181.39 Q1423.98 1178.63 1422.04 1176.9 Q1420.12 1175.16 1417.01 1175.16 Q1414.82 1175.16 1412.36 1175.93 Q1409.93 1176.69 1407.15 1178.24 L1407.15 1173.52 Q1409.98 1172.38 1412.43 1171.81 Q1414.88 1171.23 1416.92 1171.23 Q1422.29 1171.23 1425.49 1173.91 Q1428.68 1176.6 1428.68 1181.09 Q1428.68 1183.22 1427.87 1185.14 Q1427.08 1187.04 1424.98 1189.63 Q1424.4 1190.3 1421.3 1193.52 Q1418.19 1196.71 1412.55 1202.48 Z" fill="#000000" fill-rule="nonzero" fill-opacity="1" /><path clip-path="url(#clip910)" d="M1310.88 979.304 Q1307.27 979.304 1305.44 982.869 Q1303.64 986.41 1303.64 993.54 Q1303.64 1000.65 1305.44 1004.21 Q1307.27 1007.75 1310.88 1007.75 Q1314.51 1007.75 1316.32 1004.21 Q1318.15 1000.65 1318.15 993.54 Q1318.15 986.41 1316.32 982.869 Q1314.51 979.304 1310.88 979.304 M1310.88 975.6 Q1316.69 975.6 1319.75 980.207 Q1322.82 984.79 1322.82 993.54 Q1322.82 1002.27 1319.75 1006.87 Q1316.69 1011.46 1310.88 1011.46 Q1305.07 1011.46 1301.99 1006.87 Q1298.94 1002.27 1298.94 993.54 Q1298.94 984.79 1301.99 980.207 Q1305.07 975.6 1310.88 975.6 Z" fill="#000000" fill-rule="nonzero" fill-opacity="1" /><path clip-path="url(#clip910)" d="M1331.04 1004.91 L1335.93 1004.91 L1335.93 1010.79 L1331.04 1010.79 L1331.04 1004.91 Z" fill="#000000" fill-rule="nonzero" fill-opacity="1" /><path clip-path="url(#clip910)" d="M1356.11 979.304 Q1352.5 979.304 1350.67 982.869 Q1348.87 986.41 1348.87 993.54 Q1348.87 1000.65 1350.67 1004.21 Q1352.5 1007.75 1356.11 1007.75 Q1359.75 1007.75 1361.55 1004.21 Q1363.38 1000.65 1363.38 993.54 Q1363.38 986.41 1361.55 982.869 Q1359.75 979.304 1356.11 979.304 M1356.11 975.6 Q1361.92 975.6 1364.98 980.207 Q1368.06 984.79 1368.06 993.54 Q1368.06 1002.27 1364.98 1006.87 Q1361.92 1011.46 1356.11 1011.46 Q1350.3 1011.46 1347.22 1006.87 Q1344.17 1002.27 1344.17 993.54 Q1344.17 984.79 1347.22 980.207 Q1350.3 975.6 1356.11 975.6 Z" fill="#000000" fill-rule="nonzero" fill-opacity="1" /><path clip-path="url(#clip910)" d="M1386.27 979.304 Q1382.66 979.304 1380.83 982.869 Q1379.03 986.41 1379.03 993.54 Q1379.03 1000.65 1380.83 1004.21 Q1382.66 1007.75 1386.27 1007.75 Q1389.91 1007.75 1391.71 1004.21 Q1393.54 1000.65 1393.54 993.54 Q1393.54 986.41 1391.71 982.869 Q1389.91 979.304 1386.27 979.304 M1386.27 975.6 Q1392.08 975.6 1395.14 980.207 Q1398.22 984.79 1398.22 993.54 Q1398.22 1002.27 1395.14 1006.87 Q1392.08 1011.46 1386.27 1011.46 Q1380.46 1011.46 1377.38 1006.87 Q1374.33 1002.27 1374.33 993.54 Q1374.33 984.79 1377.38 980.207 Q1380.46 975.6 1386.27 975.6 Z" fill="#000000" fill-rule="nonzero" fill-opacity="1" /><path clip-path="url(#clip910)" d="M1419.28 980.299 L1407.48 998.748 L1419.28 998.748 L1419.28 980.299 M1418.06 976.225 L1423.94 976.225 L1423.94 998.748 L1428.87 998.748 L1428.87 1002.64 L1423.94 1002.64 L1423.94 1010.79 L1419.28 1010.79 L1419.28 1002.64 L1403.68 1002.64 L1403.68 998.123 L1418.06 976.225 Z" fill="#000000" fill-rule="nonzero" fill-opacity="1" /><path clip-path="url(#clip910)" d="M1311.2 783.678 Q1307.59 783.678 1305.76 787.242 Q1303.96 790.784 1303.96 797.914 Q1303.96 805.02 1305.76 808.585 Q1307.59 812.127 1311.2 812.127 Q1314.84 812.127 1316.64 808.585 Q1318.47 805.02 1318.47 797.914 Q1318.47 790.784 1316.64 787.242 Q1314.84 783.678 1311.2 783.678 M1311.2 779.974 Q1317.01 779.974 1320.07 784.58 Q1323.15 789.164 1323.15 797.914 Q1323.15 806.64 1320.07 811.247 Q1317.01 815.83 1311.2 815.83 Q1305.39 815.83 1302.32 811.247 Q1299.26 806.64 1299.26 797.914 Q1299.26 789.164 1302.32 784.58 Q1305.39 779.974 1311.2 779.974 Z" fill="#000000" fill-rule="nonzero" fill-opacity="1" /><path clip-path="url(#clip910)" d="M1331.37 809.279 L1336.25 809.279 L1336.25 815.159 L1331.37 815.159 L1331.37 809.279 Z" fill="#000000" fill-rule="nonzero" fill-opacity="1" /><path clip-path="url(#clip910)" d="M1356.44 783.678 Q1352.82 783.678 1351 787.242 Q1349.19 790.784 1349.19 797.914 Q1349.19 805.02 1351 808.585 Q1352.82 812.127 1356.44 812.127 Q1360.07 812.127 1361.88 808.585 Q1363.7 805.02 1363.7 797.914 Q1363.7 790.784 1361.88 787.242 Q1360.07 783.678 1356.44 783.678 M1356.44 779.974 Q1362.25 779.974 1365.3 784.58 Q1368.38 789.164 1368.38 797.914 Q1368.38 806.64 1365.3 811.247 Q1362.25 815.83 1356.44 815.83 Q1350.63 815.83 1347.55 811.247 Q1344.49 806.64 1344.49 797.914 Q1344.49 789.164 1347.55 784.58 Q1350.63 779.974 1356.44 779.974 Z" fill="#000000" fill-rule="nonzero" fill-opacity="1" /><path clip-path="url(#clip910)" d="M1386.6 783.678 Q1382.99 783.678 1381.16 787.242 Q1379.35 790.784 1379.35 797.914 Q1379.35 805.02 1381.16 808.585 Q1382.99 812.127 1386.6 812.127 Q1390.23 812.127 1392.04 808.585 Q1393.87 805.02 1393.87 797.914 Q1393.87 790.784 1392.04 787.242 Q1390.23 783.678 1386.6 783.678 M1386.6 779.974 Q1392.41 779.974 1395.46 784.58 Q1398.54 789.164 1398.54 797.914 Q1398.54 806.64 1395.46 811.247 Q1392.41 815.83 1386.6 815.83 Q1380.79 815.83 1377.71 811.247 Q1374.65 806.64 1374.65 797.914 Q1374.65 789.164 1377.71 784.58 Q1380.79 779.974 1386.6 779.974 Z" fill="#000000" fill-rule="nonzero" fill-opacity="1" /><path clip-path="url(#clip910)" d="M1417.34 796.016 Q1414.19 796.016 1412.34 798.168 Q1410.51 800.321 1410.51 804.071 Q1410.51 807.798 1412.34 809.974 Q1414.19 812.127 1417.34 812.127 Q1420.49 812.127 1422.32 809.974 Q1424.17 807.798 1424.17 804.071 Q1424.17 800.321 1422.32 798.168 Q1420.49 796.016 1417.34 796.016 M1426.62 781.363 L1426.62 785.622 Q1424.86 784.789 1423.06 784.349 Q1421.27 783.909 1419.51 783.909 Q1414.88 783.909 1412.43 787.034 Q1410 790.159 1409.65 796.479 Q1411.02 794.465 1413.08 793.4 Q1415.14 792.312 1417.62 792.312 Q1422.82 792.312 1425.83 795.483 Q1428.87 798.631 1428.87 804.071 Q1428.87 809.395 1425.72 812.613 Q1422.57 815.83 1417.34 815.83 Q1411.34 815.83 1408.17 811.247 Q1405 806.64 1405 797.914 Q1405 789.719 1408.89 784.858 Q1412.78 779.974 1419.33 779.974 Q1421.09 779.974 1422.87 780.321 Q1424.68 780.668 1426.62 781.363 Z" fill="#000000" fill-rule="nonzero" fill-opacity="1" /><path clip-path="url(#clip910)" d="M1311.46 588.051 Q1307.85 588.051 1306.02 591.616 Q1304.21 595.158 1304.21 602.287 Q1304.21 609.394 1306.02 612.959 Q1307.85 616.5 1311.46 616.5 Q1315.09 616.5 1316.9 612.959 Q1318.73 609.394 1318.73 602.287 Q1318.73 595.158 1316.9 591.616 Q1315.09 588.051 1311.46 588.051 M1311.46 584.348 Q1317.27 584.348 1320.32 588.954 Q1323.4 593.537 1323.4 602.287 Q1323.4 611.014 1320.32 615.621 Q1317.27 620.204 1311.46 620.204 Q1305.65 620.204 1302.57 615.621 Q1299.51 611.014 1299.51 602.287 Q1299.51 593.537 1302.57 588.954 Q1305.65 584.348 1311.46 584.348 Z" fill="#000000" fill-rule="nonzero" fill-opacity="1" /><path clip-path="url(#clip910)" d="M1331.62 613.653 L1336.51 613.653 L1336.51 619.533 L1331.62 619.533 L1331.62 613.653 Z" fill="#000000" fill-rule="nonzero" fill-opacity="1" /><path clip-path="url(#clip910)" d="M1356.69 588.051 Q1353.08 588.051 1351.25 591.616 Q1349.45 595.158 1349.45 602.287 Q1349.45 609.394 1351.25 612.959 Q1353.08 616.5 1356.69 616.5 Q1360.32 616.5 1362.13 612.959 Q1363.96 609.394 1363.96 602.287 Q1363.96 595.158 1362.13 591.616 Q1360.32 588.051 1356.69 588.051 M1356.69 584.348 Q1362.5 584.348 1365.56 588.954 Q1368.63 593.537 1368.63 602.287 Q1368.63 611.014 1365.56 615.621 Q1362.5 620.204 1356.69 620.204 Q1350.88 620.204 1347.8 615.621 Q1344.75 611.014 1344.75 602.287 Q1344.75 593.537 1347.8 588.954 Q1350.88 584.348 1356.69 584.348 Z" fill="#000000" fill-rule="nonzero" fill-opacity="1" /><path clip-path="url(#clip910)" d="M1386.85 588.051 Q1383.24 588.051 1381.41 591.616 Q1379.61 595.158 1379.61 602.287 Q1379.61 609.394 1381.41 612.959 Q1383.24 616.5 1386.85 616.5 Q1390.49 616.5 1392.29 612.959 Q1394.12 609.394 1394.12 602.287 Q1394.12 595.158 1392.29 591.616 Q1390.49 588.051 1386.85 588.051 M1386.85 584.348 Q1392.66 584.348 1395.72 588.954 Q1398.8 593.537 1398.8 602.287 Q1398.8 611.014 1395.72 615.621 Q1392.66 620.204 1386.85 620.204 Q1381.04 620.204 1377.96 615.621 Q1374.91 611.014 1374.91 602.287 Q1374.91 593.537 1377.96 588.954 Q1381.04 584.348 1386.85 584.348 Z" fill="#000000" fill-rule="nonzero" fill-opacity="1" /><path clip-path="url(#clip910)" d="M1417.01 603.121 Q1413.68 603.121 1411.76 604.903 Q1409.86 606.686 1409.86 609.811 Q1409.86 612.936 1411.76 614.718 Q1413.68 616.5 1417.01 616.5 Q1420.35 616.5 1422.27 614.718 Q1424.19 612.912 1424.19 609.811 Q1424.19 606.686 1422.27 604.903 Q1420.37 603.121 1417.01 603.121 M1412.34 601.13 Q1409.33 600.389 1407.64 598.329 Q1405.97 596.269 1405.97 593.306 Q1405.97 589.163 1408.91 586.755 Q1411.88 584.348 1417.01 584.348 Q1422.18 584.348 1425.12 586.755 Q1428.06 589.163 1428.06 593.306 Q1428.06 596.269 1426.37 598.329 Q1424.7 600.389 1421.71 601.13 Q1425.09 601.917 1426.97 604.209 Q1428.87 606.5 1428.87 609.811 Q1428.87 614.834 1425.79 617.519 Q1422.73 620.204 1417.01 620.204 Q1411.3 620.204 1408.22 617.519 Q1405.16 614.834 1405.16 609.811 Q1405.16 606.5 1407.06 604.209 Q1408.96 601.917 1412.34 601.13 M1410.63 593.746 Q1410.63 596.431 1412.29 597.936 Q1413.98 599.44 1417.01 599.44 Q1420.02 599.44 1421.71 597.936 Q1423.43 596.431 1423.43 593.746 Q1423.43 591.061 1421.71 589.556 Q1420.02 588.051 1417.01 588.051 Q1413.98 588.051 1412.29 589.556 Q1410.63 591.061 1410.63 593.746 Z" fill="#000000" fill-rule="nonzero" fill-opacity="1" /><path clip-path="url(#clip910)" d="M1311.37 392.425 Q1307.76 392.425 1305.93 395.99 Q1304.12 399.532 1304.12 406.661 Q1304.12 413.768 1305.93 417.332 Q1307.76 420.874 1311.37 420.874 Q1315 420.874 1316.81 417.332 Q1318.64 413.768 1318.64 406.661 Q1318.64 399.532 1316.81 395.99 Q1315 392.425 1311.37 392.425 M1311.37 388.721 Q1317.18 388.721 1320.23 393.328 Q1323.31 397.911 1323.31 406.661 Q1323.31 415.388 1320.23 419.994 Q1317.18 424.578 1311.37 424.578 Q1305.56 424.578 1302.48 419.994 Q1299.42 415.388 1299.42 406.661 Q1299.42 397.911 1302.48 393.328 Q1305.56 388.721 1311.37 388.721 Z" fill="#000000" fill-rule="nonzero" fill-opacity="1" /><path clip-path="url(#clip910)" d="M1331.53 418.027 L1336.41 418.027 L1336.41 423.906 L1331.53 423.906 L1331.53 418.027 Z" fill="#000000" fill-rule="nonzero" fill-opacity="1" /><path clip-path="url(#clip910)" d="M1356.6 392.425 Q1352.99 392.425 1351.16 395.99 Q1349.35 399.532 1349.35 406.661 Q1349.35 413.768 1351.16 417.332 Q1352.99 420.874 1356.6 420.874 Q1360.23 420.874 1362.04 417.332 Q1363.87 413.768 1363.87 406.661 Q1363.87 399.532 1362.04 395.99 Q1360.23 392.425 1356.6 392.425 M1356.6 388.721 Q1362.41 388.721 1365.46 393.328 Q1368.54 397.911 1368.54 406.661 Q1368.54 415.388 1365.46 419.994 Q1362.41 424.578 1356.6 424.578 Q1350.79 424.578 1347.71 419.994 Q1344.65 415.388 1344.65 406.661 Q1344.65 397.911 1347.71 393.328 Q1350.79 388.721 1356.6 388.721 Z" fill="#000000" fill-rule="nonzero" fill-opacity="1" /><path clip-path="url(#clip910)" d="M1377.57 419.971 L1385.21 419.971 L1385.21 393.606 L1376.9 395.272 L1376.9 391.013 L1385.16 389.346 L1389.84 389.346 L1389.84 419.971 L1397.48 419.971 L1397.48 423.906 L1377.57 423.906 L1377.57 419.971 Z" fill="#000000" fill-rule="nonzero" fill-opacity="1" /><path clip-path="url(#clip910)" d="M1416.92 392.425 Q1413.31 392.425 1411.48 395.99 Q1409.68 399.532 1409.68 406.661 Q1409.68 413.768 1411.48 417.332 Q1413.31 420.874 1416.92 420.874 Q1420.56 420.874 1422.36 417.332 Q1424.19 413.768 1424.19 406.661 Q1424.19 399.532 1422.36 395.99 Q1420.56 392.425 1416.92 392.425 M1416.92 388.721 Q1422.73 388.721 1425.79 393.328 Q1428.87 397.911 1428.87 406.661 Q1428.87 415.388 1425.79 419.994 Q1422.73 424.578 1416.92 424.578 Q1411.11 424.578 1408.03 419.994 Q1404.98 415.388 1404.98 406.661 Q1404.98 397.911 1408.03 393.328 Q1411.11 388.721 1416.92 388.721 Z" fill="#000000" fill-rule="nonzero" fill-opacity="1" /><path clip-path="url(#clip910)" d="M1312.96 196.799 Q1309.35 196.799 1307.52 200.364 Q1305.72 203.905 1305.72 211.035 Q1305.72 218.141 1307.52 221.706 Q1309.35 225.248 1312.96 225.248 Q1316.6 225.248 1318.4 221.706 Q1320.23 218.141 1320.23 211.035 Q1320.23 203.905 1318.4 200.364 Q1316.6 196.799 1312.96 196.799 M1312.96 193.095 Q1318.77 193.095 1321.83 197.702 Q1324.91 202.285 1324.91 211.035 Q1324.91 219.762 1321.83 224.368 Q1318.77 228.952 1312.96 228.952 Q1307.15 228.952 1304.08 224.368 Q1301.02 219.762 1301.02 211.035 Q1301.02 202.285 1304.08 197.702 Q1307.15 193.095 1312.96 193.095 Z" fill="#000000" fill-rule="nonzero" fill-opacity="1" /><path clip-path="url(#clip910)" d="M1333.13 222.401 L1338.01 222.401 L1338.01 228.28 L1333.13 228.28 L1333.13 222.401 Z" fill="#000000" fill-rule="nonzero" fill-opacity="1" /><path clip-path="url(#clip910)" d="M1358.2 196.799 Q1354.58 196.799 1352.76 200.364 Q1350.95 203.905 1350.95 211.035 Q1350.95 218.141 1352.76 221.706 Q1354.58 225.248 1358.2 225.248 Q1361.83 225.248 1363.63 221.706 Q1365.46 218.141 1365.46 211.035 Q1365.46 203.905 1363.63 200.364 Q1361.83 196.799 1358.2 196.799 M1358.2 193.095 Q1364.01 193.095 1367.06 197.702 Q1370.14 202.285 1370.14 211.035 Q1370.14 219.762 1367.06 224.368 Q1364.01 228.952 1358.2 228.952 Q1352.38 228.952 1349.31 224.368 Q1346.25 219.762 1346.25 211.035 Q1346.25 202.285 1349.31 197.702 Q1352.38 193.095 1358.2 193.095 Z" fill="#000000" fill-rule="nonzero" fill-opacity="1" /><path clip-path="url(#clip910)" d="M1379.17 224.345 L1386.81 224.345 L1386.81 197.979 L1378.5 199.646 L1378.5 195.387 L1386.76 193.72 L1391.44 193.72 L1391.44 224.345 L1399.07 224.345 L1399.07 228.28 L1379.17 228.28 L1379.17 224.345 Z" fill="#000000" fill-rule="nonzero" fill-opacity="1" /><path clip-path="url(#clip910)" d="M1412.55 224.345 L1428.87 224.345 L1428.87 228.28 L1406.92 228.28 L1406.92 224.345 Q1409.58 221.59 1414.17 216.961 Q1418.77 212.308 1419.95 210.966 Q1422.2 208.442 1423.08 206.706 Q1423.98 204.947 1423.98 203.257 Q1423.98 200.503 1422.04 198.767 Q1420.12 197.03 1417.01 197.03 Q1414.82 197.03 1412.36 197.794 Q1409.93 198.558 1407.15 200.109 L1407.15 195.387 Q1409.98 194.253 1412.43 193.674 Q1414.88 193.095 1416.92 193.095 Q1422.29 193.095 1425.49 195.78 Q1428.68 198.466 1428.68 202.956 Q1428.68 205.086 1427.87 207.007 Q1427.08 208.905 1424.98 211.498 Q1424.4 212.169 1421.3 215.387 Q1418.19 218.581 1412.55 224.345 Z" fill="#000000" fill-rule="nonzero" fill-opacity="1" /><path clip-path="url(#clip910)" d="M1205.52 826.13 Q1205.52 833.132 1210.74 837.27 Q1215.96 841.376 1224.97 841.376 Q1233.94 841.376 1239.16 837.27 Q1244.38 833.132 1244.38 826.13 Q1244.38 819.128 1239.16 815.054 Q1233.94 810.948 1224.97 810.948 Q1215.96 810.948 1210.74 815.054 Q1205.52 819.128 1205.52 826.13 M1247.82 817.123 L1257.08 808.656 L1257.08 816.422 L1249.48 823.457 Q1249.54 824.507 1249.57 825.08 Q1249.6 825.621 1249.6 826.13 Q1249.6 836.156 1242.92 842.172 Q1236.2 848.156 1224.97 848.156 Q1213.7 848.156 1207.02 842.172 Q1200.3 836.156 1200.3 826.13 Q1200.3 816.136 1207.02 810.152 Q1213.7 804.168 1224.97 804.168 Q1233.24 804.168 1239.13 807.51 Q1245.02 810.821 1247.82 817.123 Z" fill="#000000" fill-rule="nonzero" fill-opacity="1" /><path clip-path="url(#clip910)" d="M1199.15 774.186 L1199.15 760.691 L1203.71 760.691 L1203.71 768.33 L1252.72 768.33 L1252.72 760.691 L1257.27 760.691 L1257.27 774.186 L1199.15 774.186 Z" fill="#000000" fill-rule="nonzero" fill-opacity="1" /><path clip-path="url(#clip910)" d="M1201.16 747.959 L1201.16 739.302 L1240.91 718.231 L1201.16 718.231 L1201.16 711.993 L1248.68 711.993 L1248.68 720.65 L1208.93 741.721 L1248.68 741.721 L1248.68 747.959 L1201.16 747.959 Z" fill="#000000" fill-rule="nonzero" fill-opacity="1" /><path clip-path="url(#clip910)" d="M1219.88 671.698 Q1215.93 669.502 1214.05 666.446 Q1212.17 663.391 1212.17 659.253 Q1212.17 653.683 1216.09 650.659 Q1219.97 647.636 1227.16 647.636 L1248.68 647.636 L1248.68 653.524 L1227.36 653.524 Q1222.23 653.524 1219.75 655.338 Q1217.27 657.152 1217.27 660.876 Q1217.27 665.428 1220.29 668.07 Q1223.31 670.711 1228.53 670.711 L1248.68 670.711 L1248.68 676.6 L1227.36 676.6 Q1222.2 676.6 1219.75 678.414 Q1217.27 680.228 1217.27 684.016 Q1217.27 688.504 1220.32 691.145 Q1223.34 693.787 1228.53 693.787 L1248.68 693.787 L1248.68 699.675 L1213.03 699.675 L1213.03 693.787 L1218.57 693.787 Q1215.29 691.782 1213.73 688.981 Q1212.17 686.18 1212.17 682.329 Q1212.17 678.446 1214.15 675.74 Q1216.12 673.003 1219.88 671.698 Z" fill="#000000" fill-rule="nonzero" fill-opacity="1" /><path clip-path="url(#clip910)" d="M1199.15 622.268 L1257.27 622.268 L1257.27 635.764 L1252.72 635.764 L1252.72 628.157 L1203.71 628.157 L1203.71 635.764 L1199.15 635.764 L1199.15 622.268 Z" fill="#000000" fill-rule="nonzero" fill-opacity="1" /><polyline clip-path="url(#clip913)" style="stroke:#009af9; stroke-linecap:round; stroke-linejoin:round; stroke-width:4; stroke-opacity:1; fill:none" points="1489.99,1384.24 1507.09,1382.68 1524.18,1380.08 1541.28,1376.45 1558.37,1371.77 1575.47,1366.06 1592.56,1359.31 1609.66,1351.51 1626.75,1342.68 1643.85,1332.81 1660.94,1321.91 1678.03,1309.96 1695.13,1296.97 1712.22,1282.95 1729.32,1267.89 1746.41,1251.78 1763.51,1234.64 1780.6,1216.46 1797.7,1197.24 1814.79,1176.99 1831.89,1155.69 1848.98,1133.35 1866.07,1109.98 1883.17,1085.57 1900.26,1060.11 1917.36,1033.62 1934.45,1006.09 1951.55,977.526 1968.64,947.918 1985.74,917.272 2002.83,885.587 2019.93,852.863 2037.02,819.1 2054.11,784.298 2071.21,748.457 2088.3,711.578 2105.4,673.66 2122.49,634.702 2139.59,594.706 2156.68,553.672 2173.78,511.598 2190.87,468.485 2207.97,424.334 2225.06,379.144 2242.15,332.914 2259.25,285.646 2276.34,237.339 2293.44,187.994 2310.53,137.609 2327.63,86.1857 "/>
<path clip-path="url(#clip910)" d="M1494.46 196.789 L1738.74 196.789 L1738.74 93.1086 L1494.46 93.1086  Z" fill="#ffffff" fill-rule="evenodd" fill-opacity="1"/>
<polyline clip-path="url(#clip910)" style="stroke:#000000; stroke-linecap:round; stroke-linejoin:round; stroke-width:4; stroke-opacity:1; fill:none" points="1494.46,196.789 1738.74,196.789 1738.74,93.1086 1494.46,93.1086 1494.46,196.789 "/>
<polyline clip-path="url(#clip910)" style="stroke:#009af9; stroke-linecap:round; stroke-linejoin:round; stroke-width:4; stroke-opacity:1; fill:none" points="1504.33,144.949 1563.52,144.949 "/>
<path clip-path="url(#clip910)" d="M1573.39 127.669 L1602.62 127.669 L1602.62 131.604 L1590.35 131.604 L1590.35 162.229 L1585.65 162.229 L1585.65 131.604 L1573.39 131.604 L1573.39 127.669 Z" fill="#000000" fill-rule="nonzero" fill-opacity="1" /><path clip-path="url(#clip910)" d="M1608.94 139.289 Q1605.52 139.289 1603.52 141.974 Q1601.53 144.636 1601.53 149.289 Q1601.53 153.942 1603.5 156.627 Q1605.49 159.289 1608.94 159.289 Q1612.34 159.289 1614.33 156.604 Q1616.33 153.918 1616.33 149.289 Q1616.33 144.682 1614.33 141.997 Q1612.34 139.289 1608.94 139.289 M1608.94 135.678 Q1614.5 135.678 1617.67 139.289 Q1620.84 142.9 1620.84 149.289 Q1620.84 155.655 1617.67 159.289 Q1614.5 162.9 1608.94 162.9 Q1603.36 162.9 1600.19 159.289 Q1597.04 155.655 1597.04 149.289 Q1597.04 142.9 1600.19 139.289 Q1603.36 135.678 1608.94 135.678 Z" fill="#000000" fill-rule="nonzero" fill-opacity="1" /><path clip-path="url(#clip910)" d="M1642.92 140.284 Q1642.2 139.868 1641.35 139.682 Q1640.52 139.474 1639.5 139.474 Q1635.89 139.474 1633.94 141.835 Q1632.02 144.173 1632.02 148.571 L1632.02 162.229 L1627.74 162.229 L1627.74 136.303 L1632.02 136.303 L1632.02 140.331 Q1633.36 137.969 1635.52 136.835 Q1637.67 135.678 1640.75 135.678 Q1641.19 135.678 1641.72 135.747 Q1642.25 135.794 1642.9 135.909 L1642.92 140.284 Z" fill="#000000" fill-rule="nonzero" fill-opacity="1" /><path clip-path="url(#clip910)" d="M1649.1 149.289 Q1649.1 153.988 1651.02 156.673 Q1652.97 159.335 1656.35 159.335 Q1659.73 159.335 1661.67 156.673 Q1663.62 153.988 1663.62 149.289 Q1663.62 144.59 1661.67 141.928 Q1659.73 139.243 1656.35 139.243 Q1652.97 139.243 1651.02 141.928 Q1649.1 144.59 1649.1 149.289 M1663.62 158.34 Q1662.27 160.655 1660.21 161.789 Q1658.18 162.9 1655.31 162.9 Q1650.61 162.9 1647.64 159.15 Q1644.7 155.4 1644.7 149.289 Q1644.7 143.178 1647.64 139.428 Q1650.61 135.678 1655.31 135.678 Q1658.18 135.678 1660.21 136.812 Q1662.27 137.923 1663.62 140.238 L1663.62 136.303 L1667.88 136.303 L1667.88 172.09 L1663.62 172.09 L1663.62 158.34 Z" fill="#000000" fill-rule="nonzero" fill-opacity="1" /><path clip-path="url(#clip910)" d="M1676.21 151.997 L1676.21 136.303 L1680.47 136.303 L1680.47 151.835 Q1680.47 155.516 1681.9 157.368 Q1683.34 159.196 1686.21 159.196 Q1689.66 159.196 1691.65 156.997 Q1693.66 154.798 1693.66 151.002 L1693.66 136.303 L1697.92 136.303 L1697.92 162.229 L1693.66 162.229 L1693.66 158.247 Q1692.11 160.608 1690.05 161.766 Q1688.01 162.9 1685.31 162.9 Q1680.84 162.9 1678.52 160.122 Q1676.21 157.344 1676.21 151.997 M1686.93 135.678 L1686.93 135.678 Z" fill="#000000" fill-rule="nonzero" fill-opacity="1" /><path clip-path="url(#clip910)" d="M1728.87 148.201 L1728.87 150.284 L1709.29 150.284 Q1709.57 154.682 1711.93 156.997 Q1714.31 159.289 1718.55 159.289 Q1721 159.289 1723.29 158.687 Q1725.61 158.085 1727.88 156.881 L1727.88 160.909 Q1725.58 161.881 1723.18 162.391 Q1720.77 162.9 1718.29 162.9 Q1712.09 162.9 1708.45 159.289 Q1704.84 155.678 1704.84 149.52 Q1704.84 143.155 1708.27 139.428 Q1711.72 135.678 1717.55 135.678 Q1722.78 135.678 1725.82 139.057 Q1728.87 142.414 1728.87 148.201 M1724.61 146.951 Q1724.57 143.456 1722.64 141.372 Q1720.75 139.289 1717.6 139.289 Q1714.03 139.289 1711.88 141.303 Q1709.75 143.317 1709.43 146.974 L1724.61 146.951 Z" fill="#000000" fill-rule="nonzero" fill-opacity="1" /></svg>
