<?xml version="1.0" encoding="utf-8"?>
<svg xmlns="http://www.w3.org/2000/svg" xmlns:xlink="http://www.w3.org/1999/xlink" width="600" height="500" viewBox="0 0 2400 2000">
<defs>
  <clipPath id="clip850">
    <rect x="0" y="0" width="2400" height="2000"/>
  </clipPath>
</defs>
<path clip-path="url(#clip850)" d="M0 2000 L2400 2000 L2400 0 L0 0  Z" fill="#ffffff" fill-rule="evenodd" fill-opacity="1"/>
<defs>
  <clipPath id="clip851">
    <rect x="480" y="0" width="1681" height="1681"/>
  </clipPath>
</defs>
<path clip-path="url(#clip850)" d="M291.584 798.66 L2352.76 798.66 L2352.76 47.2441 L291.584 47.2441  Z" fill="#ffffff" fill-rule="evenodd" fill-opacity="1"/>
<defs>
  <clipPath id="clip852">
    <rect x="291" y="47" width="2062" height="752"/>
  </clipPath>
</defs>
<polyline clip-path="url(#clip852)" style="stroke:#000000; stroke-linecap:round; stroke-linejoin:round; stroke-width:2; stroke-opacity:0.1; fill:none" points="310.235,798.66 310.235,47.2441 "/>
<polyline clip-path="url(#clip852)" style="stroke:#000000; stroke-linecap:round; stroke-linejoin:round; stroke-width:2; stroke-opacity:0.1; fill:none" points="707.072,798.66 707.072,47.2441 "/>
<polyline clip-path="url(#clip852)" style="stroke:#000000; stroke-linecap:round; stroke-linejoin:round; stroke-width:2; stroke-opacity:0.1; fill:none" points="1103.91,798.66 1103.91,47.2441 "/>
<polyline clip-path="url(#clip852)" style="stroke:#000000; stroke-linecap:round; stroke-linejoin:round; stroke-width:2; stroke-opacity:0.1; fill:none" points="1500.75,798.66 1500.75,47.2441 "/>
<polyline clip-path="url(#clip852)" style="stroke:#000000; stroke-linecap:round; stroke-linejoin:round; stroke-width:2; stroke-opacity:0.1; fill:none" points="1897.58,798.66 1897.58,47.2441 "/>
<polyline clip-path="url(#clip852)" style="stroke:#000000; stroke-linecap:round; stroke-linejoin:round; stroke-width:2; stroke-opacity:0.1; fill:none" points="2294.42,798.66 2294.42,47.2441 "/>
<polyline clip-path="url(#clip852)" style="stroke:#000000; stroke-linecap:round; stroke-linejoin:round; stroke-width:2; stroke-opacity:0.1; fill:none" points="310.235,798.66 310.235,47.2441 "/>
<polyline clip-path="url(#clip852)" style="stroke:#000000; stroke-linecap:round; stroke-linejoin:round; stroke-width:2; stroke-opacity:0.1; fill:none" points="707.072,798.66 707.072,47.2441 "/>
<polyline clip-path="url(#clip852)" style="stroke:#000000; stroke-linecap:round; stroke-linejoin:round; stroke-width:2; stroke-opacity:0.1; fill:none" points="1103.91,798.66 1103.91,47.2441 "/>
<polyline clip-path="url(#clip852)" style="stroke:#000000; stroke-linecap:round; stroke-linejoin:round; stroke-width:2; stroke-opacity:0.1; fill:none" points="1500.75,798.66 1500.75,47.2441 "/>
<polyline clip-path="url(#clip852)" style="stroke:#000000; stroke-linecap:round; stroke-linejoin:round; stroke-width:2; stroke-opacity:0.1; fill:none" points="1897.58,798.66 1897.58,47.2441 "/>
<polyline clip-path="url(#clip852)" style="stroke:#000000; stroke-linecap:round; stroke-linejoin:round; stroke-width:2; stroke-opacity:0.1; fill:none" points="2294.42,798.66 2294.42,47.2441 "/>
<polyline clip-path="url(#clip850)" style="stroke:#000000; stroke-linecap:round; stroke-linejoin:round; stroke-width:4; stroke-opacity:1; fill:none" points="291.584,798.66 2352.76,798.66 "/>
<polyline clip-path="url(#clip850)" style="stroke:#000000; stroke-linecap:round; stroke-linejoin:round; stroke-width:4; stroke-opacity:1; fill:none" points="291.584,47.2441 2352.76,47.2441 "/>
<polyline clip-path="url(#clip850)" style="stroke:#000000; stroke-linecap:round; stroke-linejoin:round; stroke-width:4; stroke-opacity:1; fill:none" points="310.235,798.66 310.235,779.762 "/>
<polyline clip-path="url(#clip850)" style="stroke:#000000; stroke-linecap:round; stroke-linejoin:round; stroke-width:4; stroke-opacity:1; fill:none" points="707.072,798.66 707.072,779.762 "/>
<polyline clip-path="url(#clip850)" style="stroke:#000000; stroke-linecap:round; stroke-linejoin:round; stroke-width:4; stroke-opacity:1; fill:none" points="1103.91,798.66 1103.91,779.762 "/>
<polyline clip-path="url(#clip850)" style="stroke:#000000; stroke-linecap:round; stroke-linejoin:round; stroke-width:4; stroke-opacity:1; fill:none" points="1500.75,798.66 1500.75,779.762 "/>
<polyline clip-path="url(#clip850)" style="stroke:#000000; stroke-linecap:round; stroke-linejoin:round; stroke-width:4; stroke-opacity:1; fill:none" points="1897.58,798.66 1897.58,779.762 "/>
<polyline clip-path="url(#clip850)" style="stroke:#000000; stroke-linecap:round; stroke-linejoin:round; stroke-width:4; stroke-opacity:1; fill:none" points="2294.42,798.66 2294.42,779.762 "/>
<polyline clip-path="url(#clip850)" style="stroke:#000000; stroke-linecap:round; stroke-linejoin:round; stroke-width:4; stroke-opacity:1; fill:none" points="310.235,47.2441 310.235,66.1417 "/>
<polyline clip-path="url(#clip850)" style="stroke:#000000; stroke-linecap:round; stroke-linejoin:round; stroke-width:4; stroke-opacity:1; fill:none" points="707.072,47.2441 707.072,66.1417 "/>
<polyline clip-path="url(#clip850)" style="stroke:#000000; stroke-linecap:round; stroke-linejoin:round; stroke-width:4; stroke-opacity:1; fill:none" points="1103.91,47.2441 1103.91,66.1417 "/>
<polyline clip-path="url(#clip850)" style="stroke:#000000; stroke-linecap:round; stroke-linejoin:round; stroke-width:4; stroke-opacity:1; fill:none" points="1500.75,47.2441 1500.75,66.1417 "/>
<polyline clip-path="url(#clip850)" style="stroke:#000000; stroke-linecap:round; stroke-linejoin:round; stroke-width:4; stroke-opacity:1; fill:none" points="1897.58,47.2441 1897.58,66.1417 "/>
<polyline clip-path="url(#clip850)" style="stroke:#000000; stroke-linecap:round; stroke-linejoin:round; stroke-width:4; stroke-opacity:1; fill:none" points="2294.42,47.2441 2294.42,66.1417 "/>
<path clip-path="url(#clip850)" d="M310.235 829.579 Q306.624 829.579 304.795 833.143 Q302.99 836.685 302.99 843.815 Q302.99 850.921 304.795 854.486 Q306.624 858.027 310.235 858.027 Q313.869 858.027 315.675 854.486 Q317.504 850.921 317.504 843.815 Q317.504 836.685 315.675 833.143 Q313.869 829.579 310.235 829.579 M310.235 825.875 Q316.045 825.875 319.101 830.481 Q322.18 835.065 322.18 843.815 Q322.18 852.541 319.101 857.148 Q316.045 861.731 310.235 861.731 Q304.425 861.731 301.346 857.148 Q298.291 852.541 298.291 843.815 Q298.291 835.065 301.346 830.481 Q304.425 825.875 310.235 825.875 Z" fill="#000000" fill-rule="nonzero" fill-opacity="1" /><path clip-path="url(#clip850)" d="M651.598 857.125 L659.237 857.125 L659.237 830.759 L650.927 832.426 L650.927 828.167 L659.191 826.5 L663.867 826.5 L663.867 857.125 L671.505 857.125 L671.505 861.06 L651.598 861.06 L651.598 857.125 Z" fill="#000000" fill-rule="nonzero" fill-opacity="1" /><path clip-path="url(#clip850)" d="M690.95 829.579 Q687.339 829.579 685.51 833.143 Q683.704 836.685 683.704 843.815 Q683.704 850.921 685.51 854.486 Q687.339 858.027 690.95 858.027 Q694.584 858.027 696.39 854.486 Q698.218 850.921 698.218 843.815 Q698.218 836.685 696.39 833.143 Q694.584 829.579 690.95 829.579 M690.95 825.875 Q696.76 825.875 699.815 830.481 Q702.894 835.065 702.894 843.815 Q702.894 852.541 699.815 857.148 Q696.76 861.731 690.95 861.731 Q685.14 861.731 682.061 857.148 Q679.005 852.541 679.005 843.815 Q679.005 835.065 682.061 830.481 Q685.14 825.875 690.95 825.875 Z" fill="#000000" fill-rule="nonzero" fill-opacity="1" /><path clip-path="url(#clip850)" d="M721.112 829.579 Q717.501 829.579 715.672 833.143 Q713.866 836.685 713.866 843.815 Q713.866 850.921 715.672 854.486 Q717.501 858.027 721.112 858.027 Q724.746 858.027 726.551 854.486 Q728.38 850.921 728.38 843.815 Q728.38 836.685 726.551 833.143 Q724.746 829.579 721.112 829.579 M721.112 825.875 Q726.922 825.875 729.977 830.481 Q733.056 835.065 733.056 843.815 Q733.056 852.541 729.977 857.148 Q726.922 861.731 721.112 861.731 Q715.301 861.731 712.223 857.148 Q709.167 852.541 709.167 843.815 Q709.167 835.065 712.223 830.481 Q715.301 825.875 721.112 825.875 Z" fill="#000000" fill-rule="nonzero" fill-opacity="1" /><path clip-path="url(#clip850)" d="M751.274 829.579 Q747.662 829.579 745.834 833.143 Q744.028 836.685 744.028 843.815 Q744.028 850.921 745.834 854.486 Q747.662 858.027 751.274 858.027 Q754.908 858.027 756.713 854.486 Q758.542 850.921 758.542 843.815 Q758.542 836.685 756.713 833.143 Q754.908 829.579 751.274 829.579 M751.274 825.875 Q757.084 825.875 760.139 830.481 Q763.218 835.065 763.218 843.815 Q763.218 852.541 760.139 857.148 Q757.084 861.731 751.274 861.731 Q745.463 861.731 742.385 857.148 Q739.329 852.541 739.329 843.815 Q739.329 835.065 742.385 830.481 Q745.463 825.875 751.274 825.875 Z" fill="#000000" fill-rule="nonzero" fill-opacity="1" /><path clip-path="url(#clip850)" d="M1052.52 857.125 L1068.84 857.125 L1068.84 861.06 L1046.9 861.06 L1046.9 857.125 Q1049.56 854.37 1054.14 849.74 Q1058.75 845.088 1059.93 843.745 Q1062.17 841.222 1063.05 839.486 Q1063.96 837.727 1063.96 836.037 Q1063.96 833.282 1062.01 831.546 Q1060.09 829.81 1056.99 829.81 Q1054.79 829.81 1052.34 830.574 Q1049.91 831.338 1047.13 832.889 L1047.13 828.167 Q1049.95 827.032 1052.41 826.454 Q1054.86 825.875 1056.9 825.875 Q1062.27 825.875 1065.46 828.56 Q1068.66 831.245 1068.66 835.736 Q1068.66 837.866 1067.84 839.787 Q1067.06 841.685 1064.95 844.278 Q1064.37 844.949 1061.27 848.166 Q1058.17 851.361 1052.52 857.125 Z" fill="#000000" fill-rule="nonzero" fill-opacity="1" /><path clip-path="url(#clip850)" d="M1088.65 829.579 Q1085.04 829.579 1083.22 833.143 Q1081.41 836.685 1081.41 843.815 Q1081.41 850.921 1083.22 854.486 Q1085.04 858.027 1088.65 858.027 Q1092.29 858.027 1094.09 854.486 Q1095.92 850.921 1095.92 843.815 Q1095.92 836.685 1094.09 833.143 Q1092.29 829.579 1088.65 829.579 M1088.65 825.875 Q1094.47 825.875 1097.52 830.481 Q1100.6 835.065 1100.6 843.815 Q1100.6 852.541 1097.52 857.148 Q1094.47 861.731 1088.65 861.731 Q1082.84 861.731 1079.77 857.148 Q1076.71 852.541 1076.71 843.815 Q1076.71 835.065 1079.77 830.481 Q1082.84 825.875 1088.65 825.875 Z" fill="#000000" fill-rule="nonzero" fill-opacity="1" /><path clip-path="url(#clip850)" d="M1118.82 829.579 Q1115.21 829.579 1113.38 833.143 Q1111.57 836.685 1111.57 843.815 Q1111.57 850.921 1113.38 854.486 Q1115.21 858.027 1118.82 858.027 Q1122.45 858.027 1124.26 854.486 Q1126.09 850.921 1126.09 843.815 Q1126.09 836.685 1124.26 833.143 Q1122.45 829.579 1118.82 829.579 M1118.82 825.875 Q1124.63 825.875 1127.68 830.481 Q1130.76 835.065 1130.76 843.815 Q1130.76 852.541 1127.68 857.148 Q1124.63 861.731 1118.82 861.731 Q1113.01 861.731 1109.93 857.148 Q1106.87 852.541 1106.87 843.815 Q1106.87 835.065 1109.93 830.481 Q1113.01 825.875 1118.82 825.875 Z" fill="#000000" fill-rule="nonzero" fill-opacity="1" /><path clip-path="url(#clip850)" d="M1148.98 829.579 Q1145.37 829.579 1143.54 833.143 Q1141.73 836.685 1141.73 843.815 Q1141.73 850.921 1143.54 854.486 Q1145.37 858.027 1148.98 858.027 Q1152.61 858.027 1154.42 854.486 Q1156.25 850.921 1156.25 843.815 Q1156.25 836.685 1154.42 833.143 Q1152.61 829.579 1148.98 829.579 M1148.98 825.875 Q1154.79 825.875 1157.84 830.481 Q1160.92 835.065 1160.92 843.815 Q1160.92 852.541 1157.84 857.148 Q1154.79 861.731 1148.98 861.731 Q1143.17 861.731 1140.09 857.148 Q1137.03 852.541 1137.03 843.815 Q1137.03 835.065 1140.09 830.481 Q1143.17 825.875 1148.98 825.875 Z" fill="#000000" fill-rule="nonzero" fill-opacity="1" /><path clip-path="url(#clip850)" d="M1459.43 842.426 Q1462.78 843.143 1464.66 845.412 Q1466.56 847.68 1466.56 851.014 Q1466.56 856.129 1463.04 858.93 Q1459.52 861.731 1453.04 861.731 Q1450.86 861.731 1448.55 861.291 Q1446.26 860.875 1443.8 860.018 L1443.8 855.504 Q1445.75 856.639 1448.06 857.217 Q1450.38 857.796 1452.9 857.796 Q1457.3 857.796 1459.59 856.06 Q1461.9 854.324 1461.9 851.014 Q1461.9 847.958 1459.75 846.245 Q1457.62 844.509 1453.8 844.509 L1449.77 844.509 L1449.77 840.666 L1453.99 840.666 Q1457.44 840.666 1459.27 839.301 Q1461.09 837.912 1461.09 835.319 Q1461.09 832.657 1459.2 831.245 Q1457.32 829.81 1453.8 829.81 Q1451.88 829.81 1449.68 830.227 Q1447.48 830.643 1444.84 831.523 L1444.84 827.356 Q1447.51 826.616 1449.82 826.245 Q1452.16 825.875 1454.22 825.875 Q1459.54 825.875 1462.64 828.305 Q1465.75 830.713 1465.75 834.833 Q1465.75 837.703 1464.1 839.694 Q1462.46 841.662 1459.43 842.426 Z" fill="#000000" fill-rule="nonzero" fill-opacity="1" /><path clip-path="url(#clip850)" d="M1485.42 829.579 Q1481.81 829.579 1479.98 833.143 Q1478.18 836.685 1478.18 843.815 Q1478.18 850.921 1479.98 854.486 Q1481.81 858.027 1485.42 858.027 Q1489.06 858.027 1490.86 854.486 Q1492.69 850.921 1492.69 843.815 Q1492.69 836.685 1490.86 833.143 Q1489.06 829.579 1485.42 829.579 M1485.42 825.875 Q1491.23 825.875 1494.29 830.481 Q1497.37 835.065 1497.37 843.815 Q1497.37 852.541 1494.29 857.148 Q1491.23 861.731 1485.42 861.731 Q1479.61 861.731 1476.53 857.148 Q1473.48 852.541 1473.48 843.815 Q1473.48 835.065 1476.53 830.481 Q1479.61 825.875 1485.42 825.875 Z" fill="#000000" fill-rule="nonzero" fill-opacity="1" /><path clip-path="url(#clip850)" d="M1515.58 829.579 Q1511.97 829.579 1510.14 833.143 Q1508.34 836.685 1508.34 843.815 Q1508.34 850.921 1510.14 854.486 Q1511.97 858.027 1515.58 858.027 Q1519.22 858.027 1521.02 854.486 Q1522.85 850.921 1522.85 843.815 Q1522.85 836.685 1521.02 833.143 Q1519.22 829.579 1515.58 829.579 M1515.58 825.875 Q1521.39 825.875 1524.45 830.481 Q1527.53 835.065 1527.53 843.815 Q1527.53 852.541 1524.45 857.148 Q1521.39 861.731 1515.58 861.731 Q1509.77 861.731 1506.7 857.148 Q1503.64 852.541 1503.64 843.815 Q1503.64 835.065 1506.7 830.481 Q1509.77 825.875 1515.58 825.875 Z" fill="#000000" fill-rule="nonzero" fill-opacity="1" /><path clip-path="url(#clip850)" d="M1545.75 829.579 Q1542.14 829.579 1540.31 833.143 Q1538.5 836.685 1538.5 843.815 Q1538.5 850.921 1540.31 854.486 Q1542.14 858.027 1545.75 858.027 Q1549.38 858.027 1551.19 854.486 Q1553.01 850.921 1553.01 843.815 Q1553.01 836.685 1551.19 833.143 Q1549.38 829.579 1545.75 829.579 M1545.75 825.875 Q1551.56 825.875 1554.61 830.481 Q1557.69 835.065 1557.69 843.815 Q1557.69 852.541 1554.61 857.148 Q1551.56 861.731 1545.75 861.731 Q1539.94 861.731 1536.86 857.148 Q1533.8 852.541 1533.8 843.815 Q1533.8 835.065 1536.86 830.481 Q1539.94 825.875 1545.75 825.875 Z" fill="#000000" fill-rule="nonzero" fill-opacity="1" /><path clip-path="url(#clip850)" d="M1855.59 830.574 L1843.79 849.023 L1855.59 849.023 L1855.59 830.574 M1854.37 826.5 L1860.25 826.5 L1860.25 849.023 L1865.18 849.023 L1865.18 852.912 L1860.25 852.912 L1860.25 861.06 L1855.59 861.06 L1855.59 852.912 L1839.99 852.912 L1839.99 848.398 L1854.37 826.5 Z" fill="#000000" fill-rule="nonzero" fill-opacity="1" /><path clip-path="url(#clip850)" d="M1882.91 829.579 Q1879.3 829.579 1877.47 833.143 Q1875.66 836.685 1875.66 843.815 Q1875.66 850.921 1877.47 854.486 Q1879.3 858.027 1882.91 858.027 Q1886.54 858.027 1888.35 854.486 Q1890.18 850.921 1890.18 843.815 Q1890.18 836.685 1888.35 833.143 Q1886.54 829.579 1882.91 829.579 M1882.91 825.875 Q1888.72 825.875 1891.77 830.481 Q1894.85 835.065 1894.85 843.815 Q1894.85 852.541 1891.77 857.148 Q1888.72 861.731 1882.91 861.731 Q1877.1 861.731 1874.02 857.148 Q1870.96 852.541 1870.96 843.815 Q1870.96 835.065 1874.02 830.481 Q1877.1 825.875 1882.91 825.875 Z" fill="#000000" fill-rule="nonzero" fill-opacity="1" /><path clip-path="url(#clip850)" d="M1913.07 829.579 Q1909.46 829.579 1907.63 833.143 Q1905.82 836.685 1905.82 843.815 Q1905.82 850.921 1907.63 854.486 Q1909.46 858.027 1913.07 858.027 Q1916.7 858.027 1918.51 854.486 Q1920.34 850.921 1920.34 843.815 Q1920.34 836.685 1918.51 833.143 Q1916.7 829.579 1913.07 829.579 M1913.07 825.875 Q1918.88 825.875 1921.94 830.481 Q1925.01 835.065 1925.01 843.815 Q1925.01 852.541 1921.94 857.148 Q1918.88 861.731 1913.07 861.731 Q1907.26 861.731 1904.18 857.148 Q1901.13 852.541 1901.13 843.815 Q1901.13 835.065 1904.18 830.481 Q1907.26 825.875 1913.07 825.875 Z" fill="#000000" fill-rule="nonzero" fill-opacity="1" /><path clip-path="url(#clip850)" d="M1943.23 829.579 Q1939.62 829.579 1937.79 833.143 Q1935.99 836.685 1935.99 843.815 Q1935.99 850.921 1937.79 854.486 Q1939.62 858.027 1943.23 858.027 Q1946.87 858.027 1948.67 854.486 Q1950.5 850.921 1950.5 843.815 Q1950.5 836.685 1948.67 833.143 Q1946.87 829.579 1943.23 829.579 M1943.23 825.875 Q1949.04 825.875 1952.1 830.481 Q1955.18 835.065 1955.18 843.815 Q1955.18 852.541 1952.1 857.148 Q1949.04 861.731 1943.23 861.731 Q1937.42 861.731 1934.34 857.148 Q1931.29 852.541 1931.29 843.815 Q1931.29 835.065 1934.34 830.481 Q1937.42 825.875 1943.23 825.875 Z" fill="#000000" fill-rule="nonzero" fill-opacity="1" /><path clip-path="url(#clip850)" d="M2238.96 826.5 L2257.31 826.5 L2257.31 830.435 L2243.24 830.435 L2243.24 838.907 Q2244.26 838.56 2245.28 838.398 Q2246.3 838.213 2247.31 838.213 Q2253.1 838.213 2256.48 841.384 Q2259.86 844.555 2259.86 849.972 Q2259.86 855.551 2256.39 858.652 Q2252.92 861.731 2246.6 861.731 Q2244.42 861.731 2242.15 861.361 Q2239.91 860.99 2237.5 860.25 L2237.5 855.551 Q2239.58 856.685 2241.81 857.24 Q2244.03 857.796 2246.5 857.796 Q2250.51 857.796 2252.85 855.69 Q2255.18 853.583 2255.18 849.972 Q2255.18 846.361 2252.85 844.254 Q2250.51 842.148 2246.5 842.148 Q2244.63 842.148 2242.75 842.565 Q2240.9 842.981 2238.96 843.861 L2238.96 826.5 Z" fill="#000000" fill-rule="nonzero" fill-opacity="1" /><path clip-path="url(#clip850)" d="M2279.07 829.579 Q2275.46 829.579 2273.63 833.143 Q2271.83 836.685 2271.83 843.815 Q2271.83 850.921 2273.63 854.486 Q2275.46 858.027 2279.07 858.027 Q2282.71 858.027 2284.51 854.486 Q2286.34 850.921 2286.34 843.815 Q2286.34 836.685 2284.51 833.143 Q2282.71 829.579 2279.07 829.579 M2279.07 825.875 Q2284.88 825.875 2287.94 830.481 Q2291.02 835.065 2291.02 843.815 Q2291.02 852.541 2287.94 857.148 Q2284.88 861.731 2279.07 861.731 Q2273.26 861.731 2270.18 857.148 Q2267.13 852.541 2267.13 843.815 Q2267.13 835.065 2270.18 830.481 Q2273.26 825.875 2279.07 825.875 Z" fill="#000000" fill-rule="nonzero" fill-opacity="1" /><path clip-path="url(#clip850)" d="M2309.24 829.579 Q2305.62 829.579 2303.8 833.143 Q2301.99 836.685 2301.99 843.815 Q2301.99 850.921 2303.8 854.486 Q2305.62 858.027 2309.24 858.027 Q2312.87 858.027 2314.68 854.486 Q2316.5 850.921 2316.5 843.815 Q2316.5 836.685 2314.68 833.143 Q2312.87 829.579 2309.24 829.579 M2309.24 825.875 Q2315.05 825.875 2318.1 830.481 Q2321.18 835.065 2321.18 843.815 Q2321.18 852.541 2318.1 857.148 Q2315.05 861.731 2309.24 861.731 Q2303.43 861.731 2300.35 857.148 Q2297.29 852.541 2297.29 843.815 Q2297.29 835.065 2300.35 830.481 Q2303.43 825.875 2309.24 825.875 Z" fill="#000000" fill-rule="nonzero" fill-opacity="1" /><path clip-path="url(#clip850)" d="M2339.4 829.579 Q2335.79 829.579 2333.96 833.143 Q2332.15 836.685 2332.15 843.815 Q2332.15 850.921 2333.96 854.486 Q2335.79 858.027 2339.4 858.027 Q2343.03 858.027 2344.84 854.486 Q2346.67 850.921 2346.67 843.815 Q2346.67 836.685 2344.84 833.143 Q2343.03 829.579 2339.4 829.579 M2339.4 825.875 Q2345.21 825.875 2348.26 830.481 Q2351.34 835.065 2351.34 843.815 Q2351.34 852.541 2348.26 857.148 Q2345.21 861.731 2339.4 861.731 Q2333.59 861.731 2330.51 857.148 Q2327.45 852.541 2327.45 843.815 Q2327.45 835.065 2330.51 830.481 Q2333.59 825.875 2339.4 825.875 Z" fill="#000000" fill-rule="nonzero" fill-opacity="1" /><path clip-path="url(#clip850)" d="M1280.67 921.244 Q1282.73 921.944 1284.68 924.236 Q1286.65 926.527 1288.62 930.538 L1295.15 943.524 L1288.24 943.524 L1282.16 931.334 Q1279.81 926.559 1277.58 925 Q1275.38 923.44 1271.56 923.44 L1264.56 923.44 L1264.56 943.524 L1258.13 943.524 L1258.13 896.004 L1272.64 896.004 Q1280.79 896.004 1284.8 899.409 Q1288.81 902.815 1288.81 909.69 Q1288.81 914.178 1286.71 917.138 Q1284.64 920.098 1280.67 921.244 M1264.56 901.287 L1264.56 918.157 L1272.64 918.157 Q1277.29 918.157 1279.65 916.024 Q1282.03 913.86 1282.03 909.69 Q1282.03 905.521 1279.65 903.42 Q1277.29 901.287 1272.64 901.287 L1264.56 901.287 Z" fill="#000000" fill-rule="nonzero" fill-opacity="1" /><path clip-path="url(#clip850)" d="M1309.85 901.287 L1309.85 919.143 L1317.94 919.143 Q1322.42 919.143 1324.88 916.82 Q1327.33 914.496 1327.33 910.199 Q1327.33 905.934 1324.88 903.611 Q1322.42 901.287 1317.94 901.287 L1309.85 901.287 M1303.42 896.004 L1317.94 896.004 Q1325.93 896.004 1330 899.632 Q1334.11 903.229 1334.11 910.199 Q1334.11 917.233 1330 920.83 Q1325.93 924.427 1317.94 924.427 L1309.85 924.427 L1309.85 943.524 L1303.42 943.524 L1303.42 896.004 Z" fill="#000000" fill-rule="nonzero" fill-opacity="1" /><path clip-path="url(#clip850)" d="M1342.73 896.004 L1352.31 896.004 L1364.44 928.342 L1376.63 896.004 L1386.21 896.004 L1386.21 943.524 L1379.94 943.524 L1379.94 901.797 L1367.68 934.389 L1361.22 934.389 L1348.97 901.797 L1348.97 943.524 L1342.73 943.524 L1342.73 896.004 Z" fill="#000000" fill-rule="nonzero" fill-opacity="1" /><polyline clip-path="url(#clip852)" style="stroke:#000000; stroke-linecap:round; stroke-linejoin:round; stroke-width:2; stroke-opacity:0.1; fill:none" points="291.584,777.677 2352.76,777.677 "/>
<polyline clip-path="url(#clip852)" style="stroke:#000000; stroke-linecap:round; stroke-linejoin:round; stroke-width:2; stroke-opacity:0.1; fill:none" points="291.584,671.426 2352.76,671.426 "/>
<polyline clip-path="url(#clip852)" style="stroke:#000000; stroke-linecap:round; stroke-linejoin:round; stroke-width:2; stroke-opacity:0.1; fill:none" points="291.584,565.175 2352.76,565.175 "/>
<polyline clip-path="url(#clip852)" style="stroke:#000000; stroke-linecap:round; stroke-linejoin:round; stroke-width:2; stroke-opacity:0.1; fill:none" points="291.584,458.924 2352.76,458.924 "/>
<polyline clip-path="url(#clip852)" style="stroke:#000000; stroke-linecap:round; stroke-linejoin:round; stroke-width:2; stroke-opacity:0.1; fill:none" points="291.584,352.673 2352.76,352.673 "/>
<polyline clip-path="url(#clip852)" style="stroke:#000000; stroke-linecap:round; stroke-linejoin:round; stroke-width:2; stroke-opacity:0.1; fill:none" points="291.584,246.422 2352.76,246.422 "/>
<polyline clip-path="url(#clip852)" style="stroke:#000000; stroke-linecap:round; stroke-linejoin:round; stroke-width:2; stroke-opacity:0.1; fill:none" points="291.584,140.171 2352.76,140.171 "/>
<polyline clip-path="url(#clip852)" style="stroke:#000000; stroke-linecap:round; stroke-linejoin:round; stroke-width:2; stroke-opacity:0.1; fill:none" points="291.584,777.677 2352.76,777.677 "/>
<polyline clip-path="url(#clip852)" style="stroke:#000000; stroke-linecap:round; stroke-linejoin:round; stroke-width:2; stroke-opacity:0.1; fill:none" points="291.584,671.426 2352.76,671.426 "/>
<polyline clip-path="url(#clip852)" style="stroke:#000000; stroke-linecap:round; stroke-linejoin:round; stroke-width:2; stroke-opacity:0.1; fill:none" points="291.584,565.175 2352.76,565.175 "/>
<polyline clip-path="url(#clip852)" style="stroke:#000000; stroke-linecap:round; stroke-linejoin:round; stroke-width:2; stroke-opacity:0.1; fill:none" points="291.584,458.924 2352.76,458.924 "/>
<polyline clip-path="url(#clip852)" style="stroke:#000000; stroke-linecap:round; stroke-linejoin:round; stroke-width:2; stroke-opacity:0.1; fill:none" points="291.584,352.673 2352.76,352.673 "/>
<polyline clip-path="url(#clip852)" style="stroke:#000000; stroke-linecap:round; stroke-linejoin:round; stroke-width:2; stroke-opacity:0.1; fill:none" points="291.584,246.422 2352.76,246.422 "/>
<polyline clip-path="url(#clip852)" style="stroke:#000000; stroke-linecap:round; stroke-linejoin:round; stroke-width:2; stroke-opacity:0.1; fill:none" points="291.584,140.171 2352.76,140.171 "/>
<polyline clip-path="url(#clip850)" style="stroke:#000000; stroke-linecap:round; stroke-linejoin:round; stroke-width:4; stroke-opacity:1; fill:none" points="291.584,798.66 291.584,47.2441 "/>
<polyline clip-path="url(#clip850)" style="stroke:#000000; stroke-linecap:round; stroke-linejoin:round; stroke-width:4; stroke-opacity:1; fill:none" points="2352.76,798.66 2352.76,47.2441 "/>
<polyline clip-path="url(#clip850)" style="stroke:#000000; stroke-linecap:round; stroke-linejoin:round; stroke-width:4; stroke-opacity:1; fill:none" points="291.584,777.677 310.482,777.677 "/>
<polyline clip-path="url(#clip850)" style="stroke:#000000; stroke-linecap:round; stroke-linejoin:round; stroke-width:4; stroke-opacity:1; fill:none" points="291.584,671.426 310.482,671.426 "/>
<polyline clip-path="url(#clip850)" style="stroke:#000000; stroke-linecap:round; stroke-linejoin:round; stroke-width:4; stroke-opacity:1; fill:none" points="291.584,565.175 310.482,565.175 "/>
<polyline clip-path="url(#clip850)" style="stroke:#000000; stroke-linecap:round; stroke-linejoin:round; stroke-width:4; stroke-opacity:1; fill:none" points="291.584,458.924 310.482,458.924 "/>
<polyline clip-path="url(#clip850)" style="stroke:#000000; stroke-linecap:round; stroke-linejoin:round; stroke-width:4; stroke-opacity:1; fill:none" points="291.584,352.673 310.482,352.673 "/>
<polyline clip-path="url(#clip850)" style="stroke:#000000; stroke-linecap:round; stroke-linejoin:round; stroke-width:4; stroke-opacity:1; fill:none" points="291.584,246.422 310.482,246.422 "/>
<polyline clip-path="url(#clip850)" style="stroke:#000000; stroke-linecap:round; stroke-linejoin:round; stroke-width:4; stroke-opacity:1; fill:none" points="291.584,140.171 310.482,140.171 "/>
<polyline clip-path="url(#clip850)" style="stroke:#000000; stroke-linecap:round; stroke-linejoin:round; stroke-width:4; stroke-opacity:1; fill:none" points="2352.76,777.677 2333.86,777.677 "/>
<polyline clip-path="url(#clip850)" style="stroke:#000000; stroke-linecap:round; stroke-linejoin:round; stroke-width:4; stroke-opacity:1; fill:none" points="2352.76,671.426 2333.86,671.426 "/>
<polyline clip-path="url(#clip850)" style="stroke:#000000; stroke-linecap:round; stroke-linejoin:round; stroke-width:4; stroke-opacity:1; fill:none" points="2352.76,565.175 2333.86,565.175 "/>
<polyline clip-path="url(#clip850)" style="stroke:#000000; stroke-linecap:round; stroke-linejoin:round; stroke-width:4; stroke-opacity:1; fill:none" points="2352.76,458.924 2333.86,458.924 "/>
<polyline clip-path="url(#clip850)" style="stroke:#000000; stroke-linecap:round; stroke-linejoin:round; stroke-width:4; stroke-opacity:1; fill:none" points="2352.76,352.673 2333.86,352.673 "/>
<polyline clip-path="url(#clip850)" style="stroke:#000000; stroke-linecap:round; stroke-linejoin:round; stroke-width:4; stroke-opacity:1; fill:none" points="2352.76,246.422 2333.86,246.422 "/>
<polyline clip-path="url(#clip850)" style="stroke:#000000; stroke-linecap:round; stroke-linejoin:round; stroke-width:4; stroke-opacity:1; fill:none" points="2352.76,140.171 2333.86,140.171 "/>
<path clip-path="url(#clip850)" d="M198.408 763.476 Q194.797 763.476 192.969 767.041 Q191.163 770.582 191.163 777.712 Q191.163 784.818 192.969 788.383 Q194.797 791.925 198.408 791.925 Q202.043 791.925 203.848 788.383 Q205.677 784.818 205.677 777.712 Q205.677 770.582 203.848 767.041 Q202.043 763.476 198.408 763.476 M198.408 759.772 Q204.218 759.772 207.274 764.378 Q210.353 768.962 210.353 777.712 Q210.353 786.439 207.274 791.045 Q204.218 795.628 198.408 795.628 Q192.598 795.628 189.519 791.045 Q186.464 786.439 186.464 777.712 Q186.464 768.962 189.519 764.378 Q192.598 759.772 198.408 759.772 Z" fill="#000000" fill-rule="nonzero" fill-opacity="1" /><path clip-path="url(#clip850)" d="M218.57 789.077 L223.454 789.077 L223.454 794.957 L218.57 794.957 L218.57 789.077 Z" fill="#000000" fill-rule="nonzero" fill-opacity="1" /><path clip-path="url(#clip850)" d="M243.64 763.476 Q240.028 763.476 238.2 767.041 Q236.394 770.582 236.394 777.712 Q236.394 784.818 238.2 788.383 Q240.028 791.925 243.64 791.925 Q247.274 791.925 249.079 788.383 Q250.908 784.818 250.908 777.712 Q250.908 770.582 249.079 767.041 Q247.274 763.476 243.64 763.476 M243.64 759.772 Q249.45 759.772 252.505 764.378 Q255.584 768.962 255.584 777.712 Q255.584 786.439 252.505 791.045 Q249.45 795.628 243.64 795.628 Q237.829 795.628 234.751 791.045 Q231.695 786.439 231.695 777.712 Q231.695 768.962 234.751 764.378 Q237.829 759.772 243.64 759.772 Z" fill="#000000" fill-rule="nonzero" fill-opacity="1" /><path clip-path="url(#clip850)" d="M200.006 657.225 Q196.394 657.225 194.566 660.79 Q192.76 664.331 192.76 671.461 Q192.76 678.567 194.566 682.132 Q196.394 685.674 200.006 685.674 Q203.64 685.674 205.445 682.132 Q207.274 678.567 207.274 671.461 Q207.274 664.331 205.445 660.79 Q203.64 657.225 200.006 657.225 M200.006 653.521 Q205.816 653.521 208.871 658.128 Q211.95 662.711 211.95 671.461 Q211.95 680.188 208.871 684.794 Q205.816 689.377 200.006 689.377 Q194.195 689.377 191.117 684.794 Q188.061 680.188 188.061 671.461 Q188.061 662.711 191.117 658.128 Q194.195 653.521 200.006 653.521 Z" fill="#000000" fill-rule="nonzero" fill-opacity="1" /><path clip-path="url(#clip850)" d="M220.167 682.827 L225.052 682.827 L225.052 688.706 L220.167 688.706 L220.167 682.827 Z" fill="#000000" fill-rule="nonzero" fill-opacity="1" /><path clip-path="url(#clip850)" d="M239.265 684.771 L255.584 684.771 L255.584 688.706 L233.64 688.706 L233.64 684.771 Q236.302 682.016 240.885 677.387 Q245.491 672.734 246.672 671.391 Q248.917 668.868 249.797 667.132 Q250.7 665.373 250.7 663.683 Q250.7 660.928 248.755 659.192 Q246.834 657.456 243.732 657.456 Q241.533 657.456 239.079 658.22 Q236.649 658.984 233.871 660.535 L233.871 655.813 Q236.695 654.679 239.149 654.1 Q241.603 653.521 243.64 653.521 Q249.01 653.521 252.204 656.206 Q255.399 658.891 255.399 663.382 Q255.399 665.512 254.589 667.433 Q253.802 669.331 251.695 671.924 Q251.116 672.595 248.015 675.813 Q244.913 679.007 239.265 684.771 Z" fill="#000000" fill-rule="nonzero" fill-opacity="1" /><path clip-path="url(#clip850)" d="M197.922 550.974 Q194.311 550.974 192.482 554.539 Q190.677 558.08 190.677 565.21 Q190.677 572.316 192.482 575.881 Q194.311 579.423 197.922 579.423 Q201.556 579.423 203.362 575.881 Q205.191 572.316 205.191 565.21 Q205.191 558.08 203.362 554.539 Q201.556 550.974 197.922 550.974 M197.922 547.27 Q203.732 547.27 206.788 551.877 Q209.867 556.46 209.867 565.21 Q209.867 573.937 206.788 578.543 Q203.732 583.126 197.922 583.126 Q192.112 583.126 189.033 578.543 Q185.978 573.937 185.978 565.21 Q185.978 556.46 189.033 551.877 Q192.112 547.27 197.922 547.27 Z" fill="#000000" fill-rule="nonzero" fill-opacity="1" /><path clip-path="url(#clip850)" d="M218.084 576.576 L222.968 576.576 L222.968 582.455 L218.084 582.455 L218.084 576.576 Z" fill="#000000" fill-rule="nonzero" fill-opacity="1" /><path clip-path="url(#clip850)" d="M246.001 551.969 L234.195 570.418 L246.001 570.418 L246.001 551.969 M244.774 547.895 L250.653 547.895 L250.653 570.418 L255.584 570.418 L255.584 574.307 L250.653 574.307 L250.653 582.455 L246.001 582.455 L246.001 574.307 L230.399 574.307 L230.399 569.793 L244.774 547.895 Z" fill="#000000" fill-rule="nonzero" fill-opacity="1" /><path clip-path="url(#clip850)" d="M198.246 444.723 Q194.635 444.723 192.806 448.288 Q191.001 451.829 191.001 458.959 Q191.001 466.065 192.806 469.63 Q194.635 473.172 198.246 473.172 Q201.88 473.172 203.686 469.63 Q205.515 466.065 205.515 458.959 Q205.515 451.829 203.686 448.288 Q201.88 444.723 198.246 444.723 M198.246 441.019 Q204.056 441.019 207.112 445.626 Q210.191 450.209 210.191 458.959 Q210.191 467.686 207.112 472.292 Q204.056 476.876 198.246 476.876 Q192.436 476.876 189.357 472.292 Q186.302 467.686 186.302 458.959 Q186.302 450.209 189.357 445.626 Q192.436 441.019 198.246 441.019 Z" fill="#000000" fill-rule="nonzero" fill-opacity="1" /><path clip-path="url(#clip850)" d="M218.408 470.325 L223.292 470.325 L223.292 476.204 L218.408 476.204 L218.408 470.325 Z" fill="#000000" fill-rule="nonzero" fill-opacity="1" /><path clip-path="url(#clip850)" d="M244.056 457.061 Q240.908 457.061 239.056 459.214 Q237.228 461.366 237.228 465.116 Q237.228 468.843 239.056 471.019 Q240.908 473.172 244.056 473.172 Q247.204 473.172 249.033 471.019 Q250.885 468.843 250.885 465.116 Q250.885 461.366 249.033 459.214 Q247.204 457.061 244.056 457.061 M253.339 442.408 L253.339 446.667 Q251.579 445.834 249.774 445.394 Q247.991 444.954 246.232 444.954 Q241.603 444.954 239.149 448.079 Q236.718 451.204 236.371 457.524 Q237.737 455.51 239.797 454.445 Q241.857 453.357 244.334 453.357 Q249.542 453.357 252.552 456.528 Q255.584 459.677 255.584 465.116 Q255.584 470.44 252.436 473.658 Q249.288 476.876 244.056 476.876 Q238.061 476.876 234.89 472.292 Q231.718 467.686 231.718 458.959 Q231.718 450.765 235.607 445.903 Q239.496 441.019 246.047 441.019 Q247.806 441.019 249.589 441.366 Q251.394 441.714 253.339 442.408 Z" fill="#000000" fill-rule="nonzero" fill-opacity="1" /><path clip-path="url(#clip850)" d="M198.501 338.472 Q194.89 338.472 193.061 342.037 Q191.256 345.578 191.256 352.708 Q191.256 359.815 193.061 363.379 Q194.89 366.921 198.501 366.921 Q202.135 366.921 203.941 363.379 Q205.769 359.815 205.769 352.708 Q205.769 345.578 203.941 342.037 Q202.135 338.472 198.501 338.472 M198.501 334.768 Q204.311 334.768 207.367 339.375 Q210.445 343.958 210.445 352.708 Q210.445 361.435 207.367 366.041 Q204.311 370.625 198.501 370.625 Q192.691 370.625 189.612 366.041 Q186.557 361.435 186.557 352.708 Q186.557 343.958 189.612 339.375 Q192.691 334.768 198.501 334.768 Z" fill="#000000" fill-rule="nonzero" fill-opacity="1" /><path clip-path="url(#clip850)" d="M218.663 364.074 L223.547 364.074 L223.547 369.953 L218.663 369.953 L218.663 364.074 Z" fill="#000000" fill-rule="nonzero" fill-opacity="1" /><path clip-path="url(#clip850)" d="M243.732 353.541 Q240.399 353.541 238.478 355.324 Q236.579 357.106 236.579 360.231 Q236.579 363.356 238.478 365.139 Q240.399 366.921 243.732 366.921 Q247.065 366.921 248.987 365.139 Q250.908 363.333 250.908 360.231 Q250.908 357.106 248.987 355.324 Q247.089 353.541 243.732 353.541 M239.056 351.551 Q236.047 350.81 234.357 348.75 Q232.691 346.69 232.691 343.727 Q232.691 339.583 235.63 337.176 Q238.593 334.768 243.732 334.768 Q248.894 334.768 251.834 337.176 Q254.774 339.583 254.774 343.727 Q254.774 346.69 253.084 348.75 Q251.417 350.81 248.431 351.551 Q251.811 352.338 253.686 354.629 Q255.584 356.921 255.584 360.231 Q255.584 365.254 252.505 367.939 Q249.45 370.625 243.732 370.625 Q238.015 370.625 234.936 367.939 Q231.88 365.254 231.88 360.231 Q231.88 356.921 233.778 354.629 Q235.677 352.338 239.056 351.551 M237.343 344.166 Q237.343 346.852 239.01 348.356 Q240.7 349.861 243.732 349.861 Q246.741 349.861 248.431 348.356 Q250.144 346.852 250.144 344.166 Q250.144 341.481 248.431 339.977 Q246.741 338.472 243.732 338.472 Q240.7 338.472 239.01 339.977 Q237.343 341.481 237.343 344.166 Z" fill="#000000" fill-rule="nonzero" fill-opacity="1" /><path clip-path="url(#clip850)" d="M189.219 259.767 L196.857 259.767 L196.857 233.402 L188.547 235.068 L188.547 230.809 L196.811 229.142 L201.487 229.142 L201.487 259.767 L209.126 259.767 L209.126 263.702 L189.219 263.702 L189.219 259.767 Z" fill="#000000" fill-rule="nonzero" fill-opacity="1" /><path clip-path="url(#clip850)" d="M218.57 257.823 L223.454 257.823 L223.454 263.702 L218.57 263.702 L218.57 257.823 Z" fill="#000000" fill-rule="nonzero" fill-opacity="1" /><path clip-path="url(#clip850)" d="M243.64 232.221 Q240.028 232.221 238.2 235.786 Q236.394 239.328 236.394 246.457 Q236.394 253.564 238.2 257.128 Q240.028 260.67 243.64 260.67 Q247.274 260.67 249.079 257.128 Q250.908 253.564 250.908 246.457 Q250.908 239.328 249.079 235.786 Q247.274 232.221 243.64 232.221 M243.64 228.517 Q249.45 228.517 252.505 233.124 Q255.584 237.707 255.584 246.457 Q255.584 255.184 252.505 259.79 Q249.45 264.374 243.64 264.374 Q237.829 264.374 234.751 259.79 Q231.695 255.184 231.695 246.457 Q231.695 237.707 234.751 233.124 Q237.829 228.517 243.64 228.517 Z" fill="#000000" fill-rule="nonzero" fill-opacity="1" /><path clip-path="url(#clip850)" d="M190.816 153.516 L198.455 153.516 L198.455 127.151 L190.144 128.817 L190.144 124.558 L198.408 122.891 L203.084 122.891 L203.084 153.516 L210.723 153.516 L210.723 157.451 L190.816 157.451 L190.816 153.516 Z" fill="#000000" fill-rule="nonzero" fill-opacity="1" /><path clip-path="url(#clip850)" d="M220.167 151.572 L225.052 151.572 L225.052 157.451 L220.167 157.451 L220.167 151.572 Z" fill="#000000" fill-rule="nonzero" fill-opacity="1" /><path clip-path="url(#clip850)" d="M239.265 153.516 L255.584 153.516 L255.584 157.451 L233.64 157.451 L233.64 153.516 Q236.302 150.762 240.885 146.132 Q245.491 141.479 246.672 140.137 Q248.917 137.614 249.797 135.878 Q250.7 134.118 250.7 132.428 Q250.7 129.674 248.755 127.938 Q246.834 126.202 243.732 126.202 Q241.533 126.202 239.079 126.966 Q236.649 127.729 233.871 129.28 L233.871 124.558 Q236.695 123.424 239.149 122.845 Q241.603 122.266 243.64 122.266 Q249.01 122.266 252.204 124.952 Q255.399 127.637 255.399 132.128 Q255.399 134.257 254.589 136.178 Q253.802 138.077 251.695 140.669 Q251.116 141.34 248.015 144.558 Q244.913 147.752 239.265 153.516 Z" fill="#000000" fill-rule="nonzero" fill-opacity="1" /><path clip-path="url(#clip850)" d="M88.2018 500.327 L88.2018 460.128 L93.6127 460.128 L93.6127 476.997 L135.722 476.997 L135.722 483.458 L93.6127 483.458 L93.6127 500.327 L88.2018 500.327 Z" fill="#000000" fill-rule="nonzero" fill-opacity="1" /><path clip-path="url(#clip850)" d="M86.1966 433.996 L86.1966 420.501 L90.7481 420.501 L90.7481 428.14 L139.764 428.14 L139.764 420.501 L144.316 420.501 L144.316 433.996 L86.1966 433.996 Z" fill="#000000" fill-rule="nonzero" fill-opacity="1" /><path clip-path="url(#clip850)" d="M88.2018 407.77 L88.2018 399.112 L127.956 378.042 L88.2018 378.042 L88.2018 371.804 L135.722 371.804 L135.722 380.461 L95.968 401.531 L135.722 401.531 L135.722 407.77 L88.2018 407.77 Z" fill="#000000" fill-rule="nonzero" fill-opacity="1" /><path clip-path="url(#clip850)" d="M86.1966 345.577 L144.316 345.577 L144.316 359.072 L139.764 359.072 L139.764 351.465 L90.7481 351.465 L90.7481 359.072 L86.1966 359.072 L86.1966 345.577 Z" fill="#000000" fill-rule="nonzero" fill-opacity="1" /><polyline clip-path="url(#clip852)" style="stroke:#009af9; stroke-linecap:round; stroke-linejoin:round; stroke-width:4; stroke-opacity:1; fill:none" points="349.919,777.393 389.603,776.542 429.286,775.124 468.97,773.138 508.654,770.585 548.338,767.465 588.021,763.777 627.705,759.522 667.389,754.7 707.072,749.31 746.756,743.353 786.44,736.829 826.124,729.737 865.807,722.078 905.491,713.852 945.175,705.058 984.858,695.697 1024.54,685.769 1064.23,675.273 1103.91,664.21 1143.59,652.58 1183.28,640.382 1222.96,627.617 1262.64,614.285 1302.33,600.385 1342.01,585.918 1381.7,570.884 1421.38,555.282 1461.06,539.113 1500.75,522.377 1540.43,505.073 1580.11,487.202 1619.8,468.764 1659.48,449.758 1699.17,430.185 1738.85,410.045 1778.53,389.337 1818.22,368.062 1857.9,346.22 1897.58,323.81 1937.27,300.834 1976.95,277.289 2016.63,253.178 2056.32,228.499 2096,203.252 2135.69,177.439 2175.37,151.058 2215.05,124.109 2254.74,96.5936 2294.42,68.5106 "/>
<path clip-path="url(#clip850)" d="M360.29 175.971 L717.239 175.971 L717.239 72.2913 L360.29 72.2913  Z" fill="#ffffff" fill-rule="evenodd" fill-opacity="1"/>
<polyline clip-path="url(#clip850)" style="stroke:#000000; stroke-linecap:round; stroke-linejoin:round; stroke-width:4; stroke-opacity:0; fill:none" points="360.29,175.971 717.239,175.971 717.239,72.2913 360.29,72.2913 360.29,175.971 "/>
<polyline clip-path="url(#clip850)" style="stroke:#009af9; stroke-linecap:round; stroke-linejoin:round; stroke-width:4; stroke-opacity:1; fill:none" points="383.192,124.131 520.603,124.131 "/>
<path clip-path="url(#clip850)" d="M543.505 106.851 L572.741 106.851 L572.741 110.786 L560.472 110.786 L560.472 141.411 L555.773 141.411 L555.773 110.786 L543.505 110.786 L543.505 106.851 Z" fill="#000000" fill-rule="nonzero" fill-opacity="1" /><path clip-path="url(#clip850)" d="M598.62 125.763 L598.62 141.411 L594.361 141.411 L594.361 125.902 Q594.361 122.222 592.926 120.393 Q591.491 118.564 588.62 118.564 Q585.171 118.564 583.181 120.763 Q581.19 122.962 581.19 126.759 L581.19 141.411 L576.908 141.411 L576.908 105.393 L581.19 105.393 L581.19 119.513 Q582.718 117.175 584.778 116.018 Q586.861 114.861 589.569 114.861 Q594.037 114.861 596.329 117.638 Q598.62 120.393 598.62 125.763 Z" fill="#000000" fill-rule="nonzero" fill-opacity="1" /><path clip-path="url(#clip850)" d="M622.139 119.467 Q621.421 119.05 620.565 118.865 Q619.731 118.657 618.713 118.657 Q615.102 118.657 613.157 121.018 Q611.236 123.356 611.236 127.754 L611.236 141.411 L606.954 141.411 L606.954 115.485 L611.236 115.485 L611.236 119.513 Q612.579 117.152 614.731 116.018 Q616.884 114.861 619.963 114.861 Q620.403 114.861 620.935 114.93 Q621.467 114.976 622.116 115.092 L622.139 119.467 Z" fill="#000000" fill-rule="nonzero" fill-opacity="1" /><path clip-path="url(#clip850)" d="M626.167 131.18 L626.167 115.485 L630.426 115.485 L630.426 131.018 Q630.426 134.698 631.861 136.55 Q633.296 138.379 636.166 138.379 Q639.616 138.379 641.606 136.18 Q643.62 133.981 643.62 130.184 L643.62 115.485 L647.879 115.485 L647.879 141.411 L643.62 141.411 L643.62 137.43 Q642.069 139.791 640.009 140.948 Q637.972 142.083 635.264 142.083 Q630.796 142.083 628.481 139.305 Q626.167 136.527 626.167 131.18 M636.884 114.861 L636.884 114.861 Z" fill="#000000" fill-rule="nonzero" fill-opacity="1" /><path clip-path="url(#clip850)" d="M673.18 116.249 L673.18 120.277 Q671.375 119.351 669.43 118.888 Q667.486 118.425 665.402 118.425 Q662.231 118.425 660.634 119.398 Q659.06 120.37 659.06 122.314 Q659.06 123.796 660.194 124.652 Q661.328 125.485 664.754 126.249 L666.213 126.573 Q670.75 127.546 672.648 129.328 Q674.569 131.087 674.569 134.259 Q674.569 137.87 671.699 139.976 Q668.851 142.083 663.852 142.083 Q661.768 142.083 659.5 141.666 Q657.254 141.272 654.754 140.462 L654.754 136.064 Q657.115 137.291 659.407 137.916 Q661.699 138.518 663.944 138.518 Q666.953 138.518 668.574 137.499 Q670.194 136.458 670.194 134.583 Q670.194 132.847 669.014 131.921 Q667.856 130.995 663.898 130.138 L662.416 129.791 Q658.458 128.958 656.699 127.245 Q654.94 125.509 654.94 122.499 Q654.94 118.842 657.532 116.851 Q660.125 114.861 664.893 114.861 Q667.254 114.861 669.338 115.208 Q671.421 115.555 673.18 116.249 Z" fill="#000000" fill-rule="nonzero" fill-opacity="1" /><path clip-path="url(#clip850)" d="M685.564 108.124 L685.564 115.485 L694.337 115.485 L694.337 118.796 L685.564 118.796 L685.564 132.87 Q685.564 136.041 686.421 136.944 Q687.3 137.846 689.962 137.846 L694.337 137.846 L694.337 141.411 L689.962 141.411 Q685.032 141.411 683.157 139.583 Q681.282 137.731 681.282 132.87 L681.282 118.796 L678.157 118.796 L678.157 115.485 L681.282 115.485 L681.282 108.124 L685.564 108.124 Z" fill="#000000" fill-rule="nonzero" fill-opacity="1" /><path clip-path="url(#clip850)" d="M291.584 1798.66 L2352.76 1798.66 L2352.76 1047.24 L291.584 1047.24  Z" fill="#ffffff" fill-rule="evenodd" fill-opacity="1"/>
<defs>
  <clipPath id="clip853">
    <rect x="291" y="1047" width="2062" height="752"/>
  </clipPath>
</defs>
<polyline clip-path="url(#clip853)" style="stroke:#000000; stroke-linecap:round; stroke-linejoin:round; stroke-width:2; stroke-opacity:0.1; fill:none" points="310.235,1798.66 310.235,1047.24 "/>
<polyline clip-path="url(#clip853)" style="stroke:#000000; stroke-linecap:round; stroke-linejoin:round; stroke-width:2; stroke-opacity:0.1; fill:none" points="707.072,1798.66 707.072,1047.24 "/>
<polyline clip-path="url(#clip853)" style="stroke:#000000; stroke-linecap:round; stroke-linejoin:round; stroke-width:2; stroke-opacity:0.1; fill:none" points="1103.91,1798.66 1103.91,1047.24 "/>
<polyline clip-path="url(#clip853)" style="stroke:#000000; stroke-linecap:round; stroke-linejoin:round; stroke-width:2; stroke-opacity:0.1; fill:none" points="1500.75,1798.66 1500.75,1047.24 "/>
<polyline clip-path="url(#clip853)" style="stroke:#000000; stroke-linecap:round; stroke-linejoin:round; stroke-width:2; stroke-opacity:0.1; fill:none" points="1897.58,1798.66 1897.58,1047.24 "/>
<polyline clip-path="url(#clip853)" style="stroke:#000000; stroke-linecap:round; stroke-linejoin:round; stroke-width:2; stroke-opacity:0.1; fill:none" points="2294.42,1798.66 2294.42,1047.24 "/>
<polyline clip-path="url(#clip853)" style="stroke:#000000; stroke-linecap:round; stroke-linejoin:round; stroke-width:2; stroke-opacity:0.1; fill:none" points="310.235,1798.66 310.235,1047.24 "/>
<polyline clip-path="url(#clip853)" style="stroke:#000000; stroke-linecap:round; stroke-linejoin:round; stroke-width:2; stroke-opacity:0.1; fill:none" points="707.072,1798.66 707.072,1047.24 "/>
<polyline clip-path="url(#clip853)" style="stroke:#000000; stroke-linecap:round; stroke-linejoin:round; stroke-width:2; stroke-opacity:0.1; fill:none" points="1103.91,1798.66 1103.91,1047.24 "/>
<polyline clip-path="url(#clip853)" style="stroke:#000000; stroke-linecap:round; stroke-linejoin:round; stroke-width:2; stroke-opacity:0.1; fill:none" points="1500.75,1798.66 1500.75,1047.24 "/>
<polyline clip-path="url(#clip853)" style="stroke:#000000; stroke-linecap:round; stroke-linejoin:round; stroke-width:2; stroke-opacity:0.1; fill:none" points="1897.58,1798.66 1897.58,1047.24 "/>
<polyline clip-path="url(#clip853)" style="stroke:#000000; stroke-linecap:round; stroke-linejoin:round; stroke-width:2; stroke-opacity:0.1; fill:none" points="2294.42,1798.66 2294.42,1047.24 "/>
<polyline clip-path="url(#clip850)" style="stroke:#000000; stroke-linecap:round; stroke-linejoin:round; stroke-width:4; stroke-opacity:1; fill:none" points="291.584,1798.66 2352.76,1798.66 "/>
<polyline clip-path="url(#clip850)" style="stroke:#000000; stroke-linecap:round; stroke-linejoin:round; stroke-width:4; stroke-opacity:1; fill:none" points="291.584,1047.24 2352.76,1047.24 "/>
<polyline clip-path="url(#clip850)" style="stroke:#000000; stroke-linecap:round; stroke-linejoin:round; stroke-width:4; stroke-opacity:1; fill:none" points="310.235,1798.66 310.235,1779.76 "/>
<polyline clip-path="url(#clip850)" style="stroke:#000000; stroke-linecap:round; stroke-linejoin:round; stroke-width:4; stroke-opacity:1; fill:none" points="707.072,1798.66 707.072,1779.76 "/>
<polyline clip-path="url(#clip850)" style="stroke:#000000; stroke-linecap:round; stroke-linejoin:round; stroke-width:4; stroke-opacity:1; fill:none" points="1103.91,1798.66 1103.91,1779.76 "/>
<polyline clip-path="url(#clip850)" style="stroke:#000000; stroke-linecap:round; stroke-linejoin:round; stroke-width:4; stroke-opacity:1; fill:none" points="1500.75,1798.66 1500.75,1779.76 "/>
<polyline clip-path="url(#clip850)" style="stroke:#000000; stroke-linecap:round; stroke-linejoin:round; stroke-width:4; stroke-opacity:1; fill:none" points="1897.58,1798.66 1897.58,1779.76 "/>
<polyline clip-path="url(#clip850)" style="stroke:#000000; stroke-linecap:round; stroke-linejoin:round; stroke-width:4; stroke-opacity:1; fill:none" points="2294.42,1798.66 2294.42,1779.76 "/>
<polyline clip-path="url(#clip850)" style="stroke:#000000; stroke-linecap:round; stroke-linejoin:round; stroke-width:4; stroke-opacity:1; fill:none" points="310.235,1047.24 310.235,1066.14 "/>
<polyline clip-path="url(#clip850)" style="stroke:#000000; stroke-linecap:round; stroke-linejoin:round; stroke-width:4; stroke-opacity:1; fill:none" points="707.072,1047.24 707.072,1066.14 "/>
<polyline clip-path="url(#clip850)" style="stroke:#000000; stroke-linecap:round; stroke-linejoin:round; stroke-width:4; stroke-opacity:1; fill:none" points="1103.91,1047.24 1103.91,1066.14 "/>
<polyline clip-path="url(#clip850)" style="stroke:#000000; stroke-linecap:round; stroke-linejoin:round; stroke-width:4; stroke-opacity:1; fill:none" points="1500.75,1047.24 1500.75,1066.14 "/>
<polyline clip-path="url(#clip850)" style="stroke:#000000; stroke-linecap:round; stroke-linejoin:round; stroke-width:4; stroke-opacity:1; fill:none" points="1897.58,1047.24 1897.58,1066.14 "/>
<polyline clip-path="url(#clip850)" style="stroke:#000000; stroke-linecap:round; stroke-linejoin:round; stroke-width:4; stroke-opacity:1; fill:none" points="2294.42,1047.24 2294.42,1066.14 "/>
<path clip-path="url(#clip850)" d="M310.235 1829.58 Q306.624 1829.58 304.795 1833.14 Q302.99 1836.68 302.99 1843.81 Q302.99 1850.92 304.795 1854.49 Q306.624 1858.03 310.235 1858.03 Q313.869 1858.03 315.675 1854.49 Q317.504 1850.92 317.504 1843.81 Q317.504 1836.68 315.675 1833.14 Q313.869 1829.58 310.235 1829.58 M310.235 1825.87 Q316.045 1825.87 319.101 1830.48 Q322.18 1835.06 322.18 1843.81 Q322.18 1852.54 319.101 1857.15 Q316.045 1861.73 310.235 1861.73 Q304.425 1861.73 301.346 1857.15 Q298.291 1852.54 298.291 1843.81 Q298.291 1835.06 301.346 1830.48 Q304.425 1825.87 310.235 1825.87 Z" fill="#000000" fill-rule="nonzero" fill-opacity="1" /><path clip-path="url(#clip850)" d="M651.598 1857.12 L659.237 1857.12 L659.237 1830.76 L650.927 1832.43 L650.927 1828.17 L659.191 1826.5 L663.867 1826.5 L663.867 1857.12 L671.505 1857.12 L671.505 1861.06 L651.598 1861.06 L651.598 1857.12 Z" fill="#000000" fill-rule="nonzero" fill-opacity="1" /><path clip-path="url(#clip850)" d="M690.95 1829.58 Q687.339 1829.58 685.51 1833.14 Q683.704 1836.68 683.704 1843.81 Q683.704 1850.92 685.51 1854.49 Q687.339 1858.03 690.95 1858.03 Q694.584 1858.03 696.39 1854.49 Q698.218 1850.92 698.218 1843.81 Q698.218 1836.68 696.39 1833.14 Q694.584 1829.58 690.95 1829.58 M690.95 1825.87 Q696.76 1825.87 699.815 1830.48 Q702.894 1835.06 702.894 1843.81 Q702.894 1852.54 699.815 1857.15 Q696.76 1861.73 690.95 1861.73 Q685.14 1861.73 682.061 1857.15 Q679.005 1852.54 679.005 1843.81 Q679.005 1835.06 682.061 1830.48 Q685.14 1825.87 690.95 1825.87 Z" fill="#000000" fill-rule="nonzero" fill-opacity="1" /><path clip-path="url(#clip850)" d="M721.112 1829.58 Q717.501 1829.58 715.672 1833.14 Q713.866 1836.68 713.866 1843.81 Q713.866 1850.92 715.672 1854.49 Q717.501 1858.03 721.112 1858.03 Q724.746 1858.03 726.551 1854.49 Q728.38 1850.92 728.38 1843.81 Q728.38 1836.68 726.551 1833.14 Q724.746 1829.58 721.112 1829.58 M721.112 1825.87 Q726.922 1825.87 729.977 1830.48 Q733.056 1835.06 733.056 1843.81 Q733.056 1852.54 729.977 1857.15 Q726.922 1861.73 721.112 1861.73 Q715.301 1861.73 712.223 1857.15 Q709.167 1852.54 709.167 1843.81 Q709.167 1835.06 712.223 1830.48 Q715.301 1825.87 721.112 1825.87 Z" fill="#000000" fill-rule="nonzero" fill-opacity="1" /><path clip-path="url(#clip850)" d="M751.274 1829.58 Q747.662 1829.58 745.834 1833.14 Q744.028 1836.68 744.028 1843.81 Q744.028 1850.92 745.834 1854.49 Q747.662 1858.03 751.274 1858.03 Q754.908 1858.03 756.713 1854.49 Q758.542 1850.92 758.542 1843.81 Q758.542 1836.68 756.713 1833.14 Q754.908 1829.58 751.274 1829.58 M751.274 1825.87 Q757.084 1825.87 760.139 1830.48 Q763.218 1835.06 763.218 1843.81 Q763.218 1852.54 760.139 1857.15 Q757.084 1861.73 751.274 1861.73 Q745.463 1861.73 742.385 1857.15 Q739.329 1852.54 739.329 1843.81 Q739.329 1835.06 742.385 1830.48 Q745.463 1825.87 751.274 1825.87 Z" fill="#000000" fill-rule="nonzero" fill-opacity="1" /><path clip-path="url(#clip850)" d="M1052.52 1857.12 L1068.84 1857.12 L1068.84 1861.06 L1046.9 1861.06 L1046.9 1857.12 Q1049.56 1854.37 1054.14 1849.74 Q1058.75 1845.09 1059.93 1843.75 Q1062.17 1841.22 1063.05 1839.49 Q1063.96 1837.73 1063.96 1836.04 Q1063.96 1833.28 1062.01 1831.55 Q1060.09 1829.81 1056.99 1829.81 Q1054.79 1829.81 1052.34 1830.57 Q1049.91 1831.34 1047.13 1832.89 L1047.13 1828.17 Q1049.95 1827.03 1052.41 1826.45 Q1054.86 1825.87 1056.9 1825.87 Q1062.27 1825.87 1065.46 1828.56 Q1068.66 1831.25 1068.66 1835.74 Q1068.66 1837.87 1067.84 1839.79 Q1067.06 1841.68 1064.95 1844.28 Q1064.37 1844.95 1061.27 1848.17 Q1058.17 1851.36 1052.52 1857.12 Z" fill="#000000" fill-rule="nonzero" fill-opacity="1" /><path clip-path="url(#clip850)" d="M1088.65 1829.58 Q1085.04 1829.58 1083.22 1833.14 Q1081.41 1836.68 1081.41 1843.81 Q1081.41 1850.92 1083.22 1854.49 Q1085.04 1858.03 1088.65 1858.03 Q1092.29 1858.03 1094.09 1854.49 Q1095.92 1850.92 1095.92 1843.81 Q1095.92 1836.68 1094.09 1833.14 Q1092.29 1829.58 1088.65 1829.58 M1088.65 1825.87 Q1094.47 1825.87 1097.52 1830.48 Q1100.6 1835.06 1100.6 1843.81 Q1100.6 1852.54 1097.52 1857.15 Q1094.47 1861.73 1088.65 1861.73 Q1082.84 1861.73 1079.77 1857.15 Q1076.71 1852.54 1076.71 1843.81 Q1076.71 1835.06 1079.77 1830.48 Q1082.84 1825.87 1088.65 1825.87 Z" fill="#000000" fill-rule="nonzero" fill-opacity="1" /><path clip-path="url(#clip850)" d="M1118.82 1829.58 Q1115.21 1829.58 1113.38 1833.14 Q1111.57 1836.68 1111.57 1843.81 Q1111.57 1850.92 1113.38 1854.49 Q1115.21 1858.03 1118.82 1858.03 Q1122.45 1858.03 1124.26 1854.49 Q1126.09 1850.92 1126.09 1843.81 Q1126.09 1836.68 1124.26 1833.14 Q1122.45 1829.58 1118.82 1829.58 M1118.82 1825.87 Q1124.63 1825.87 1127.68 1830.48 Q1130.76 1835.06 1130.76 1843.81 Q1130.76 1852.54 1127.68 1857.15 Q1124.63 1861.73 1118.82 1861.73 Q1113.01 1861.73 1109.93 1857.15 Q1106.87 1852.54 1106.87 1843.81 Q1106.87 1835.06 1109.93 1830.48 Q1113.01 1825.87 1118.82 1825.87 Z" fill="#000000" fill-rule="nonzero" fill-opacity="1" /><path clip-path="url(#clip850)" d="M1148.98 1829.58 Q1145.37 1829.58 1143.54 1833.14 Q1141.73 1836.68 1141.73 1843.81 Q1141.73 1850.92 1143.54 1854.49 Q1145.37 1858.03 1148.98 1858.03 Q1152.61 1858.03 1154.42 1854.49 Q1156.25 1850.92 1156.25 1843.81 Q1156.25 1836.68 1154.42 1833.14 Q1152.61 1829.58 1148.98 1829.58 M1148.98 1825.87 Q1154.79 1825.87 1157.84 1830.48 Q1160.92 1835.06 1160.92 1843.81 Q1160.92 1852.54 1157.84 1857.15 Q1154.79 1861.73 1148.98 1861.73 Q1143.17 1861.73 1140.09 1857.15 Q1137.03 1852.54 1137.03 1843.81 Q1137.03 1835.06 1140.09 1830.48 Q1143.17 1825.87 1148.98 1825.87 Z" fill="#000000" fill-rule="nonzero" fill-opacity="1" /><path clip-path="url(#clip850)" d="M1459.43 1842.43 Q1462.78 1843.14 1464.66 1845.41 Q1466.56 1847.68 1466.56 1851.01 Q1466.56 1856.13 1463.04 1858.93 Q1459.52 1861.73 1453.04 1861.73 Q1450.86 1861.73 1448.55 1861.29 Q1446.26 1860.87 1443.8 1860.02 L1443.8 1855.5 Q1445.75 1856.64 1448.06 1857.22 Q1450.38 1857.8 1452.9 1857.8 Q1457.3 1857.8 1459.59 1856.06 Q1461.9 1854.32 1461.9 1851.01 Q1461.9 1847.96 1459.75 1846.25 Q1457.62 1844.51 1453.8 1844.51 L1449.77 1844.51 L1449.77 1840.67 L1453.99 1840.67 Q1457.44 1840.67 1459.27 1839.3 Q1461.09 1837.91 1461.09 1835.32 Q1461.09 1832.66 1459.2 1831.25 Q1457.32 1829.81 1453.8 1829.81 Q1451.88 1829.81 1449.68 1830.23 Q1447.48 1830.64 1444.84 1831.52 L1444.84 1827.36 Q1447.51 1826.62 1449.82 1826.25 Q1452.16 1825.87 1454.22 1825.87 Q1459.54 1825.87 1462.64 1828.31 Q1465.75 1830.71 1465.75 1834.83 Q1465.75 1837.7 1464.1 1839.69 Q1462.46 1841.66 1459.43 1842.43 Z" fill="#000000" fill-rule="nonzero" fill-opacity="1" /><path clip-path="url(#clip850)" d="M1485.42 1829.58 Q1481.81 1829.58 1479.98 1833.14 Q1478.18 1836.68 1478.18 1843.81 Q1478.18 1850.92 1479.98 1854.49 Q1481.81 1858.03 1485.42 1858.03 Q1489.06 1858.03 1490.86 1854.49 Q1492.69 1850.92 1492.69 1843.81 Q1492.69 1836.68 1490.86 1833.14 Q1489.06 1829.58 1485.42 1829.58 M1485.42 1825.87 Q1491.23 1825.87 1494.29 1830.48 Q1497.37 1835.06 1497.37 1843.81 Q1497.37 1852.54 1494.29 1857.15 Q1491.23 1861.73 1485.42 1861.73 Q1479.61 1861.73 1476.53 1857.15 Q1473.48 1852.54 1473.48 1843.81 Q1473.48 1835.06 1476.53 1830.48 Q1479.61 1825.87 1485.42 1825.87 Z" fill="#000000" fill-rule="nonzero" fill-opacity="1" /><path clip-path="url(#clip850)" d="M1515.58 1829.58 Q1511.97 1829.58 1510.14 1833.14 Q1508.34 1836.68 1508.34 1843.81 Q1508.34 1850.92 1510.14 1854.49 Q1511.97 1858.03 1515.58 1858.03 Q1519.22 1858.03 1521.02 1854.49 Q1522.85 1850.92 1522.85 1843.81 Q1522.85 1836.68 1521.02 1833.14 Q1519.22 1829.58 1515.58 1829.58 M1515.58 1825.87 Q1521.39 1825.87 1524.45 1830.48 Q1527.53 1835.06 1527.53 1843.81 Q1527.53 1852.54 1524.45 1857.15 Q1521.39 1861.73 1515.58 1861.73 Q1509.77 1861.73 1506.7 1857.15 Q1503.64 1852.54 1503.64 1843.81 Q1503.64 1835.06 1506.7 1830.48 Q1509.77 1825.87 1515.58 1825.87 Z" fill="#000000" fill-rule="nonzero" fill-opacity="1" /><path clip-path="url(#clip850)" d="M1545.75 1829.58 Q1542.14 1829.58 1540.31 1833.14 Q1538.5 1836.68 1538.5 1843.81 Q1538.5 1850.92 1540.31 1854.49 Q1542.14 1858.03 1545.75 1858.03 Q1549.38 1858.03 1551.19 1854.49 Q1553.01 1850.92 1553.01 1843.81 Q1553.01 1836.68 1551.19 1833.14 Q1549.38 1829.58 1545.75 1829.58 M1545.75 1825.87 Q1551.56 1825.87 1554.61 1830.48 Q1557.69 1835.06 1557.69 1843.81 Q1557.69 1852.54 1554.61 1857.15 Q1551.56 1861.73 1545.75 1861.73 Q1539.94 1861.73 1536.86 1857.15 Q1533.8 1852.54 1533.8 1843.81 Q1533.8 1835.06 1536.86 1830.48 Q1539.94 1825.87 1545.75 1825.87 Z" fill="#000000" fill-rule="nonzero" fill-opacity="1" /><path clip-path="url(#clip850)" d="M1855.59 1830.57 L1843.79 1849.02 L1855.59 1849.02 L1855.59 1830.57 M1854.37 1826.5 L1860.25 1826.5 L1860.25 1849.02 L1865.18 1849.02 L1865.18 1852.91 L1860.25 1852.91 L1860.25 1861.06 L1855.59 1861.06 L1855.59 1852.91 L1839.99 1852.91 L1839.99 1848.4 L1854.37 1826.5 Z" fill="#000000" fill-rule="nonzero" fill-opacity="1" /><path clip-path="url(#clip850)" d="M1882.91 1829.58 Q1879.3 1829.58 1877.47 1833.14 Q1875.66 1836.68 1875.66 1843.81 Q1875.66 1850.92 1877.47 1854.49 Q1879.3 1858.03 1882.91 1858.03 Q1886.54 1858.03 1888.35 1854.49 Q1890.18 1850.92 1890.18 1843.81 Q1890.18 1836.68 1888.35 1833.14 Q1886.54 1829.58 1882.91 1829.58 M1882.91 1825.87 Q1888.72 1825.87 1891.77 1830.48 Q1894.85 1835.06 1894.85 1843.81 Q1894.85 1852.54 1891.77 1857.15 Q1888.72 1861.73 1882.91 1861.73 Q1877.1 1861.73 1874.02 1857.15 Q1870.96 1852.54 1870.96 1843.81 Q1870.96 1835.06 1874.02 1830.48 Q1877.1 1825.87 1882.91 1825.87 Z" fill="#000000" fill-rule="nonzero" fill-opacity="1" /><path clip-path="url(#clip850)" d="M1913.07 1829.58 Q1909.46 1829.58 1907.63 1833.14 Q1905.82 1836.68 1905.82 1843.81 Q1905.82 1850.92 1907.63 1854.49 Q1909.46 1858.03 1913.07 1858.03 Q1916.7 1858.03 1918.51 1854.49 Q1920.34 1850.92 1920.34 1843.81 Q1920.34 1836.68 1918.51 1833.14 Q1916.7 1829.58 1913.07 1829.58 M1913.07 1825.87 Q1918.88 1825.87 1921.94 1830.48 Q1925.01 1835.06 1925.01 1843.81 Q1925.01 1852.54 1921.94 1857.15 Q1918.88 1861.73 1913.07 1861.73 Q1907.26 1861.73 1904.18 1857.15 Q1901.13 1852.54 1901.13 1843.81 Q1901.13 1835.06 1904.18 1830.48 Q1907.26 1825.87 1913.07 1825.87 Z" fill="#000000" fill-rule="nonzero" fill-opacity="1" /><path clip-path="url(#clip850)" d="M1943.23 1829.58 Q1939.62 1829.58 1937.79 1833.14 Q1935.99 1836.68 1935.99 1843.81 Q1935.99 1850.92 1937.79 1854.49 Q1939.62 1858.03 1943.23 1858.03 Q1946.87 1858.03 1948.67 1854.49 Q1950.5 1850.92 1950.5 1843.81 Q1950.5 1836.68 1948.67 1833.14 Q1946.87 1829.58 1943.23 1829.58 M1943.23 1825.87 Q1949.04 1825.87 1952.1 1830.48 Q1955.18 1835.06 1955.18 1843.81 Q1955.18 1852.54 1952.1 1857.15 Q1949.04 1861.73 1943.23 1861.73 Q1937.42 1861.73 1934.34 1857.15 Q1931.29 1852.54 1931.29 1843.81 Q1931.29 1835.06 1934.34 1830.48 Q1937.42 1825.87 1943.23 1825.87 Z" fill="#000000" fill-rule="nonzero" fill-opacity="1" /><path clip-path="url(#clip850)" d="M2238.96 1826.5 L2257.31 1826.5 L2257.31 1830.44 L2243.24 1830.44 L2243.24 1838.91 Q2244.26 1838.56 2245.28 1838.4 Q2246.3 1838.21 2247.31 1838.21 Q2253.1 1838.21 2256.48 1841.38 Q2259.86 1844.56 2259.86 1849.97 Q2259.86 1855.55 2256.39 1858.65 Q2252.92 1861.73 2246.6 1861.73 Q2244.42 1861.73 2242.15 1861.36 Q2239.91 1860.99 2237.5 1860.25 L2237.5 1855.55 Q2239.58 1856.68 2241.81 1857.24 Q2244.03 1857.8 2246.5 1857.8 Q2250.51 1857.8 2252.85 1855.69 Q2255.18 1853.58 2255.18 1849.97 Q2255.18 1846.36 2252.85 1844.25 Q2250.51 1842.15 2246.5 1842.15 Q2244.63 1842.15 2242.75 1842.56 Q2240.9 1842.98 2238.96 1843.86 L2238.96 1826.5 Z" fill="#000000" fill-rule="nonzero" fill-opacity="1" /><path clip-path="url(#clip850)" d="M2279.07 1829.58 Q2275.46 1829.58 2273.63 1833.14 Q2271.83 1836.68 2271.83 1843.81 Q2271.83 1850.92 2273.63 1854.49 Q2275.46 1858.03 2279.07 1858.03 Q2282.71 1858.03 2284.51 1854.49 Q2286.34 1850.92 2286.34 1843.81 Q2286.34 1836.68 2284.51 1833.14 Q2282.71 1829.58 2279.07 1829.58 M2279.07 1825.87 Q2284.88 1825.87 2287.94 1830.48 Q2291.02 1835.06 2291.02 1843.81 Q2291.02 1852.54 2287.94 1857.15 Q2284.88 1861.73 2279.07 1861.73 Q2273.26 1861.73 2270.18 1857.15 Q2267.13 1852.54 2267.13 1843.81 Q2267.13 1835.06 2270.18 1830.48 Q2273.26 1825.87 2279.07 1825.87 Z" fill="#000000" fill-rule="nonzero" fill-opacity="1" /><path clip-path="url(#clip850)" d="M2309.24 1829.58 Q2305.62 1829.58 2303.8 1833.14 Q2301.99 1836.68 2301.99 1843.81 Q2301.99 1850.92 2303.8 1854.49 Q2305.62 1858.03 2309.24 1858.03 Q2312.87 1858.03 2314.68 1854.49 Q2316.5 1850.92 2316.5 1843.81 Q2316.5 1836.68 2314.68 1833.14 Q2312.87 1829.58 2309.24 1829.58 M2309.24 1825.87 Q2315.05 1825.87 2318.1 1830.48 Q2321.18 1835.06 2321.18 1843.81 Q2321.18 1852.54 2318.1 1857.15 Q2315.05 1861.73 2309.24 1861.73 Q2303.43 1861.73 2300.35 1857.15 Q2297.29 1852.54 2297.29 1843.81 Q2297.29 1835.06 2300.35 1830.48 Q2303.43 1825.87 2309.24 1825.87 Z" fill="#000000" fill-rule="nonzero" fill-opacity="1" /><path clip-path="url(#clip850)" d="M2339.4 1829.58 Q2335.79 1829.58 2333.96 1833.14 Q2332.15 1836.68 2332.15 1843.81 Q2332.15 1850.92 2333.96 1854.49 Q2335.79 1858.03 2339.4 1858.03 Q2343.03 1858.03 2344.84 1854.49 Q2346.67 1850.92 2346.67 1843.81 Q2346.67 1836.68 2344.84 1833.14 Q2343.03 1829.58 2339.4 1829.58 M2339.4 1825.87 Q2345.21 1825.87 2348.26 1830.48 Q2351.34 1835.06 2351.34 1843.81 Q2351.34 1852.54 2348.26 1857.15 Q2345.21 1861.73 2339.4 1861.73 Q2333.59 1861.73 2330.51 1857.15 Q2327.45 1852.54 2327.45 1843.81 Q2327.45 1835.06 2330.51 1830.48 Q2333.59 1825.87 2339.4 1825.87 Z" fill="#000000" fill-rule="nonzero" fill-opacity="1" /><path clip-path="url(#clip850)" d="M1280.67 1921.24 Q1282.73 1921.94 1284.68 1924.24 Q1286.65 1926.53 1288.62 1930.54 L1295.15 1943.52 L1288.24 1943.52 L1282.16 1931.33 Q1279.81 1926.56 1277.58 1925 Q1275.38 1923.44 1271.56 1923.44 L1264.56 1923.44 L1264.56 1943.52 L1258.13 1943.52 L1258.13 1896 L1272.64 1896 Q1280.79 1896 1284.8 1899.41 Q1288.81 1902.82 1288.81 1909.69 Q1288.81 1914.18 1286.71 1917.14 Q1284.64 1920.1 1280.67 1921.24 M1264.56 1901.29 L1264.56 1918.16 L1272.64 1918.16 Q1277.29 1918.16 1279.65 1916.02 Q1282.03 1913.86 1282.03 1909.69 Q1282.03 1905.52 1279.65 1903.42 Q1277.29 1901.29 1272.64 1901.29 L1264.56 1901.29 Z" fill="#000000" fill-rule="nonzero" fill-opacity="1" /><path clip-path="url(#clip850)" d="M1309.85 1901.29 L1309.85 1919.14 L1317.94 1919.14 Q1322.42 1919.14 1324.88 1916.82 Q1327.33 1914.5 1327.33 1910.2 Q1327.33 1905.93 1324.88 1903.61 Q1322.42 1901.29 1317.94 1901.29 L1309.85 1901.29 M1303.42 1896 L1317.94 1896 Q1325.93 1896 1330 1899.63 Q1334.11 1903.23 1334.11 1910.2 Q1334.11 1917.23 1330 1920.83 Q1325.93 1924.43 1317.94 1924.43 L1309.85 1924.43 L1309.85 1943.52 L1303.42 1943.52 L1303.42 1896 Z" fill="#000000" fill-rule="nonzero" fill-opacity="1" /><path clip-path="url(#clip850)" d="M1342.73 1896 L1352.31 1896 L1364.44 1928.34 L1376.63 1896 L1386.21 1896 L1386.21 1943.52 L1379.94 1943.52 L1379.94 1901.8 L1367.68 1934.39 L1361.22 1934.39 L1348.97 1901.8 L1348.97 1943.52 L1342.73 1943.52 L1342.73 1896 Z" fill="#000000" fill-rule="nonzero" fill-opacity="1" /><polyline clip-path="url(#clip853)" style="stroke:#000000; stroke-linecap:round; stroke-linejoin:round; stroke-width:2; stroke-opacity:0.1; fill:none" points="291.584,1777.68 2352.76,1777.68 "/>
<polyline clip-path="url(#clip853)" style="stroke:#000000; stroke-linecap:round; stroke-linejoin:round; stroke-width:2; stroke-opacity:0.1; fill:none" points="291.584,1592.1 2352.76,1592.1 "/>
<polyline clip-path="url(#clip853)" style="stroke:#000000; stroke-linecap:round; stroke-linejoin:round; stroke-width:2; stroke-opacity:0.1; fill:none" points="291.584,1406.52 2352.76,1406.52 "/>
<polyline clip-path="url(#clip853)" style="stroke:#000000; stroke-linecap:round; stroke-linejoin:round; stroke-width:2; stroke-opacity:0.1; fill:none" points="291.584,1220.94 2352.76,1220.94 "/>
<polyline clip-path="url(#clip853)" style="stroke:#000000; stroke-linecap:round; stroke-linejoin:round; stroke-width:2; stroke-opacity:0.1; fill:none" points="291.584,1777.68 2352.76,1777.68 "/>
<polyline clip-path="url(#clip853)" style="stroke:#000000; stroke-linecap:round; stroke-linejoin:round; stroke-width:2; stroke-opacity:0.1; fill:none" points="291.584,1592.1 2352.76,1592.1 "/>
<polyline clip-path="url(#clip853)" style="stroke:#000000; stroke-linecap:round; stroke-linejoin:round; stroke-width:2; stroke-opacity:0.1; fill:none" points="291.584,1406.52 2352.76,1406.52 "/>
<polyline clip-path="url(#clip853)" style="stroke:#000000; stroke-linecap:round; stroke-linejoin:round; stroke-width:2; stroke-opacity:0.1; fill:none" points="291.584,1220.94 2352.76,1220.94 "/>
<polyline clip-path="url(#clip850)" style="stroke:#000000; stroke-linecap:round; stroke-linejoin:round; stroke-width:4; stroke-opacity:1; fill:none" points="291.584,1798.66 291.584,1047.24 "/>
<polyline clip-path="url(#clip850)" style="stroke:#000000; stroke-linecap:round; stroke-linejoin:round; stroke-width:4; stroke-opacity:1; fill:none" points="2352.76,1798.66 2352.76,1047.24 "/>
<polyline clip-path="url(#clip850)" style="stroke:#000000; stroke-linecap:round; stroke-linejoin:round; stroke-width:4; stroke-opacity:1; fill:none" points="291.584,1777.68 310.482,1777.68 "/>
<polyline clip-path="url(#clip850)" style="stroke:#000000; stroke-linecap:round; stroke-linejoin:round; stroke-width:4; stroke-opacity:1; fill:none" points="291.584,1592.1 310.482,1592.1 "/>
<polyline clip-path="url(#clip850)" style="stroke:#000000; stroke-linecap:round; stroke-linejoin:round; stroke-width:4; stroke-opacity:1; fill:none" points="291.584,1406.52 310.482,1406.52 "/>
<polyline clip-path="url(#clip850)" style="stroke:#000000; stroke-linecap:round; stroke-linejoin:round; stroke-width:4; stroke-opacity:1; fill:none" points="291.584,1220.94 310.482,1220.94 "/>
<polyline clip-path="url(#clip850)" style="stroke:#000000; stroke-linecap:round; stroke-linejoin:round; stroke-width:4; stroke-opacity:1; fill:none" points="2352.76,1777.68 2333.86,1777.68 "/>
<polyline clip-path="url(#clip850)" style="stroke:#000000; stroke-linecap:round; stroke-linejoin:round; stroke-width:4; stroke-opacity:1; fill:none" points="2352.76,1592.1 2333.86,1592.1 "/>
<polyline clip-path="url(#clip850)" style="stroke:#000000; stroke-linecap:round; stroke-linejoin:round; stroke-width:4; stroke-opacity:1; fill:none" points="2352.76,1406.52 2333.86,1406.52 "/>
<polyline clip-path="url(#clip850)" style="stroke:#000000; stroke-linecap:round; stroke-linejoin:round; stroke-width:4; stroke-opacity:1; fill:none" points="2352.76,1220.94 2333.86,1220.94 "/>
<path clip-path="url(#clip850)" d="M138.085 1763.48 Q134.473 1763.48 132.645 1767.04 Q130.839 1770.58 130.839 1777.71 Q130.839 1784.82 132.645 1788.38 Q134.473 1791.92 138.085 1791.92 Q141.719 1791.92 143.524 1788.38 Q145.353 1784.82 145.353 1777.71 Q145.353 1770.58 143.524 1767.04 Q141.719 1763.48 138.085 1763.48 M138.085 1759.77 Q143.895 1759.77 146.95 1764.38 Q150.029 1768.96 150.029 1777.71 Q150.029 1786.44 146.95 1791.05 Q143.895 1795.63 138.085 1795.63 Q132.274 1795.63 129.196 1791.05 Q126.14 1786.44 126.14 1777.71 Q126.14 1768.96 129.196 1764.38 Q132.274 1759.77 138.085 1759.77 Z" fill="#000000" fill-rule="nonzero" fill-opacity="1" /><path clip-path="url(#clip850)" d="M158.246 1789.08 L163.131 1789.08 L163.131 1794.96 L158.246 1794.96 L158.246 1789.08 Z" fill="#000000" fill-rule="nonzero" fill-opacity="1" /><path clip-path="url(#clip850)" d="M183.316 1763.48 Q179.705 1763.48 177.876 1767.04 Q176.07 1770.58 176.07 1777.71 Q176.07 1784.82 177.876 1788.38 Q179.705 1791.92 183.316 1791.92 Q186.95 1791.92 188.756 1788.38 Q190.584 1784.82 190.584 1777.71 Q190.584 1770.58 188.756 1767.04 Q186.95 1763.48 183.316 1763.48 M183.316 1759.77 Q189.126 1759.77 192.181 1764.38 Q195.26 1768.96 195.26 1777.71 Q195.26 1786.44 192.181 1791.05 Q189.126 1795.63 183.316 1795.63 Q177.506 1795.63 174.427 1791.05 Q171.371 1786.44 171.371 1777.71 Q171.371 1768.96 174.427 1764.38 Q177.506 1759.77 183.316 1759.77 Z" fill="#000000" fill-rule="nonzero" fill-opacity="1" /><path clip-path="url(#clip850)" d="M213.478 1763.48 Q209.867 1763.48 208.038 1767.04 Q206.232 1770.58 206.232 1777.71 Q206.232 1784.82 208.038 1788.38 Q209.867 1791.92 213.478 1791.92 Q217.112 1791.92 218.917 1788.38 Q220.746 1784.82 220.746 1777.71 Q220.746 1770.58 218.917 1767.04 Q217.112 1763.48 213.478 1763.48 M213.478 1759.77 Q219.288 1759.77 222.343 1764.38 Q225.422 1768.96 225.422 1777.71 Q225.422 1786.44 222.343 1791.05 Q219.288 1795.63 213.478 1795.63 Q207.667 1795.63 204.589 1791.05 Q201.533 1786.44 201.533 1777.71 Q201.533 1768.96 204.589 1764.38 Q207.667 1759.77 213.478 1759.77 Z" fill="#000000" fill-rule="nonzero" fill-opacity="1" /><path clip-path="url(#clip850)" d="M243.64 1763.48 Q240.028 1763.48 238.2 1767.04 Q236.394 1770.58 236.394 1777.71 Q236.394 1784.82 238.2 1788.38 Q240.028 1791.92 243.64 1791.92 Q247.274 1791.92 249.079 1788.38 Q250.908 1784.82 250.908 1777.71 Q250.908 1770.58 249.079 1767.04 Q247.274 1763.48 243.64 1763.48 M243.64 1759.77 Q249.45 1759.77 252.505 1764.38 Q255.584 1768.96 255.584 1777.71 Q255.584 1786.44 252.505 1791.05 Q249.45 1795.63 243.64 1795.63 Q237.829 1795.63 234.751 1791.05 Q231.695 1786.44 231.695 1777.71 Q231.695 1768.96 234.751 1764.38 Q237.829 1759.77 243.64 1759.77 Z" fill="#000000" fill-rule="nonzero" fill-opacity="1" /><path clip-path="url(#clip850)" d="M139.08 1577.9 Q135.469 1577.9 133.64 1581.46 Q131.835 1585 131.835 1592.13 Q131.835 1599.24 133.64 1602.8 Q135.469 1606.35 139.08 1606.35 Q142.714 1606.35 144.52 1602.8 Q146.348 1599.24 146.348 1592.13 Q146.348 1585 144.52 1581.46 Q142.714 1577.9 139.08 1577.9 M139.08 1574.19 Q144.89 1574.19 147.946 1578.8 Q151.024 1583.38 151.024 1592.13 Q151.024 1600.86 147.946 1605.47 Q144.89 1610.05 139.08 1610.05 Q133.27 1610.05 130.191 1605.47 Q127.136 1600.86 127.136 1592.13 Q127.136 1583.38 130.191 1578.8 Q133.27 1574.19 139.08 1574.19 Z" fill="#000000" fill-rule="nonzero" fill-opacity="1" /><path clip-path="url(#clip850)" d="M159.242 1603.5 L164.126 1603.5 L164.126 1609.38 L159.242 1609.38 L159.242 1603.5 Z" fill="#000000" fill-rule="nonzero" fill-opacity="1" /><path clip-path="url(#clip850)" d="M184.311 1577.9 Q180.7 1577.9 178.871 1581.46 Q177.066 1585 177.066 1592.13 Q177.066 1599.24 178.871 1602.8 Q180.7 1606.35 184.311 1606.35 Q187.945 1606.35 189.751 1602.8 Q191.58 1599.24 191.58 1592.13 Q191.58 1585 189.751 1581.46 Q187.945 1577.9 184.311 1577.9 M184.311 1574.19 Q190.121 1574.19 193.177 1578.8 Q196.256 1583.38 196.256 1592.13 Q196.256 1600.86 193.177 1605.47 Q190.121 1610.05 184.311 1610.05 Q178.501 1610.05 175.422 1605.47 Q172.367 1600.86 172.367 1592.13 Q172.367 1583.38 175.422 1578.8 Q178.501 1574.19 184.311 1574.19 Z" fill="#000000" fill-rule="nonzero" fill-opacity="1" /><path clip-path="url(#clip850)" d="M214.473 1577.9 Q210.862 1577.9 209.033 1581.46 Q207.228 1585 207.228 1592.13 Q207.228 1599.24 209.033 1602.8 Q210.862 1606.35 214.473 1606.35 Q218.107 1606.35 219.913 1602.8 Q221.741 1599.24 221.741 1592.13 Q221.741 1585 219.913 1581.46 Q218.107 1577.9 214.473 1577.9 M214.473 1574.19 Q220.283 1574.19 223.339 1578.8 Q226.417 1583.38 226.417 1592.13 Q226.417 1600.86 223.339 1605.47 Q220.283 1610.05 214.473 1610.05 Q208.663 1610.05 205.584 1605.47 Q202.529 1600.86 202.529 1592.13 Q202.529 1583.38 205.584 1578.8 Q208.663 1574.19 214.473 1574.19 Z" fill="#000000" fill-rule="nonzero" fill-opacity="1" /><path clip-path="url(#clip850)" d="M234.681 1574.82 L253.038 1574.82 L253.038 1578.75 L238.964 1578.75 L238.964 1587.23 Q239.982 1586.88 241.001 1586.72 Q242.019 1586.53 243.038 1586.53 Q248.825 1586.53 252.204 1589.7 Q255.584 1592.87 255.584 1598.29 Q255.584 1603.87 252.112 1606.97 Q248.64 1610.05 242.32 1610.05 Q240.144 1610.05 237.876 1609.68 Q235.63 1609.31 233.223 1608.57 L233.223 1603.87 Q235.306 1605 237.528 1605.56 Q239.751 1606.12 242.227 1606.12 Q246.232 1606.12 248.57 1604.01 Q250.908 1601.9 250.908 1598.29 Q250.908 1594.68 248.57 1592.57 Q246.232 1590.47 242.227 1590.47 Q240.353 1590.47 238.478 1590.88 Q236.626 1591.3 234.681 1592.18 L234.681 1574.82 Z" fill="#000000" fill-rule="nonzero" fill-opacity="1" /><path clip-path="url(#clip850)" d="M138.085 1392.32 Q134.473 1392.32 132.645 1395.88 Q130.839 1399.43 130.839 1406.56 Q130.839 1413.66 132.645 1417.23 Q134.473 1420.77 138.085 1420.77 Q141.719 1420.77 143.524 1417.23 Q145.353 1413.66 145.353 1406.56 Q145.353 1399.43 143.524 1395.88 Q141.719 1392.32 138.085 1392.32 M138.085 1388.62 Q143.895 1388.62 146.95 1393.22 Q150.029 1397.81 150.029 1406.56 Q150.029 1415.28 146.95 1419.89 Q143.895 1424.47 138.085 1424.47 Q132.274 1424.47 129.196 1419.89 Q126.14 1415.28 126.14 1406.56 Q126.14 1397.81 129.196 1393.22 Q132.274 1388.62 138.085 1388.62 Z" fill="#000000" fill-rule="nonzero" fill-opacity="1" /><path clip-path="url(#clip850)" d="M158.246 1417.92 L163.131 1417.92 L163.131 1423.8 L158.246 1423.8 L158.246 1417.92 Z" fill="#000000" fill-rule="nonzero" fill-opacity="1" /><path clip-path="url(#clip850)" d="M183.316 1392.32 Q179.705 1392.32 177.876 1395.88 Q176.07 1399.43 176.07 1406.56 Q176.07 1413.66 177.876 1417.23 Q179.705 1420.77 183.316 1420.77 Q186.95 1420.77 188.756 1417.23 Q190.584 1413.66 190.584 1406.56 Q190.584 1399.43 188.756 1395.88 Q186.95 1392.32 183.316 1392.32 M183.316 1388.62 Q189.126 1388.62 192.181 1393.22 Q195.26 1397.81 195.26 1406.56 Q195.26 1415.28 192.181 1419.89 Q189.126 1424.47 183.316 1424.47 Q177.506 1424.47 174.427 1419.89 Q171.371 1415.28 171.371 1406.56 Q171.371 1397.81 174.427 1393.22 Q177.506 1388.62 183.316 1388.62 Z" fill="#000000" fill-rule="nonzero" fill-opacity="1" /><path clip-path="url(#clip850)" d="M204.288 1419.87 L211.927 1419.87 L211.927 1393.5 L203.617 1395.17 L203.617 1390.91 L211.88 1389.24 L216.556 1389.24 L216.556 1419.87 L224.195 1419.87 L224.195 1423.8 L204.288 1423.8 L204.288 1419.87 Z" fill="#000000" fill-rule="nonzero" fill-opacity="1" /><path clip-path="url(#clip850)" d="M243.64 1392.32 Q240.028 1392.32 238.2 1395.88 Q236.394 1399.43 236.394 1406.56 Q236.394 1413.66 238.2 1417.23 Q240.028 1420.77 243.64 1420.77 Q247.274 1420.77 249.079 1417.23 Q250.908 1413.66 250.908 1406.56 Q250.908 1399.43 249.079 1395.88 Q247.274 1392.32 243.64 1392.32 M243.64 1388.62 Q249.45 1388.62 252.505 1393.22 Q255.584 1397.81 255.584 1406.56 Q255.584 1415.28 252.505 1419.89 Q249.45 1424.47 243.64 1424.47 Q237.829 1424.47 234.751 1419.89 Q231.695 1415.28 231.695 1406.56 Q231.695 1397.81 234.751 1393.22 Q237.829 1388.62 243.64 1388.62 Z" fill="#000000" fill-rule="nonzero" fill-opacity="1" /><path clip-path="url(#clip850)" d="M139.08 1206.74 Q135.469 1206.74 133.64 1210.31 Q131.835 1213.85 131.835 1220.98 Q131.835 1228.08 133.64 1231.65 Q135.469 1235.19 139.08 1235.19 Q142.714 1235.19 144.52 1231.65 Q146.348 1228.08 146.348 1220.98 Q146.348 1213.85 144.52 1210.31 Q142.714 1206.74 139.08 1206.74 M139.08 1203.04 Q144.89 1203.04 147.946 1207.64 Q151.024 1212.23 151.024 1220.98 Q151.024 1229.7 147.946 1234.31 Q144.89 1238.89 139.08 1238.89 Q133.27 1238.89 130.191 1234.31 Q127.136 1229.7 127.136 1220.98 Q127.136 1212.23 130.191 1207.64 Q133.27 1203.04 139.08 1203.04 Z" fill="#000000" fill-rule="nonzero" fill-opacity="1" /><path clip-path="url(#clip850)" d="M159.242 1232.34 L164.126 1232.34 L164.126 1238.22 L159.242 1238.22 L159.242 1232.34 Z" fill="#000000" fill-rule="nonzero" fill-opacity="1" /><path clip-path="url(#clip850)" d="M184.311 1206.74 Q180.7 1206.74 178.871 1210.31 Q177.066 1213.85 177.066 1220.98 Q177.066 1228.08 178.871 1231.65 Q180.7 1235.19 184.311 1235.19 Q187.945 1235.19 189.751 1231.65 Q191.58 1228.08 191.58 1220.98 Q191.58 1213.85 189.751 1210.31 Q187.945 1206.74 184.311 1206.74 M184.311 1203.04 Q190.121 1203.04 193.177 1207.64 Q196.256 1212.23 196.256 1220.98 Q196.256 1229.7 193.177 1234.31 Q190.121 1238.89 184.311 1238.89 Q178.501 1238.89 175.422 1234.31 Q172.367 1229.7 172.367 1220.98 Q172.367 1212.23 175.422 1207.64 Q178.501 1203.04 184.311 1203.04 Z" fill="#000000" fill-rule="nonzero" fill-opacity="1" /><path clip-path="url(#clip850)" d="M205.283 1234.29 L212.922 1234.29 L212.922 1207.92 L204.612 1209.59 L204.612 1205.33 L212.876 1203.66 L217.552 1203.66 L217.552 1234.29 L225.191 1234.29 L225.191 1238.22 L205.283 1238.22 L205.283 1234.29 Z" fill="#000000" fill-rule="nonzero" fill-opacity="1" /><path clip-path="url(#clip850)" d="M234.681 1203.66 L253.038 1203.66 L253.038 1207.6 L238.964 1207.6 L238.964 1216.07 Q239.982 1215.72 241.001 1215.56 Q242.019 1215.38 243.038 1215.38 Q248.825 1215.38 252.204 1218.55 Q255.584 1221.72 255.584 1227.13 Q255.584 1232.71 252.112 1235.82 Q248.64 1238.89 242.32 1238.89 Q240.144 1238.89 237.876 1238.52 Q235.63 1238.15 233.223 1237.41 L233.223 1232.71 Q235.306 1233.85 237.528 1234.4 Q239.751 1234.96 242.227 1234.96 Q246.232 1234.96 248.57 1232.85 Q250.908 1230.75 250.908 1227.13 Q250.908 1223.52 248.57 1221.42 Q246.232 1219.31 242.227 1219.31 Q240.353 1219.31 238.478 1219.73 Q236.626 1220.14 234.681 1221.02 L234.681 1203.66 Z" fill="#000000" fill-rule="nonzero" fill-opacity="1" /><path clip-path="url(#clip850)" d="M32.7247 1513.87 Q32.7247 1520.87 37.9445 1525.01 Q43.1644 1529.12 52.1719 1529.12 Q61.1475 1529.12 66.3674 1525.01 Q71.5873 1520.87 71.5873 1513.87 Q71.5873 1506.87 66.3674 1502.79 Q61.1475 1498.69 52.1719 1498.69 Q43.1644 1498.69 37.9445 1502.79 Q32.7247 1506.87 32.7247 1513.87 M75.0248 1504.86 L84.2869 1496.4 L84.2869 1504.16 L76.6799 1511.2 Q76.7435 1512.25 76.7754 1512.82 Q76.8072 1513.36 76.8072 1513.87 Q76.8072 1523.9 70.1232 1529.91 Q63.4074 1535.9 52.1719 1535.9 Q40.9046 1535.9 34.2206 1529.91 Q27.5048 1523.9 27.5048 1513.87 Q27.5048 1503.88 34.2206 1497.89 Q40.9046 1491.91 52.1719 1491.91 Q60.4473 1491.91 66.3356 1495.25 Q72.2239 1498.56 75.0248 1504.86 Z" fill="#000000" fill-rule="nonzero" fill-opacity="1" /><path clip-path="url(#clip850)" d="M26.359 1461.93 L26.359 1448.43 L30.9104 1448.43 L30.9104 1456.07 L79.9264 1456.07 L79.9264 1448.43 L84.4779 1448.43 L84.4779 1461.93 L26.359 1461.93 Z" fill="#000000" fill-rule="nonzero" fill-opacity="1" /><path clip-path="url(#clip850)" d="M28.3642 1435.7 L28.3642 1427.04 L68.118 1405.97 L28.3642 1405.97 L28.3642 1399.73 L75.8842 1399.73 L75.8842 1408.39 L36.1303 1429.46 L75.8842 1429.46 L75.8842 1435.7 L28.3642 1435.7 Z" fill="#000000" fill-rule="nonzero" fill-opacity="1" /><path clip-path="url(#clip850)" d="M47.0793 1359.44 Q43.1326 1357.24 41.2547 1354.19 Q39.3768 1351.13 39.3768 1346.99 Q39.3768 1341.42 43.2917 1338.4 Q47.1748 1335.38 54.3681 1335.38 L75.8842 1335.38 L75.8842 1341.26 L54.559 1341.26 Q49.4346 1341.26 46.952 1343.08 Q44.4694 1344.89 44.4694 1348.62 Q44.4694 1353.17 47.4931 1355.81 Q50.5168 1358.45 55.7367 1358.45 L75.8842 1358.45 L75.8842 1364.34 L54.559 1364.34 Q49.4028 1364.34 46.952 1366.15 Q44.4694 1367.97 44.4694 1371.76 Q44.4694 1376.24 47.5249 1378.89 Q50.5486 1381.53 55.7367 1381.53 L75.8842 1381.53 L75.8842 1387.42 L40.2362 1387.42 L40.2362 1381.53 L45.7744 1381.53 Q42.496 1379.52 40.9364 1376.72 Q39.3768 1373.92 39.3768 1370.07 Q39.3768 1366.19 41.3502 1363.48 Q43.3236 1360.74 47.0793 1359.44 Z" fill="#000000" fill-rule="nonzero" fill-opacity="1" /><path clip-path="url(#clip850)" d="M26.359 1310.01 L84.4779 1310.01 L84.4779 1323.5 L79.9264 1323.5 L79.9264 1315.9 L30.9104 1315.9 L30.9104 1323.5 L26.359 1323.5 L26.359 1310.01 Z" fill="#000000" fill-rule="nonzero" fill-opacity="1" /><polyline clip-path="url(#clip853)" style="stroke:#009af9; stroke-linecap:round; stroke-linejoin:round; stroke-width:4; stroke-opacity:1; fill:none" points="349.919,1777.39 389.603,1776.54 429.286,1775.12 468.97,1773.14 508.654,1770.59 548.338,1767.47 588.021,1763.78 627.705,1759.52 667.389,1754.7 707.072,1749.31 746.756,1743.35 786.44,1736.83 826.124,1729.74 865.807,1722.08 905.491,1713.85 945.175,1705.06 984.858,1695.7 1024.54,1685.77 1064.23,1675.27 1103.91,1664.21 1143.59,1652.58 1183.28,1640.38 1222.96,1627.62 1262.64,1614.29 1302.33,1600.39 1342.01,1585.92 1381.7,1570.88 1421.38,1555.28 1461.06,1539.11 1500.75,1522.38 1540.43,1505.07 1580.11,1487.2 1619.8,1468.76 1659.48,1449.76 1699.17,1430.19 1738.85,1410.05 1778.53,1389.34 1818.22,1368.06 1857.9,1346.22 1897.58,1323.81 1937.27,1300.83 1976.95,1277.29 2016.63,1253.18 2056.32,1228.5 2096,1203.25 2135.69,1177.44 2175.37,1151.06 2215.05,1124.11 2254.74,1096.59 2294.42,1068.51 "/>
<path clip-path="url(#clip850)" d="M360.29 1175.97 L721.892 1175.97 L721.892 1072.29 L360.29 1072.29  Z" fill="#ffffff" fill-rule="evenodd" fill-opacity="1"/>
<polyline clip-path="url(#clip850)" style="stroke:#000000; stroke-linecap:round; stroke-linejoin:round; stroke-width:4; stroke-opacity:0; fill:none" points="360.29,1175.97 721.892,1175.97 721.892,1072.29 360.29,1072.29 360.29,1175.97 "/>
<polyline clip-path="url(#clip850)" style="stroke:#009af9; stroke-linecap:round; stroke-linejoin:round; stroke-width:4; stroke-opacity:1; fill:none" points="383.192,1124.13 520.603,1124.13 "/>
<path clip-path="url(#clip850)" d="M543.505 1106.85 L572.741 1106.85 L572.741 1110.79 L560.472 1110.79 L560.472 1141.41 L555.773 1141.41 L555.773 1110.79 L543.505 1110.79 L543.505 1106.85 Z" fill="#000000" fill-rule="nonzero" fill-opacity="1" /><path clip-path="url(#clip850)" d="M579.06 1118.47 Q575.634 1118.47 573.644 1121.16 Q571.653 1123.82 571.653 1128.47 Q571.653 1133.12 573.621 1135.81 Q575.611 1138.47 579.06 1138.47 Q582.463 1138.47 584.454 1135.79 Q586.445 1133.1 586.445 1128.47 Q586.445 1123.87 584.454 1121.18 Q582.463 1118.47 579.06 1118.47 M579.06 1114.86 Q584.616 1114.86 587.787 1118.47 Q590.958 1122.08 590.958 1128.47 Q590.958 1134.84 587.787 1138.47 Q584.616 1142.08 579.06 1142.08 Q573.482 1142.08 570.31 1138.47 Q567.162 1134.84 567.162 1128.47 Q567.162 1122.08 570.31 1118.47 Q573.482 1114.86 579.06 1114.86 Z" fill="#000000" fill-rule="nonzero" fill-opacity="1" /><path clip-path="url(#clip850)" d="M613.042 1119.47 Q612.324 1119.05 611.468 1118.87 Q610.634 1118.66 609.616 1118.66 Q606.005 1118.66 604.06 1121.02 Q602.139 1123.36 602.139 1127.75 L602.139 1141.41 L597.856 1141.41 L597.856 1115.49 L602.139 1115.49 L602.139 1119.51 Q603.481 1117.15 605.634 1116.02 Q607.787 1114.86 610.866 1114.86 Q611.305 1114.86 611.838 1114.93 Q612.37 1114.98 613.018 1115.09 L613.042 1119.47 Z" fill="#000000" fill-rule="nonzero" fill-opacity="1" /><path clip-path="url(#clip850)" d="M619.222 1128.47 Q619.222 1133.17 621.143 1135.86 Q623.088 1138.52 626.467 1138.52 Q629.847 1138.52 631.791 1135.86 Q633.736 1133.17 633.736 1128.47 Q633.736 1123.77 631.791 1121.11 Q629.847 1118.43 626.467 1118.43 Q623.088 1118.43 621.143 1121.11 Q619.222 1123.77 619.222 1128.47 M633.736 1137.52 Q632.393 1139.84 630.333 1140.97 Q628.296 1142.08 625.426 1142.08 Q620.727 1142.08 617.764 1138.33 Q614.824 1134.58 614.824 1128.47 Q614.824 1122.36 617.764 1118.61 Q620.727 1114.86 625.426 1114.86 Q628.296 1114.86 630.333 1115.99 Q632.393 1117.11 633.736 1119.42 L633.736 1115.49 L637.995 1115.49 L637.995 1151.27 L633.736 1151.27 L633.736 1137.52 Z" fill="#000000" fill-rule="nonzero" fill-opacity="1" /><path clip-path="url(#clip850)" d="M646.328 1131.18 L646.328 1115.49 L650.588 1115.49 L650.588 1131.02 Q650.588 1134.7 652.023 1136.55 Q653.458 1138.38 656.328 1138.38 Q659.777 1138.38 661.768 1136.18 Q663.782 1133.98 663.782 1130.18 L663.782 1115.49 L668.041 1115.49 L668.041 1141.41 L663.782 1141.41 L663.782 1137.43 Q662.231 1139.79 660.171 1140.95 Q658.134 1142.08 655.426 1142.08 Q650.958 1142.08 648.643 1139.3 Q646.328 1136.53 646.328 1131.18 M657.046 1114.86 L657.046 1114.86 Z" fill="#000000" fill-rule="nonzero" fill-opacity="1" /><path clip-path="url(#clip850)" d="M698.99 1127.38 L698.99 1129.47 L679.407 1129.47 Q679.685 1133.87 682.046 1136.18 Q684.43 1138.47 688.666 1138.47 Q691.12 1138.47 693.412 1137.87 Q695.726 1137.27 697.995 1136.06 L697.995 1140.09 Q695.703 1141.06 693.296 1141.57 Q690.888 1142.08 688.412 1142.08 Q682.208 1142.08 678.574 1138.47 Q674.963 1134.86 674.963 1128.7 Q674.963 1122.34 678.388 1118.61 Q681.838 1114.86 687.671 1114.86 Q692.902 1114.86 695.935 1118.24 Q698.99 1121.6 698.99 1127.38 M694.731 1126.13 Q694.685 1122.64 692.763 1120.55 Q690.865 1118.47 687.717 1118.47 Q684.152 1118.47 682 1120.49 Q679.87 1122.5 679.546 1126.16 L694.731 1126.13 Z" fill="#000000" fill-rule="nonzero" fill-opacity="1" /></svg>
