<?xml version="1.0" encoding="utf-8"?>
<svg xmlns="http://www.w3.org/2000/svg" xmlns:xlink="http://www.w3.org/1999/xlink" width="600" height="400" viewBox="0 0 2400 1600">
<defs>
  <clipPath id="clip810">
    <rect x="0" y="0" width="2400" height="1600"/>
  </clipPath>
</defs>
<path clip-path="url(#clip810)" d="M0 1600 L2400 1600 L2400 0 L0 0  Z" fill="#ffffff" fill-rule="evenodd" fill-opacity="1"/>
<defs>
  <clipPath id="clip811">
    <rect x="480" y="0" width="1681" height="1600"/>
  </clipPath>
</defs>
<path clip-path="url(#clip810)" d="M279.704 1423.18 L2352.76 1423.18 L2352.76 47.2441 L279.704 47.2441  Z" fill="#ffffff" fill-rule="evenodd" fill-opacity="1"/>
<defs>
  <clipPath id="clip812">
    <rect x="279" y="47" width="2074" height="1377"/>
  </clipPath>
</defs>
<polyline clip-path="url(#clip812)" style="stroke:#000000; stroke-linecap:round; stroke-linejoin:round; stroke-width:2; stroke-opacity:0.1; fill:none" points="338.375,1423.18 338.375,47.2441 "/>
<polyline clip-path="url(#clip812)" style="stroke:#000000; stroke-linecap:round; stroke-linejoin:round; stroke-width:2; stroke-opacity:0.1; fill:none" points="827.303,1423.18 827.303,47.2441 "/>
<polyline clip-path="url(#clip812)" style="stroke:#000000; stroke-linecap:round; stroke-linejoin:round; stroke-width:2; stroke-opacity:0.1; fill:none" points="1316.23,1423.18 1316.23,47.2441 "/>
<polyline clip-path="url(#clip812)" style="stroke:#000000; stroke-linecap:round; stroke-linejoin:round; stroke-width:2; stroke-opacity:0.1; fill:none" points="1805.16,1423.18 1805.16,47.2441 "/>
<polyline clip-path="url(#clip812)" style="stroke:#000000; stroke-linecap:round; stroke-linejoin:round; stroke-width:2; stroke-opacity:0.1; fill:none" points="2294.08,1423.18 2294.08,47.2441 "/>
<polyline clip-path="url(#clip810)" style="stroke:#000000; stroke-linecap:round; stroke-linejoin:round; stroke-width:4; stroke-opacity:1; fill:none" points="279.704,1423.18 2352.76,1423.18 "/>
<polyline clip-path="url(#clip810)" style="stroke:#000000; stroke-linecap:round; stroke-linejoin:round; stroke-width:4; stroke-opacity:1; fill:none" points="338.375,1423.18 338.375,1404.28 "/>
<polyline clip-path="url(#clip810)" style="stroke:#000000; stroke-linecap:round; stroke-linejoin:round; stroke-width:4; stroke-opacity:1; fill:none" points="827.303,1423.18 827.303,1404.28 "/>
<polyline clip-path="url(#clip810)" style="stroke:#000000; stroke-linecap:round; stroke-linejoin:round; stroke-width:4; stroke-opacity:1; fill:none" points="1316.23,1423.18 1316.23,1404.28 "/>
<polyline clip-path="url(#clip810)" style="stroke:#000000; stroke-linecap:round; stroke-linejoin:round; stroke-width:4; stroke-opacity:1; fill:none" points="1805.16,1423.18 1805.16,1404.28 "/>
<polyline clip-path="url(#clip810)" style="stroke:#000000; stroke-linecap:round; stroke-linejoin:round; stroke-width:4; stroke-opacity:1; fill:none" points="2294.08,1423.18 2294.08,1404.28 "/>
<path clip-path="url(#clip810)" d="M300.679 1454.1 Q297.068 1454.1 295.239 1457.66 Q293.433 1461.2 293.433 1468.33 Q293.433 1475.44 295.239 1479.01 Q297.068 1482.55 300.679 1482.55 Q304.313 1482.55 306.118 1479.01 Q307.947 1475.44 307.947 1468.33 Q307.947 1461.2 306.118 1457.66 Q304.313 1454.1 300.679 1454.1 M300.679 1450.39 Q306.489 1450.39 309.544 1455 Q312.623 1459.58 312.623 1468.33 Q312.623 1477.06 309.544 1481.67 Q306.489 1486.25 300.679 1486.25 Q294.868 1486.25 291.79 1481.67 Q288.734 1477.06 288.734 1468.33 Q288.734 1459.58 291.79 1455 Q294.868 1450.39 300.679 1450.39 Z" fill="#000000" fill-rule="nonzero" fill-opacity="1" /><path clip-path="url(#clip810)" d="M320.841 1479.7 L325.725 1479.7 L325.725 1485.58 L320.841 1485.58 L320.841 1479.7 Z" fill="#000000" fill-rule="nonzero" fill-opacity="1" /><path clip-path="url(#clip810)" d="M345.91 1454.1 Q342.299 1454.1 340.47 1457.66 Q338.665 1461.2 338.665 1468.33 Q338.665 1475.44 340.47 1479.01 Q342.299 1482.55 345.91 1482.55 Q349.544 1482.55 351.35 1479.01 Q353.178 1475.44 353.178 1468.33 Q353.178 1461.2 351.35 1457.66 Q349.544 1454.1 345.91 1454.1 M345.91 1450.39 Q351.72 1450.39 354.776 1455 Q357.854 1459.58 357.854 1468.33 Q357.854 1477.06 354.776 1481.67 Q351.72 1486.25 345.91 1486.25 Q340.1 1486.25 337.021 1481.67 Q333.965 1477.06 333.965 1468.33 Q333.965 1459.58 337.021 1455 Q340.1 1450.39 345.91 1450.39 Z" fill="#000000" fill-rule="nonzero" fill-opacity="1" /><path clip-path="url(#clip810)" d="M376.072 1454.1 Q372.461 1454.1 370.632 1457.66 Q368.826 1461.2 368.826 1468.33 Q368.826 1475.44 370.632 1479.01 Q372.461 1482.55 376.072 1482.55 Q379.706 1482.55 381.512 1479.01 Q383.34 1475.44 383.34 1468.33 Q383.34 1461.2 381.512 1457.66 Q379.706 1454.1 376.072 1454.1 M376.072 1450.39 Q381.882 1450.39 384.937 1455 Q388.016 1459.58 388.016 1468.33 Q388.016 1477.06 384.937 1481.67 Q381.882 1486.25 376.072 1486.25 Q370.262 1486.25 367.183 1481.67 Q364.127 1477.06 364.127 1468.33 Q364.127 1459.58 367.183 1455 Q370.262 1450.39 376.072 1450.39 Z" fill="#000000" fill-rule="nonzero" fill-opacity="1" /><path clip-path="url(#clip810)" d="M790.104 1454.1 Q786.493 1454.1 784.664 1457.66 Q782.858 1461.2 782.858 1468.33 Q782.858 1475.44 784.664 1479.01 Q786.493 1482.55 790.104 1482.55 Q793.738 1482.55 795.543 1479.01 Q797.372 1475.44 797.372 1468.33 Q797.372 1461.2 795.543 1457.66 Q793.738 1454.1 790.104 1454.1 M790.104 1450.39 Q795.914 1450.39 798.969 1455 Q802.048 1459.58 802.048 1468.33 Q802.048 1477.06 798.969 1481.67 Q795.914 1486.25 790.104 1486.25 Q784.294 1486.25 781.215 1481.67 Q778.159 1477.06 778.159 1468.33 Q778.159 1459.58 781.215 1455 Q784.294 1450.39 790.104 1450.39 Z" fill="#000000" fill-rule="nonzero" fill-opacity="1" /><path clip-path="url(#clip810)" d="M810.266 1479.7 L815.15 1479.7 L815.15 1485.58 L810.266 1485.58 L810.266 1479.7 Z" fill="#000000" fill-rule="nonzero" fill-opacity="1" /><path clip-path="url(#clip810)" d="M835.335 1454.1 Q831.724 1454.1 829.895 1457.66 Q828.09 1461.2 828.09 1468.33 Q828.09 1475.44 829.895 1479.01 Q831.724 1482.55 835.335 1482.55 Q838.969 1482.55 840.775 1479.01 Q842.603 1475.44 842.603 1468.33 Q842.603 1461.2 840.775 1457.66 Q838.969 1454.1 835.335 1454.1 M835.335 1450.39 Q841.145 1450.39 844.201 1455 Q847.279 1459.58 847.279 1468.33 Q847.279 1477.06 844.201 1481.67 Q841.145 1486.25 835.335 1486.25 Q829.525 1486.25 826.446 1481.67 Q823.391 1477.06 823.391 1468.33 Q823.391 1459.58 826.446 1455 Q829.525 1450.39 835.335 1450.39 Z" fill="#000000" fill-rule="nonzero" fill-opacity="1" /><path clip-path="url(#clip810)" d="M855.543 1451.02 L873.9 1451.02 L873.9 1454.96 L859.826 1454.96 L859.826 1463.43 Q860.844 1463.08 861.863 1462.92 Q862.881 1462.73 863.9 1462.73 Q869.687 1462.73 873.066 1465.9 Q876.446 1469.08 876.446 1474.49 Q876.446 1480.07 872.974 1483.17 Q869.501 1486.25 863.182 1486.25 Q861.006 1486.25 858.738 1485.88 Q856.492 1485.51 854.085 1484.77 L854.085 1480.07 Q856.168 1481.2 858.39 1481.76 Q860.613 1482.32 863.089 1482.32 Q867.094 1482.32 869.432 1480.21 Q871.77 1478.1 871.77 1474.49 Q871.77 1470.88 869.432 1468.77 Q867.094 1466.67 863.089 1466.67 Q861.214 1466.67 859.339 1467.08 Q857.488 1467.5 855.543 1468.38 L855.543 1451.02 Z" fill="#000000" fill-rule="nonzero" fill-opacity="1" /><path clip-path="url(#clip810)" d="M1278.53 1454.1 Q1274.92 1454.1 1273.09 1457.66 Q1271.29 1461.2 1271.29 1468.33 Q1271.29 1475.44 1273.09 1479.01 Q1274.92 1482.55 1278.53 1482.55 Q1282.17 1482.55 1283.97 1479.01 Q1285.8 1475.44 1285.8 1468.33 Q1285.8 1461.2 1283.97 1457.66 Q1282.17 1454.1 1278.53 1454.1 M1278.53 1450.39 Q1284.34 1450.39 1287.4 1455 Q1290.48 1459.58 1290.48 1468.33 Q1290.48 1477.06 1287.4 1481.67 Q1284.34 1486.25 1278.53 1486.25 Q1272.72 1486.25 1269.64 1481.67 Q1266.59 1477.06 1266.59 1468.33 Q1266.59 1459.58 1269.64 1455 Q1272.72 1450.39 1278.53 1450.39 Z" fill="#000000" fill-rule="nonzero" fill-opacity="1" /><path clip-path="url(#clip810)" d="M1298.7 1479.7 L1303.58 1479.7 L1303.58 1485.58 L1298.7 1485.58 L1298.7 1479.7 Z" fill="#000000" fill-rule="nonzero" fill-opacity="1" /><path clip-path="url(#clip810)" d="M1314.57 1481.64 L1322.21 1481.64 L1322.21 1455.28 L1313.9 1456.95 L1313.9 1452.69 L1322.17 1451.02 L1326.84 1451.02 L1326.84 1481.64 L1334.48 1481.64 L1334.48 1485.58 L1314.57 1485.58 L1314.57 1481.64 Z" fill="#000000" fill-rule="nonzero" fill-opacity="1" /><path clip-path="url(#clip810)" d="M1353.93 1454.1 Q1350.32 1454.1 1348.49 1457.66 Q1346.68 1461.2 1346.68 1468.33 Q1346.68 1475.44 1348.49 1479.01 Q1350.32 1482.55 1353.93 1482.55 Q1357.56 1482.55 1359.37 1479.01 Q1361.19 1475.44 1361.19 1468.33 Q1361.19 1461.2 1359.37 1457.66 Q1357.56 1454.1 1353.93 1454.1 M1353.93 1450.39 Q1359.74 1450.39 1362.79 1455 Q1365.87 1459.58 1365.87 1468.33 Q1365.87 1477.06 1362.79 1481.67 Q1359.74 1486.25 1353.93 1486.25 Q1348.12 1486.25 1345.04 1481.67 Q1341.98 1477.06 1341.98 1468.33 Q1341.98 1459.58 1345.04 1455 Q1348.12 1450.39 1353.93 1450.39 Z" fill="#000000" fill-rule="nonzero" fill-opacity="1" /><path clip-path="url(#clip810)" d="M1767.96 1454.1 Q1764.35 1454.1 1762.52 1457.66 Q1760.71 1461.2 1760.71 1468.33 Q1760.71 1475.44 1762.52 1479.01 Q1764.35 1482.55 1767.96 1482.55 Q1771.59 1482.55 1773.4 1479.01 Q1775.23 1475.44 1775.23 1468.33 Q1775.23 1461.2 1773.4 1457.66 Q1771.59 1454.1 1767.96 1454.1 M1767.96 1450.39 Q1773.77 1450.39 1776.82 1455 Q1779.9 1459.58 1779.9 1468.33 Q1779.9 1477.06 1776.82 1481.67 Q1773.77 1486.25 1767.96 1486.25 Q1762.15 1486.25 1759.07 1481.67 Q1756.01 1477.06 1756.01 1468.33 Q1756.01 1459.58 1759.07 1455 Q1762.15 1450.39 1767.96 1450.39 Z" fill="#000000" fill-rule="nonzero" fill-opacity="1" /><path clip-path="url(#clip810)" d="M1788.12 1479.7 L1793 1479.7 L1793 1485.58 L1788.12 1485.58 L1788.12 1479.7 Z" fill="#000000" fill-rule="nonzero" fill-opacity="1" /><path clip-path="url(#clip810)" d="M1804 1481.64 L1811.64 1481.64 L1811.64 1455.28 L1803.33 1456.95 L1803.33 1452.69 L1811.59 1451.02 L1816.27 1451.02 L1816.27 1481.64 L1823.91 1481.64 L1823.91 1485.58 L1804 1485.58 L1804 1481.64 Z" fill="#000000" fill-rule="nonzero" fill-opacity="1" /><path clip-path="url(#clip810)" d="M1833.4 1451.02 L1851.75 1451.02 L1851.75 1454.96 L1837.68 1454.96 L1837.68 1463.43 Q1838.7 1463.08 1839.72 1462.92 Q1840.74 1462.73 1841.75 1462.73 Q1847.54 1462.73 1850.92 1465.9 Q1854.3 1469.08 1854.3 1474.49 Q1854.3 1480.07 1850.83 1483.17 Q1847.36 1486.25 1841.04 1486.25 Q1838.86 1486.25 1836.59 1485.88 Q1834.35 1485.51 1831.94 1484.77 L1831.94 1480.07 Q1834.02 1481.2 1836.25 1481.76 Q1838.47 1482.32 1840.94 1482.32 Q1844.95 1482.32 1847.29 1480.21 Q1849.62 1478.1 1849.62 1474.49 Q1849.62 1470.88 1847.29 1468.77 Q1844.95 1466.67 1840.94 1466.67 Q1839.07 1466.67 1837.19 1467.08 Q1835.34 1467.5 1833.4 1468.38 L1833.4 1451.02 Z" fill="#000000" fill-rule="nonzero" fill-opacity="1" /><path clip-path="url(#clip810)" d="M2256.39 1454.1 Q2252.78 1454.1 2250.95 1457.66 Q2249.14 1461.2 2249.14 1468.33 Q2249.14 1475.44 2250.95 1479.01 Q2252.78 1482.55 2256.39 1482.55 Q2260.02 1482.55 2261.83 1479.01 Q2263.66 1475.44 2263.66 1468.33 Q2263.66 1461.2 2261.83 1457.66 Q2260.02 1454.1 2256.39 1454.1 M2256.39 1450.39 Q2262.2 1450.39 2265.25 1455 Q2268.33 1459.58 2268.33 1468.33 Q2268.33 1477.06 2265.25 1481.67 Q2262.2 1486.25 2256.39 1486.25 Q2250.58 1486.25 2247.5 1481.67 Q2244.44 1477.06 2244.44 1468.33 Q2244.44 1459.58 2247.5 1455 Q2250.58 1450.39 2256.39 1450.39 Z" fill="#000000" fill-rule="nonzero" fill-opacity="1" /><path clip-path="url(#clip810)" d="M2276.55 1479.7 L2281.43 1479.7 L2281.43 1485.58 L2276.55 1485.58 L2276.55 1479.7 Z" fill="#000000" fill-rule="nonzero" fill-opacity="1" /><path clip-path="url(#clip810)" d="M2295.65 1481.64 L2311.97 1481.64 L2311.97 1485.58 L2290.02 1485.58 L2290.02 1481.64 Q2292.68 1478.89 2297.27 1474.26 Q2301.87 1469.61 2303.05 1468.27 Q2305.3 1465.74 2306.18 1464.01 Q2307.08 1462.25 2307.08 1460.56 Q2307.08 1457.8 2305.14 1456.07 Q2303.22 1454.33 2300.11 1454.33 Q2297.92 1454.33 2295.46 1455.09 Q2293.03 1455.86 2290.25 1457.41 L2290.25 1452.69 Q2293.08 1451.55 2295.53 1450.97 Q2297.99 1450.39 2300.02 1450.39 Q2305.39 1450.39 2308.59 1453.08 Q2311.78 1455.77 2311.78 1460.26 Q2311.78 1462.39 2310.97 1464.31 Q2310.18 1466.2 2308.08 1468.8 Q2307.5 1469.47 2304.4 1472.69 Q2301.3 1475.88 2295.65 1481.64 Z" fill="#000000" fill-rule="nonzero" fill-opacity="1" /><path clip-path="url(#clip810)" d="M2331.78 1454.1 Q2328.17 1454.1 2326.34 1457.66 Q2324.54 1461.2 2324.54 1468.33 Q2324.54 1475.44 2326.34 1479.01 Q2328.17 1482.55 2331.78 1482.55 Q2335.42 1482.55 2337.22 1479.01 Q2339.05 1475.44 2339.05 1468.33 Q2339.05 1461.2 2337.22 1457.66 Q2335.42 1454.1 2331.78 1454.1 M2331.78 1450.39 Q2337.59 1450.39 2340.65 1455 Q2343.73 1459.58 2343.73 1468.33 Q2343.73 1477.06 2340.65 1481.67 Q2337.59 1486.25 2331.78 1486.25 Q2325.97 1486.25 2322.89 1481.67 Q2319.84 1477.06 2319.84 1468.33 Q2319.84 1459.58 2322.89 1455 Q2325.97 1450.39 2331.78 1450.39 Z" fill="#000000" fill-rule="nonzero" fill-opacity="1" /><path clip-path="url(#clip810)" d="M1261.93 1537.87 Q1260.94 1537.3 1259.77 1537.04 Q1258.62 1536.76 1257.22 1536.76 Q1252.25 1536.76 1249.58 1540 Q1246.94 1543.22 1246.94 1549.27 L1246.94 1568.04 L1241.05 1568.04 L1241.05 1532.4 L1246.94 1532.4 L1246.94 1537.93 Q1248.79 1534.69 1251.75 1533.13 Q1254.71 1531.54 1258.94 1531.54 Q1259.54 1531.54 1260.28 1531.63 Q1261.01 1531.7 1261.9 1531.85 L1261.93 1537.87 Z" fill="#000000" fill-rule="nonzero" fill-opacity="1" /><path clip-path="url(#clip810)" d="M1288.25 1518.52 L1301.75 1518.52 L1301.75 1523.07 L1294.11 1523.07 L1294.11 1572.09 L1301.75 1572.09 L1301.75 1576.64 L1288.25 1576.64 L1288.25 1518.52 Z" fill="#000000" fill-rule="nonzero" fill-opacity="1" /><path clip-path="url(#clip810)" d="M1341.98 1539.24 Q1344.18 1535.29 1347.23 1533.41 Q1350.29 1531.54 1354.42 1531.54 Q1359.99 1531.54 1363.02 1535.45 Q1366.04 1539.33 1366.04 1546.53 L1366.04 1568.04 L1360.15 1568.04 L1360.15 1546.72 Q1360.15 1541.59 1358.34 1539.11 Q1356.52 1536.63 1352.8 1536.63 Q1348.25 1536.63 1345.61 1539.65 Q1342.97 1542.68 1342.97 1547.9 L1342.97 1568.04 L1337.08 1568.04 L1337.08 1546.72 Q1337.08 1541.56 1335.26 1539.11 Q1333.45 1536.63 1329.66 1536.63 Q1325.17 1536.63 1322.53 1539.68 Q1319.89 1542.71 1319.89 1547.9 L1319.89 1568.04 L1314 1568.04 L1314 1532.4 L1319.89 1532.4 L1319.89 1537.93 Q1321.9 1534.66 1324.7 1533.1 Q1327.5 1531.54 1331.35 1531.54 Q1335.23 1531.54 1337.94 1533.51 Q1340.67 1535.48 1341.98 1539.24 Z" fill="#000000" fill-rule="nonzero" fill-opacity="1" /><path clip-path="url(#clip810)" d="M1391.41 1518.52 L1391.41 1576.64 L1377.91 1576.64 L1377.91 1572.09 L1385.52 1572.09 L1385.52 1523.07 L1377.91 1523.07 L1377.91 1518.52 L1391.41 1518.52 Z" fill="#000000" fill-rule="nonzero" fill-opacity="1" /><polyline clip-path="url(#clip812)" style="stroke:#000000; stroke-linecap:round; stroke-linejoin:round; stroke-width:2; stroke-opacity:0.1; fill:none" points="279.704,1384.24 2352.76,1384.24 "/>
<polyline clip-path="url(#clip812)" style="stroke:#000000; stroke-linecap:round; stroke-linejoin:round; stroke-width:2; stroke-opacity:0.1; fill:none" points="279.704,1124.63 2352.76,1124.63 "/>
<polyline clip-path="url(#clip812)" style="stroke:#000000; stroke-linecap:round; stroke-linejoin:round; stroke-width:2; stroke-opacity:0.1; fill:none" points="279.704,865.017 2352.76,865.017 "/>
<polyline clip-path="url(#clip812)" style="stroke:#000000; stroke-linecap:round; stroke-linejoin:round; stroke-width:2; stroke-opacity:0.1; fill:none" points="279.704,605.407 2352.76,605.407 "/>
<polyline clip-path="url(#clip812)" style="stroke:#000000; stroke-linecap:round; stroke-linejoin:round; stroke-width:2; stroke-opacity:0.1; fill:none" points="279.704,345.796 2352.76,345.796 "/>
<polyline clip-path="url(#clip812)" style="stroke:#000000; stroke-linecap:round; stroke-linejoin:round; stroke-width:2; stroke-opacity:0.1; fill:none" points="279.704,86.1857 2352.76,86.1857 "/>
<polyline clip-path="url(#clip810)" style="stroke:#000000; stroke-linecap:round; stroke-linejoin:round; stroke-width:4; stroke-opacity:1; fill:none" points="279.704,1423.18 279.704,47.2441 "/>
<polyline clip-path="url(#clip810)" style="stroke:#000000; stroke-linecap:round; stroke-linejoin:round; stroke-width:4; stroke-opacity:1; fill:none" points="279.704,1384.24 298.602,1384.24 "/>
<polyline clip-path="url(#clip810)" style="stroke:#000000; stroke-linecap:round; stroke-linejoin:round; stroke-width:4; stroke-opacity:1; fill:none" points="279.704,1124.63 298.602,1124.63 "/>
<polyline clip-path="url(#clip810)" style="stroke:#000000; stroke-linecap:round; stroke-linejoin:round; stroke-width:4; stroke-opacity:1; fill:none" points="279.704,865.017 298.602,865.017 "/>
<polyline clip-path="url(#clip810)" style="stroke:#000000; stroke-linecap:round; stroke-linejoin:round; stroke-width:4; stroke-opacity:1; fill:none" points="279.704,605.407 298.602,605.407 "/>
<polyline clip-path="url(#clip810)" style="stroke:#000000; stroke-linecap:round; stroke-linejoin:round; stroke-width:4; stroke-opacity:1; fill:none" points="279.704,345.796 298.602,345.796 "/>
<polyline clip-path="url(#clip810)" style="stroke:#000000; stroke-linecap:round; stroke-linejoin:round; stroke-width:4; stroke-opacity:1; fill:none" points="279.704,86.1857 298.602,86.1857 "/>
<path clip-path="url(#clip810)" d="M127.2 1370.04 Q123.589 1370.04 121.76 1373.6 Q119.955 1377.14 119.955 1384.27 Q119.955 1391.38 121.76 1394.94 Q123.589 1398.49 127.2 1398.49 Q130.834 1398.49 132.64 1394.94 Q134.468 1391.38 134.468 1384.27 Q134.468 1377.14 132.64 1373.6 Q130.834 1370.04 127.2 1370.04 M127.2 1366.33 Q133.01 1366.33 136.066 1370.94 Q139.144 1375.52 139.144 1384.27 Q139.144 1393 136.066 1397.61 Q133.01 1402.19 127.2 1402.19 Q121.39 1402.19 118.311 1397.61 Q115.256 1393 115.256 1384.27 Q115.256 1375.52 118.311 1370.94 Q121.39 1366.33 127.2 1366.33 Z" fill="#000000" fill-rule="nonzero" fill-opacity="1" /><path clip-path="url(#clip810)" d="M147.362 1395.64 L152.246 1395.64 L152.246 1401.52 L147.362 1401.52 L147.362 1395.64 Z" fill="#000000" fill-rule="nonzero" fill-opacity="1" /><path clip-path="url(#clip810)" d="M172.431 1370.04 Q168.82 1370.04 166.991 1373.6 Q165.186 1377.14 165.186 1384.27 Q165.186 1391.38 166.991 1394.94 Q168.82 1398.49 172.431 1398.49 Q176.065 1398.49 177.871 1394.94 Q179.7 1391.38 179.7 1384.27 Q179.7 1377.14 177.871 1373.6 Q176.065 1370.04 172.431 1370.04 M172.431 1366.33 Q178.241 1366.33 181.297 1370.94 Q184.376 1375.52 184.376 1384.27 Q184.376 1393 181.297 1397.61 Q178.241 1402.19 172.431 1402.19 Q166.621 1402.19 163.542 1397.61 Q160.487 1393 160.487 1384.27 Q160.487 1375.52 163.542 1370.94 Q166.621 1366.33 172.431 1366.33 Z" fill="#000000" fill-rule="nonzero" fill-opacity="1" /><path clip-path="url(#clip810)" d="M196.621 1397.58 L212.94 1397.58 L212.94 1401.52 L190.996 1401.52 L190.996 1397.58 Q193.658 1394.83 198.241 1390.2 Q202.848 1385.55 204.028 1384.2 Q206.274 1381.68 207.153 1379.94 Q208.056 1378.19 208.056 1376.5 Q208.056 1373.74 206.112 1372 Q204.19 1370.27 201.088 1370.27 Q198.889 1370.27 196.436 1371.03 Q194.005 1371.8 191.227 1373.35 L191.227 1368.62 Q194.051 1367.49 196.505 1366.91 Q198.959 1366.33 200.996 1366.33 Q206.366 1366.33 209.561 1369.02 Q212.755 1371.7 212.755 1376.19 Q212.755 1378.32 211.945 1380.25 Q211.158 1382.14 209.051 1384.74 Q208.473 1385.41 205.371 1388.62 Q202.269 1391.82 196.621 1397.58 Z" fill="#000000" fill-rule="nonzero" fill-opacity="1" /><path clip-path="url(#clip810)" d="M222.801 1366.96 L241.158 1366.96 L241.158 1370.89 L227.084 1370.89 L227.084 1379.37 Q228.102 1379.02 229.121 1378.86 Q230.139 1378.67 231.158 1378.67 Q236.945 1378.67 240.324 1381.84 Q243.704 1385.01 243.704 1390.43 Q243.704 1396.01 240.232 1399.11 Q236.76 1402.19 230.44 1402.19 Q228.264 1402.19 225.996 1401.82 Q223.75 1401.45 221.343 1400.71 L221.343 1396.01 Q223.426 1397.14 225.648 1397.7 Q227.871 1398.25 230.347 1398.25 Q234.352 1398.25 236.69 1396.15 Q239.028 1394.04 239.028 1390.43 Q239.028 1386.82 236.69 1384.71 Q234.352 1382.61 230.347 1382.61 Q228.473 1382.61 226.598 1383.02 Q224.746 1383.44 222.801 1384.32 L222.801 1366.96 Z" fill="#000000" fill-rule="nonzero" fill-opacity="1" /><path clip-path="url(#clip810)" d="M126.205 1110.43 Q122.593 1110.43 120.765 1113.99 Q118.959 1117.53 118.959 1124.66 Q118.959 1131.77 120.765 1135.33 Q122.593 1138.88 126.205 1138.88 Q129.839 1138.88 131.644 1135.33 Q133.473 1131.77 133.473 1124.66 Q133.473 1117.53 131.644 1113.99 Q129.839 1110.43 126.205 1110.43 M126.205 1106.72 Q132.015 1106.72 135.07 1111.33 Q138.149 1115.91 138.149 1124.66 Q138.149 1133.39 135.07 1138 Q132.015 1142.58 126.205 1142.58 Q120.394 1142.58 117.316 1138 Q114.26 1133.39 114.26 1124.66 Q114.26 1115.91 117.316 1111.33 Q120.394 1106.72 126.205 1106.72 Z" fill="#000000" fill-rule="nonzero" fill-opacity="1" /><path clip-path="url(#clip810)" d="M146.366 1136.03 L151.251 1136.03 L151.251 1141.91 L146.366 1141.91 L146.366 1136.03 Z" fill="#000000" fill-rule="nonzero" fill-opacity="1" /><path clip-path="url(#clip810)" d="M171.436 1110.43 Q167.825 1110.43 165.996 1113.99 Q164.19 1117.53 164.19 1124.66 Q164.19 1131.77 165.996 1135.33 Q167.825 1138.88 171.436 1138.88 Q175.07 1138.88 176.876 1135.33 Q178.704 1131.77 178.704 1124.66 Q178.704 1117.53 176.876 1113.99 Q175.07 1110.43 171.436 1110.43 M171.436 1106.72 Q177.246 1106.72 180.301 1111.33 Q183.38 1115.91 183.38 1124.66 Q183.38 1133.39 180.301 1138 Q177.246 1142.58 171.436 1142.58 Q165.626 1142.58 162.547 1138 Q159.491 1133.39 159.491 1124.66 Q159.491 1115.91 162.547 1111.33 Q165.626 1106.72 171.436 1106.72 Z" fill="#000000" fill-rule="nonzero" fill-opacity="1" /><path clip-path="url(#clip810)" d="M205.764 1123.27 Q209.121 1123.99 210.996 1126.26 Q212.894 1128.53 212.894 1131.86 Q212.894 1136.98 209.375 1139.78 Q205.857 1142.58 199.375 1142.58 Q197.2 1142.58 194.885 1142.14 Q192.593 1141.72 190.139 1140.87 L190.139 1136.35 Q192.084 1137.49 194.399 1138.07 Q196.713 1138.64 199.237 1138.64 Q203.635 1138.64 205.926 1136.91 Q208.241 1135.17 208.241 1131.86 Q208.241 1128.81 206.088 1127.09 Q203.959 1125.36 200.139 1125.36 L196.112 1125.36 L196.112 1121.51 L200.325 1121.51 Q203.774 1121.51 205.602 1120.15 Q207.431 1118.76 207.431 1116.17 Q207.431 1113.51 205.533 1112.09 Q203.658 1110.66 200.139 1110.66 Q198.218 1110.66 196.019 1111.07 Q193.82 1111.49 191.181 1112.37 L191.181 1108.2 Q193.843 1107.46 196.158 1107.09 Q198.496 1106.72 200.556 1106.72 Q205.88 1106.72 208.982 1109.15 Q212.084 1111.56 212.084 1115.68 Q212.084 1118.55 210.44 1120.54 Q208.797 1122.51 205.764 1123.27 Z" fill="#000000" fill-rule="nonzero" fill-opacity="1" /><path clip-path="url(#clip810)" d="M231.76 1110.43 Q228.148 1110.43 226.32 1113.99 Q224.514 1117.53 224.514 1124.66 Q224.514 1131.77 226.32 1135.33 Q228.148 1138.88 231.76 1138.88 Q235.394 1138.88 237.199 1135.33 Q239.028 1131.77 239.028 1124.66 Q239.028 1117.53 237.199 1113.99 Q235.394 1110.43 231.76 1110.43 M231.76 1106.72 Q237.57 1106.72 240.625 1111.33 Q243.704 1115.91 243.704 1124.66 Q243.704 1133.39 240.625 1138 Q237.57 1142.58 231.76 1142.58 Q225.949 1142.58 222.871 1138 Q219.815 1133.39 219.815 1124.66 Q219.815 1115.91 222.871 1111.33 Q225.949 1106.72 231.76 1106.72 Z" fill="#000000" fill-rule="nonzero" fill-opacity="1" /><path clip-path="url(#clip810)" d="M127.2 850.816 Q123.589 850.816 121.76 854.381 Q119.955 857.922 119.955 865.052 Q119.955 872.158 121.76 875.723 Q123.589 879.265 127.2 879.265 Q130.834 879.265 132.64 875.723 Q134.468 872.158 134.468 865.052 Q134.468 857.922 132.64 854.381 Q130.834 850.816 127.2 850.816 M127.2 847.112 Q133.01 847.112 136.066 851.719 Q139.144 856.302 139.144 865.052 Q139.144 873.779 136.066 878.385 Q133.01 882.969 127.2 882.969 Q121.39 882.969 118.311 878.385 Q115.256 873.779 115.256 865.052 Q115.256 856.302 118.311 851.719 Q121.39 847.112 127.2 847.112 Z" fill="#000000" fill-rule="nonzero" fill-opacity="1" /><path clip-path="url(#clip810)" d="M147.362 876.418 L152.246 876.418 L152.246 882.297 L147.362 882.297 L147.362 876.418 Z" fill="#000000" fill-rule="nonzero" fill-opacity="1" /><path clip-path="url(#clip810)" d="M172.431 850.816 Q168.82 850.816 166.991 854.381 Q165.186 857.922 165.186 865.052 Q165.186 872.158 166.991 875.723 Q168.82 879.265 172.431 879.265 Q176.065 879.265 177.871 875.723 Q179.7 872.158 179.7 865.052 Q179.7 857.922 177.871 854.381 Q176.065 850.816 172.431 850.816 M172.431 847.112 Q178.241 847.112 181.297 851.719 Q184.376 856.302 184.376 865.052 Q184.376 873.779 181.297 878.385 Q178.241 882.969 172.431 882.969 Q166.621 882.969 163.542 878.385 Q160.487 873.779 160.487 865.052 Q160.487 856.302 163.542 851.719 Q166.621 847.112 172.431 847.112 Z" fill="#000000" fill-rule="nonzero" fill-opacity="1" /><path clip-path="url(#clip810)" d="M206.76 863.663 Q210.116 864.381 211.991 866.649 Q213.889 868.918 213.889 872.251 Q213.889 877.367 210.371 880.168 Q206.852 882.969 200.371 882.969 Q198.195 882.969 195.88 882.529 Q193.588 882.112 191.135 881.256 L191.135 876.742 Q193.079 877.876 195.394 878.455 Q197.709 879.033 200.232 879.033 Q204.63 879.033 206.922 877.297 Q209.237 875.561 209.237 872.251 Q209.237 869.195 207.084 867.482 Q204.954 865.746 201.135 865.746 L197.107 865.746 L197.107 861.904 L201.32 861.904 Q204.769 861.904 206.598 860.538 Q208.426 859.149 208.426 856.557 Q208.426 853.895 206.528 852.483 Q204.653 851.047 201.135 851.047 Q199.213 851.047 197.014 851.464 Q194.815 851.881 192.176 852.76 L192.176 848.594 Q194.838 847.853 197.153 847.483 Q199.491 847.112 201.551 847.112 Q206.875 847.112 209.977 849.543 Q213.079 851.95 213.079 856.071 Q213.079 858.941 211.436 860.932 Q209.792 862.899 206.76 863.663 Z" fill="#000000" fill-rule="nonzero" fill-opacity="1" /><path clip-path="url(#clip810)" d="M222.801 847.737 L241.158 847.737 L241.158 851.672 L227.084 851.672 L227.084 860.145 Q228.102 859.797 229.121 859.635 Q230.139 859.45 231.158 859.45 Q236.945 859.45 240.324 862.621 Q243.704 865.793 243.704 871.209 Q243.704 876.788 240.232 879.89 Q236.76 882.969 230.44 882.969 Q228.264 882.969 225.996 882.598 Q223.75 882.228 221.343 881.487 L221.343 876.788 Q223.426 877.922 225.648 878.478 Q227.871 879.033 230.347 879.033 Q234.352 879.033 236.69 876.927 Q239.028 874.82 239.028 871.209 Q239.028 867.598 236.69 865.492 Q234.352 863.385 230.347 863.385 Q228.473 863.385 226.598 863.802 Q224.746 864.219 222.801 865.098 L222.801 847.737 Z" fill="#000000" fill-rule="nonzero" fill-opacity="1" /><path clip-path="url(#clip810)" d="M126.205 591.205 Q122.593 591.205 120.765 594.77 Q118.959 598.312 118.959 605.441 Q118.959 612.548 120.765 616.113 Q122.593 619.654 126.205 619.654 Q129.839 619.654 131.644 616.113 Q133.473 612.548 133.473 605.441 Q133.473 598.312 131.644 594.77 Q129.839 591.205 126.205 591.205 M126.205 587.502 Q132.015 587.502 135.07 592.108 Q138.149 596.691 138.149 605.441 Q138.149 614.168 135.07 618.775 Q132.015 623.358 126.205 623.358 Q120.394 623.358 117.316 618.775 Q114.26 614.168 114.26 605.441 Q114.26 596.691 117.316 592.108 Q120.394 587.502 126.205 587.502 Z" fill="#000000" fill-rule="nonzero" fill-opacity="1" /><path clip-path="url(#clip810)" d="M146.366 616.807 L151.251 616.807 L151.251 622.687 L146.366 622.687 L146.366 616.807 Z" fill="#000000" fill-rule="nonzero" fill-opacity="1" /><path clip-path="url(#clip810)" d="M171.436 591.205 Q167.825 591.205 165.996 594.77 Q164.19 598.312 164.19 605.441 Q164.19 612.548 165.996 616.113 Q167.825 619.654 171.436 619.654 Q175.07 619.654 176.876 616.113 Q178.704 612.548 178.704 605.441 Q178.704 598.312 176.876 594.77 Q175.07 591.205 171.436 591.205 M171.436 587.502 Q177.246 587.502 180.301 592.108 Q183.38 596.691 183.38 605.441 Q183.38 614.168 180.301 618.775 Q177.246 623.358 171.436 623.358 Q165.626 623.358 162.547 618.775 Q159.491 614.168 159.491 605.441 Q159.491 596.691 162.547 592.108 Q165.626 587.502 171.436 587.502 Z" fill="#000000" fill-rule="nonzero" fill-opacity="1" /><path clip-path="url(#clip810)" d="M204.445 592.201 L192.639 610.65 L204.445 610.65 L204.445 592.201 M203.218 588.127 L209.098 588.127 L209.098 610.65 L214.028 610.65 L214.028 614.539 L209.098 614.539 L209.098 622.687 L204.445 622.687 L204.445 614.539 L188.843 614.539 L188.843 610.025 L203.218 588.127 Z" fill="#000000" fill-rule="nonzero" fill-opacity="1" /><path clip-path="url(#clip810)" d="M231.76 591.205 Q228.148 591.205 226.32 594.77 Q224.514 598.312 224.514 605.441 Q224.514 612.548 226.32 616.113 Q228.148 619.654 231.76 619.654 Q235.394 619.654 237.199 616.113 Q239.028 612.548 239.028 605.441 Q239.028 598.312 237.199 594.77 Q235.394 591.205 231.76 591.205 M231.76 587.502 Q237.57 587.502 240.625 592.108 Q243.704 596.691 243.704 605.441 Q243.704 614.168 240.625 618.775 Q237.57 623.358 231.76 623.358 Q225.949 623.358 222.871 618.775 Q219.815 614.168 219.815 605.441 Q219.815 596.691 222.871 592.108 Q225.949 587.502 231.76 587.502 Z" fill="#000000" fill-rule="nonzero" fill-opacity="1" /><path clip-path="url(#clip810)" d="M127.2 331.595 Q123.589 331.595 121.76 335.16 Q119.955 338.701 119.955 345.831 Q119.955 352.937 121.76 356.502 Q123.589 360.044 127.2 360.044 Q130.834 360.044 132.64 356.502 Q134.468 352.937 134.468 345.831 Q134.468 338.701 132.64 335.16 Q130.834 331.595 127.2 331.595 M127.2 327.891 Q133.01 327.891 136.066 332.498 Q139.144 337.081 139.144 345.831 Q139.144 354.558 136.066 359.164 Q133.01 363.747 127.2 363.747 Q121.39 363.747 118.311 359.164 Q115.256 354.558 115.256 345.831 Q115.256 337.081 118.311 332.498 Q121.39 327.891 127.2 327.891 Z" fill="#000000" fill-rule="nonzero" fill-opacity="1" /><path clip-path="url(#clip810)" d="M147.362 357.197 L152.246 357.197 L152.246 363.076 L147.362 363.076 L147.362 357.197 Z" fill="#000000" fill-rule="nonzero" fill-opacity="1" /><path clip-path="url(#clip810)" d="M172.431 331.595 Q168.82 331.595 166.991 335.16 Q165.186 338.701 165.186 345.831 Q165.186 352.937 166.991 356.502 Q168.82 360.044 172.431 360.044 Q176.065 360.044 177.871 356.502 Q179.7 352.937 179.7 345.831 Q179.7 338.701 177.871 335.16 Q176.065 331.595 172.431 331.595 M172.431 327.891 Q178.241 327.891 181.297 332.498 Q184.376 337.081 184.376 345.831 Q184.376 354.558 181.297 359.164 Q178.241 363.747 172.431 363.747 Q166.621 363.747 163.542 359.164 Q160.487 354.558 160.487 345.831 Q160.487 337.081 163.542 332.498 Q166.621 327.891 172.431 327.891 Z" fill="#000000" fill-rule="nonzero" fill-opacity="1" /><path clip-path="url(#clip810)" d="M205.44 332.59 L193.635 351.039 L205.44 351.039 L205.44 332.59 M204.213 328.516 L210.093 328.516 L210.093 351.039 L215.024 351.039 L215.024 354.928 L210.093 354.928 L210.093 363.076 L205.44 363.076 L205.44 354.928 L189.838 354.928 L189.838 350.414 L204.213 328.516 Z" fill="#000000" fill-rule="nonzero" fill-opacity="1" /><path clip-path="url(#clip810)" d="M222.801 328.516 L241.158 328.516 L241.158 332.451 L227.084 332.451 L227.084 340.924 Q228.102 340.576 229.121 340.414 Q230.139 340.229 231.158 340.229 Q236.945 340.229 240.324 343.4 Q243.704 346.572 243.704 351.988 Q243.704 357.567 240.232 360.669 Q236.76 363.747 230.44 363.747 Q228.264 363.747 225.996 363.377 Q223.75 363.007 221.343 362.266 L221.343 357.567 Q223.426 358.701 225.648 359.257 Q227.871 359.812 230.347 359.812 Q234.352 359.812 236.69 357.706 Q239.028 355.599 239.028 351.988 Q239.028 348.377 236.69 346.271 Q234.352 344.164 230.347 344.164 Q228.473 344.164 226.598 344.581 Q224.746 344.998 222.801 345.877 L222.801 328.516 Z" fill="#000000" fill-rule="nonzero" fill-opacity="1" /><path clip-path="url(#clip810)" d="M126.205 71.9844 Q122.593 71.9844 120.765 75.5492 Q118.959 79.0908 118.959 86.2204 Q118.959 93.3268 120.765 96.8916 Q122.593 100.433 126.205 100.433 Q129.839 100.433 131.644 96.8916 Q133.473 93.3268 133.473 86.2204 Q133.473 79.0908 131.644 75.5492 Q129.839 71.9844 126.205 71.9844 M126.205 68.2807 Q132.015 68.2807 135.07 72.8871 Q138.149 77.4704 138.149 86.2204 Q138.149 94.9472 135.07 99.5537 Q132.015 104.137 126.205 104.137 Q120.394 104.137 117.316 99.5537 Q114.26 94.9472 114.26 86.2204 Q114.26 77.4704 117.316 72.8871 Q120.394 68.2807 126.205 68.2807 Z" fill="#000000" fill-rule="nonzero" fill-opacity="1" /><path clip-path="url(#clip810)" d="M146.366 97.5861 L151.251 97.5861 L151.251 103.466 L146.366 103.466 L146.366 97.5861 Z" fill="#000000" fill-rule="nonzero" fill-opacity="1" /><path clip-path="url(#clip810)" d="M171.436 71.9844 Q167.825 71.9844 165.996 75.5492 Q164.19 79.0908 164.19 86.2204 Q164.19 93.3268 165.996 96.8916 Q167.825 100.433 171.436 100.433 Q175.07 100.433 176.876 96.8916 Q178.704 93.3268 178.704 86.2204 Q178.704 79.0908 176.876 75.5492 Q175.07 71.9844 171.436 71.9844 M171.436 68.2807 Q177.246 68.2807 180.301 72.8871 Q183.38 77.4704 183.38 86.2204 Q183.38 94.9472 180.301 99.5537 Q177.246 104.137 171.436 104.137 Q165.626 104.137 162.547 99.5537 Q159.491 94.9472 159.491 86.2204 Q159.491 77.4704 162.547 72.8871 Q165.626 68.2807 171.436 68.2807 Z" fill="#000000" fill-rule="nonzero" fill-opacity="1" /><path clip-path="url(#clip810)" d="M191.644 68.9057 L210 68.9057 L210 72.8408 L195.926 72.8408 L195.926 81.313 Q196.945 80.9658 197.963 80.8038 Q198.982 80.6186 200 80.6186 Q205.787 80.6186 209.167 83.7899 Q212.547 86.9611 212.547 92.3778 Q212.547 97.9564 209.074 101.058 Q205.602 104.137 199.283 104.137 Q197.107 104.137 194.838 103.767 Q192.593 103.396 190.186 102.655 L190.186 97.9564 Q192.269 99.0907 194.491 99.6462 Q196.713 100.202 199.19 100.202 Q203.195 100.202 205.533 98.0953 Q207.871 95.9889 207.871 92.3778 Q207.871 88.7667 205.533 86.6602 Q203.195 84.5537 199.19 84.5537 Q197.315 84.5537 195.44 84.9704 Q193.588 85.3871 191.644 86.2667 L191.644 68.9057 Z" fill="#000000" fill-rule="nonzero" fill-opacity="1" /><path clip-path="url(#clip810)" d="M231.76 71.9844 Q228.148 71.9844 226.32 75.5492 Q224.514 79.0908 224.514 86.2204 Q224.514 93.3268 226.32 96.8916 Q228.148 100.433 231.76 100.433 Q235.394 100.433 237.199 96.8916 Q239.028 93.3268 239.028 86.2204 Q239.028 79.0908 237.199 75.5492 Q235.394 71.9844 231.76 71.9844 M231.76 68.2807 Q237.57 68.2807 240.625 72.8871 Q243.704 77.4704 243.704 86.2204 Q243.704 94.9472 240.625 99.5537 Q237.57 104.137 231.76 104.137 Q225.949 104.137 222.871 99.5537 Q219.815 94.9472 219.815 86.2204 Q219.815 77.4704 222.871 72.8871 Q225.949 68.2807 231.76 68.2807 Z" fill="#000000" fill-rule="nonzero" fill-opacity="1" /><path clip-path="url(#clip810)" d="M20.1444 856.67 L26.9239 856.67 Q23.9002 859.916 22.4043 863.608 Q20.9083 867.269 20.9083 871.406 Q20.9083 879.554 25.9054 883.883 Q30.8707 888.212 40.2919 888.212 Q49.6813 888.212 54.6784 883.883 Q59.6436 879.554 59.6436 871.406 Q59.6436 867.269 58.1477 863.608 Q56.6518 859.916 53.6281 856.67 L60.3439 856.67 Q62.6355 860.043 63.7814 863.831 Q64.9272 867.587 64.9272 871.788 Q64.9272 882.578 58.3387 888.785 Q51.7183 894.991 40.2919 894.991 Q28.8336 894.991 22.2451 888.785 Q15.6248 882.578 15.6248 871.788 Q15.6248 867.523 16.7706 863.767 Q17.8846 859.98 20.1444 856.67 Z" fill="#000000" fill-rule="nonzero" fill-opacity="1" /><path clip-path="url(#clip810)" d="M42.4881 817.361 L64.0042 817.361 L64.0042 823.218 L42.679 823.218 Q37.6183 823.218 35.1038 825.191 Q32.5894 827.165 32.5894 831.111 Q32.5894 835.854 35.6131 838.591 Q38.6368 841.328 43.8567 841.328 L64.0042 841.328 L64.0042 847.217 L14.479 847.217 L14.479 841.328 L33.8944 841.328 Q30.6797 839.228 29.0883 836.395 Q27.4968 833.53 27.4968 829.806 Q27.4968 823.663 31.3163 820.512 Q35.1038 817.361 42.4881 817.361 Z" fill="#000000" fill-rule="nonzero" fill-opacity="1" /><path clip-path="url(#clip810)" d="M32.4621 791.867 Q32.4621 796.577 36.1542 799.315 Q39.8145 802.052 46.212 802.052 Q52.6095 802.052 56.3017 799.346 Q59.9619 796.609 59.9619 791.867 Q59.9619 787.188 56.2698 784.451 Q52.5777 781.713 46.212 781.713 Q39.8781 781.713 36.186 784.451 Q32.4621 787.188 32.4621 791.867 M27.4968 791.867 Q27.4968 784.228 32.4621 779.867 Q37.4273 775.507 46.212 775.507 Q54.9649 775.507 59.9619 779.867 Q64.9272 784.228 64.9272 791.867 Q64.9272 799.537 59.9619 803.898 Q54.9649 808.227 46.212 808.227 Q37.4273 808.227 32.4621 803.898 Q27.4968 799.537 27.4968 791.867 Z" fill="#000000" fill-rule="nonzero" fill-opacity="1" /><path clip-path="url(#clip810)" d="M33.8307 745.142 Q33.2578 746.129 33.0032 747.307 Q32.7167 748.453 32.7167 749.853 Q32.7167 754.818 35.9632 757.492 Q39.1779 760.134 45.2253 760.134 L64.0042 760.134 L64.0042 766.022 L28.3562 766.022 L28.3562 760.134 L33.8944 760.134 Q30.6479 758.288 29.0883 755.328 Q27.4968 752.368 27.4968 748.134 Q27.4968 747.53 27.5923 746.798 Q27.656 746.065 27.8151 745.174 L33.8307 745.142 Z" fill="#000000" fill-rule="nonzero" fill-opacity="1" /><path clip-path="url(#clip810)" d="M33.7671 716.688 L14.479 716.688 L14.479 710.831 L64.0042 710.831 L64.0042 716.688 L58.657 716.688 Q61.8398 718.534 63.3994 721.367 Q64.9272 724.167 64.9272 728.114 Q64.9272 734.575 59.771 738.649 Q54.6147 742.692 46.212 742.692 Q37.8093 742.692 32.6531 738.649 Q27.4968 734.575 27.4968 728.114 Q27.4968 724.167 29.0564 721.367 Q30.5842 718.534 33.7671 716.688 M46.212 736.644 Q52.6732 736.644 56.3653 734.002 Q60.0256 731.329 60.0256 726.682 Q60.0256 722.035 56.3653 719.361 Q52.6732 716.688 46.212 716.688 Q39.7508 716.688 36.0905 719.361 Q32.3984 722.035 32.3984 726.682 Q32.3984 731.329 36.0905 734.002 Q39.7508 736.644 46.212 736.644 Z" fill="#000000" fill-rule="nonzero" fill-opacity="1" /><path clip-path="url(#clip810)" d="M14.479 678.589 L14.479 665.094 L19.0304 665.094 L19.0304 672.733 L68.0464 672.733 L68.0464 665.094 L72.5979 665.094 L72.5979 678.589 L14.479 678.589 Z" fill="#000000" fill-rule="nonzero" fill-opacity="1" /><path clip-path="url(#clip810)" d="M35.1993 624.862 Q31.2526 622.666 29.3747 619.611 Q27.4968 616.555 27.4968 612.417 Q27.4968 606.847 31.4117 603.824 Q35.2948 600.8 42.4881 600.8 L64.0042 600.8 L64.0042 606.688 L42.679 606.688 Q37.5546 606.688 35.072 608.503 Q32.5894 610.317 32.5894 614.041 Q32.5894 618.592 35.6131 621.234 Q38.6368 623.876 43.8567 623.876 L64.0042 623.876 L64.0042 629.764 L42.679 629.764 Q37.5228 629.764 35.072 631.578 Q32.5894 633.392 32.5894 637.18 Q32.5894 641.668 35.6449 644.31 Q38.6686 646.951 43.8567 646.951 L64.0042 646.951 L64.0042 652.84 L28.3562 652.84 L28.3562 646.951 L33.8944 646.951 Q30.616 644.946 29.0564 642.145 Q27.4968 639.344 27.4968 635.493 Q27.4968 631.61 29.4702 628.905 Q31.4436 626.167 35.1993 624.862 Z" fill="#000000" fill-rule="nonzero" fill-opacity="1" /><path clip-path="url(#clip810)" d="M14.479 575.433 L72.5979 575.433 L72.5979 588.928 L68.0464 588.928 L68.0464 581.321 L19.0304 581.321 L19.0304 588.928 L14.479 588.928 L14.479 575.433 Z" fill="#000000" fill-rule="nonzero" fill-opacity="1" /><polyline clip-path="url(#clip812)" style="stroke:#009af9; stroke-linecap:round; stroke-linejoin:round; stroke-width:4; stroke-opacity:1; fill:none" points="338.375,86.1857 436.161,259.605 533.946,393.565 631.732,492.736 729.517,561.792 827.303,605.407 925.088,628.252 1022.87,635.002 1120.66,630.329 1218.44,618.906 1316.23,605.407 1414.02,594.503 1511.8,590.869 1609.59,599.176 1707.37,624.099 1805.16,670.309 1902.94,742.481 2000.73,845.287 2098.51,983.4 2196.3,1161.49 2294.08,1384.24 "/>
<path clip-path="url(#clip810)" d="M1656.91 196.789 L2283.65 196.789 L2283.65 93.1086 L1656.91 93.1086  Z" fill="#ffffff" fill-rule="evenodd" fill-opacity="1"/>
<polyline clip-path="url(#clip810)" style="stroke:#000000; stroke-linecap:round; stroke-linejoin:round; stroke-width:4; stroke-opacity:1; fill:none" points="1656.91,196.789 2283.65,196.789 2283.65,93.1086 1656.91,93.1086 1656.91,196.789 "/>
<polyline clip-path="url(#clip810)" style="stroke:#009af9; stroke-linecap:round; stroke-linejoin:round; stroke-width:4; stroke-opacity:1; fill:none" points="1679.94,144.949 1818.14,144.949 "/>
<path clip-path="url(#clip810)" d="M1869.05 130.331 L1869.05 135.261 Q1866.69 133.062 1864 131.974 Q1861.34 130.886 1858.33 130.886 Q1852.4 130.886 1849.26 134.52 Q1846.11 138.132 1846.11 144.983 Q1846.11 151.812 1849.26 155.446 Q1852.4 159.057 1858.33 159.057 Q1861.34 159.057 1864 157.969 Q1866.69 156.881 1869.05 154.682 L1869.05 159.567 Q1866.59 161.233 1863.84 162.067 Q1861.11 162.9 1858.05 162.9 Q1850.21 162.9 1845.69 158.108 Q1841.18 153.293 1841.18 144.983 Q1841.18 136.65 1845.69 131.858 Q1850.21 127.044 1858.05 127.044 Q1861.15 127.044 1863.89 127.877 Q1866.64 128.687 1869.05 130.331 Z" fill="#000000" fill-rule="nonzero" fill-opacity="1" /><path clip-path="url(#clip810)" d="M1897.64 146.581 L1897.64 162.229 L1893.38 162.229 L1893.38 146.719 Q1893.38 143.039 1891.94 141.21 Q1890.51 139.382 1887.64 139.382 Q1884.19 139.382 1882.2 141.581 Q1880.21 143.78 1880.21 147.576 L1880.21 162.229 L1875.92 162.229 L1875.92 126.21 L1880.21 126.21 L1880.21 140.331 Q1881.73 137.993 1883.79 136.835 Q1885.88 135.678 1888.59 135.678 Q1893.05 135.678 1895.34 138.456 Q1897.64 141.21 1897.64 146.581 Z" fill="#000000" fill-rule="nonzero" fill-opacity="1" /><path clip-path="url(#clip810)" d="M1916.18 139.289 Q1912.75 139.289 1910.76 141.974 Q1908.77 144.636 1908.77 149.289 Q1908.77 153.942 1910.74 156.627 Q1912.73 159.289 1916.18 159.289 Q1919.58 159.289 1921.57 156.604 Q1923.56 153.918 1923.56 149.289 Q1923.56 144.682 1921.57 141.997 Q1919.58 139.289 1916.18 139.289 M1916.18 135.678 Q1921.73 135.678 1924.9 139.289 Q1928.08 142.9 1928.08 149.289 Q1928.08 155.655 1924.9 159.289 Q1921.73 162.9 1916.18 162.9 Q1910.6 162.9 1907.43 159.289 Q1904.28 155.655 1904.28 149.289 Q1904.28 142.9 1907.43 139.289 Q1910.6 135.678 1916.18 135.678 Z" fill="#000000" fill-rule="nonzero" fill-opacity="1" /><path clip-path="url(#clip810)" d="M1950.16 140.284 Q1949.44 139.868 1948.58 139.682 Q1947.75 139.474 1946.73 139.474 Q1943.12 139.474 1941.18 141.835 Q1939.26 144.173 1939.26 148.571 L1939.26 162.229 L1934.97 162.229 L1934.97 136.303 L1939.26 136.303 L1939.26 140.331 Q1940.6 137.969 1942.75 136.835 Q1944.9 135.678 1947.98 135.678 Q1948.42 135.678 1948.96 135.747 Q1949.49 135.794 1950.14 135.909 L1950.16 140.284 Z" fill="#000000" fill-rule="nonzero" fill-opacity="1" /><path clip-path="url(#clip810)" d="M1970.85 140.238 L1970.85 126.21 L1975.11 126.21 L1975.11 162.229 L1970.85 162.229 L1970.85 158.34 Q1969.51 160.655 1967.45 161.789 Q1965.41 162.9 1962.54 162.9 Q1957.84 162.9 1954.88 159.15 Q1951.94 155.4 1951.94 149.289 Q1951.94 143.178 1954.88 139.428 Q1957.84 135.678 1962.54 135.678 Q1965.41 135.678 1967.45 136.812 Q1969.51 137.923 1970.85 140.238 M1956.34 149.289 Q1956.34 153.988 1958.26 156.673 Q1960.21 159.335 1963.58 159.335 Q1966.96 159.335 1968.91 156.673 Q1970.85 153.988 1970.85 149.289 Q1970.85 144.59 1968.91 141.928 Q1966.96 139.243 1963.58 139.243 Q1960.21 139.243 1958.26 141.928 Q1956.34 144.59 1956.34 149.289 Z" fill="#000000" fill-rule="nonzero" fill-opacity="1" /><path clip-path="url(#clip810)" d="M2016.02 140.238 L2016.02 126.21 L2020.27 126.21 L2020.27 162.229 L2016.02 162.229 L2016.02 158.34 Q2014.67 160.655 2012.61 161.789 Q2010.58 162.9 2007.7 162.9 Q2003.01 162.9 2000.04 159.15 Q1997.1 155.4 1997.1 149.289 Q1997.1 143.178 2000.04 139.428 Q2003.01 135.678 2007.7 135.678 Q2010.58 135.678 2012.61 136.812 Q2014.67 137.923 2016.02 140.238 M2001.5 149.289 Q2001.5 153.988 2003.42 156.673 Q2005.37 159.335 2008.75 159.335 Q2012.13 159.335 2014.07 156.673 Q2016.02 153.988 2016.02 149.289 Q2016.02 144.59 2014.07 141.928 Q2012.13 139.243 2008.75 139.243 Q2005.37 139.243 2003.42 141.928 Q2001.5 144.59 2001.5 149.289 Z" fill="#000000" fill-rule="nonzero" fill-opacity="1" /><path clip-path="url(#clip810)" d="M2029.05 136.303 L2033.31 136.303 L2033.31 162.229 L2029.05 162.229 L2029.05 136.303 M2029.05 126.21 L2033.31 126.21 L2033.31 131.604 L2029.05 131.604 L2029.05 126.21 Z" fill="#000000" fill-rule="nonzero" fill-opacity="1" /><path clip-path="url(#clip810)" d="M2058.75 137.067 L2058.75 141.094 Q2056.94 140.169 2055 139.706 Q2053.05 139.243 2050.97 139.243 Q2047.8 139.243 2046.2 140.215 Q2044.63 141.187 2044.63 143.131 Q2044.63 144.613 2045.76 145.469 Q2046.89 146.303 2050.32 147.067 L2051.78 147.391 Q2056.32 148.363 2058.21 150.145 Q2060.14 151.905 2060.14 155.076 Q2060.14 158.687 2057.26 160.793 Q2054.42 162.9 2049.42 162.9 Q2047.33 162.9 2045.07 162.483 Q2042.82 162.09 2040.32 161.28 L2040.32 156.881 Q2042.68 158.108 2044.97 158.733 Q2047.26 159.335 2049.51 159.335 Q2052.52 159.335 2054.14 158.317 Q2055.76 157.275 2055.76 155.4 Q2055.76 153.664 2054.58 152.738 Q2053.42 151.812 2049.46 150.956 L2047.98 150.608 Q2044.02 149.775 2042.26 148.062 Q2040.51 146.326 2040.51 143.317 Q2040.51 139.659 2043.1 137.669 Q2045.69 135.678 2050.46 135.678 Q2052.82 135.678 2054.9 136.025 Q2056.99 136.372 2058.75 137.067 Z" fill="#000000" fill-rule="nonzero" fill-opacity="1" /><path clip-path="url(#clip810)" d="M2071.13 128.942 L2071.13 136.303 L2079.9 136.303 L2079.9 139.613 L2071.13 139.613 L2071.13 153.687 Q2071.13 156.858 2071.99 157.761 Q2072.87 158.664 2075.53 158.664 L2079.9 158.664 L2079.9 162.229 L2075.53 162.229 Q2070.6 162.229 2068.72 160.4 Q2066.85 158.548 2066.85 153.687 L2066.85 139.613 L2063.72 139.613 L2063.72 136.303 L2066.85 136.303 L2066.85 128.942 L2071.13 128.942 Z" fill="#000000" fill-rule="nonzero" fill-opacity="1" /><path clip-path="url(#clip810)" d="M2100.53 140.284 Q2099.81 139.868 2098.95 139.682 Q2098.12 139.474 2097.1 139.474 Q2093.49 139.474 2091.55 141.835 Q2089.63 144.173 2089.63 148.571 L2089.63 162.229 L2085.34 162.229 L2085.34 136.303 L2089.63 136.303 L2089.63 140.331 Q2090.97 137.969 2093.12 136.835 Q2095.27 135.678 2098.35 135.678 Q2098.79 135.678 2099.32 135.747 Q2099.86 135.794 2100.51 135.909 L2100.53 140.284 Z" fill="#000000" fill-rule="nonzero" fill-opacity="1" /><path clip-path="url(#clip810)" d="M2105 136.303 L2109.26 136.303 L2109.26 162.229 L2105 162.229 L2105 136.303 M2105 126.21 L2109.26 126.21 L2109.26 131.604 L2105 131.604 L2105 126.21 Z" fill="#000000" fill-rule="nonzero" fill-opacity="1" /><path clip-path="url(#clip810)" d="M2136.78 149.289 Q2136.78 144.59 2134.83 141.928 Q2132.91 139.243 2129.53 139.243 Q2126.15 139.243 2124.21 141.928 Q2122.29 144.59 2122.29 149.289 Q2122.29 153.988 2124.21 156.673 Q2126.15 159.335 2129.53 159.335 Q2132.91 159.335 2134.83 156.673 Q2136.78 153.988 2136.78 149.289 M2122.29 140.238 Q2123.63 137.923 2125.67 136.812 Q2127.73 135.678 2130.57 135.678 Q2135.3 135.678 2138.24 139.428 Q2141.2 143.178 2141.2 149.289 Q2141.2 155.4 2138.24 159.15 Q2135.3 162.9 2130.57 162.9 Q2127.73 162.9 2125.67 161.789 Q2123.63 160.655 2122.29 158.34 L2122.29 162.229 L2118.01 162.229 L2118.01 126.21 L2122.29 126.21 L2122.29 140.238 Z" fill="#000000" fill-rule="nonzero" fill-opacity="1" /><path clip-path="url(#clip810)" d="M2147.82 151.997 L2147.82 136.303 L2152.08 136.303 L2152.08 151.835 Q2152.08 155.516 2153.51 157.368 Q2154.95 159.196 2157.82 159.196 Q2161.27 159.196 2163.26 156.997 Q2165.27 154.798 2165.27 151.002 L2165.27 136.303 L2169.53 136.303 L2169.53 162.229 L2165.27 162.229 L2165.27 158.247 Q2163.72 160.608 2161.66 161.766 Q2159.63 162.9 2156.92 162.9 Q2152.45 162.9 2150.13 160.122 Q2147.82 157.344 2147.82 151.997 M2158.54 135.678 L2158.54 135.678 Z" fill="#000000" fill-rule="nonzero" fill-opacity="1" /><path clip-path="url(#clip810)" d="M2182.52 128.942 L2182.52 136.303 L2191.29 136.303 L2191.29 139.613 L2182.52 139.613 L2182.52 153.687 Q2182.52 156.858 2183.38 157.761 Q2184.25 158.664 2186.92 158.664 L2191.29 158.664 L2191.29 162.229 L2186.92 162.229 Q2181.99 162.229 2180.11 160.4 Q2178.24 158.548 2178.24 153.687 L2178.24 139.613 L2175.11 139.613 L2175.11 136.303 L2178.24 136.303 L2178.24 128.942 L2182.52 128.942 Z" fill="#000000" fill-rule="nonzero" fill-opacity="1" /><path clip-path="url(#clip810)" d="M2196.89 136.303 L2201.15 136.303 L2201.15 162.229 L2196.89 162.229 L2196.89 136.303 M2196.89 126.21 L2201.15 126.21 L2201.15 131.604 L2196.89 131.604 L2196.89 126.21 Z" fill="#000000" fill-rule="nonzero" fill-opacity="1" /><path clip-path="url(#clip810)" d="M2220.11 139.289 Q2216.69 139.289 2214.69 141.974 Q2212.7 144.636 2212.7 149.289 Q2212.7 153.942 2214.67 156.627 Q2216.66 159.289 2220.11 159.289 Q2223.51 159.289 2225.5 156.604 Q2227.5 153.918 2227.5 149.289 Q2227.5 144.682 2225.5 141.997 Q2223.51 139.289 2220.11 139.289 M2220.11 135.678 Q2225.67 135.678 2228.84 139.289 Q2232.01 142.9 2232.01 149.289 Q2232.01 155.655 2228.84 159.289 Q2225.67 162.9 2220.11 162.9 Q2214.53 162.9 2211.36 159.289 Q2208.21 155.655 2208.21 149.289 Q2208.21 142.9 2211.36 139.289 Q2214.53 135.678 2220.11 135.678 Z" fill="#000000" fill-rule="nonzero" fill-opacity="1" /><path clip-path="url(#clip810)" d="M2260.62 146.581 L2260.62 162.229 L2256.36 162.229 L2256.36 146.719 Q2256.36 143.039 2254.93 141.21 Q2253.49 139.382 2250.62 139.382 Q2247.17 139.382 2245.18 141.581 Q2243.19 143.78 2243.19 147.576 L2243.19 162.229 L2238.91 162.229 L2238.91 136.303 L2243.19 136.303 L2243.19 140.331 Q2244.72 137.993 2246.78 136.835 Q2248.86 135.678 2251.57 135.678 Q2256.04 135.678 2258.33 138.456 Q2260.62 141.21 2260.62 146.581 Z" fill="#000000" fill-rule="nonzero" fill-opacity="1" /></svg>
