<?xml version="1.0" encoding="utf-8"?>
<svg xmlns="http://www.w3.org/2000/svg" xmlns:xlink="http://www.w3.org/1999/xlink" width="600" height="500" viewBox="0 0 2400 2000">
<defs>
  <clipPath id="clip650">
    <rect x="0" y="0" width="2400" height="2000"/>
  </clipPath>
</defs>
<path clip-path="url(#clip650)" d="M0 2000 L2400 2000 L2400 0 L0 0  Z" fill="#ffffff" fill-rule="evenodd" fill-opacity="1"/>
<defs>
  <clipPath id="clip651">
    <rect x="480" y="0" width="1681" height="1681"/>
  </clipPath>
</defs>
<path clip-path="url(#clip650)" d="M261.422 798.66 L2352.76 798.66 L2352.76 47.2441 L261.422 47.2441  Z" fill="#ffffff" fill-rule="evenodd" fill-opacity="1"/>
<defs>
  <clipPath id="clip652">
    <rect x="261" y="47" width="2092" height="752"/>
  </clipPath>
</defs>
<polyline clip-path="url(#clip652)" style="stroke:#000000; stroke-linecap:round; stroke-linejoin:round; stroke-width:2; stroke-opacity:0.1; fill:none" points="280.346,798.66 280.346,47.2441 "/>
<polyline clip-path="url(#clip652)" style="stroke:#000000; stroke-linecap:round; stroke-linejoin:round; stroke-width:2; stroke-opacity:0.1; fill:none" points="682.99,798.66 682.99,47.2441 "/>
<polyline clip-path="url(#clip652)" style="stroke:#000000; stroke-linecap:round; stroke-linejoin:round; stroke-width:2; stroke-opacity:0.1; fill:none" points="1085.63,798.66 1085.63,47.2441 "/>
<polyline clip-path="url(#clip652)" style="stroke:#000000; stroke-linecap:round; stroke-linejoin:round; stroke-width:2; stroke-opacity:0.1; fill:none" points="1488.28,798.66 1488.28,47.2441 "/>
<polyline clip-path="url(#clip652)" style="stroke:#000000; stroke-linecap:round; stroke-linejoin:round; stroke-width:2; stroke-opacity:0.1; fill:none" points="1890.92,798.66 1890.92,47.2441 "/>
<polyline clip-path="url(#clip652)" style="stroke:#000000; stroke-linecap:round; stroke-linejoin:round; stroke-width:2; stroke-opacity:0.1; fill:none" points="2293.57,798.66 2293.57,47.2441 "/>
<polyline clip-path="url(#clip652)" style="stroke:#000000; stroke-linecap:round; stroke-linejoin:round; stroke-width:2; stroke-opacity:0.1; fill:none" points="280.346,798.66 280.346,47.2441 "/>
<polyline clip-path="url(#clip652)" style="stroke:#000000; stroke-linecap:round; stroke-linejoin:round; stroke-width:2; stroke-opacity:0.1; fill:none" points="682.99,798.66 682.99,47.2441 "/>
<polyline clip-path="url(#clip652)" style="stroke:#000000; stroke-linecap:round; stroke-linejoin:round; stroke-width:2; stroke-opacity:0.1; fill:none" points="1085.63,798.66 1085.63,47.2441 "/>
<polyline clip-path="url(#clip652)" style="stroke:#000000; stroke-linecap:round; stroke-linejoin:round; stroke-width:2; stroke-opacity:0.1; fill:none" points="1488.28,798.66 1488.28,47.2441 "/>
<polyline clip-path="url(#clip652)" style="stroke:#000000; stroke-linecap:round; stroke-linejoin:round; stroke-width:2; stroke-opacity:0.1; fill:none" points="1890.92,798.66 1890.92,47.2441 "/>
<polyline clip-path="url(#clip652)" style="stroke:#000000; stroke-linecap:round; stroke-linejoin:round; stroke-width:2; stroke-opacity:0.1; fill:none" points="2293.57,798.66 2293.57,47.2441 "/>
<polyline clip-path="url(#clip650)" style="stroke:#000000; stroke-linecap:round; stroke-linejoin:round; stroke-width:4; stroke-opacity:1; fill:none" points="261.422,798.66 2352.76,798.66 "/>
<polyline clip-path="url(#clip650)" style="stroke:#000000; stroke-linecap:round; stroke-linejoin:round; stroke-width:4; stroke-opacity:1; fill:none" points="261.422,47.2441 2352.76,47.2441 "/>
<polyline clip-path="url(#clip650)" style="stroke:#000000; stroke-linecap:round; stroke-linejoin:round; stroke-width:4; stroke-opacity:1; fill:none" points="280.346,798.66 280.346,779.762 "/>
<polyline clip-path="url(#clip650)" style="stroke:#000000; stroke-linecap:round; stroke-linejoin:round; stroke-width:4; stroke-opacity:1; fill:none" points="682.99,798.66 682.99,779.762 "/>
<polyline clip-path="url(#clip650)" style="stroke:#000000; stroke-linecap:round; stroke-linejoin:round; stroke-width:4; stroke-opacity:1; fill:none" points="1085.63,798.66 1085.63,779.762 "/>
<polyline clip-path="url(#clip650)" style="stroke:#000000; stroke-linecap:round; stroke-linejoin:round; stroke-width:4; stroke-opacity:1; fill:none" points="1488.28,798.66 1488.28,779.762 "/>
<polyline clip-path="url(#clip650)" style="stroke:#000000; stroke-linecap:round; stroke-linejoin:round; stroke-width:4; stroke-opacity:1; fill:none" points="1890.92,798.66 1890.92,779.762 "/>
<polyline clip-path="url(#clip650)" style="stroke:#000000; stroke-linecap:round; stroke-linejoin:round; stroke-width:4; stroke-opacity:1; fill:none" points="2293.57,798.66 2293.57,779.762 "/>
<polyline clip-path="url(#clip650)" style="stroke:#000000; stroke-linecap:round; stroke-linejoin:round; stroke-width:4; stroke-opacity:1; fill:none" points="280.346,47.2441 280.346,66.1417 "/>
<polyline clip-path="url(#clip650)" style="stroke:#000000; stroke-linecap:round; stroke-linejoin:round; stroke-width:4; stroke-opacity:1; fill:none" points="682.99,47.2441 682.99,66.1417 "/>
<polyline clip-path="url(#clip650)" style="stroke:#000000; stroke-linecap:round; stroke-linejoin:round; stroke-width:4; stroke-opacity:1; fill:none" points="1085.63,47.2441 1085.63,66.1417 "/>
<polyline clip-path="url(#clip650)" style="stroke:#000000; stroke-linecap:round; stroke-linejoin:round; stroke-width:4; stroke-opacity:1; fill:none" points="1488.28,47.2441 1488.28,66.1417 "/>
<polyline clip-path="url(#clip650)" style="stroke:#000000; stroke-linecap:round; stroke-linejoin:round; stroke-width:4; stroke-opacity:1; fill:none" points="1890.92,47.2441 1890.92,66.1417 "/>
<polyline clip-path="url(#clip650)" style="stroke:#000000; stroke-linecap:round; stroke-linejoin:round; stroke-width:4; stroke-opacity:1; fill:none" points="2293.57,47.2441 2293.57,66.1417 "/>
<path clip-path="url(#clip650)" d="M280.346 829.579 Q276.735 829.579 274.907 833.143 Q273.101 836.685 273.101 843.815 Q273.101 850.921 274.907 854.486 Q276.735 858.027 280.346 858.027 Q283.981 858.027 285.786 854.486 Q287.615 850.921 287.615 843.815 Q287.615 836.685 285.786 833.143 Q283.981 829.579 280.346 829.579 M280.346 825.875 Q286.156 825.875 289.212 830.481 Q292.291 835.065 292.291 843.815 Q292.291 852.541 289.212 857.148 Q286.156 861.731 280.346 861.731 Q274.536 861.731 271.457 857.148 Q268.402 852.541 268.402 843.815 Q268.402 835.065 271.457 830.481 Q274.536 825.875 280.346 825.875 Z" fill="#000000" fill-rule="nonzero" fill-opacity="1" /><path clip-path="url(#clip650)" d="M627.516 857.125 L635.155 857.125 L635.155 830.759 L626.845 832.426 L626.845 828.167 L635.109 826.5 L639.785 826.5 L639.785 857.125 L647.424 857.125 L647.424 861.06 L627.516 861.06 L627.516 857.125 Z" fill="#000000" fill-rule="nonzero" fill-opacity="1" /><path clip-path="url(#clip650)" d="M666.868 829.579 Q663.257 829.579 661.428 833.143 Q659.623 836.685 659.623 843.815 Q659.623 850.921 661.428 854.486 Q663.257 858.027 666.868 858.027 Q670.502 858.027 672.308 854.486 Q674.136 850.921 674.136 843.815 Q674.136 836.685 672.308 833.143 Q670.502 829.579 666.868 829.579 M666.868 825.875 Q672.678 825.875 675.734 830.481 Q678.812 835.065 678.812 843.815 Q678.812 852.541 675.734 857.148 Q672.678 861.731 666.868 861.731 Q661.058 861.731 657.979 857.148 Q654.924 852.541 654.924 843.815 Q654.924 835.065 657.979 830.481 Q661.058 825.875 666.868 825.875 Z" fill="#000000" fill-rule="nonzero" fill-opacity="1" /><path clip-path="url(#clip650)" d="M697.03 829.579 Q693.419 829.579 691.59 833.143 Q689.784 836.685 689.784 843.815 Q689.784 850.921 691.59 854.486 Q693.419 858.027 697.03 858.027 Q700.664 858.027 702.47 854.486 Q704.298 850.921 704.298 843.815 Q704.298 836.685 702.47 833.143 Q700.664 829.579 697.03 829.579 M697.03 825.875 Q702.84 825.875 705.895 830.481 Q708.974 835.065 708.974 843.815 Q708.974 852.541 705.895 857.148 Q702.84 861.731 697.03 861.731 Q691.22 861.731 688.141 857.148 Q685.085 852.541 685.085 843.815 Q685.085 835.065 688.141 830.481 Q691.22 825.875 697.03 825.875 Z" fill="#000000" fill-rule="nonzero" fill-opacity="1" /><path clip-path="url(#clip650)" d="M727.192 829.579 Q723.581 829.579 721.752 833.143 Q719.946 836.685 719.946 843.815 Q719.946 850.921 721.752 854.486 Q723.581 858.027 727.192 858.027 Q730.826 858.027 732.631 854.486 Q734.46 850.921 734.46 843.815 Q734.46 836.685 732.631 833.143 Q730.826 829.579 727.192 829.579 M727.192 825.875 Q733.002 825.875 736.057 830.481 Q739.136 835.065 739.136 843.815 Q739.136 852.541 736.057 857.148 Q733.002 861.731 727.192 861.731 Q721.381 861.731 718.303 857.148 Q715.247 852.541 715.247 843.815 Q715.247 835.065 718.303 830.481 Q721.381 825.875 727.192 825.875 Z" fill="#000000" fill-rule="nonzero" fill-opacity="1" /><path clip-path="url(#clip650)" d="M1034.25 857.125 L1050.57 857.125 L1050.57 861.06 L1028.62 861.06 L1028.62 857.125 Q1031.28 854.37 1035.87 849.74 Q1040.47 845.088 1041.65 843.745 Q1043.9 841.222 1044.78 839.486 Q1045.68 837.727 1045.68 836.037 Q1045.68 833.282 1043.74 831.546 Q1041.82 829.81 1038.71 829.81 Q1036.51 829.81 1034.06 830.574 Q1031.63 831.338 1028.85 832.889 L1028.85 828.167 Q1031.68 827.032 1034.13 826.454 Q1036.58 825.875 1038.62 825.875 Q1043.99 825.875 1047.19 828.56 Q1050.38 831.245 1050.38 835.736 Q1050.38 837.866 1049.57 839.787 Q1048.78 841.685 1046.68 844.278 Q1046.1 844.949 1043 848.166 Q1039.89 851.361 1034.25 857.125 Z" fill="#000000" fill-rule="nonzero" fill-opacity="1" /><path clip-path="url(#clip650)" d="M1070.38 829.579 Q1066.77 829.579 1064.94 833.143 Q1063.13 836.685 1063.13 843.815 Q1063.13 850.921 1064.94 854.486 Q1066.77 858.027 1070.38 858.027 Q1074.01 858.027 1075.82 854.486 Q1077.65 850.921 1077.65 843.815 Q1077.65 836.685 1075.82 833.143 Q1074.01 829.579 1070.38 829.579 M1070.38 825.875 Q1076.19 825.875 1079.25 830.481 Q1082.32 835.065 1082.32 843.815 Q1082.32 852.541 1079.25 857.148 Q1076.19 861.731 1070.38 861.731 Q1064.57 861.731 1061.49 857.148 Q1058.44 852.541 1058.44 843.815 Q1058.44 835.065 1061.49 830.481 Q1064.57 825.875 1070.38 825.875 Z" fill="#000000" fill-rule="nonzero" fill-opacity="1" /><path clip-path="url(#clip650)" d="M1100.54 829.579 Q1096.93 829.579 1095.1 833.143 Q1093.3 836.685 1093.3 843.815 Q1093.3 850.921 1095.1 854.486 Q1096.93 858.027 1100.54 858.027 Q1104.18 858.027 1105.98 854.486 Q1107.81 850.921 1107.81 843.815 Q1107.81 836.685 1105.98 833.143 Q1104.18 829.579 1100.54 829.579 M1100.54 825.875 Q1106.35 825.875 1109.41 830.481 Q1112.49 835.065 1112.49 843.815 Q1112.49 852.541 1109.41 857.148 Q1106.35 861.731 1100.54 861.731 Q1094.73 861.731 1091.65 857.148 Q1088.6 852.541 1088.6 843.815 Q1088.6 835.065 1091.65 830.481 Q1094.73 825.875 1100.54 825.875 Z" fill="#000000" fill-rule="nonzero" fill-opacity="1" /><path clip-path="url(#clip650)" d="M1130.7 829.579 Q1127.09 829.579 1125.26 833.143 Q1123.46 836.685 1123.46 843.815 Q1123.46 850.921 1125.26 854.486 Q1127.09 858.027 1130.7 858.027 Q1134.34 858.027 1136.14 854.486 Q1137.97 850.921 1137.97 843.815 Q1137.97 836.685 1136.14 833.143 Q1134.34 829.579 1130.7 829.579 M1130.7 825.875 Q1136.51 825.875 1139.57 830.481 Q1142.65 835.065 1142.65 843.815 Q1142.65 852.541 1139.57 857.148 Q1136.51 861.731 1130.7 861.731 Q1124.89 861.731 1121.82 857.148 Q1118.76 852.541 1118.76 843.815 Q1118.76 835.065 1121.82 830.481 Q1124.89 825.875 1130.7 825.875 Z" fill="#000000" fill-rule="nonzero" fill-opacity="1" /><path clip-path="url(#clip650)" d="M1446.96 842.426 Q1450.32 843.143 1452.19 845.412 Q1454.09 847.68 1454.09 851.014 Q1454.09 856.129 1450.57 858.93 Q1447.05 861.731 1440.57 861.731 Q1438.39 861.731 1436.08 861.291 Q1433.79 860.875 1431.33 860.018 L1431.33 855.504 Q1433.28 856.639 1435.59 857.217 Q1437.91 857.796 1440.43 857.796 Q1444.83 857.796 1447.12 856.06 Q1449.44 854.324 1449.44 851.014 Q1449.44 847.958 1447.28 846.245 Q1445.15 844.509 1441.33 844.509 L1437.31 844.509 L1437.31 840.666 L1441.52 840.666 Q1444.97 840.666 1446.8 839.301 Q1448.63 837.912 1448.63 835.319 Q1448.63 832.657 1446.73 831.245 Q1444.85 829.81 1441.33 829.81 Q1439.41 829.81 1437.21 830.227 Q1435.02 830.643 1432.38 831.523 L1432.38 827.356 Q1435.04 826.616 1437.35 826.245 Q1439.69 825.875 1441.75 825.875 Q1447.08 825.875 1450.18 828.305 Q1453.28 830.713 1453.28 834.833 Q1453.28 837.703 1451.64 839.694 Q1449.99 841.662 1446.96 842.426 Z" fill="#000000" fill-rule="nonzero" fill-opacity="1" /><path clip-path="url(#clip650)" d="M1472.95 829.579 Q1469.34 829.579 1467.52 833.143 Q1465.71 836.685 1465.71 843.815 Q1465.71 850.921 1467.52 854.486 Q1469.34 858.027 1472.95 858.027 Q1476.59 858.027 1478.39 854.486 Q1480.22 850.921 1480.22 843.815 Q1480.22 836.685 1478.39 833.143 Q1476.59 829.579 1472.95 829.579 M1472.95 825.875 Q1478.77 825.875 1481.82 830.481 Q1484.9 835.065 1484.9 843.815 Q1484.9 852.541 1481.82 857.148 Q1478.77 861.731 1472.95 861.731 Q1467.14 861.731 1464.07 857.148 Q1461.01 852.541 1461.01 843.815 Q1461.01 835.065 1464.07 830.481 Q1467.14 825.875 1472.95 825.875 Z" fill="#000000" fill-rule="nonzero" fill-opacity="1" /><path clip-path="url(#clip650)" d="M1503.12 829.579 Q1499.51 829.579 1497.68 833.143 Q1495.87 836.685 1495.87 843.815 Q1495.87 850.921 1497.68 854.486 Q1499.51 858.027 1503.12 858.027 Q1506.75 858.027 1508.56 854.486 Q1510.39 850.921 1510.39 843.815 Q1510.39 836.685 1508.56 833.143 Q1506.75 829.579 1503.12 829.579 M1503.12 825.875 Q1508.93 825.875 1511.98 830.481 Q1515.06 835.065 1515.06 843.815 Q1515.06 852.541 1511.98 857.148 Q1508.93 861.731 1503.12 861.731 Q1497.31 861.731 1494.23 857.148 Q1491.17 852.541 1491.17 843.815 Q1491.17 835.065 1494.23 830.481 Q1497.31 825.875 1503.12 825.875 Z" fill="#000000" fill-rule="nonzero" fill-opacity="1" /><path clip-path="url(#clip650)" d="M1533.28 829.579 Q1529.67 829.579 1527.84 833.143 Q1526.03 836.685 1526.03 843.815 Q1526.03 850.921 1527.84 854.486 Q1529.67 858.027 1533.28 858.027 Q1536.91 858.027 1538.72 854.486 Q1540.55 850.921 1540.55 843.815 Q1540.55 836.685 1538.72 833.143 Q1536.91 829.579 1533.28 829.579 M1533.28 825.875 Q1539.09 825.875 1542.14 830.481 Q1545.22 835.065 1545.22 843.815 Q1545.22 852.541 1542.14 857.148 Q1539.09 861.731 1533.28 861.731 Q1527.47 861.731 1524.39 857.148 Q1521.33 852.541 1521.33 843.815 Q1521.33 835.065 1524.39 830.481 Q1527.47 825.875 1533.28 825.875 Z" fill="#000000" fill-rule="nonzero" fill-opacity="1" /><path clip-path="url(#clip650)" d="M1848.93 830.574 L1837.13 849.023 L1848.93 849.023 L1848.93 830.574 M1847.71 826.5 L1853.59 826.5 L1853.59 849.023 L1858.52 849.023 L1858.52 852.912 L1853.59 852.912 L1853.59 861.06 L1848.93 861.06 L1848.93 852.912 L1833.33 852.912 L1833.33 848.398 L1847.71 826.5 Z" fill="#000000" fill-rule="nonzero" fill-opacity="1" /><path clip-path="url(#clip650)" d="M1876.25 829.579 Q1872.64 829.579 1870.81 833.143 Q1869 836.685 1869 843.815 Q1869 850.921 1870.81 854.486 Q1872.64 858.027 1876.25 858.027 Q1879.88 858.027 1881.69 854.486 Q1883.52 850.921 1883.52 843.815 Q1883.52 836.685 1881.69 833.143 Q1879.88 829.579 1876.25 829.579 M1876.25 825.875 Q1882.06 825.875 1885.11 830.481 Q1888.19 835.065 1888.19 843.815 Q1888.19 852.541 1885.11 857.148 Q1882.06 861.731 1876.25 861.731 Q1870.44 861.731 1867.36 857.148 Q1864.3 852.541 1864.3 843.815 Q1864.3 835.065 1867.36 830.481 Q1870.44 825.875 1876.25 825.875 Z" fill="#000000" fill-rule="nonzero" fill-opacity="1" /><path clip-path="url(#clip650)" d="M1906.41 829.579 Q1902.8 829.579 1900.97 833.143 Q1899.16 836.685 1899.16 843.815 Q1899.16 850.921 1900.97 854.486 Q1902.8 858.027 1906.41 858.027 Q1910.04 858.027 1911.85 854.486 Q1913.68 850.921 1913.68 843.815 Q1913.68 836.685 1911.85 833.143 Q1910.04 829.579 1906.41 829.579 M1906.41 825.875 Q1912.22 825.875 1915.27 830.481 Q1918.35 835.065 1918.35 843.815 Q1918.35 852.541 1915.27 857.148 Q1912.22 861.731 1906.41 861.731 Q1900.6 861.731 1897.52 857.148 Q1894.46 852.541 1894.46 843.815 Q1894.46 835.065 1897.52 830.481 Q1900.6 825.875 1906.41 825.875 Z" fill="#000000" fill-rule="nonzero" fill-opacity="1" /><path clip-path="url(#clip650)" d="M1936.57 829.579 Q1932.96 829.579 1931.13 833.143 Q1929.33 836.685 1929.33 843.815 Q1929.33 850.921 1931.13 854.486 Q1932.96 858.027 1936.57 858.027 Q1940.21 858.027 1942.01 854.486 Q1943.84 850.921 1943.84 843.815 Q1943.84 836.685 1942.01 833.143 Q1940.21 829.579 1936.57 829.579 M1936.57 825.875 Q1942.38 825.875 1945.44 830.481 Q1948.52 835.065 1948.52 843.815 Q1948.52 852.541 1945.44 857.148 Q1942.38 861.731 1936.57 861.731 Q1930.76 861.731 1927.68 857.148 Q1924.63 852.541 1924.63 843.815 Q1924.63 835.065 1927.68 830.481 Q1930.76 825.875 1936.57 825.875 Z" fill="#000000" fill-rule="nonzero" fill-opacity="1" /><path clip-path="url(#clip650)" d="M2238.1 826.5 L2256.46 826.5 L2256.46 830.435 L2242.39 830.435 L2242.39 838.907 Q2243.41 838.56 2244.42 838.398 Q2245.44 838.213 2246.46 838.213 Q2252.25 838.213 2255.63 841.384 Q2259.01 844.555 2259.01 849.972 Q2259.01 855.551 2255.54 858.652 Q2252.06 861.731 2245.74 861.731 Q2243.57 861.731 2241.3 861.361 Q2239.05 860.99 2236.65 860.25 L2236.65 855.551 Q2238.73 856.685 2240.95 857.24 Q2243.17 857.796 2245.65 857.796 Q2249.66 857.796 2251.99 855.69 Q2254.33 853.583 2254.33 849.972 Q2254.33 846.361 2251.99 844.254 Q2249.66 842.148 2245.65 842.148 Q2243.78 842.148 2241.9 842.565 Q2240.05 842.981 2238.1 843.861 L2238.1 826.5 Z" fill="#000000" fill-rule="nonzero" fill-opacity="1" /><path clip-path="url(#clip650)" d="M2278.22 829.579 Q2274.61 829.579 2272.78 833.143 Q2270.97 836.685 2270.97 843.815 Q2270.97 850.921 2272.78 854.486 Q2274.61 858.027 2278.22 858.027 Q2281.85 858.027 2283.66 854.486 Q2285.49 850.921 2285.49 843.815 Q2285.49 836.685 2283.66 833.143 Q2281.85 829.579 2278.22 829.579 M2278.22 825.875 Q2284.03 825.875 2287.09 830.481 Q2290.16 835.065 2290.16 843.815 Q2290.16 852.541 2287.09 857.148 Q2284.03 861.731 2278.22 861.731 Q2272.41 861.731 2269.33 857.148 Q2266.28 852.541 2266.28 843.815 Q2266.28 835.065 2269.33 830.481 Q2272.41 825.875 2278.22 825.875 Z" fill="#000000" fill-rule="nonzero" fill-opacity="1" /><path clip-path="url(#clip650)" d="M2308.38 829.579 Q2304.77 829.579 2302.94 833.143 Q2301.14 836.685 2301.14 843.815 Q2301.14 850.921 2302.94 854.486 Q2304.77 858.027 2308.38 858.027 Q2312.02 858.027 2313.82 854.486 Q2315.65 850.921 2315.65 843.815 Q2315.65 836.685 2313.82 833.143 Q2312.02 829.579 2308.38 829.579 M2308.38 825.875 Q2314.19 825.875 2317.25 830.481 Q2320.33 835.065 2320.33 843.815 Q2320.33 852.541 2317.25 857.148 Q2314.19 861.731 2308.38 861.731 Q2302.57 861.731 2299.49 857.148 Q2296.44 852.541 2296.44 843.815 Q2296.44 835.065 2299.49 830.481 Q2302.57 825.875 2308.38 825.875 Z" fill="#000000" fill-rule="nonzero" fill-opacity="1" /><path clip-path="url(#clip650)" d="M2338.54 829.579 Q2334.93 829.579 2333.1 833.143 Q2331.3 836.685 2331.3 843.815 Q2331.3 850.921 2333.1 854.486 Q2334.93 858.027 2338.54 858.027 Q2342.18 858.027 2343.98 854.486 Q2345.81 850.921 2345.81 843.815 Q2345.81 836.685 2343.98 833.143 Q2342.18 829.579 2338.54 829.579 M2338.54 825.875 Q2344.35 825.875 2347.41 830.481 Q2350.49 835.065 2350.49 843.815 Q2350.49 852.541 2347.41 857.148 Q2344.35 861.731 2338.54 861.731 Q2332.73 861.731 2329.65 857.148 Q2326.6 852.541 2326.6 843.815 Q2326.6 835.065 2329.65 830.481 Q2332.73 825.875 2338.54 825.875 Z" fill="#000000" fill-rule="nonzero" fill-opacity="1" /><path clip-path="url(#clip650)" d="M1265.58 921.244 Q1267.65 921.944 1269.59 924.236 Q1271.57 926.527 1273.54 930.538 L1280.07 943.524 L1273.16 943.524 L1267.08 931.334 Q1264.73 926.559 1262.5 925 Q1260.3 923.44 1256.48 923.44 L1249.48 923.44 L1249.48 943.524 L1243.05 943.524 L1243.05 896.004 L1257.56 896.004 Q1265.71 896.004 1269.72 899.409 Q1273.73 902.815 1273.73 909.69 Q1273.73 914.178 1271.63 917.138 Q1269.56 920.098 1265.58 921.244 M1249.48 901.287 L1249.48 918.157 L1257.56 918.157 Q1262.21 918.157 1264.57 916.024 Q1266.95 913.86 1266.95 909.69 Q1266.95 905.521 1264.57 903.42 Q1262.21 901.287 1257.56 901.287 L1249.48 901.287 Z" fill="#000000" fill-rule="nonzero" fill-opacity="1" /><path clip-path="url(#clip650)" d="M1294.77 901.287 L1294.77 919.143 L1302.86 919.143 Q1307.34 919.143 1309.79 916.82 Q1312.25 914.496 1312.25 910.199 Q1312.25 905.934 1309.79 903.611 Q1307.34 901.287 1302.86 901.287 L1294.77 901.287 M1288.34 896.004 L1302.86 896.004 Q1310.84 896.004 1314.92 899.632 Q1319.02 903.229 1319.02 910.199 Q1319.02 917.233 1314.92 920.83 Q1310.84 924.427 1302.86 924.427 L1294.77 924.427 L1294.77 943.524 L1288.34 943.524 L1288.34 896.004 Z" fill="#000000" fill-rule="nonzero" fill-opacity="1" /><path clip-path="url(#clip650)" d="M1327.65 896.004 L1337.23 896.004 L1349.36 928.342 L1361.55 896.004 L1371.13 896.004 L1371.13 943.524 L1364.86 943.524 L1364.86 901.797 L1352.6 934.389 L1346.14 934.389 L1333.89 901.797 L1333.89 943.524 L1327.65 943.524 L1327.65 896.004 Z" fill="#000000" fill-rule="nonzero" fill-opacity="1" /><polyline clip-path="url(#clip652)" style="stroke:#000000; stroke-linecap:round; stroke-linejoin:round; stroke-width:2; stroke-opacity:0.1; fill:none" points="261.422,777.444 2352.76,777.444 "/>
<polyline clip-path="url(#clip652)" style="stroke:#000000; stroke-linecap:round; stroke-linejoin:round; stroke-width:2; stroke-opacity:0.1; fill:none" points="261.422,588.184 2352.76,588.184 "/>
<polyline clip-path="url(#clip652)" style="stroke:#000000; stroke-linecap:round; stroke-linejoin:round; stroke-width:2; stroke-opacity:0.1; fill:none" points="261.422,398.924 2352.76,398.924 "/>
<polyline clip-path="url(#clip652)" style="stroke:#000000; stroke-linecap:round; stroke-linejoin:round; stroke-width:2; stroke-opacity:0.1; fill:none" points="261.422,209.664 2352.76,209.664 "/>
<polyline clip-path="url(#clip652)" style="stroke:#000000; stroke-linecap:round; stroke-linejoin:round; stroke-width:2; stroke-opacity:0.1; fill:none" points="261.422,777.444 2352.76,777.444 "/>
<polyline clip-path="url(#clip652)" style="stroke:#000000; stroke-linecap:round; stroke-linejoin:round; stroke-width:2; stroke-opacity:0.1; fill:none" points="261.422,588.184 2352.76,588.184 "/>
<polyline clip-path="url(#clip652)" style="stroke:#000000; stroke-linecap:round; stroke-linejoin:round; stroke-width:2; stroke-opacity:0.1; fill:none" points="261.422,398.924 2352.76,398.924 "/>
<polyline clip-path="url(#clip652)" style="stroke:#000000; stroke-linecap:round; stroke-linejoin:round; stroke-width:2; stroke-opacity:0.1; fill:none" points="261.422,209.664 2352.76,209.664 "/>
<polyline clip-path="url(#clip650)" style="stroke:#000000; stroke-linecap:round; stroke-linejoin:round; stroke-width:4; stroke-opacity:1; fill:none" points="261.422,798.66 261.422,47.2441 "/>
<polyline clip-path="url(#clip650)" style="stroke:#000000; stroke-linecap:round; stroke-linejoin:round; stroke-width:4; stroke-opacity:1; fill:none" points="2352.76,798.66 2352.76,47.2441 "/>
<polyline clip-path="url(#clip650)" style="stroke:#000000; stroke-linecap:round; stroke-linejoin:round; stroke-width:4; stroke-opacity:1; fill:none" points="261.422,777.444 280.32,777.444 "/>
<polyline clip-path="url(#clip650)" style="stroke:#000000; stroke-linecap:round; stroke-linejoin:round; stroke-width:4; stroke-opacity:1; fill:none" points="261.422,588.184 280.32,588.184 "/>
<polyline clip-path="url(#clip650)" style="stroke:#000000; stroke-linecap:round; stroke-linejoin:round; stroke-width:4; stroke-opacity:1; fill:none" points="261.422,398.924 280.32,398.924 "/>
<polyline clip-path="url(#clip650)" style="stroke:#000000; stroke-linecap:round; stroke-linejoin:round; stroke-width:4; stroke-opacity:1; fill:none" points="261.422,209.664 280.32,209.664 "/>
<polyline clip-path="url(#clip650)" style="stroke:#000000; stroke-linecap:round; stroke-linejoin:round; stroke-width:4; stroke-opacity:1; fill:none" points="2352.76,777.444 2333.86,777.444 "/>
<polyline clip-path="url(#clip650)" style="stroke:#000000; stroke-linecap:round; stroke-linejoin:round; stroke-width:4; stroke-opacity:1; fill:none" points="2352.76,588.184 2333.86,588.184 "/>
<polyline clip-path="url(#clip650)" style="stroke:#000000; stroke-linecap:round; stroke-linejoin:round; stroke-width:4; stroke-opacity:1; fill:none" points="2352.76,398.924 2333.86,398.924 "/>
<polyline clip-path="url(#clip650)" style="stroke:#000000; stroke-linecap:round; stroke-linejoin:round; stroke-width:4; stroke-opacity:1; fill:none" points="2352.76,209.664 2333.86,209.664 "/>
<path clip-path="url(#clip650)" d="M213.478 763.243 Q209.867 763.243 208.038 766.807 Q206.232 770.349 206.232 777.479 Q206.232 784.585 208.038 788.15 Q209.867 791.691 213.478 791.691 Q217.112 791.691 218.917 788.15 Q220.746 784.585 220.746 777.479 Q220.746 770.349 218.917 766.807 Q217.112 763.243 213.478 763.243 M213.478 759.539 Q219.288 759.539 222.343 764.145 Q225.422 768.729 225.422 777.479 Q225.422 786.205 222.343 790.812 Q219.288 795.395 213.478 795.395 Q207.667 795.395 204.589 790.812 Q201.533 786.205 201.533 777.479 Q201.533 768.729 204.589 764.145 Q207.667 759.539 213.478 759.539 Z" fill="#000000" fill-rule="nonzero" fill-opacity="1" /><path clip-path="url(#clip650)" d="M209.103 601.529 L225.422 601.529 L225.422 605.464 L203.478 605.464 L203.478 601.529 Q206.14 598.774 210.723 594.145 Q215.329 589.492 216.51 588.149 Q218.755 585.626 219.635 583.89 Q220.538 582.131 220.538 580.441 Q220.538 577.686 218.593 575.95 Q216.672 574.214 213.57 574.214 Q211.371 574.214 208.917 574.978 Q206.487 575.742 203.709 577.293 L203.709 572.571 Q206.533 571.436 208.987 570.858 Q211.441 570.279 213.478 570.279 Q218.848 570.279 222.042 572.964 Q225.237 575.649 225.237 580.14 Q225.237 582.27 224.427 584.191 Q223.64 586.089 221.533 588.682 Q220.954 589.353 217.853 592.57 Q214.751 595.765 209.103 601.529 Z" fill="#000000" fill-rule="nonzero" fill-opacity="1" /><path clip-path="url(#clip650)" d="M215.839 385.718 L204.033 404.167 L215.839 404.167 L215.839 385.718 M214.612 381.644 L220.492 381.644 L220.492 404.167 L225.422 404.167 L225.422 408.056 L220.492 408.056 L220.492 416.204 L215.839 416.204 L215.839 408.056 L200.237 408.056 L200.237 403.542 L214.612 381.644 Z" fill="#000000" fill-rule="nonzero" fill-opacity="1" /><path clip-path="url(#clip650)" d="M213.894 207.801 Q210.746 207.801 208.894 209.953 Q207.066 212.106 207.066 215.856 Q207.066 219.583 208.894 221.759 Q210.746 223.912 213.894 223.912 Q217.042 223.912 218.871 221.759 Q220.723 219.583 220.723 215.856 Q220.723 212.106 218.871 209.953 Q217.042 207.801 213.894 207.801 M223.177 193.148 L223.177 197.407 Q221.417 196.574 219.612 196.134 Q217.829 195.694 216.07 195.694 Q211.441 195.694 208.987 198.819 Q206.556 201.944 206.209 208.264 Q207.575 206.25 209.635 205.185 Q211.695 204.097 214.172 204.097 Q219.38 204.097 222.39 207.268 Q225.422 210.416 225.422 215.856 Q225.422 221.18 222.274 224.398 Q219.126 227.615 213.894 227.615 Q207.899 227.615 204.728 223.032 Q201.556 218.426 201.556 209.699 Q201.556 201.504 205.445 196.643 Q209.334 191.759 215.885 191.759 Q217.644 191.759 219.427 192.106 Q221.232 192.453 223.177 193.148 Z" fill="#000000" fill-rule="nonzero" fill-opacity="1" /><path clip-path="url(#clip650)" d="M102.461 500.327 L102.461 460.128 L107.872 460.128 L107.872 476.997 L149.981 476.997 L149.981 483.458 L107.872 483.458 L107.872 500.327 L102.461 500.327 Z" fill="#000000" fill-rule="nonzero" fill-opacity="1" /><path clip-path="url(#clip650)" d="M100.456 433.996 L100.456 420.501 L105.007 420.501 L105.007 428.14 L154.023 428.14 L154.023 420.501 L158.575 420.501 L158.575 433.996 L100.456 433.996 Z" fill="#000000" fill-rule="nonzero" fill-opacity="1" /><path clip-path="url(#clip650)" d="M102.461 407.77 L102.461 399.112 L142.215 378.042 L102.461 378.042 L102.461 371.804 L149.981 371.804 L149.981 380.461 L110.227 401.531 L149.981 401.531 L149.981 407.77 L102.461 407.77 Z" fill="#000000" fill-rule="nonzero" fill-opacity="1" /><path clip-path="url(#clip650)" d="M100.456 345.577 L158.575 345.577 L158.575 359.072 L154.023 359.072 L154.023 351.465 L105.007 351.465 L105.007 359.072 L100.456 359.072 L100.456 345.577 Z" fill="#000000" fill-rule="nonzero" fill-opacity="1" /><polyline clip-path="url(#clip652)" style="stroke:#009af9; stroke-linecap:round; stroke-linejoin:round; stroke-width:4; stroke-opacity:1; fill:none" points="320.611,777.393 360.875,777.242 401.14,776.989 441.404,776.635 481.668,776.181 521.933,775.625 562.197,774.968 602.462,774.21 642.726,773.351 682.99,772.391 723.255,771.33 763.519,770.168 803.784,768.905 844.048,767.54 884.313,766.075 924.577,764.509 964.841,762.841 1005.11,761.073 1045.37,759.203 1085.63,757.233 1125.9,755.161 1166.16,752.988 1206.43,750.714 1246.69,748.34 1286.96,745.864 1327.22,743.287 1367.49,740.609 1407.75,737.83 1448.01,734.95 1488.28,731.968 1528.54,728.886 1568.81,725.703 1609.07,722.419 1649.34,719.033 1689.6,715.547 1729.87,711.959 1770.13,708.271 1810.39,704.481 1850.66,700.59 1890.92,696.599 1931.19,692.506 1971.45,688.312 2011.72,684.017 2051.98,679.621 2092.25,675.124 2132.51,670.526 2172.77,665.827 2213.04,661.027 2253.3,656.126 2293.57,651.123 "/>
<polyline clip-path="url(#clip652)" style="stroke:#e26f46; stroke-linecap:round; stroke-linejoin:round; stroke-width:4; stroke-opacity:1; fill:none" points="320.611,777.16 360.875,776.31 401.14,774.892 441.404,772.907 481.668,770.355 521.933,767.235 562.197,763.549 602.462,759.295 642.726,754.474 682.99,749.087 723.255,743.132 763.519,736.609 803.784,729.52 844.048,721.864 884.313,713.64 924.577,704.849 964.841,695.491 1005.11,685.566 1045.37,675.074 1085.63,664.015 1125.9,652.388 1166.16,640.194 1206.43,627.434 1246.69,614.106 1286.96,600.211 1327.22,585.748 1367.49,570.719 1407.75,555.122 1448.01,538.959 1488.28,522.228 1528.54,504.93 1568.81,487.065 1609.07,468.633 1649.34,449.633 1689.6,430.067 1729.87,409.933 1770.13,389.232 1810.39,367.964 1850.66,346.129 1890.92,323.727 1931.19,300.757 1971.45,277.221 2011.72,253.117 2051.98,228.446 2092.25,203.208 2132.51,177.403 2172.77,151.03 2213.04,124.091 2253.3,96.5843 2293.57,68.5106 "/>
<path clip-path="url(#clip650)" d="M331.133 227.811 L804.756 227.811 L804.756 72.2913 L331.133 72.2913  Z" fill="#ffffff" fill-rule="evenodd" fill-opacity="1"/>
<polyline clip-path="url(#clip650)" style="stroke:#000000; stroke-linecap:round; stroke-linejoin:round; stroke-width:4; stroke-opacity:0; fill:none" points="331.133,227.811 804.756,227.811 804.756,72.2913 331.133,72.2913 331.133,227.811 "/>
<polyline clip-path="url(#clip650)" style="stroke:#009af9; stroke-linecap:round; stroke-linejoin:round; stroke-width:4; stroke-opacity:1; fill:none" points="354.37,124.131 493.792,124.131 "/>
<path clip-path="url(#clip650)" d="M521.705 110.694 L521.705 137.569 L527.354 137.569 Q534.506 137.569 537.816 134.328 Q541.15 131.087 541.15 124.097 Q541.15 117.152 537.816 113.935 Q534.506 110.694 527.354 110.694 L521.705 110.694 M517.03 106.851 L526.636 106.851 Q536.682 106.851 541.381 111.041 Q546.08 115.208 546.08 124.097 Q546.08 133.032 541.358 137.221 Q536.636 141.411 526.636 141.411 L517.03 141.411 L517.03 106.851 Z" fill="#000000" fill-rule="nonzero" fill-opacity="1" /><path clip-path="url(#clip650)" d="M568.974 119.884 L598.649 119.884 L598.649 123.772 L568.974 123.772 L568.974 119.884 M568.974 129.328 L598.649 129.328 L598.649 133.263 L568.974 133.263 L568.974 129.328 Z" fill="#000000" fill-rule="nonzero" fill-opacity="1" /><path clip-path="url(#clip650)" d="M633.811 109.93 Q630.2 109.93 628.372 113.495 Q626.566 117.036 626.566 124.166 Q626.566 131.272 628.372 134.837 Q630.2 138.379 633.811 138.379 Q637.446 138.379 639.251 134.837 Q641.08 131.272 641.08 124.166 Q641.08 117.036 639.251 113.495 Q637.446 109.93 633.811 109.93 M633.811 106.226 Q639.621 106.226 642.677 110.833 Q645.756 115.416 645.756 124.166 Q645.756 132.893 642.677 137.499 Q639.621 142.083 633.811 142.083 Q628.001 142.083 624.922 137.499 Q621.867 132.893 621.867 124.166 Q621.867 115.416 624.922 110.833 Q628.001 106.226 633.811 106.226 Z" fill="#000000" fill-rule="nonzero" fill-opacity="1" /><path clip-path="url(#clip650)" d="M653.973 135.532 L658.857 135.532 L658.857 141.411 L653.973 141.411 L653.973 135.532 Z" fill="#000000" fill-rule="nonzero" fill-opacity="1" /><path clip-path="url(#clip650)" d="M669.853 137.476 L677.492 137.476 L677.492 111.111 L669.181 112.777 L669.181 108.518 L677.445 106.851 L682.121 106.851 L682.121 137.476 L689.76 137.476 L689.76 141.411 L669.853 141.411 L669.853 137.476 Z" fill="#000000" fill-rule="nonzero" fill-opacity="1" /><path clip-path="url(#clip650)" d="M699.251 106.851 L717.607 106.851 L717.607 110.786 L703.533 110.786 L703.533 119.259 Q704.552 118.911 705.57 118.749 Q706.589 118.564 707.607 118.564 Q713.394 118.564 716.774 121.735 Q720.153 124.907 720.153 130.323 Q720.153 135.902 716.681 139.004 Q713.209 142.083 706.89 142.083 Q704.714 142.083 702.445 141.712 Q700.2 141.342 697.792 140.601 L697.792 135.902 Q699.876 137.036 702.098 137.592 Q704.32 138.147 706.797 138.147 Q710.802 138.147 713.14 136.041 Q715.478 133.934 715.478 130.323 Q715.478 126.712 713.14 124.606 Q710.802 122.499 706.797 122.499 Q704.922 122.499 703.047 122.916 Q701.195 123.333 699.251 124.212 L699.251 106.851 Z" fill="#000000" fill-rule="nonzero" fill-opacity="1" /><path clip-path="url(#clip650)" d="M764.019 120.462 Q765.616 117.592 767.838 116.226 Q770.061 114.861 773.07 114.861 Q777.121 114.861 779.32 117.708 Q781.519 120.532 781.519 125.763 L781.519 141.411 L777.236 141.411 L777.236 125.902 Q777.236 122.175 775.917 120.37 Q774.598 118.564 771.889 118.564 Q768.579 118.564 766.658 120.763 Q764.737 122.962 764.737 126.759 L764.737 141.411 L760.454 141.411 L760.454 125.902 Q760.454 122.152 759.135 120.37 Q757.815 118.564 755.061 118.564 Q751.797 118.564 749.875 120.786 Q747.954 122.985 747.954 126.759 L747.954 141.411 L743.672 141.411 L743.672 115.485 L747.954 115.485 L747.954 119.513 Q749.413 117.129 751.45 115.995 Q753.487 114.861 756.287 114.861 Q759.112 114.861 761.079 116.296 Q763.07 117.731 764.019 120.462 Z" fill="#000000" fill-rule="nonzero" fill-opacity="1" /><polyline clip-path="url(#clip650)" style="stroke:#e26f46; stroke-linecap:round; stroke-linejoin:round; stroke-width:4; stroke-opacity:1; fill:none" points="354.37,175.971 493.792,175.971 "/>
<path clip-path="url(#clip650)" d="M521.705 162.534 L521.705 189.409 L527.354 189.409 Q534.506 189.409 537.816 186.168 Q541.15 182.927 541.15 175.937 Q541.15 168.992 537.816 165.775 Q534.506 162.534 527.354 162.534 L521.705 162.534 M517.03 158.691 L526.636 158.691 Q536.682 158.691 541.381 162.881 Q546.08 167.048 546.08 175.937 Q546.08 184.872 541.358 189.061 Q536.636 193.251 526.636 193.251 L517.03 193.251 L517.03 158.691 Z" fill="#000000" fill-rule="nonzero" fill-opacity="1" /><path clip-path="url(#clip650)" d="M568.974 171.724 L598.649 171.724 L598.649 175.612 L568.974 175.612 L568.974 171.724 M568.974 181.168 L598.649 181.168 L598.649 185.103 L568.974 185.103 L568.974 181.168 Z" fill="#000000" fill-rule="nonzero" fill-opacity="1" /><path clip-path="url(#clip650)" d="M633.811 161.77 Q630.2 161.77 628.372 165.335 Q626.566 168.876 626.566 176.006 Q626.566 183.112 628.372 186.677 Q630.2 190.219 633.811 190.219 Q637.446 190.219 639.251 186.677 Q641.08 183.112 641.08 176.006 Q641.08 168.876 639.251 165.335 Q637.446 161.77 633.811 161.77 M633.811 158.066 Q639.621 158.066 642.677 162.673 Q645.756 167.256 645.756 176.006 Q645.756 184.733 642.677 189.339 Q639.621 193.923 633.811 193.923 Q628.001 193.923 624.922 189.339 Q621.867 184.733 621.867 176.006 Q621.867 167.256 624.922 162.673 Q628.001 158.066 633.811 158.066 Z" fill="#000000" fill-rule="nonzero" fill-opacity="1" /><path clip-path="url(#clip650)" d="M653.973 187.372 L658.857 187.372 L658.857 193.251 L653.973 193.251 L653.973 187.372 Z" fill="#000000" fill-rule="nonzero" fill-opacity="1" /><path clip-path="url(#clip650)" d="M673.07 189.316 L689.39 189.316 L689.39 193.251 L667.445 193.251 L667.445 189.316 Q670.107 186.562 674.691 181.932 Q679.297 177.279 680.478 175.937 Q682.723 173.413 683.603 171.677 Q684.505 169.918 684.505 168.228 Q684.505 165.474 682.561 163.738 Q680.64 162.001 677.538 162.001 Q675.339 162.001 672.885 162.765 Q670.455 163.529 667.677 165.08 L667.677 160.358 Q670.501 159.224 672.955 158.645 Q675.408 158.066 677.445 158.066 Q682.816 158.066 686.01 160.751 Q689.205 163.437 689.205 167.927 Q689.205 170.057 688.394 171.978 Q687.607 173.876 685.501 176.469 Q684.922 177.14 681.82 180.358 Q678.718 183.552 673.07 189.316 Z" fill="#000000" fill-rule="nonzero" fill-opacity="1" /><path clip-path="url(#clip650)" d="M699.251 158.691 L717.607 158.691 L717.607 162.626 L703.533 162.626 L703.533 171.099 Q704.552 170.751 705.57 170.589 Q706.589 170.404 707.607 170.404 Q713.394 170.404 716.774 173.575 Q720.153 176.747 720.153 182.163 Q720.153 187.742 716.681 190.844 Q713.209 193.923 706.89 193.923 Q704.714 193.923 702.445 193.552 Q700.2 193.182 697.792 192.441 L697.792 187.742 Q699.876 188.876 702.098 189.432 Q704.32 189.987 706.797 189.987 Q710.802 189.987 713.14 187.881 Q715.478 185.774 715.478 182.163 Q715.478 178.552 713.14 176.446 Q710.802 174.339 706.797 174.339 Q704.922 174.339 703.047 174.756 Q701.195 175.173 699.251 176.052 L699.251 158.691 Z" fill="#000000" fill-rule="nonzero" fill-opacity="1" /><path clip-path="url(#clip650)" d="M764.019 172.302 Q765.616 169.432 767.838 168.066 Q770.061 166.701 773.07 166.701 Q777.121 166.701 779.32 169.548 Q781.519 172.372 781.519 177.603 L781.519 193.251 L777.236 193.251 L777.236 177.742 Q777.236 174.015 775.917 172.21 Q774.598 170.404 771.889 170.404 Q768.579 170.404 766.658 172.603 Q764.737 174.802 764.737 178.599 L764.737 193.251 L760.454 193.251 L760.454 177.742 Q760.454 173.992 759.135 172.21 Q757.815 170.404 755.061 170.404 Q751.797 170.404 749.875 172.626 Q747.954 174.825 747.954 178.599 L747.954 193.251 L743.672 193.251 L743.672 167.325 L747.954 167.325 L747.954 171.353 Q749.413 168.969 751.45 167.835 Q753.487 166.701 756.287 166.701 Q759.112 166.701 761.079 168.136 Q763.07 169.571 764.019 172.302 Z" fill="#000000" fill-rule="nonzero" fill-opacity="1" /><path clip-path="url(#clip650)" d="M261.422 1798.66 L2352.76 1798.66 L2352.76 1047.24 L261.422 1047.24  Z" fill="#ffffff" fill-rule="evenodd" fill-opacity="1"/>
<defs>
  <clipPath id="clip653">
    <rect x="261" y="1047" width="2092" height="752"/>
  </clipPath>
</defs>
<polyline clip-path="url(#clip653)" style="stroke:#000000; stroke-linecap:round; stroke-linejoin:round; stroke-width:2; stroke-opacity:0.1; fill:none" points="280.346,1798.66 280.346,1047.24 "/>
<polyline clip-path="url(#clip653)" style="stroke:#000000; stroke-linecap:round; stroke-linejoin:round; stroke-width:2; stroke-opacity:0.1; fill:none" points="682.99,1798.66 682.99,1047.24 "/>
<polyline clip-path="url(#clip653)" style="stroke:#000000; stroke-linecap:round; stroke-linejoin:round; stroke-width:2; stroke-opacity:0.1; fill:none" points="1085.63,1798.66 1085.63,1047.24 "/>
<polyline clip-path="url(#clip653)" style="stroke:#000000; stroke-linecap:round; stroke-linejoin:round; stroke-width:2; stroke-opacity:0.1; fill:none" points="1488.28,1798.66 1488.28,1047.24 "/>
<polyline clip-path="url(#clip653)" style="stroke:#000000; stroke-linecap:round; stroke-linejoin:round; stroke-width:2; stroke-opacity:0.1; fill:none" points="1890.92,1798.66 1890.92,1047.24 "/>
<polyline clip-path="url(#clip653)" style="stroke:#000000; stroke-linecap:round; stroke-linejoin:round; stroke-width:2; stroke-opacity:0.1; fill:none" points="2293.57,1798.66 2293.57,1047.24 "/>
<polyline clip-path="url(#clip653)" style="stroke:#000000; stroke-linecap:round; stroke-linejoin:round; stroke-width:2; stroke-opacity:0.1; fill:none" points="280.346,1798.66 280.346,1047.24 "/>
<polyline clip-path="url(#clip653)" style="stroke:#000000; stroke-linecap:round; stroke-linejoin:round; stroke-width:2; stroke-opacity:0.1; fill:none" points="682.99,1798.66 682.99,1047.24 "/>
<polyline clip-path="url(#clip653)" style="stroke:#000000; stroke-linecap:round; stroke-linejoin:round; stroke-width:2; stroke-opacity:0.1; fill:none" points="1085.63,1798.66 1085.63,1047.24 "/>
<polyline clip-path="url(#clip653)" style="stroke:#000000; stroke-linecap:round; stroke-linejoin:round; stroke-width:2; stroke-opacity:0.1; fill:none" points="1488.28,1798.66 1488.28,1047.24 "/>
<polyline clip-path="url(#clip653)" style="stroke:#000000; stroke-linecap:round; stroke-linejoin:round; stroke-width:2; stroke-opacity:0.1; fill:none" points="1890.92,1798.66 1890.92,1047.24 "/>
<polyline clip-path="url(#clip653)" style="stroke:#000000; stroke-linecap:round; stroke-linejoin:round; stroke-width:2; stroke-opacity:0.1; fill:none" points="2293.57,1798.66 2293.57,1047.24 "/>
<polyline clip-path="url(#clip650)" style="stroke:#000000; stroke-linecap:round; stroke-linejoin:round; stroke-width:4; stroke-opacity:1; fill:none" points="261.422,1798.66 2352.76,1798.66 "/>
<polyline clip-path="url(#clip650)" style="stroke:#000000; stroke-linecap:round; stroke-linejoin:round; stroke-width:4; stroke-opacity:1; fill:none" points="261.422,1047.24 2352.76,1047.24 "/>
<polyline clip-path="url(#clip650)" style="stroke:#000000; stroke-linecap:round; stroke-linejoin:round; stroke-width:4; stroke-opacity:1; fill:none" points="280.346,1798.66 280.346,1779.76 "/>
<polyline clip-path="url(#clip650)" style="stroke:#000000; stroke-linecap:round; stroke-linejoin:round; stroke-width:4; stroke-opacity:1; fill:none" points="682.99,1798.66 682.99,1779.76 "/>
<polyline clip-path="url(#clip650)" style="stroke:#000000; stroke-linecap:round; stroke-linejoin:round; stroke-width:4; stroke-opacity:1; fill:none" points="1085.63,1798.66 1085.63,1779.76 "/>
<polyline clip-path="url(#clip650)" style="stroke:#000000; stroke-linecap:round; stroke-linejoin:round; stroke-width:4; stroke-opacity:1; fill:none" points="1488.28,1798.66 1488.28,1779.76 "/>
<polyline clip-path="url(#clip650)" style="stroke:#000000; stroke-linecap:round; stroke-linejoin:round; stroke-width:4; stroke-opacity:1; fill:none" points="1890.92,1798.66 1890.92,1779.76 "/>
<polyline clip-path="url(#clip650)" style="stroke:#000000; stroke-linecap:round; stroke-linejoin:round; stroke-width:4; stroke-opacity:1; fill:none" points="2293.57,1798.66 2293.57,1779.76 "/>
<polyline clip-path="url(#clip650)" style="stroke:#000000; stroke-linecap:round; stroke-linejoin:round; stroke-width:4; stroke-opacity:1; fill:none" points="280.346,1047.24 280.346,1066.14 "/>
<polyline clip-path="url(#clip650)" style="stroke:#000000; stroke-linecap:round; stroke-linejoin:round; stroke-width:4; stroke-opacity:1; fill:none" points="682.99,1047.24 682.99,1066.14 "/>
<polyline clip-path="url(#clip650)" style="stroke:#000000; stroke-linecap:round; stroke-linejoin:round; stroke-width:4; stroke-opacity:1; fill:none" points="1085.63,1047.24 1085.63,1066.14 "/>
<polyline clip-path="url(#clip650)" style="stroke:#000000; stroke-linecap:round; stroke-linejoin:round; stroke-width:4; stroke-opacity:1; fill:none" points="1488.28,1047.24 1488.28,1066.14 "/>
<polyline clip-path="url(#clip650)" style="stroke:#000000; stroke-linecap:round; stroke-linejoin:round; stroke-width:4; stroke-opacity:1; fill:none" points="1890.92,1047.24 1890.92,1066.14 "/>
<polyline clip-path="url(#clip650)" style="stroke:#000000; stroke-linecap:round; stroke-linejoin:round; stroke-width:4; stroke-opacity:1; fill:none" points="2293.57,1047.24 2293.57,1066.14 "/>
<path clip-path="url(#clip650)" d="M280.346 1829.58 Q276.735 1829.58 274.907 1833.14 Q273.101 1836.68 273.101 1843.81 Q273.101 1850.92 274.907 1854.49 Q276.735 1858.03 280.346 1858.03 Q283.981 1858.03 285.786 1854.49 Q287.615 1850.92 287.615 1843.81 Q287.615 1836.68 285.786 1833.14 Q283.981 1829.58 280.346 1829.58 M280.346 1825.87 Q286.156 1825.87 289.212 1830.48 Q292.291 1835.06 292.291 1843.81 Q292.291 1852.54 289.212 1857.15 Q286.156 1861.73 280.346 1861.73 Q274.536 1861.73 271.457 1857.15 Q268.402 1852.54 268.402 1843.81 Q268.402 1835.06 271.457 1830.48 Q274.536 1825.87 280.346 1825.87 Z" fill="#000000" fill-rule="nonzero" fill-opacity="1" /><path clip-path="url(#clip650)" d="M627.516 1857.12 L635.155 1857.12 L635.155 1830.76 L626.845 1832.43 L626.845 1828.17 L635.109 1826.5 L639.785 1826.5 L639.785 1857.12 L647.424 1857.12 L647.424 1861.06 L627.516 1861.06 L627.516 1857.12 Z" fill="#000000" fill-rule="nonzero" fill-opacity="1" /><path clip-path="url(#clip650)" d="M666.868 1829.58 Q663.257 1829.58 661.428 1833.14 Q659.623 1836.68 659.623 1843.81 Q659.623 1850.92 661.428 1854.49 Q663.257 1858.03 666.868 1858.03 Q670.502 1858.03 672.308 1854.49 Q674.136 1850.92 674.136 1843.81 Q674.136 1836.68 672.308 1833.14 Q670.502 1829.58 666.868 1829.58 M666.868 1825.87 Q672.678 1825.87 675.734 1830.48 Q678.812 1835.06 678.812 1843.81 Q678.812 1852.54 675.734 1857.15 Q672.678 1861.73 666.868 1861.73 Q661.058 1861.73 657.979 1857.15 Q654.924 1852.54 654.924 1843.81 Q654.924 1835.06 657.979 1830.48 Q661.058 1825.87 666.868 1825.87 Z" fill="#000000" fill-rule="nonzero" fill-opacity="1" /><path clip-path="url(#clip650)" d="M697.03 1829.58 Q693.419 1829.58 691.59 1833.14 Q689.784 1836.68 689.784 1843.81 Q689.784 1850.92 691.59 1854.49 Q693.419 1858.03 697.03 1858.03 Q700.664 1858.03 702.47 1854.49 Q704.298 1850.92 704.298 1843.81 Q704.298 1836.68 702.47 1833.14 Q700.664 1829.58 697.03 1829.58 M697.03 1825.87 Q702.84 1825.87 705.895 1830.48 Q708.974 1835.06 708.974 1843.81 Q708.974 1852.54 705.895 1857.15 Q702.84 1861.73 697.03 1861.73 Q691.22 1861.73 688.141 1857.15 Q685.085 1852.54 685.085 1843.81 Q685.085 1835.06 688.141 1830.48 Q691.22 1825.87 697.03 1825.87 Z" fill="#000000" fill-rule="nonzero" fill-opacity="1" /><path clip-path="url(#clip650)" d="M727.192 1829.58 Q723.581 1829.58 721.752 1833.14 Q719.946 1836.68 719.946 1843.81 Q719.946 1850.92 721.752 1854.49 Q723.581 1858.03 727.192 1858.03 Q730.826 1858.03 732.631 1854.49 Q734.46 1850.92 734.46 1843.81 Q734.46 1836.68 732.631 1833.14 Q730.826 1829.58 727.192 1829.58 M727.192 1825.87 Q733.002 1825.87 736.057 1830.48 Q739.136 1835.06 739.136 1843.81 Q739.136 1852.54 736.057 1857.15 Q733.002 1861.73 727.192 1861.73 Q721.381 1861.73 718.303 1857.15 Q715.247 1852.54 715.247 1843.81 Q715.247 1835.06 718.303 1830.48 Q721.381 1825.87 727.192 1825.87 Z" fill="#000000" fill-rule="nonzero" fill-opacity="1" /><path clip-path="url(#clip650)" d="M1034.25 1857.12 L1050.57 1857.12 L1050.57 1861.06 L1028.62 1861.06 L1028.62 1857.12 Q1031.28 1854.37 1035.87 1849.74 Q1040.47 1845.09 1041.65 1843.75 Q1043.9 1841.22 1044.78 1839.49 Q1045.68 1837.73 1045.68 1836.04 Q1045.68 1833.28 1043.74 1831.55 Q1041.82 1829.81 1038.71 1829.81 Q1036.51 1829.81 1034.06 1830.57 Q1031.63 1831.34 1028.85 1832.89 L1028.85 1828.17 Q1031.68 1827.03 1034.13 1826.45 Q1036.58 1825.87 1038.62 1825.87 Q1043.99 1825.87 1047.19 1828.56 Q1050.38 1831.25 1050.38 1835.74 Q1050.38 1837.87 1049.57 1839.79 Q1048.78 1841.68 1046.68 1844.28 Q1046.1 1844.95 1043 1848.17 Q1039.89 1851.36 1034.25 1857.12 Z" fill="#000000" fill-rule="nonzero" fill-opacity="1" /><path clip-path="url(#clip650)" d="M1070.38 1829.58 Q1066.77 1829.58 1064.94 1833.14 Q1063.13 1836.68 1063.13 1843.81 Q1063.13 1850.92 1064.94 1854.49 Q1066.77 1858.03 1070.38 1858.03 Q1074.01 1858.03 1075.82 1854.49 Q1077.65 1850.92 1077.65 1843.81 Q1077.65 1836.68 1075.82 1833.14 Q1074.01 1829.58 1070.38 1829.58 M1070.38 1825.87 Q1076.19 1825.87 1079.25 1830.48 Q1082.32 1835.06 1082.32 1843.81 Q1082.32 1852.54 1079.25 1857.15 Q1076.19 1861.73 1070.38 1861.73 Q1064.57 1861.73 1061.49 1857.15 Q1058.44 1852.54 1058.44 1843.81 Q1058.44 1835.06 1061.49 1830.48 Q1064.57 1825.87 1070.38 1825.87 Z" fill="#000000" fill-rule="nonzero" fill-opacity="1" /><path clip-path="url(#clip650)" d="M1100.54 1829.58 Q1096.93 1829.58 1095.1 1833.14 Q1093.3 1836.68 1093.3 1843.81 Q1093.3 1850.92 1095.1 1854.49 Q1096.93 1858.03 1100.54 1858.03 Q1104.18 1858.03 1105.98 1854.49 Q1107.81 1850.92 1107.81 1843.81 Q1107.81 1836.68 1105.98 1833.14 Q1104.18 1829.58 1100.54 1829.58 M1100.54 1825.87 Q1106.35 1825.87 1109.41 1830.48 Q1112.49 1835.06 1112.49 1843.81 Q1112.49 1852.54 1109.41 1857.15 Q1106.35 1861.73 1100.54 1861.73 Q1094.73 1861.73 1091.65 1857.15 Q1088.6 1852.54 1088.6 1843.81 Q1088.6 1835.06 1091.65 1830.48 Q1094.73 1825.87 1100.54 1825.87 Z" fill="#000000" fill-rule="nonzero" fill-opacity="1" /><path clip-path="url(#clip650)" d="M1130.7 1829.58 Q1127.09 1829.58 1125.26 1833.14 Q1123.46 1836.68 1123.46 1843.81 Q1123.46 1850.92 1125.26 1854.49 Q1127.09 1858.03 1130.7 1858.03 Q1134.34 1858.03 1136.14 1854.49 Q1137.97 1850.92 1137.97 1843.81 Q1137.97 1836.68 1136.14 1833.14 Q1134.34 1829.58 1130.7 1829.58 M1130.7 1825.87 Q1136.51 1825.87 1139.57 1830.48 Q1142.65 1835.06 1142.65 1843.81 Q1142.65 1852.54 1139.57 1857.15 Q1136.51 1861.73 1130.7 1861.73 Q1124.89 1861.73 1121.82 1857.15 Q1118.76 1852.54 1118.76 1843.81 Q1118.76 1835.06 1121.82 1830.48 Q1124.89 1825.87 1130.7 1825.87 Z" fill="#000000" fill-rule="nonzero" fill-opacity="1" /><path clip-path="url(#clip650)" d="M1446.96 1842.43 Q1450.32 1843.14 1452.19 1845.41 Q1454.09 1847.68 1454.09 1851.01 Q1454.09 1856.13 1450.57 1858.93 Q1447.05 1861.73 1440.57 1861.73 Q1438.39 1861.73 1436.08 1861.29 Q1433.79 1860.87 1431.33 1860.02 L1431.33 1855.5 Q1433.28 1856.64 1435.59 1857.22 Q1437.91 1857.8 1440.43 1857.8 Q1444.83 1857.8 1447.12 1856.06 Q1449.44 1854.32 1449.44 1851.01 Q1449.44 1847.96 1447.28 1846.25 Q1445.15 1844.51 1441.33 1844.51 L1437.31 1844.51 L1437.31 1840.67 L1441.52 1840.67 Q1444.97 1840.67 1446.8 1839.3 Q1448.63 1837.91 1448.63 1835.32 Q1448.63 1832.66 1446.73 1831.25 Q1444.85 1829.81 1441.33 1829.81 Q1439.41 1829.81 1437.21 1830.23 Q1435.02 1830.64 1432.38 1831.52 L1432.38 1827.36 Q1435.04 1826.62 1437.35 1826.25 Q1439.69 1825.87 1441.75 1825.87 Q1447.08 1825.87 1450.18 1828.31 Q1453.28 1830.71 1453.28 1834.83 Q1453.28 1837.7 1451.64 1839.69 Q1449.99 1841.66 1446.96 1842.43 Z" fill="#000000" fill-rule="nonzero" fill-opacity="1" /><path clip-path="url(#clip650)" d="M1472.95 1829.58 Q1469.34 1829.58 1467.52 1833.14 Q1465.71 1836.68 1465.71 1843.81 Q1465.71 1850.92 1467.52 1854.49 Q1469.34 1858.03 1472.95 1858.03 Q1476.59 1858.03 1478.39 1854.49 Q1480.22 1850.92 1480.22 1843.81 Q1480.22 1836.68 1478.39 1833.14 Q1476.59 1829.58 1472.95 1829.58 M1472.95 1825.87 Q1478.77 1825.87 1481.82 1830.48 Q1484.9 1835.06 1484.9 1843.81 Q1484.9 1852.54 1481.82 1857.15 Q1478.77 1861.73 1472.95 1861.73 Q1467.14 1861.73 1464.07 1857.15 Q1461.01 1852.54 1461.01 1843.81 Q1461.01 1835.06 1464.07 1830.48 Q1467.14 1825.87 1472.95 1825.87 Z" fill="#000000" fill-rule="nonzero" fill-opacity="1" /><path clip-path="url(#clip650)" d="M1503.12 1829.58 Q1499.51 1829.58 1497.68 1833.14 Q1495.87 1836.68 1495.87 1843.81 Q1495.87 1850.92 1497.68 1854.49 Q1499.51 1858.03 1503.12 1858.03 Q1506.75 1858.03 1508.56 1854.49 Q1510.39 1850.92 1510.39 1843.81 Q1510.39 1836.68 1508.56 1833.14 Q1506.75 1829.58 1503.12 1829.58 M1503.12 1825.87 Q1508.93 1825.87 1511.98 1830.48 Q1515.06 1835.06 1515.06 1843.81 Q1515.06 1852.54 1511.98 1857.15 Q1508.93 1861.73 1503.12 1861.73 Q1497.31 1861.73 1494.23 1857.15 Q1491.17 1852.54 1491.17 1843.81 Q1491.17 1835.06 1494.23 1830.48 Q1497.31 1825.87 1503.12 1825.87 Z" fill="#000000" fill-rule="nonzero" fill-opacity="1" /><path clip-path="url(#clip650)" d="M1533.28 1829.58 Q1529.67 1829.58 1527.84 1833.14 Q1526.03 1836.68 1526.03 1843.81 Q1526.03 1850.92 1527.84 1854.49 Q1529.67 1858.03 1533.28 1858.03 Q1536.91 1858.03 1538.72 1854.49 Q1540.55 1850.92 1540.55 1843.81 Q1540.55 1836.68 1538.72 1833.14 Q1536.91 1829.58 1533.28 1829.58 M1533.28 1825.87 Q1539.09 1825.87 1542.14 1830.48 Q1545.22 1835.06 1545.22 1843.81 Q1545.22 1852.54 1542.14 1857.15 Q1539.09 1861.73 1533.28 1861.73 Q1527.47 1861.73 1524.39 1857.15 Q1521.33 1852.54 1521.33 1843.81 Q1521.33 1835.06 1524.39 1830.48 Q1527.47 1825.87 1533.28 1825.87 Z" fill="#000000" fill-rule="nonzero" fill-opacity="1" /><path clip-path="url(#clip650)" d="M1848.93 1830.57 L1837.13 1849.02 L1848.93 1849.02 L1848.93 1830.57 M1847.71 1826.5 L1853.59 1826.5 L1853.59 1849.02 L1858.52 1849.02 L1858.52 1852.91 L1853.59 1852.91 L1853.59 1861.06 L1848.93 1861.06 L1848.93 1852.91 L1833.33 1852.91 L1833.33 1848.4 L1847.71 1826.5 Z" fill="#000000" fill-rule="nonzero" fill-opacity="1" /><path clip-path="url(#clip650)" d="M1876.25 1829.58 Q1872.64 1829.58 1870.81 1833.14 Q1869 1836.68 1869 1843.81 Q1869 1850.92 1870.81 1854.49 Q1872.64 1858.03 1876.25 1858.03 Q1879.88 1858.03 1881.69 1854.49 Q1883.52 1850.92 1883.52 1843.81 Q1883.52 1836.68 1881.69 1833.14 Q1879.88 1829.58 1876.25 1829.58 M1876.25 1825.87 Q1882.06 1825.87 1885.11 1830.48 Q1888.19 1835.06 1888.19 1843.81 Q1888.19 1852.54 1885.11 1857.15 Q1882.06 1861.73 1876.25 1861.73 Q1870.44 1861.73 1867.36 1857.15 Q1864.3 1852.54 1864.3 1843.81 Q1864.3 1835.06 1867.36 1830.48 Q1870.44 1825.87 1876.25 1825.87 Z" fill="#000000" fill-rule="nonzero" fill-opacity="1" /><path clip-path="url(#clip650)" d="M1906.41 1829.58 Q1902.8 1829.58 1900.97 1833.14 Q1899.16 1836.68 1899.16 1843.81 Q1899.16 1850.92 1900.97 1854.49 Q1902.8 1858.03 1906.41 1858.03 Q1910.04 1858.03 1911.85 1854.49 Q1913.68 1850.92 1913.68 1843.81 Q1913.68 1836.68 1911.85 1833.14 Q1910.04 1829.58 1906.41 1829.58 M1906.41 1825.87 Q1912.22 1825.87 1915.27 1830.48 Q1918.35 1835.06 1918.35 1843.81 Q1918.35 1852.54 1915.27 1857.15 Q1912.22 1861.73 1906.41 1861.73 Q1900.6 1861.73 1897.52 1857.15 Q1894.46 1852.54 1894.46 1843.81 Q1894.46 1835.06 1897.52 1830.48 Q1900.6 1825.87 1906.41 1825.87 Z" fill="#000000" fill-rule="nonzero" fill-opacity="1" /><path clip-path="url(#clip650)" d="M1936.57 1829.58 Q1932.96 1829.58 1931.13 1833.14 Q1929.33 1836.68 1929.33 1843.81 Q1929.33 1850.92 1931.13 1854.49 Q1932.96 1858.03 1936.57 1858.03 Q1940.21 1858.03 1942.01 1854.49 Q1943.84 1850.92 1943.84 1843.81 Q1943.84 1836.68 1942.01 1833.14 Q1940.21 1829.58 1936.57 1829.58 M1936.57 1825.87 Q1942.38 1825.87 1945.44 1830.48 Q1948.52 1835.06 1948.52 1843.81 Q1948.52 1852.54 1945.44 1857.15 Q1942.38 1861.73 1936.57 1861.73 Q1930.76 1861.73 1927.68 1857.15 Q1924.63 1852.54 1924.63 1843.81 Q1924.63 1835.06 1927.68 1830.48 Q1930.76 1825.87 1936.57 1825.87 Z" fill="#000000" fill-rule="nonzero" fill-opacity="1" /><path clip-path="url(#clip650)" d="M2238.1 1826.5 L2256.46 1826.5 L2256.46 1830.44 L2242.39 1830.44 L2242.39 1838.91 Q2243.41 1838.56 2244.42 1838.4 Q2245.44 1838.21 2246.46 1838.21 Q2252.25 1838.21 2255.63 1841.38 Q2259.01 1844.56 2259.01 1849.97 Q2259.01 1855.55 2255.54 1858.65 Q2252.06 1861.73 2245.74 1861.73 Q2243.57 1861.73 2241.3 1861.36 Q2239.05 1860.99 2236.65 1860.25 L2236.65 1855.55 Q2238.73 1856.68 2240.95 1857.24 Q2243.17 1857.8 2245.65 1857.8 Q2249.66 1857.8 2251.99 1855.69 Q2254.33 1853.58 2254.33 1849.97 Q2254.33 1846.36 2251.99 1844.25 Q2249.66 1842.15 2245.65 1842.15 Q2243.78 1842.15 2241.9 1842.56 Q2240.05 1842.98 2238.1 1843.86 L2238.1 1826.5 Z" fill="#000000" fill-rule="nonzero" fill-opacity="1" /><path clip-path="url(#clip650)" d="M2278.22 1829.58 Q2274.61 1829.58 2272.78 1833.14 Q2270.97 1836.68 2270.97 1843.81 Q2270.97 1850.92 2272.78 1854.49 Q2274.61 1858.03 2278.22 1858.03 Q2281.85 1858.03 2283.66 1854.49 Q2285.49 1850.92 2285.49 1843.81 Q2285.49 1836.68 2283.66 1833.14 Q2281.85 1829.58 2278.22 1829.58 M2278.22 1825.87 Q2284.03 1825.87 2287.09 1830.48 Q2290.16 1835.06 2290.16 1843.81 Q2290.16 1852.54 2287.09 1857.15 Q2284.03 1861.73 2278.22 1861.73 Q2272.41 1861.73 2269.33 1857.15 Q2266.28 1852.54 2266.28 1843.81 Q2266.28 1835.06 2269.33 1830.48 Q2272.41 1825.87 2278.22 1825.87 Z" fill="#000000" fill-rule="nonzero" fill-opacity="1" /><path clip-path="url(#clip650)" d="M2308.38 1829.58 Q2304.77 1829.58 2302.94 1833.14 Q2301.14 1836.68 2301.14 1843.81 Q2301.14 1850.92 2302.94 1854.49 Q2304.77 1858.03 2308.38 1858.03 Q2312.02 1858.03 2313.82 1854.49 Q2315.65 1850.92 2315.65 1843.81 Q2315.65 1836.68 2313.82 1833.14 Q2312.02 1829.58 2308.38 1829.58 M2308.38 1825.87 Q2314.19 1825.87 2317.25 1830.48 Q2320.33 1835.06 2320.33 1843.81 Q2320.33 1852.54 2317.25 1857.15 Q2314.19 1861.73 2308.38 1861.73 Q2302.57 1861.73 2299.49 1857.15 Q2296.44 1852.54 2296.44 1843.81 Q2296.44 1835.06 2299.49 1830.48 Q2302.57 1825.87 2308.38 1825.87 Z" fill="#000000" fill-rule="nonzero" fill-opacity="1" /><path clip-path="url(#clip650)" d="M2338.54 1829.58 Q2334.93 1829.58 2333.1 1833.14 Q2331.3 1836.68 2331.3 1843.81 Q2331.3 1850.92 2333.1 1854.49 Q2334.93 1858.03 2338.54 1858.03 Q2342.18 1858.03 2343.98 1854.49 Q2345.81 1850.92 2345.81 1843.81 Q2345.81 1836.68 2343.98 1833.14 Q2342.18 1829.58 2338.54 1829.58 M2338.54 1825.87 Q2344.35 1825.87 2347.41 1830.48 Q2350.49 1835.06 2350.49 1843.81 Q2350.49 1852.54 2347.41 1857.15 Q2344.35 1861.73 2338.54 1861.73 Q2332.73 1861.73 2329.65 1857.15 Q2326.6 1852.54 2326.6 1843.81 Q2326.6 1835.06 2329.65 1830.48 Q2332.73 1825.87 2338.54 1825.87 Z" fill="#000000" fill-rule="nonzero" fill-opacity="1" /><path clip-path="url(#clip650)" d="M1265.58 1921.24 Q1267.65 1921.94 1269.59 1924.24 Q1271.57 1926.53 1273.54 1930.54 L1280.07 1943.52 L1273.16 1943.52 L1267.08 1931.33 Q1264.73 1926.56 1262.5 1925 Q1260.3 1923.44 1256.48 1923.44 L1249.48 1923.44 L1249.48 1943.52 L1243.05 1943.52 L1243.05 1896 L1257.56 1896 Q1265.71 1896 1269.72 1899.41 Q1273.73 1902.82 1273.73 1909.69 Q1273.73 1914.18 1271.63 1917.14 Q1269.56 1920.1 1265.58 1921.24 M1249.48 1901.29 L1249.48 1918.16 L1257.56 1918.16 Q1262.21 1918.16 1264.57 1916.02 Q1266.95 1913.86 1266.95 1909.69 Q1266.95 1905.52 1264.57 1903.42 Q1262.21 1901.29 1257.56 1901.29 L1249.48 1901.29 Z" fill="#000000" fill-rule="nonzero" fill-opacity="1" /><path clip-path="url(#clip650)" d="M1294.77 1901.29 L1294.77 1919.14 L1302.86 1919.14 Q1307.34 1919.14 1309.79 1916.82 Q1312.25 1914.5 1312.25 1910.2 Q1312.25 1905.93 1309.79 1903.61 Q1307.34 1901.29 1302.86 1901.29 L1294.77 1901.29 M1288.34 1896 L1302.86 1896 Q1310.84 1896 1314.92 1899.63 Q1319.02 1903.23 1319.02 1910.2 Q1319.02 1917.23 1314.92 1920.83 Q1310.84 1924.43 1302.86 1924.43 L1294.77 1924.43 L1294.77 1943.52 L1288.34 1943.52 L1288.34 1896 Z" fill="#000000" fill-rule="nonzero" fill-opacity="1" /><path clip-path="url(#clip650)" d="M1327.65 1896 L1337.23 1896 L1349.36 1928.34 L1361.55 1896 L1371.13 1896 L1371.13 1943.52 L1364.86 1943.52 L1364.86 1901.8 L1352.6 1934.39 L1346.14 1934.39 L1333.89 1901.8 L1333.89 1943.52 L1327.65 1943.52 L1327.65 1896 Z" fill="#000000" fill-rule="nonzero" fill-opacity="1" /><polyline clip-path="url(#clip653)" style="stroke:#000000; stroke-linecap:round; stroke-linejoin:round; stroke-width:2; stroke-opacity:0.1; fill:none" points="261.422,1777.43 2352.76,1777.43 "/>
<polyline clip-path="url(#clip653)" style="stroke:#000000; stroke-linecap:round; stroke-linejoin:round; stroke-width:2; stroke-opacity:0.1; fill:none" points="261.422,1548.12 2352.76,1548.12 "/>
<polyline clip-path="url(#clip653)" style="stroke:#000000; stroke-linecap:round; stroke-linejoin:round; stroke-width:2; stroke-opacity:0.1; fill:none" points="261.422,1318.81 2352.76,1318.81 "/>
<polyline clip-path="url(#clip653)" style="stroke:#000000; stroke-linecap:round; stroke-linejoin:round; stroke-width:2; stroke-opacity:0.1; fill:none" points="261.422,1089.51 2352.76,1089.51 "/>
<polyline clip-path="url(#clip653)" style="stroke:#000000; stroke-linecap:round; stroke-linejoin:round; stroke-width:2; stroke-opacity:0.1; fill:none" points="261.422,1777.43 2352.76,1777.43 "/>
<polyline clip-path="url(#clip653)" style="stroke:#000000; stroke-linecap:round; stroke-linejoin:round; stroke-width:2; stroke-opacity:0.1; fill:none" points="261.422,1548.12 2352.76,1548.12 "/>
<polyline clip-path="url(#clip653)" style="stroke:#000000; stroke-linecap:round; stroke-linejoin:round; stroke-width:2; stroke-opacity:0.1; fill:none" points="261.422,1318.81 2352.76,1318.81 "/>
<polyline clip-path="url(#clip653)" style="stroke:#000000; stroke-linecap:round; stroke-linejoin:round; stroke-width:2; stroke-opacity:0.1; fill:none" points="261.422,1089.51 2352.76,1089.51 "/>
<polyline clip-path="url(#clip650)" style="stroke:#000000; stroke-linecap:round; stroke-linejoin:round; stroke-width:4; stroke-opacity:1; fill:none" points="261.422,1798.66 261.422,1047.24 "/>
<polyline clip-path="url(#clip650)" style="stroke:#000000; stroke-linecap:round; stroke-linejoin:round; stroke-width:4; stroke-opacity:1; fill:none" points="2352.76,1798.66 2352.76,1047.24 "/>
<polyline clip-path="url(#clip650)" style="stroke:#000000; stroke-linecap:round; stroke-linejoin:round; stroke-width:4; stroke-opacity:1; fill:none" points="261.422,1777.43 280.32,1777.43 "/>
<polyline clip-path="url(#clip650)" style="stroke:#000000; stroke-linecap:round; stroke-linejoin:round; stroke-width:4; stroke-opacity:1; fill:none" points="261.422,1548.12 280.32,1548.12 "/>
<polyline clip-path="url(#clip650)" style="stroke:#000000; stroke-linecap:round; stroke-linejoin:round; stroke-width:4; stroke-opacity:1; fill:none" points="261.422,1318.81 280.32,1318.81 "/>
<polyline clip-path="url(#clip650)" style="stroke:#000000; stroke-linecap:round; stroke-linejoin:round; stroke-width:4; stroke-opacity:1; fill:none" points="261.422,1089.51 280.32,1089.51 "/>
<polyline clip-path="url(#clip650)" style="stroke:#000000; stroke-linecap:round; stroke-linejoin:round; stroke-width:4; stroke-opacity:1; fill:none" points="2352.76,1777.43 2333.86,1777.43 "/>
<polyline clip-path="url(#clip650)" style="stroke:#000000; stroke-linecap:round; stroke-linejoin:round; stroke-width:4; stroke-opacity:1; fill:none" points="2352.76,1548.12 2333.86,1548.12 "/>
<polyline clip-path="url(#clip650)" style="stroke:#000000; stroke-linecap:round; stroke-linejoin:round; stroke-width:4; stroke-opacity:1; fill:none" points="2352.76,1318.81 2333.86,1318.81 "/>
<polyline clip-path="url(#clip650)" style="stroke:#000000; stroke-linecap:round; stroke-linejoin:round; stroke-width:4; stroke-opacity:1; fill:none" points="2352.76,1089.51 2333.86,1089.51 "/>
<path clip-path="url(#clip650)" d="M138.085 1763.23 Q134.473 1763.23 132.645 1766.79 Q130.839 1770.33 130.839 1777.46 Q130.839 1784.57 132.645 1788.13 Q134.473 1791.68 138.085 1791.68 Q141.719 1791.68 143.524 1788.13 Q145.353 1784.57 145.353 1777.46 Q145.353 1770.33 143.524 1766.79 Q141.719 1763.23 138.085 1763.23 M138.085 1759.52 Q143.895 1759.52 146.95 1764.13 Q150.029 1768.71 150.029 1777.46 Q150.029 1786.19 146.95 1790.8 Q143.895 1795.38 138.085 1795.38 Q132.274 1795.38 129.196 1790.8 Q126.14 1786.19 126.14 1777.46 Q126.14 1768.71 129.196 1764.13 Q132.274 1759.52 138.085 1759.52 Z" fill="#000000" fill-rule="nonzero" fill-opacity="1" /><path clip-path="url(#clip650)" d="M158.246 1788.83 L163.131 1788.83 L163.131 1794.71 L158.246 1794.71 L158.246 1788.83 Z" fill="#000000" fill-rule="nonzero" fill-opacity="1" /><path clip-path="url(#clip650)" d="M183.316 1763.23 Q179.705 1763.23 177.876 1766.79 Q176.07 1770.33 176.07 1777.46 Q176.07 1784.57 177.876 1788.13 Q179.705 1791.68 183.316 1791.68 Q186.95 1791.68 188.756 1788.13 Q190.584 1784.57 190.584 1777.46 Q190.584 1770.33 188.756 1766.79 Q186.95 1763.23 183.316 1763.23 M183.316 1759.52 Q189.126 1759.52 192.181 1764.13 Q195.26 1768.71 195.26 1777.46 Q195.26 1786.19 192.181 1790.8 Q189.126 1795.38 183.316 1795.38 Q177.506 1795.38 174.427 1790.8 Q171.371 1786.19 171.371 1777.46 Q171.371 1768.71 174.427 1764.13 Q177.506 1759.52 183.316 1759.52 Z" fill="#000000" fill-rule="nonzero" fill-opacity="1" /><path clip-path="url(#clip650)" d="M213.478 1763.23 Q209.867 1763.23 208.038 1766.79 Q206.232 1770.33 206.232 1777.46 Q206.232 1784.57 208.038 1788.13 Q209.867 1791.68 213.478 1791.68 Q217.112 1791.68 218.917 1788.13 Q220.746 1784.57 220.746 1777.46 Q220.746 1770.33 218.917 1766.79 Q217.112 1763.23 213.478 1763.23 M213.478 1759.52 Q219.288 1759.52 222.343 1764.13 Q225.422 1768.71 225.422 1777.46 Q225.422 1786.19 222.343 1790.8 Q219.288 1795.38 213.478 1795.38 Q207.667 1795.38 204.589 1790.8 Q201.533 1786.19 201.533 1777.46 Q201.533 1768.71 204.589 1764.13 Q207.667 1759.52 213.478 1759.52 Z" fill="#000000" fill-rule="nonzero" fill-opacity="1" /><path clip-path="url(#clip650)" d="M139.08 1533.92 Q135.469 1533.92 133.64 1537.48 Q131.835 1541.03 131.835 1548.16 Q131.835 1555.26 133.64 1558.83 Q135.469 1562.37 139.08 1562.37 Q142.714 1562.37 144.52 1558.83 Q146.348 1555.26 146.348 1548.16 Q146.348 1541.03 144.52 1537.48 Q142.714 1533.92 139.08 1533.92 M139.08 1530.22 Q144.89 1530.22 147.946 1534.82 Q151.024 1539.41 151.024 1548.16 Q151.024 1556.88 147.946 1561.49 Q144.89 1566.07 139.08 1566.07 Q133.27 1566.07 130.191 1561.49 Q127.136 1556.88 127.136 1548.16 Q127.136 1539.41 130.191 1534.82 Q133.27 1530.22 139.08 1530.22 Z" fill="#000000" fill-rule="nonzero" fill-opacity="1" /><path clip-path="url(#clip650)" d="M159.242 1559.52 L164.126 1559.52 L164.126 1565.4 L159.242 1565.4 L159.242 1559.52 Z" fill="#000000" fill-rule="nonzero" fill-opacity="1" /><path clip-path="url(#clip650)" d="M184.311 1533.92 Q180.7 1533.92 178.871 1537.48 Q177.066 1541.03 177.066 1548.16 Q177.066 1555.26 178.871 1558.83 Q180.7 1562.37 184.311 1562.37 Q187.945 1562.37 189.751 1558.83 Q191.58 1555.26 191.58 1548.16 Q191.58 1541.03 189.751 1537.48 Q187.945 1533.92 184.311 1533.92 M184.311 1530.22 Q190.121 1530.22 193.177 1534.82 Q196.256 1539.41 196.256 1548.16 Q196.256 1556.88 193.177 1561.49 Q190.121 1566.07 184.311 1566.07 Q178.501 1566.07 175.422 1561.49 Q172.367 1556.88 172.367 1548.16 Q172.367 1539.41 175.422 1534.82 Q178.501 1530.22 184.311 1530.22 Z" fill="#000000" fill-rule="nonzero" fill-opacity="1" /><path clip-path="url(#clip650)" d="M204.519 1530.84 L222.876 1530.84 L222.876 1534.78 L208.802 1534.78 L208.802 1543.25 Q209.82 1542.9 210.839 1542.74 Q211.857 1542.55 212.876 1542.55 Q218.663 1542.55 222.042 1545.73 Q225.422 1548.9 225.422 1554.31 Q225.422 1559.89 221.95 1562.99 Q218.478 1566.07 212.158 1566.07 Q209.982 1566.07 207.714 1565.7 Q205.468 1565.33 203.061 1564.59 L203.061 1559.89 Q205.144 1561.03 207.367 1561.58 Q209.589 1562.14 212.066 1562.14 Q216.07 1562.14 218.408 1560.03 Q220.746 1557.92 220.746 1554.31 Q220.746 1550.7 218.408 1548.6 Q216.07 1546.49 212.066 1546.49 Q210.191 1546.49 208.316 1546.91 Q206.464 1547.32 204.519 1548.2 L204.519 1530.84 Z" fill="#000000" fill-rule="nonzero" fill-opacity="1" /><path clip-path="url(#clip650)" d="M138.085 1304.61 Q134.473 1304.61 132.645 1308.18 Q130.839 1311.72 130.839 1318.85 Q130.839 1325.96 132.645 1329.52 Q134.473 1333.06 138.085 1333.06 Q141.719 1333.06 143.524 1329.52 Q145.353 1325.96 145.353 1318.85 Q145.353 1311.72 143.524 1308.18 Q141.719 1304.61 138.085 1304.61 M138.085 1300.91 Q143.895 1300.91 146.95 1305.52 Q150.029 1310.1 150.029 1318.85 Q150.029 1327.58 146.95 1332.18 Q143.895 1336.77 138.085 1336.77 Q132.274 1336.77 129.196 1332.18 Q126.14 1327.58 126.14 1318.85 Q126.14 1310.1 129.196 1305.52 Q132.274 1300.91 138.085 1300.91 Z" fill="#000000" fill-rule="nonzero" fill-opacity="1" /><path clip-path="url(#clip650)" d="M158.246 1330.21 L163.131 1330.21 L163.131 1336.09 L158.246 1336.09 L158.246 1330.21 Z" fill="#000000" fill-rule="nonzero" fill-opacity="1" /><path clip-path="url(#clip650)" d="M174.126 1332.16 L181.765 1332.16 L181.765 1305.79 L173.455 1307.46 L173.455 1303.2 L181.719 1301.53 L186.394 1301.53 L186.394 1332.16 L194.033 1332.16 L194.033 1336.09 L174.126 1336.09 L174.126 1332.16 Z" fill="#000000" fill-rule="nonzero" fill-opacity="1" /><path clip-path="url(#clip650)" d="M213.478 1304.61 Q209.867 1304.61 208.038 1308.18 Q206.232 1311.72 206.232 1318.85 Q206.232 1325.96 208.038 1329.52 Q209.867 1333.06 213.478 1333.06 Q217.112 1333.06 218.917 1329.52 Q220.746 1325.96 220.746 1318.85 Q220.746 1311.72 218.917 1308.18 Q217.112 1304.61 213.478 1304.61 M213.478 1300.91 Q219.288 1300.91 222.343 1305.52 Q225.422 1310.1 225.422 1318.85 Q225.422 1327.58 222.343 1332.18 Q219.288 1336.77 213.478 1336.77 Q207.667 1336.77 204.589 1332.18 Q201.533 1327.58 201.533 1318.85 Q201.533 1310.1 204.589 1305.52 Q207.667 1300.91 213.478 1300.91 Z" fill="#000000" fill-rule="nonzero" fill-opacity="1" /><path clip-path="url(#clip650)" d="M139.08 1075.31 Q135.469 1075.31 133.64 1078.87 Q131.835 1082.41 131.835 1089.54 Q131.835 1096.65 133.64 1100.21 Q135.469 1103.75 139.08 1103.75 Q142.714 1103.75 144.52 1100.21 Q146.348 1096.65 146.348 1089.54 Q146.348 1082.41 144.52 1078.87 Q142.714 1075.31 139.08 1075.31 M139.08 1071.6 Q144.89 1071.6 147.946 1076.21 Q151.024 1080.79 151.024 1089.54 Q151.024 1098.27 147.946 1102.87 Q144.89 1107.46 139.08 1107.46 Q133.27 1107.46 130.191 1102.87 Q127.136 1098.27 127.136 1089.54 Q127.136 1080.79 130.191 1076.21 Q133.27 1071.6 139.08 1071.6 Z" fill="#000000" fill-rule="nonzero" fill-opacity="1" /><path clip-path="url(#clip650)" d="M159.242 1100.91 L164.126 1100.91 L164.126 1106.79 L159.242 1106.79 L159.242 1100.91 Z" fill="#000000" fill-rule="nonzero" fill-opacity="1" /><path clip-path="url(#clip650)" d="M175.121 1102.85 L182.76 1102.85 L182.76 1076.49 L174.45 1078.15 L174.45 1073.89 L182.714 1072.23 L187.39 1072.23 L187.39 1102.85 L195.029 1102.85 L195.029 1106.79 L175.121 1106.79 L175.121 1102.85 Z" fill="#000000" fill-rule="nonzero" fill-opacity="1" /><path clip-path="url(#clip650)" d="M204.519 1072.23 L222.876 1072.23 L222.876 1076.16 L208.802 1076.16 L208.802 1084.63 Q209.82 1084.29 210.839 1084.12 Q211.857 1083.94 212.876 1083.94 Q218.663 1083.94 222.042 1087.11 Q225.422 1090.28 225.422 1095.7 Q225.422 1101.28 221.95 1104.38 Q218.478 1107.46 212.158 1107.46 Q209.982 1107.46 207.714 1107.09 Q205.468 1106.72 203.061 1105.98 L203.061 1101.28 Q205.144 1102.41 207.367 1102.97 Q209.589 1103.52 212.066 1103.52 Q216.07 1103.52 218.408 1101.42 Q220.746 1099.31 220.746 1095.7 Q220.746 1092.09 218.408 1089.98 Q216.07 1087.87 212.066 1087.87 Q210.191 1087.87 208.316 1088.29 Q206.464 1088.71 204.519 1089.59 L204.519 1072.23 Z" fill="#000000" fill-rule="nonzero" fill-opacity="1" /><path clip-path="url(#clip650)" d="M32.7247 1513.87 Q32.7247 1520.87 37.9445 1525.01 Q43.1644 1529.12 52.1719 1529.12 Q61.1475 1529.12 66.3674 1525.01 Q71.5873 1520.87 71.5873 1513.87 Q71.5873 1506.87 66.3674 1502.79 Q61.1475 1498.69 52.1719 1498.69 Q43.1644 1498.69 37.9445 1502.79 Q32.7247 1506.87 32.7247 1513.87 M75.0248 1504.86 L84.2869 1496.4 L84.2869 1504.16 L76.6799 1511.2 Q76.7435 1512.25 76.7754 1512.82 Q76.8072 1513.36 76.8072 1513.87 Q76.8072 1523.9 70.1232 1529.91 Q63.4074 1535.9 52.1719 1535.9 Q40.9046 1535.9 34.2206 1529.91 Q27.5048 1523.9 27.5048 1513.87 Q27.5048 1503.88 34.2206 1497.89 Q40.9046 1491.91 52.1719 1491.91 Q60.4473 1491.91 66.3356 1495.25 Q72.2239 1498.56 75.0248 1504.86 Z" fill="#000000" fill-rule="nonzero" fill-opacity="1" /><path clip-path="url(#clip650)" d="M26.359 1461.93 L26.359 1448.43 L30.9104 1448.43 L30.9104 1456.07 L79.9264 1456.07 L79.9264 1448.43 L84.4779 1448.43 L84.4779 1461.93 L26.359 1461.93 Z" fill="#000000" fill-rule="nonzero" fill-opacity="1" /><path clip-path="url(#clip650)" d="M28.3642 1435.7 L28.3642 1427.04 L68.118 1405.97 L28.3642 1405.97 L28.3642 1399.73 L75.8842 1399.73 L75.8842 1408.39 L36.1303 1429.46 L75.8842 1429.46 L75.8842 1435.7 L28.3642 1435.7 Z" fill="#000000" fill-rule="nonzero" fill-opacity="1" /><path clip-path="url(#clip650)" d="M47.0793 1359.44 Q43.1326 1357.24 41.2547 1354.19 Q39.3768 1351.13 39.3768 1346.99 Q39.3768 1341.42 43.2917 1338.4 Q47.1748 1335.38 54.3681 1335.38 L75.8842 1335.38 L75.8842 1341.26 L54.559 1341.26 Q49.4346 1341.26 46.952 1343.08 Q44.4694 1344.89 44.4694 1348.62 Q44.4694 1353.17 47.4931 1355.81 Q50.5168 1358.45 55.7367 1358.45 L75.8842 1358.45 L75.8842 1364.34 L54.559 1364.34 Q49.4028 1364.34 46.952 1366.15 Q44.4694 1367.97 44.4694 1371.76 Q44.4694 1376.24 47.5249 1378.89 Q50.5486 1381.53 55.7367 1381.53 L75.8842 1381.53 L75.8842 1387.42 L40.2362 1387.42 L40.2362 1381.53 L45.7744 1381.53 Q42.496 1379.52 40.9364 1376.72 Q39.3768 1373.92 39.3768 1370.07 Q39.3768 1366.19 41.3502 1363.48 Q43.3236 1360.74 47.0793 1359.44 Z" fill="#000000" fill-rule="nonzero" fill-opacity="1" /><path clip-path="url(#clip650)" d="M26.359 1310.01 L84.4779 1310.01 L84.4779 1323.5 L79.9264 1323.5 L79.9264 1315.9 L30.9104 1315.9 L30.9104 1323.5 L26.359 1323.5 L26.359 1310.01 Z" fill="#000000" fill-rule="nonzero" fill-opacity="1" /><polyline clip-path="url(#clip653)" style="stroke:#009af9; stroke-linecap:round; stroke-linejoin:round; stroke-width:4; stroke-opacity:1; fill:none" points="320.611,1777.39 360.875,1777.29 401.14,1777.11 441.404,1776.87 481.668,1776.55 521.933,1776.17 562.197,1775.71 602.462,1775.19 642.726,1774.59 682.99,1773.92 723.255,1773.19 763.519,1772.38 803.784,1771.5 844.048,1770.56 884.313,1769.54 924.577,1768.46 964.841,1767.3 1005.11,1766.07 1045.37,1764.78 1085.63,1763.41 1125.9,1761.97 1166.16,1760.46 1206.43,1758.89 1246.69,1757.24 1286.96,1755.52 1327.22,1753.73 1367.49,1751.88 1407.75,1749.95 1448.01,1747.95 1488.28,1745.88 1528.54,1743.74 1568.81,1741.54 1609.07,1739.26 1649.34,1736.91 1689.6,1734.49 1729.87,1732 1770.13,1729.44 1810.39,1726.81 1850.66,1724.12 1890.92,1721.35 1931.19,1718.51 1971.45,1715.6 2011.72,1712.62 2051.98,1709.57 2092.25,1706.45 2132.51,1703.26 2172.77,1700 2213.04,1696.67 2253.3,1693.27 2293.57,1689.8 "/>
<polyline clip-path="url(#clip653)" style="stroke:#e26f46; stroke-linecap:round; stroke-linejoin:round; stroke-width:4; stroke-opacity:1; fill:none" points="320.611,1777.14 360.875,1776.29 401.14,1774.88 441.404,1772.89 481.668,1770.34 521.933,1767.22 562.197,1763.53 602.462,1759.28 642.726,1754.46 682.99,1749.07 723.255,1743.12 763.519,1736.59 803.784,1729.51 844.048,1721.85 884.313,1713.63 924.577,1704.84 964.841,1695.48 1005.11,1685.55 1045.37,1675.06 1085.63,1664 1125.9,1652.38 1166.16,1640.18 1206.43,1627.42 1246.69,1614.09 1286.96,1600.2 1327.22,1585.74 1367.49,1570.71 1407.75,1555.11 1448.01,1538.95 1488.28,1522.22 1528.54,1504.92 1568.81,1487.06 1609.07,1468.62 1649.34,1449.62 1689.6,1430.06 1729.87,1409.93 1770.13,1389.23 1810.39,1367.96 1850.66,1346.12 1890.92,1323.72 1931.19,1300.75 1971.45,1277.22 2011.72,1253.11 2051.98,1228.44 2092.25,1203.2 2132.51,1177.4 2172.77,1151.03 2213.04,1124.09 2253.3,1096.58 2293.57,1068.51 "/>
<path clip-path="url(#clip650)" d="M331.133 1227.81 L804.756 1227.81 L804.756 1072.29 L331.133 1072.29  Z" fill="#ffffff" fill-rule="evenodd" fill-opacity="1"/>
<polyline clip-path="url(#clip650)" style="stroke:#000000; stroke-linecap:round; stroke-linejoin:round; stroke-width:4; stroke-opacity:0; fill:none" points="331.133,1227.81 804.756,1227.81 804.756,1072.29 331.133,1072.29 331.133,1227.81 "/>
<polyline clip-path="url(#clip650)" style="stroke:#009af9; stroke-linecap:round; stroke-linejoin:round; stroke-width:4; stroke-opacity:1; fill:none" points="354.37,1124.13 493.792,1124.13 "/>
<path clip-path="url(#clip650)" d="M521.705 1110.69 L521.705 1137.57 L527.354 1137.57 Q534.506 1137.57 537.816 1134.33 Q541.15 1131.09 541.15 1124.1 Q541.15 1117.15 537.816 1113.93 Q534.506 1110.69 527.354 1110.69 L521.705 1110.69 M517.03 1106.85 L526.636 1106.85 Q536.682 1106.85 541.381 1111.04 Q546.08 1115.21 546.08 1124.1 Q546.08 1133.03 541.358 1137.22 Q536.636 1141.41 526.636 1141.41 L517.03 1141.41 L517.03 1106.85 Z" fill="#000000" fill-rule="nonzero" fill-opacity="1" /><path clip-path="url(#clip650)" d="M568.974 1119.88 L598.649 1119.88 L598.649 1123.77 L568.974 1123.77 L568.974 1119.88 M568.974 1129.33 L598.649 1129.33 L598.649 1133.26 L568.974 1133.26 L568.974 1129.33 Z" fill="#000000" fill-rule="nonzero" fill-opacity="1" /><path clip-path="url(#clip650)" d="M633.811 1109.93 Q630.2 1109.93 628.372 1113.49 Q626.566 1117.04 626.566 1124.17 Q626.566 1131.27 628.372 1134.84 Q630.2 1138.38 633.811 1138.38 Q637.446 1138.38 639.251 1134.84 Q641.08 1131.27 641.08 1124.17 Q641.08 1117.04 639.251 1113.49 Q637.446 1109.93 633.811 1109.93 M633.811 1106.23 Q639.621 1106.23 642.677 1110.83 Q645.756 1115.42 645.756 1124.17 Q645.756 1132.89 642.677 1137.5 Q639.621 1142.08 633.811 1142.08 Q628.001 1142.08 624.922 1137.5 Q621.867 1132.89 621.867 1124.17 Q621.867 1115.42 624.922 1110.83 Q628.001 1106.23 633.811 1106.23 Z" fill="#000000" fill-rule="nonzero" fill-opacity="1" /><path clip-path="url(#clip650)" d="M653.973 1135.53 L658.857 1135.53 L658.857 1141.41 L653.973 1141.41 L653.973 1135.53 Z" fill="#000000" fill-rule="nonzero" fill-opacity="1" /><path clip-path="url(#clip650)" d="M669.853 1137.48 L677.492 1137.48 L677.492 1111.11 L669.181 1112.78 L669.181 1108.52 L677.445 1106.85 L682.121 1106.85 L682.121 1137.48 L689.76 1137.48 L689.76 1141.41 L669.853 1141.41 L669.853 1137.48 Z" fill="#000000" fill-rule="nonzero" fill-opacity="1" /><path clip-path="url(#clip650)" d="M699.251 1106.85 L717.607 1106.85 L717.607 1110.79 L703.533 1110.79 L703.533 1119.26 Q704.552 1118.91 705.57 1118.75 Q706.589 1118.56 707.607 1118.56 Q713.394 1118.56 716.774 1121.74 Q720.153 1124.91 720.153 1130.32 Q720.153 1135.9 716.681 1139 Q713.209 1142.08 706.89 1142.08 Q704.714 1142.08 702.445 1141.71 Q700.2 1141.34 697.792 1140.6 L697.792 1135.9 Q699.876 1137.04 702.098 1137.59 Q704.32 1138.15 706.797 1138.15 Q710.802 1138.15 713.14 1136.04 Q715.478 1133.93 715.478 1130.32 Q715.478 1126.71 713.14 1124.61 Q710.802 1122.5 706.797 1122.5 Q704.922 1122.5 703.047 1122.92 Q701.195 1123.33 699.251 1124.21 L699.251 1106.85 Z" fill="#000000" fill-rule="nonzero" fill-opacity="1" /><path clip-path="url(#clip650)" d="M764.019 1120.46 Q765.616 1117.59 767.838 1116.23 Q770.061 1114.86 773.07 1114.86 Q777.121 1114.86 779.32 1117.71 Q781.519 1120.53 781.519 1125.76 L781.519 1141.41 L777.236 1141.41 L777.236 1125.9 Q777.236 1122.18 775.917 1120.37 Q774.598 1118.56 771.889 1118.56 Q768.579 1118.56 766.658 1120.76 Q764.737 1122.96 764.737 1126.76 L764.737 1141.41 L760.454 1141.41 L760.454 1125.9 Q760.454 1122.15 759.135 1120.37 Q757.815 1118.56 755.061 1118.56 Q751.797 1118.56 749.875 1120.79 Q747.954 1122.99 747.954 1126.76 L747.954 1141.41 L743.672 1141.41 L743.672 1115.49 L747.954 1115.49 L747.954 1119.51 Q749.413 1117.13 751.45 1115.99 Q753.487 1114.86 756.287 1114.86 Q759.112 1114.86 761.079 1116.3 Q763.07 1117.73 764.019 1120.46 Z" fill="#000000" fill-rule="nonzero" fill-opacity="1" /><polyline clip-path="url(#clip650)" style="stroke:#e26f46; stroke-linecap:round; stroke-linejoin:round; stroke-width:4; stroke-opacity:1; fill:none" points="354.37,1175.97 493.792,1175.97 "/>
<path clip-path="url(#clip650)" d="M521.705 1162.53 L521.705 1189.41 L527.354 1189.41 Q534.506 1189.41 537.816 1186.17 Q541.15 1182.93 541.15 1175.94 Q541.15 1168.99 537.816 1165.77 Q534.506 1162.53 527.354 1162.53 L521.705 1162.53 M517.03 1158.69 L526.636 1158.69 Q536.682 1158.69 541.381 1162.88 Q546.08 1167.05 546.08 1175.94 Q546.08 1184.87 541.358 1189.06 Q536.636 1193.25 526.636 1193.25 L517.03 1193.25 L517.03 1158.69 Z" fill="#000000" fill-rule="nonzero" fill-opacity="1" /><path clip-path="url(#clip650)" d="M568.974 1171.72 L598.649 1171.72 L598.649 1175.61 L568.974 1175.61 L568.974 1171.72 M568.974 1181.17 L598.649 1181.17 L598.649 1185.1 L568.974 1185.1 L568.974 1181.17 Z" fill="#000000" fill-rule="nonzero" fill-opacity="1" /><path clip-path="url(#clip650)" d="M633.811 1161.77 Q630.2 1161.77 628.372 1165.33 Q626.566 1168.88 626.566 1176.01 Q626.566 1183.11 628.372 1186.68 Q630.2 1190.22 633.811 1190.22 Q637.446 1190.22 639.251 1186.68 Q641.08 1183.11 641.08 1176.01 Q641.08 1168.88 639.251 1165.33 Q637.446 1161.77 633.811 1161.77 M633.811 1158.07 Q639.621 1158.07 642.677 1162.67 Q645.756 1167.26 645.756 1176.01 Q645.756 1184.73 642.677 1189.34 Q639.621 1193.92 633.811 1193.92 Q628.001 1193.92 624.922 1189.34 Q621.867 1184.73 621.867 1176.01 Q621.867 1167.26 624.922 1162.67 Q628.001 1158.07 633.811 1158.07 Z" fill="#000000" fill-rule="nonzero" fill-opacity="1" /><path clip-path="url(#clip650)" d="M653.973 1187.37 L658.857 1187.37 L658.857 1193.25 L653.973 1193.25 L653.973 1187.37 Z" fill="#000000" fill-rule="nonzero" fill-opacity="1" /><path clip-path="url(#clip650)" d="M673.07 1189.32 L689.39 1189.32 L689.39 1193.25 L667.445 1193.25 L667.445 1189.32 Q670.107 1186.56 674.691 1181.93 Q679.297 1177.28 680.478 1175.94 Q682.723 1173.41 683.603 1171.68 Q684.505 1169.92 684.505 1168.23 Q684.505 1165.47 682.561 1163.74 Q680.64 1162 677.538 1162 Q675.339 1162 672.885 1162.77 Q670.455 1163.53 667.677 1165.08 L667.677 1160.36 Q670.501 1159.22 672.955 1158.64 Q675.408 1158.07 677.445 1158.07 Q682.816 1158.07 686.01 1160.75 Q689.205 1163.44 689.205 1167.93 Q689.205 1170.06 688.394 1171.98 Q687.607 1173.88 685.501 1176.47 Q684.922 1177.14 681.82 1180.36 Q678.718 1183.55 673.07 1189.32 Z" fill="#000000" fill-rule="nonzero" fill-opacity="1" /><path clip-path="url(#clip650)" d="M699.251 1158.69 L717.607 1158.69 L717.607 1162.63 L703.533 1162.63 L703.533 1171.1 Q704.552 1170.75 705.57 1170.59 Q706.589 1170.4 707.607 1170.4 Q713.394 1170.4 716.774 1173.58 Q720.153 1176.75 720.153 1182.16 Q720.153 1187.74 716.681 1190.84 Q713.209 1193.92 706.89 1193.92 Q704.714 1193.92 702.445 1193.55 Q700.2 1193.18 697.792 1192.44 L697.792 1187.74 Q699.876 1188.88 702.098 1189.43 Q704.32 1189.99 706.797 1189.99 Q710.802 1189.99 713.14 1187.88 Q715.478 1185.77 715.478 1182.16 Q715.478 1178.55 713.14 1176.45 Q710.802 1174.34 706.797 1174.34 Q704.922 1174.34 703.047 1174.76 Q701.195 1175.17 699.251 1176.05 L699.251 1158.69 Z" fill="#000000" fill-rule="nonzero" fill-opacity="1" /><path clip-path="url(#clip650)" d="M764.019 1172.3 Q765.616 1169.43 767.838 1168.07 Q770.061 1166.7 773.07 1166.7 Q777.121 1166.7 779.32 1169.55 Q781.519 1172.37 781.519 1177.6 L781.519 1193.25 L777.236 1193.25 L777.236 1177.74 Q777.236 1174.02 775.917 1172.21 Q774.598 1170.4 771.889 1170.4 Q768.579 1170.4 766.658 1172.6 Q764.737 1174.8 764.737 1178.6 L764.737 1193.25 L760.454 1193.25 L760.454 1177.74 Q760.454 1173.99 759.135 1172.21 Q757.815 1170.4 755.061 1170.4 Q751.797 1170.4 749.875 1172.63 Q747.954 1174.83 747.954 1178.6 L747.954 1193.25 L743.672 1193.25 L743.672 1167.33 L747.954 1167.33 L747.954 1171.35 Q749.413 1168.97 751.45 1167.83 Q753.487 1166.7 756.287 1166.7 Q759.112 1166.7 761.079 1168.14 Q763.07 1169.57 764.019 1172.3 Z" fill="#000000" fill-rule="nonzero" fill-opacity="1" /></svg>
